<svg width="48" height="48" viewBox="0 0 48 48" fill="none" xmlns="http://www.w3.org/2000/svg">
<mask id="mask0_439_2714" style="mask-type:alpha" maskUnits="userSpaceOnUse" x="0" y="0" width="49" height="48">
<path fill-rule="evenodd" clip-rule="evenodd" d="M11.9302 0.0210759L13.9835 0L35.3475 0.00824896C35.6715 0.0115492 35.8728 0.0156005 36.0743 0.0210759C37.1335 0.0492031 38.2019 0.111234 39.2493 0.297323C40.3127 0.485888 41.3015 0.794386 42.2669 1.28072C43.2157 1.75791 44.0849 2.38151 44.8379 3.12676C45.5909 3.87022 46.2217 4.72874 46.7044 5.66743C47.1971 6.62271 47.5084 7.60033 47.6992 8.65154C47.8874 9.68699 47.9501 10.7431 47.9785 11.7902C47.992 12.2707 47.9978 12.7513 48.0003 13.2326L48.0032 14.0883L48.0037 33.0516C48.0037 33.6223 48.0037 34.1929 48.0003 34.7645C47.9978 35.245 47.992 35.7255 47.9785 36.206C47.9501 37.2523 47.8874 38.3093 47.6992 39.3439C47.5084 40.3951 47.1971 41.3735 46.7044 42.3288C46.2217 43.2667 45.5909 44.1252 44.8379 44.8696C44.0849 45.6139 43.2157 46.2383 42.2669 46.7155C41.3015 47.2019 40.3127 47.5104 39.2493 47.6989C38.2019 47.885 37.1335 47.947 36.0743 47.9752L32.8834 48L12.6564 47.988C12.3324 47.9847 12.1314 47.9807 11.9302 47.9752C10.871 47.947 9.80265 47.885 8.75519 47.6989C7.69191 47.5104 6.70304 47.2019 5.73757 46.7155C4.78799 46.2383 3.91958 45.6139 3.16659 44.8696C2.41369 44.1252 1.78281 43.2667 1.29925 42.3288C0.807362 41.3735 0.496087 40.3951 0.304522 39.3439C0.116258 38.3093 0.0543786 37.2523 0.0259515 36.206C0.0125254 35.7255 0.00667549 35.245 0.0042003 34.7645L0.000526469 33.9077L0 14.9447C0 14.3739 -1.81622e-08 13.8025 0.0042003 13.2326C0.00667549 12.7513 0.0125254 12.2707 0.0259515 11.7902C0.0543786 10.7431 0.116258 9.68699 0.304522 8.65154C0.496087 7.60033 0.807362 6.62271 1.29925 5.66743C1.78281 4.72874 2.41369 3.87022 3.16659 3.12676C3.91958 2.38151 4.78799 1.75791 5.73757 1.28072C6.70304 0.794386 7.69191 0.485888 8.75519 0.297323C9.80265 0.111234 10.871 0.0492031 11.9302 0.0210759Z" fill="white"/>
</mask>
<g mask="url(#mask0_439_2714)">
<path d="M48.0037 -0.00366211H0V48H48.0037V-0.00366211Z" fill="#19AA1E"/>
<path fill-rule="evenodd" clip-rule="evenodd" d="M0 -0.00366211H48.0037V15.7475L0 8.24697V-0.00366211Z" fill="#FFB919"/>
<path fill-rule="evenodd" clip-rule="evenodd" d="M0 42.7496L48.0037 35.249V48H0V42.7496Z" fill="#82D714"/>
<path fill-rule="evenodd" clip-rule="evenodd" d="M0 7.2981L16.7561 9.91617C18.8419 8.59584 21.3234 7.87196 24.0018 7.87196C27.7116 7.87196 31.0436 9.26069 33.4697 11.6993C33.7759 12.007 34.0647 12.3288 34.3355 12.663L48.0037 14.7986V16.6965L35.7234 14.7777C36.6357 16.5285 37.1278 18.4792 37.1278 20.4699C37.1278 23.0417 36.5525 25.606 35.3635 28.1804L35.3273 28.2585L34.8222 29.3406H33.628C31.162 29.3406 29.5262 30.0783 28.4568 31.3856C27.617 32.412 27.1315 33.7958 26.9681 35.3055L26.9631 35.3527L26.9392 35.5939L26.9291 35.6989L26.9097 35.9042C26.8472 36.5782 26.8053 37.1499 26.7841 37.6157L48.0037 34.3001V36.198L0 43.6985V41.8007L21.2435 38.4814L21.2341 38.0553L21.2314 37.9351L21.2296 37.8735L21.2263 37.7784C21.2071 37.2618 21.1598 36.5995 21.084 35.7968L21.0694 35.6446L21.0435 35.3811C20.891 33.8633 20.4127 32.4621 19.5752 31.4204C18.5169 30.1042 16.8962 29.3557 14.45 29.3409L14.3757 29.3406H13.1814L12.6764 28.2585C11.4628 25.6578 10.8758 23.0678 10.8758 20.4699C10.8758 17.2031 12.2012 14.044 14.5339 11.6993C14.6013 11.6316 14.6693 11.5647 14.738 11.4987L0 9.19589V7.2981Z" fill="white"/>
<path fill-rule="evenodd" clip-rule="evenodd" d="M24.0018 9.74707C30.7036 9.74707 35.2527 14.9054 35.2527 20.4699C35.2527 22.7039 34.7653 25.0284 33.628 27.4655C27.0335 27.4655 25.4057 32.1881 25.098 35.1595L25.0782 35.3576C24.974 36.4181 24.9136 37.269 24.8972 37.9105L23.111 38.1896L23.1105 38.1318C23.1038 37.4594 23.0403 36.5161 22.92 35.302L22.9146 35.249C22.6304 32.284 21.0368 27.4655 14.3757 27.4655C13.2384 25.0284 12.751 22.7039 12.751 20.4699C12.751 14.9054 17.3001 9.74707 24.0018 9.74707Z" fill="#0073FA"/>
</g>
</svg>
