<svg width="48" height="48" viewBox="0 0 48 48" fill="none" xmlns="http://www.w3.org/2000/svg">
<rect width="48.0037" height="48" rx="24" fill="white"/>
<path d="M19 38C14.0294 38 10 33.9706 10 29C10 24.0294 14.0294 20 19 20C23.9706 20 28 24.0294 28 29C28 33.9706 23.9706 38 19 38Z" fill="#04E061"/>
<path d="M21 19C19.3431 19 18 17.6569 18 16C18 14.3431 19.3431 13 21 13C22.6569 13 24 14.3431 24 16C24 17.6569 22.6569 19 21 19Z" fill="#A169F7"/>
<path d="M34 34C31.2386 34 29 31.7614 29 29C29 26.2386 31.2386 24 34 24C36.7614 24 39 26.2386 39 29C39 31.7614 36.7614 34 34 34Z" fill="#FF6163"/>
<path d="M31.5907 23.1818C27.9507 23.1818 24.9998 20.231 24.9998 16.5909C24.9998 12.9509 27.9507 10 31.5907 10C35.2308 10 38.1816 12.9509 38.1816 16.5909C38.1816 20.231 35.2308 23.1818 31.5907 23.1818Z" fill="#00AAFF"/>
</svg>
