<svg width="49" height="49" viewBox="0 0 49 49" fill="none" xmlns="http://www.w3.org/2000/svg">
<path d="M24.0272 48.062C37.2993 48.062 48.0584 37.3029 48.0584 24.031C48.0584 10.759 37.2993 0 24.0272 0C10.7552 0 -0.00390625 10.759 -0.00390625 24.031C-0.00390625 37.3029 10.7552 48.062 24.0272 48.062Z" fill="#CE2457"/>
<path fill-rule="evenodd" clip-rule="evenodd" d="M22.8423 9.57809C15.392 10.1874 9.53564 16.4269 9.53564 24.0343C9.53564 32.0453 16.0299 38.5394 24.0407 38.5394C32.0516 38.5394 38.5458 32.0453 38.5458 24.0343C38.5458 16.426 32.6881 10.186 25.2366 9.57788L24.8458 19.1052C27.2209 19.4901 29.0344 21.5505 29.0344 24.0343C29.0344 26.7923 26.7986 29.028 24.0407 29.028C21.2827 29.028 19.0469 26.7923 19.0469 24.0343C19.0469 21.5513 20.8592 19.4916 23.2331 19.1056L22.8423 9.57809Z" fill="white"/>
<path d="M24.0249 8.56153C25.7541 8.56153 27.1558 7.1598 27.1558 5.43067C27.1558 3.70154 25.7541 2.2998 24.0249 2.2998C22.2958 2.2998 20.894 3.70154 20.894 5.43067C20.894 7.1598 22.2958 8.56153 24.0249 8.56153Z" fill="white"/>
</svg>
