<svg width="48" height="48" viewBox="0 0 48 48" fill="none" xmlns="http://www.w3.org/2000/svg">
<rect width="48.0037" height="48" rx="24" fill="#005BFF"/>
<path d="M20.7227 25.9301H17.2764L21.6761 20.1117C21.772 19.9839 21.7454 19.7976 21.6175 19.7018C21.5696 19.6645 21.5057 19.6433 21.4417 19.6433H15.0766C14.5173 19.6433 14.0592 20.1011 14.0592 20.66C14.0592 21.2189 14.5173 21.6768 15.0766 21.6768H17.9369L13.5212 27.5004C13.42 27.6282 13.4466 27.8092 13.5745 27.9103C13.6277 27.9529 13.6917 27.9742 13.7556 27.9689H20.7173C21.2766 27.9423 21.7081 27.4632 21.6814 26.8989C21.6548 26.3772 21.2393 25.962 20.7173 25.9354V25.9301H20.7227ZM42.9662 19.6433C42.4069 19.6433 41.9489 20.1011 41.9489 20.66V24.0722L36.4519 19.7125C36.3294 19.6113 36.143 19.6273 36.0418 19.755C35.9991 19.8083 35.9778 19.8722 35.9778 19.9414V26.9521C35.9778 27.5111 36.4359 27.9689 36.9952 27.9689C37.5545 27.9689 38.0126 27.5164 38.0126 26.9521V23.5399L43.5095 27.905C43.6374 28.0062 43.8238 27.9849 43.925 27.8571C43.9676 27.8039 43.9889 27.74 43.9889 27.6761V20.66C43.9836 20.0957 43.5308 19.6433 42.9662 19.6433ZM28.4195 26.1217C26.0918 26.1217 24.3554 24.8974 24.3554 23.8008C24.3554 22.7042 26.0971 21.4798 28.4195 21.4798C30.7472 21.4798 32.4836 22.7042 32.4836 23.8008C32.4836 24.8974 30.7525 26.1217 28.4195 26.1217ZM28.4195 19.4463C25.0531 19.4463 22.3206 21.3946 22.3206 23.8008C22.3206 26.2069 25.0531 28.1552 28.4195 28.1552C31.7859 28.1552 34.5184 26.2069 34.5184 23.8008C34.5184 21.3946 31.7859 19.4463 28.4195 19.4463ZM8.39709 26.127C7.1134 26.127 6.0694 25.089 6.0694 23.8061C6.0694 22.5232 7.10807 21.4798 8.39176 21.4798C9.67546 21.4798 10.7195 22.5178 10.7195 23.8008V23.8061C10.7195 25.0837 9.68078 26.1217 8.39709 26.127ZM8.39709 19.4463C5.9895 19.4463 4.03999 21.3946 4.03467 23.8008C4.03467 26.2069 5.98418 28.1552 8.39176 28.1605C10.7994 28.1605 12.7489 26.2122 12.7542 23.8061V23.8008C12.7489 21.3946 10.7994 19.4463 8.39709 19.4463Z" fill="white"/>
</svg>
