<svg width="49" height="49" viewBox="0 0 49 49" fill="none" xmlns="http://www.w3.org/2000/svg">
<path d="M24.0773 0.879883C10.7873 0.879883 0.00732422 11.6199 0.00732422 24.8199C0.00732422 38.0599 10.7873 48.7699 24.0773 48.7699C37.3173 48.7699 48.0973 38.0599 48.0973 24.8199C48.0973 11.6199 37.3173 0.879883 24.0773 0.879883ZM27.1873 39.0499V14.4099H24.9773C20.9173 14.4099 18.7873 16.4599 18.7873 19.4899C18.7873 22.9399 20.2573 24.5299 23.2973 26.5799L25.7973 28.2699L18.5773 39.0499H13.2073L19.6873 29.4099C15.9573 26.7499 13.8673 24.1599 13.8673 19.7799C13.8673 14.2799 17.6773 10.5499 24.9373 10.5499H32.1473V39.0499H27.1873Z" fill="#FC3F1D"/>
<path d="M27.1873 39.0499V14.4099H24.9773C20.9173 14.4099 18.7873 16.4599 18.7873 19.4899C18.7873 22.9399 20.2573 24.5299 23.2973 26.5799L25.7973 28.2699L18.5773 39.0499H13.2073L19.6873 29.4099C15.9573 26.7499 13.8673 24.1599 13.8673 19.7799C13.8673 14.2799 17.6773 10.5499 24.9373 10.5499H32.1473V39.0499H27.1873Z" fill="white"/>
</svg>
