<svg width="103" height="19" viewBox="0 0 103 19" fill="none" xmlns="http://www.w3.org/2000/svg"><path d="M6.792 5.153c-3.424 1.634-2.422 6.953-2.496 9.88-.025.752-.408 1.192-1.15 1.321a.652.652 0 0 1-.307-.018c-.65-.167-.983-.582-1.002-1.247a80.036 80.036 0 0 1 .028-6.353C2.162 2.76 8.778.462 13.594 3.638c.65.425.74.948.269 1.57l-.278.37c-.347.455-.758.529-1.235.221-1.942-1.268-3.795-1.484-5.558-.646ZM19.589 11.192a2.97 2.97 0 0 0 1.002 1.422c2.233 1.742 4.47 1.715 6.709-.083a.993.993 0 0 1 .514-.215c.19-.021.381.012.553.095.31.154.535.388.677.702.26.566.152 1.046-.325 1.44-4.38 3.593-10.699 1.672-11.942-3.933-.993-4.498 2.756-8.708 7.34-8.487 3.384.166 5.65 2.004 6.802 5.513.491 1.524-.464 2.964-2.098 2.964-3.006-.006-5.929-.027-8.769-.064-.457 0-.612.215-.463.646Zm.083-3.186 8.37-.037a.12.12 0 0 0 .12-.12v-.064a2.389 2.389 0 0 0-.326-1.18 3.228 3.228 0 0 0-.92-.997 4.556 4.556 0 0 0-1.37-.662 5.58 5.58 0 0 0-1.615-.227h-.185c-1.117.005-2.186.335-2.973.917-.786.582-1.226 1.368-1.222 2.186v.064a.12.12 0 0 0 .121.12ZM41.785 16.345c-3.74-.01-6.858-2.835-7.192-6.372-.185-1.92-.21-4.17-.074-6.75a.927.927 0 0 1 .093-.363.964.964 0 0 1 .232-.302c.359-.326.711-.44 1.058-.342.791.21 1.181.72 1.169 1.533-.037 3.51-1.077 10.075 4.658 10.056 7.386-.03 15.227-.033 23.523-.009.854 0 1.349.422 1.485 1.265.062.407-.26.795-.965 1.164-.165.079-.346.12-.53.12-7.794.012-15.613.012-23.457 0ZM79.69 15.098c-6.096 3.953-13.752-2.207-10.643-8.828 2.988-6.353 12.156-5.134 13.53 1.672.308 1.57.37 3.863.185 6.88-.031.449-.164.821-.4 1.117-.284.35-.658.48-1.122.387a.984.984 0 0 1-.668-.498l-.316-.591c-.136-.246-.324-.293-.566-.139Zm.492-5.873a4.597 4.597 0 0 0-1.356-3.258 4.642 4.642 0 0 0-3.274-1.35 4.642 4.642 0 0 0-3.274 1.35 4.597 4.597 0 0 0-1.357 3.258c0 1.222.488 2.394 1.357 3.258a4.642 4.642 0 0 0 3.274 1.35 4.642 4.642 0 0 0 3.274-1.35 4.597 4.597 0 0 0 1.356-3.258Z" fill="#2F2F2F"/><path d="M41.905 11.894a2.601 2.601 0 0 0 2.608-2.595 2.601 2.601 0 0 0-2.608-2.595A2.601 2.601 0 0 0 39.298 9.3a2.601 2.601 0 0 0 2.607 2.595Z" fill="#2F2F2F"/><path fill-rule="evenodd" clip-rule="evenodd" d="M87.333 1.954a1.164 1.164 0 0 1 1.64 0l5.304 5.279 5.305-5.279a1.164 1.164 0 0 1 1.64 0 1.15 1.15 0 0 1 0 1.633l-5.304 5.278 5.304 5.279a1.15 1.15 0 0 1 0 1.632c-.453.45-1.187.45-1.64 0l-5.305-5.278-5.304 5.278c-.453.45-1.187.45-1.64 0a1.15 1.15 0 0 1 0-1.632l5.304-5.279-5.304-5.279a1.15 1.15 0 0 1 0-1.632Z" fill="#2F2F2F"/></svg>