<svg width="20" height="20" viewBox="0 0 20 20" fill="none" xmlns="http://www.w3.org/2000/svg"><path d="M5 8.21c0 3.417 3.032 6.243 4.374 7.327.192.155.289.233.432.273a.818.818 0 0 0 .388 0c.143-.04.24-.117.432-.273C11.968 14.453 15 11.627 15 8.21a4.817 4.817 0 0 0-1.464-3.448A5.065 5.065 0 0 0 10 3.333a5.065 5.065 0 0 0-3.536 1.429A4.816 4.816 0 0 0 5 8.21Z" stroke="#111" stroke-width="1.3" stroke-linecap="round" stroke-linejoin="round"/><path d="M8.571 7.56c0 .778.64 1.408 1.429 1.408s1.429-.63 1.429-1.408c0-.778-.64-1.41-1.429-1.41s-1.429.632-1.429 1.41Z" stroke="#111" stroke-width="1.3" stroke-linecap="round" stroke-linejoin="round"/></svg>