<svg width="20" height="20" viewBox="0 0 20 20" fill="none" xmlns="http://www.w3.org/2000/svg"><path d="M8.38 4.982a1.296 1.296 0 0 0-1.203-.815H5.395c-.679 0-1.228.55-1.228 1.228 0 5.765 4.673 10.438 10.438 10.438.678 0 1.228-.55 1.228-1.228v-1.783c0-.53-.322-1.007-.815-1.204l-1.708-.683a1.296 1.296 0 0 0-1.312.208l-.44.368a1.297 1.297 0 0 1-1.747-.08L8.569 10.19a1.296 1.296 0 0 1-.08-1.747l.368-.44c.304-.366.385-.87.208-1.312L8.38 4.982Z" stroke="#111" stroke-width="1.3" stroke-linecap="round" stroke-linejoin="round"/></svg>