<svg width="20" height="21" viewBox="0 0 20 21" fill="none" xmlns="http://www.w3.org/2000/svg"><path d="M7.5 5.5 10 3m0 0 2.5 2.5M10 3v8.333m-4.167-2.5c-.776 0-1.165 0-1.47.127-.41.17-.734.494-.903.902-.127.307-.127.695-.127 1.471v4c0 .934 0 1.4.182 1.757.16.313.414.569.728.729.356.181.822.181 1.754.181h8.006c.931 0 1.397 0 1.753-.181.314-.16.57-.416.729-.73.181-.355.181-.822.181-1.753v-4.003c0-.776 0-1.164-.127-1.47a1.667 1.667 0 0 0-.902-.903c-.306-.127-.694-.127-1.47-.127" stroke="#333" stroke-width="1.3" stroke-linecap="round" stroke-linejoin="round"/></svg>