<svg width="21" height="21" viewBox="0 0 21 21" fill="none" xmlns="http://www.w3.org/2000/svg"><path fill-rule="evenodd" clip-rule="evenodd" d="M10.498 1.958c.238 0 .455.134.561.348l2.435 4.905 5.43.792a.625.625 0 0 1 .346 1.065l-3.948 3.867.938 5.374a.625.625 0 0 1-.91.66l-4.85-2.586-4.85 2.585a.625.625 0 0 1-.91-.66l.945-5.373L1.73 9.068a.625.625 0 0 1 .347-1.065l5.46-.792L9.937 2.31a.625.625 0 0 1 .56-.35Zm.005 2.039-1.99 4.06a.625.625 0 0 1-.471.344l-4.534.658 3.287 3.213a.625.625 0 0 1 .178.555l-.78 4.435 4.012-2.139a.625.625 0 0 1 .588 0l4.015 2.14-.774-4.437a.625.625 0 0 1 .178-.554l3.282-3.214L12.99 8.4a.625.625 0 0 1-.47-.34l-2.016-4.064Z" fill="#333"/></svg>