<svg width="48" height="48" viewBox="0 0 48 48" fill="none" xmlns="http://www.w3.org/2000/svg"><circle cx="24" cy="24" r="24" fill="#7C509A"/><path d="M31.505 12.655a37.179 37.179 0 0 0-13.898 0c-2.023.437-4.573 2.883-5.013 4.804a27.444 27.444 0 0 0 0 11.355c.527 1.922 3.078 4.367 5.013 4.804.088 0 .176.087.176.175v5.503c0 .262.352.436.528.174l2.639-2.707s2.11-2.184 2.463-2.533c0 0 .087-.088.175-.088 2.64.088 5.366-.174 8.005-.611 2.023-.437 4.573-2.883 5.013-4.804.792-3.756.792-7.6 0-11.355-.528-1.835-3.078-4.28-5.101-4.717Zm.088 16.421c-.44.874-.968 1.572-1.847 2.01l-.792.261a11.138 11.138 0 0 1-.88-.262c-2.814-1.135-5.453-2.708-7.564-4.979-1.144-1.31-2.111-2.795-2.903-4.367-.351-.786-.703-1.485-.967-2.27-.264-.7.176-1.398.616-1.922.44-.525.967-.874 1.583-1.136.44-.262.88-.087 1.231.262.704.874 1.407 1.747 1.935 2.708.352.611.264 1.31-.352 1.747-.175.087-.263.174-.44.35-.087.086-.263.174-.351.348-.176.262-.176.524-.088.787.703 2.009 2.023 3.58 4.046 4.454.352.175.616.262 1.055.262.616-.087.88-.786 1.32-1.135.44-.35.967-.35 1.495-.088.44.262.88.612 1.407.961.44.35.88.612 1.32.961.264.175.352.612.176 1.048Zm-3.695-6.55c-.175 0-.087 0 0 0-.351 0-.44-.175-.527-.438 0-.174 0-.436-.088-.61-.088-.35-.264-.7-.616-.962l-.528-.262c-.264-.087-.44-.087-.703-.087-.264-.088-.352-.262-.352-.524 0-.175.264-.35.44-.35 1.407.088 2.462.874 2.638 2.533v.35c0 .175-.088.35-.264.35Zm-.88-3.844c-.439-.175-.879-.35-1.407-.437-.175 0-.44-.087-.615-.087-.264 0-.44-.175-.352-.437 0-.262.176-.437.44-.35.88.088 1.671.263 2.463.612 1.583.786 2.462 2.096 2.726 3.843V22.962c-.088.35-.703.437-.791 0 0-.087-.088-.262-.088-.35 0-.786-.176-1.572-.528-2.27-.528-.787-1.143-1.31-1.847-1.66Zm4.75 5.24c-.263 0-.44-.261-.44-.523 0-.524-.087-1.049-.175-1.573-.352-2.795-2.639-5.066-5.366-5.502-.44-.088-.88-.088-1.231-.175-.264 0-.616 0-.704-.35-.088-.261.176-.524.44-.524h.176c.176 0 3.606.088 0 0 3.694.088 6.773 2.533 7.389 6.202.088.611.175 1.223.175 1.922.176.262 0 .524-.263.524Z" fill="#fff"/></svg>