<svg width="96" height="96" viewBox="0 0 96 96" fill="none" xmlns="http://www.w3.org/2000/svg"><g clip-path="url(#a)" fill="#349FEC"><path d="m6.145 43.8.73-2.761c.121-.46.257-.845.406-1.153a2.15 2.15 0 0 1 .56-.75c.188-.162.409-.268.663-.317.256-.057.538-.046.845.035.713.189 1.138.644 1.275 1.366.237-.459.542-.755.916-.888a1.932 1.932 0 0 1 1.168-.038c.377.109.671.254.884.436.204.18.367.401.49.665.117.253.184.546.202.88a3.5 3.5 0 0 1-.126 1.08l-.88 3.33L6.145 43.8Zm1.326-.91 2.03.537.262-.988c.06-.225.116-.457.169-.694.043-.239.058-.457.042-.654a1.365 1.365 0 0 0-.201-.662.902.902 0 0 0-.518-.397c-.262-.07-.467-.061-.615.025a.929.929 0 0 0-.378.335 1.724 1.724 0 0 0-.248.5c-.059.186-.11.361-.153.523l-.39 1.476Zm5.116 1.353.498-1.881c.055-.208.093-.41.116-.607a1.7 1.7 0 0 0-.012-.553 1.049 1.049 0 0 0-.232-.438 1.022 1.022 0 0 0-.475-.285c-.27-.072-.5-.064-.686.021a1.09 1.09 0 0 0-.488.422c-.102.166-.187.36-.256.584a18.16 18.16 0 0 0-.2.7l-.376 1.479 2.111.558ZM15.76 37.65l-.523 1.038-6.588-3.323.536-1.062 5.05 2.547a2.797 2.797 0 0 1-.255-.427c-.091-.171-.16-.305-.205-.401l-2.742-5.382.529-1.05 6.588 3.323-.536 1.062-5.05-2.547c.091.13.174.266.249.408.07.13.13.249.18.358l2.767 5.456ZM22.712 21.132a3.5 3.5 0 0 0 .716.595c.255.144.52.239.793.285.274.046.555.034.842-.038.29-.085.578-.24.864-.464.14-.11.274-.233.404-.37.13-.15.24-.307.325-.47.08-.17.132-.346.154-.53a1.244 1.244 0 0 0-.063-.556l.959-.752c.153.331.229.663.229.995a2.48 2.48 0 0 1-.164.948c-.11.3-.27.585-.483.859a4.702 4.702 0 0 1-.735.719c-.462.363-.924.606-1.384.73a3.03 3.03 0 0 1-1.324.06 3.26 3.26 0 0 1-1.24-.538 5.288 5.288 0 0 1-1.108-1.071 4.847 4.847 0 0 1-.757-1.328 3.594 3.594 0 0 1-.215-1.362c.02-.443.138-.867.353-1.274.215-.406.55-.787 1.006-1.145.462-.363.934-.585 1.416-.666a2.918 2.918 0 0 1 1.386.087c.436.132.83.34 1.181.621.359.276.646.567.862.872.052.066.1.135.145.207.052.066.1.135.144.207l-4.306 3.379Zm2.742-3.469c-.401-.48-.87-.759-1.405-.837-.536-.078-1.05.076-1.541.462a2.294 2.294 0 0 0-.613.694c-.136.25-.214.506-.232.77-.019.264.012.53.093.799.075.262.188.511.338.749l3.36-2.637ZM29.388 12.13c.53-.252 1.03-.387 1.498-.403.468-.017.905.065 1.31.243.415.175.785.443 1.112.804.332.349.616.772.853 1.269.237.497.389.988.455 1.474.07.473.043.925-.082 1.357-.12.42-.339.808-.655 1.165-.315.357-.738.662-1.27.915-.53.253-1.034.39-1.51.41a3.172 3.172 0 0 1-1.317-.225 3.434 3.434 0 0 1-1.106-.791 5.288 5.288 0 0 1-.846-1.287 5.147 5.147 0 0 1-.461-1.455 3.417 3.417 0 0 1 .076-1.37 3.06 3.06 0 0 1 .66-1.184c.316-.357.744-.664 1.283-.921Zm2.77 5.876c.362-.172.644-.384.845-.635.21-.255.346-.532.41-.831.068-.312.07-.633.006-.965a3.861 3.861 0 0 0-.332-1.02 3.809 3.809 0 0 0-.578-.888 2.216 2.216 0 0 0-.753-.603 1.881 1.881 0 0 0-.91-.217c-.321-.002-.663.083-1.026.256-.362.173-.643.385-.844.636-.201.25-.336.532-.404.843-.064.3-.066.621-.006.965a4.2 4.2 0 0 0 .338 1.002c.165.345.355.647.572.906.225.255.475.456.752.603.282.135.583.203.904.205.322.002.664-.084 1.026-.257ZM42.597 8.48c.583-.074 1.1-.046 1.549.085.45.13.839.344 1.169.64.338.296.607.666.805 1.111.206.435.344.926.414 1.472.07.546.06 1.06-.029 1.542-.08.471-.248.893-.502 1.264-.245.36-.574.661-.985.902-.412.24-.909.399-1.492.473-.584.075-1.105.047-1.563-.082-.45-.131-.843-.34-1.181-.626a3.435 3.435 0 0 1-.804-1.097 5.29 5.29 0 0 1-.402-1.487 5.15 5.15 0 0 1 .017-1.526c.089-.482.256-.908.5-1.278.254-.37.586-.677.998-.918.411-.24.913-.399 1.506-.475Zm.796 6.448c.398-.051.731-.165 1-.34.28-.177.495-.397.65-.662.162-.275.265-.58.306-.914a3.86 3.86 0 0 0 .004-1.073 3.81 3.81 0 0 0-.272-1.024 2.216 2.216 0 0 0-.526-.808 1.883 1.883 0 0 0-.797-.49c-.305-.103-.656-.128-1.054-.078-.398.051-.732.165-1.001.34-.27.176-.485.4-.648.676-.154.264-.256.569-.306.914-.042.335-.04.687.008 1.058.048.379.135.726.26 1.039.134.312.31.581.526.808.226.215.49.374.795.477.305.102.657.127 1.055.077ZM49.339 9.807c.157-.182.335-.33.533-.443.199-.122.41-.22.632-.293.231-.072.46-.116.687-.133.236-.025.462-.027.675-.007.502.046.936.166 1.303.36.375.194.68.452.912.773.243.313.415.68.516 1.103.102.421.13.883.083 1.385a4.358 4.358 0 0 1-.354 1.387 3.2 3.2 0 0 1-.759 1.055c-.308.29-.68.508-1.115.655-.425.14-.908.183-1.447.133-.613-.056-1.119-.211-1.517-.464a2.937 2.937 0 0 1-.936-.973 4 4 0 0 1-.435-1.376 7.148 7.148 0 0 1-.055-1.523c-.005-.15.013-.449.055-.895.051-.454.112-.861.183-1.22.072-.368.165-.72.28-1.057.127-.344.281-.644.464-.899.292-.423.639-.723 1.04-.902.41-.177.87-.284 1.38-.321.16-.014.518-.032 1.073-.055.566-.032.952-.053 1.159-.062.178-.002.37-.007.578-.016.217-.018.43-.035.637-.054l-.1 1.088c-.144.033-.32.06-.528.077a24.72 24.72 0 0 1-.705.02c-.188.01-.386.02-.593.029-.197 0-.404.004-.62.012-.206 0-.526.012-.96.038-.32.017-.588.081-.805.192a1.952 1.952 0 0 0-.563.468c-.201.244-.36.548-.479.912-.108.355-.18.69-.22 1.006Zm1.791 4.932a2.01 2.01 0 0 0 .924-.11c.282-.106.521-.261.719-.468.206-.206.37-.453.49-.742.121-.289.197-.6.228-.935.03-.325.007-.632-.07-.92a2.111 2.111 0 0 0-.335-.777 1.744 1.744 0 0 0-.596-.547c-.24-.144-.54-.233-.903-.267a2.257 2.257 0 0 0-.91.113c-.272.096-.511.248-.718.453a2.137 2.137 0 0 0-.488.714c-.118.27-.197.558-.234.864-.03.325-.018.64.038.946.067.297.178.565.333.804.156.24.358.436.606.59.258.156.563.25.916.282ZM61.066 13.552c.41.284.656.606.74.964.084.359.06.747-.07 1.166-.126.371-.315.664-.568.879a2.052 2.052 0 0 1-.846.455c-.32.086-.662.116-1.026.09a4.723 4.723 0 0 1-1.08-.205 6.096 6.096 0 0 1-1-.415 3.2 3.2 0 0 1-.821-.608 2.252 2.252 0 0 1-.508-.818c-.1-.305-.1-.652.002-1.04l1.11.345a.877.877 0 0 0 .108.547c.097.158.223.304.376.44.165.13.34.243.524.34.197.09.375.161.536.211.187.058.383.105.587.14.213.037.417.041.611.014.195-.027.367-.096.519-.205a1.02 1.02 0 0 0 .34-.524 1.12 1.12 0 0 0 .038-.546.812.812 0 0 0-.262-.477 1.424 1.424 0 0 0-.483-.283 6.405 6.405 0 0 0-.54-.198l-1.256-.392.312-1.002 1.03.32c.169.054.347.094.533.123.19.02.368.012.535-.023.177-.033.33-.098.457-.195.14-.103.252-.274.336-.511a.822.822 0 0 0 .012-.51.866.866 0 0 0-.242-.398 1.324 1.324 0 0 0-.418-.306 2.58 2.58 0 0 0-.491-.212c-.16-.05-.334-.09-.52-.119a1.578 1.578 0 0 0-.537-.02 1.13 1.13 0 0 0-.47.146.862.862 0 0 0-.343.392l-1.122-.35c.12-.354.297-.626.533-.817.247-.196.522-.326.825-.388a2.87 2.87 0 0 1 .955-.053c.343.028.67.091.983.189.311.097.609.224.892.381.293.16.536.353.729.58.196.217.332.47.409.758.076.287.059.61-.053.966-.1.32-.264.582-.494.784-.229.203-.523.33-.882.385ZM67.876 13.135c.513.288.91.618 1.194.991.283.373.468.777.556 1.211.096.44.09.897-.016 1.372a4.848 4.848 0 0 1-.544 1.428c-.27.48-.584.888-.943 1.221-.346.33-.731.57-1.156.716a3.006 3.006 0 0 1-1.329.137c-.474-.052-.967-.222-1.48-.51-.513-.287-.915-.62-1.206-.997a3.171 3.171 0 0 1-.575-1.206 3.434 3.434 0 0 1 .008-1.36c.107-.476.295-.953.564-1.434.27-.48.578-.885.924-1.215a3.414 3.414 0 0 1 1.163-.728 3.059 3.059 0 0 1 1.348-.143c.474.052.971.225 1.492.517Zm-3.204 5.65c.35.197.685.305 1.006.325.33.024.634-.024.916-.144a2.35 2.35 0 0 0 .791-.552c.241-.239.456-.525.643-.859.183-.325.313-.654.392-.984.091-.334.11-.655.058-.963-.039-.31-.155-.6-.347-.869-.183-.263-.45-.494-.8-.69-.35-.196-.686-.304-1.007-.324a2.03 2.03 0 0 0-.922.157c-.282.12-.545.304-.791.55a4.205 4.205 0 0 0-.624.855 4.264 4.264 0 0 0-.41.99c-.08.33-.099.65-.06.962.053.307.17.593.354.857.184.263.451.494.801.69ZM14.6 25.873a23.82 23.82 0 0 0-.618-.526l-.628-.515 3.322-4.048 4.902 4.024.613-.747 2.554 2.096-.728.887-1.753-1.439-3.42 4.167 1.754 1.439-.729.887-2.554-2.096c.237-.288.294-.622.17-1.001-.061-.22-.202-.468-.421-.745-.227-.282-.48-.563-.76-.84-.302-.309-.612-.6-.931-.873a24.82 24.82 0 0 0-.772-.67Zm2.133-3.503-1.848 2.251c.297.256.63.542 1 .857.37.315.707.616 1.014.904.139.126.288.267.45.424.154.15.306.318.457.502.15.17.288.363.415.576.133.205.23.425.293.657l2.31-2.814-4.091-3.357ZM68.117 24.816l-.937-.733 6.186-7.905.893.699-.654.927a2.32 2.32 0 0 1 1.357-.076c.472.11.909.315 1.312.618.448.351.766.725.954 1.12.2.395.298.809.29 1.242.007.431-.082.87-.267 1.319-.18.44-.433.87-.76 1.29-.334.425-.693.779-1.078 1.058-.385.28-.787.468-1.207.566-.42.098-.853.098-1.297-.001-.439-.106-.882-.335-1.33-.686-.441-.345-.761-.708-.96-1.09-.2-.38-.306-.76-.32-1.137l-2.182 2.789Zm4.032-1.45c.316.248.623.4.923.457.312.055.61.038.891-.05.295-.088.573-.238.833-.45.268-.205.52-.452.757-.74.23-.294.413-.596.548-.905.149-.31.228-.616.238-.916.01-.3-.056-.595-.198-.884-.128-.29-.35-.559-.666-.806-.375-.293-.78-.444-1.212-.45a2.4 2.4 0 0 0-1.213.277c-.213.106-.406.239-.58.4a4.245 4.245 0 0 0-.475.516c-.173.22-.32.438-.44.652a2.44 2.44 0 0 0-.248.659c-.079.389-.06.782.054 1.18.128.397.39.75.788 1.06ZM88.942 51.633l-.584 2.795a6.487 6.487 0 0 1-.346 1.172 2.148 2.148 0 0 1-.52.778c-.18.173-.394.29-.646.352a1.767 1.767 0 0 1-.845.009c-.722-.151-1.17-.584-1.345-1.297-.213.47-.502.781-.868.934a1.933 1.933 0 0 1-1.165.1c-.382-.09-.684-.22-.905-.39a2 2 0 0 1-.525-.64 2.397 2.397 0 0 1-.247-.866 3.495 3.495 0 0 1 .07-1.087l.705-3.371 7.221 1.51Zm-1.277.977-2.055-.43-.21 1c-.047.229-.091.462-.132.702-.031.241-.034.46-.008.656.025.244.103.46.235.65s.312.313.538.37c.265.056.47.036.613-.058.15-.083.27-.2.36-.353a1.72 1.72 0 0 0 .221-.512c.05-.19.091-.367.126-.532l.312-1.493Zm-5.18-1.084-.398 1.905c-.044.21-.072.414-.085.612a1.7 1.7 0 0 0 .042.552c.051.163.136.305.254.425s.281.206.49.26c.273.057.501.038.684-.058.19-.093.346-.242.465-.446.093-.17.168-.37.225-.596.056-.227.11-.463.162-.71l.3-1.496-2.139-.448ZM79.662 58.276l.468-1.064 6.752 2.974-.48 1.09-5.176-2.28c.094.112.186.25.277.412.1.167.176.297.226.39l3.02 5.231-.474 1.077-6.752-2.975.48-1.089 5.175 2.28a3.663 3.663 0 0 1-.27-.394 5.863 5.863 0 0 1-.198-.347l-3.048-5.305ZM73.58 75.134a3.5 3.5 0 0 0-.745-.557 2.435 2.435 0 0 0-.807-.243 2.043 2.043 0 0 0-.84.082c-.284.1-.563.27-.838.509a3.679 3.679 0 0 0-.383.39 2.49 2.49 0 0 0-.301.486 1.71 1.71 0 0 0-.126.537c-.012.184.018.368.092.552l-.918.8a2.352 2.352 0 0 1-.28-.98 2.48 2.48 0 0 1 .114-.955c.093-.305.239-.6.437-.883a4.7 4.7 0 0 1 .696-.757c.443-.387.891-.654 1.345-.802a3.03 3.03 0 0 1 1.318-.128c.439.063.862.22 1.268.473.412.26.8.596 1.161 1.011.362.415.638.844.826 1.287.187.456.282.905.285 1.349.003.443-.092.873-.286 1.29-.194.417-.508.816-.944 1.196-.443.387-.903.633-1.38.74-.477.106-.94.101-1.388-.015a3.494 3.494 0 0 1-1.213-.559 4.111 4.111 0 0 1-.906-.825 2.292 2.292 0 0 1-.155-.2 2.272 2.272 0 0 1-.155-.198l4.124-3.6Zm-2.556 3.607c.425.459.907.713 1.446.763.54.05 1.044-.13 1.516-.542.26-.227.451-.469.575-.725.123-.256.187-.516.192-.78a2.223 2.223 0 0 0-.135-.794 2.857 2.857 0 0 0-.377-.73l-3.217 2.808ZM67.384 84.471c-.517.28-1.009.441-1.475.482a2.955 2.955 0 0 1-1.322-.175 3.146 3.146 0 0 1-1.152-.745 4.848 4.848 0 0 1-.918-1.222 4.983 4.983 0 0 1-.53-1.448 3.157 3.157 0 0 1 .01-1.36c.099-.425.297-.824.593-1.198.297-.373.703-.7 1.22-.98s1.013-.443 1.487-.488c.467-.04.91.011 1.328.156.414.157.796.401 1.145.732.346.344.65.758.913 1.242.262.484.44.96.536 1.429.091.481.09.939-.004 1.372a3.058 3.058 0 0 1-.599 1.216c-.296.374-.707.703-1.232.987Zm-3.073-5.723c-.353.191-.623.418-.81.679-.196.265-.318.549-.367.851a2.35 2.35 0 0 0 .045.963c.074.332.202.666.384 1.002.178.329.386.614.624.857.234.255.495.443.783.562.284.133.59.19.92.17.321-.015.658-.118 1.011-.31.353-.19.623-.417.81-.678a2.03 2.03 0 0 0 .36-.864 2.51 2.51 0 0 0-.045-.963 4.207 4.207 0 0 0-.39-.983 4.265 4.265 0 0 0-.618-.875 2.678 2.678 0 0 0-.783-.563 2.095 2.095 0 0 0-.913-.157c-.321.015-.658.118-1.011.309ZM54.383 88.806c-.579.104-1.096.103-1.552-.004a2.953 2.953 0 0 1-1.2-.579 3.145 3.145 0 0 1-.862-1.067 4.848 4.848 0 0 1-.49-1.448 4.983 4.983 0 0 1-.052-1.541c.056-.475.2-.905.435-1.289.226-.373.539-.69.937-.952s.887-.445 1.465-.55c.579-.105 1.1-.105 1.566 0 .455.108.86.295 1.211.563.345.28.632.63.86 1.054.221.434.38.922.479 1.464.098.542.12 1.05.063 1.525-.064.486-.208.92-.433 1.302-.234.384-.55.707-.948.969-.398.262-.891.446-1.48.553Zm-1.131-6.397c-.395.071-.723.202-.982.391a1.938 1.938 0 0 0-.614.695 2.349 2.349 0 0 0-.259.929c-.033.338-.016.695.052 1.072.067.367.175.703.325 1.008.143.316.332.575.569.78.228.214.502.363.82.448.31.086.663.093 1.058.022.395-.072.722-.202.982-.392s.463-.425.61-.708c.141-.272.227-.582.26-.93a4.209 4.209 0 0 0-.064-1.055 4.262 4.262 0 0 0-.314-1.024 2.681 2.681 0 0 0-.568-.78 2.095 2.095 0 0 0-.819-.434c-.31-.087-.661-.094-1.056-.022ZM47.581 87.833c-.148.19-.318.347-.51.47a2.98 2.98 0 0 1-.615.325 3.05 3.05 0 0 1-.68.169c-.234.037-.46.051-.674.043-.503-.02-.943-.118-1.319-.292a2.549 2.549 0 0 1-.951-.725c-.26-.3-.45-.658-.574-1.074a4.231 4.231 0 0 1-.154-1.38c.02-.503.114-.97.28-1.403.167-.423.402-.787.703-1.093a3.007 3.007 0 0 1 1.08-.713c.418-.16.897-.23 1.438-.208.615.025 1.129.153 1.54.385.41.24.739.548.985.922.237.383.405.834.506 1.352.1.517.145 1.024.135 1.518.012.15.01.45-.008.897-.028.456-.068.866-.12 1.228a7.872 7.872 0 0 1-.226 1.07c-.107.35-.245.658-.415.922-.27.437-.6.755-.991.954-.4.2-.854.33-1.361.394-.16.021-.516.058-1.07.11-.563.062-.947.103-1.154.122-.177.012-.37.027-.576.047l-.634.087.044-1.091c.142-.041.316-.076.523-.106.206-.02.44-.038.703-.055l.59-.06c.197-.011.403-.026.619-.045.206-.01.525-.04.956-.088a1.99 1.99 0 0 0 .794-.234c.201-.123.38-.288.539-.497.188-.254.33-.566.43-.935.09-.36.145-.7.167-1.016ZM45.534 83a2.01 2.01 0 0 0-.917.16c-.275.119-.506.287-.693.504a2.263 2.263 0 0 0-.451.766c-.105.295-.165.61-.178.946-.014.326.026.631.117.915.081.293.207.546.376.758.168.222.376.393.623.516.247.131.553.204.916.219.336.004.637-.05.903-.16s.497-.274.693-.49c.195-.207.345-.454.45-.739.104-.276.168-.568.19-.875a3.448 3.448 0 0 0-.089-.942 2.432 2.432 0 0 0-.374-.786 1.927 1.927 0 0 0-.636-.558 2.133 2.133 0 0 0-.93-.234ZM35.675 84.704c-.424-.262-.687-.57-.79-.924-.102-.354-.099-.743.01-1.168.106-.377.28-.68.52-.907.233-.23.507-.396.822-.498.315-.103.655-.15 1.02-.144.364.006.727.056 1.089.148.343.088.683.209 1.02.362.327.151.611.34.852.565.241.225.424.489.55.79.116.3.133.646.052 1.04l-1.126-.288a.877.877 0 0 0-.136-.54 1.989 1.989 0 0 0-.399-.42 3.393 3.393 0 0 0-.541-.312 4.49 4.49 0 0 0-.546-.183 4.452 4.452 0 0 0-.594-.108 1.959 1.959 0 0 0-.611.017 1.146 1.146 0 0 0-.507.231 1.019 1.019 0 0 0-.312.542c-.049.19-.052.372-.01.547.04.183.135.338.286.463.136.111.302.197.498.257.194.069.377.125.55.17l1.274.325-.26 1.018-1.044-.267a3.68 3.68 0 0 0-.54-.095 1.7 1.7 0 0 0-.533.052 1.07 1.07 0 0 0-.446.218c-.134.11-.237.286-.308.528a.822.822 0 0 0 .014.51.866.866 0 0 0 .263.385c.114.115.259.21.433.284.162.08.33.142.501.186.163.041.338.072.526.09.186.029.364.026.537-.007.17-.024.324-.08.462-.17a.861.861 0 0 0 .322-.41l1.14.292c-.102.36-.266.64-.49.843a1.93 1.93 0 0 1-.805.43 2.873 2.873 0 0 1-.95.104 4.573 4.573 0 0 1-.992-.138 4.785 4.785 0 0 1-.911-.334 2.554 2.554 0 0 1-.758-.54 1.81 1.81 0 0 1-.448-.737c-.091-.283-.09-.606.002-.967.083-.326.234-.596.453-.81.218-.213.505-.357.861-.43ZM28.895 85.476c-.527-.26-.941-.57-1.244-.927a2.953 2.953 0 0 1-.618-1.181 3.146 3.146 0 0 1-.056-1.371c.069-.476.225-.961.47-1.455.243-.493.536-.916.876-1.268.329-.348.701-.606 1.118-.775a3.003 3.003 0 0 1 1.32-.206c.476.027.977.17 1.505.431.527.261.945.572 1.256.934.302.358.514.75.637 1.174.11.43.131.883.063 1.359-.082.48-.245.967-.489 1.46a5.15 5.15 0 0 1-.858 1.263c-.341.352-.715.615-1.124.787-.417.17-.863.24-1.339.213-.476-.027-.981-.173-1.517-.438Zm2.905-5.81c-.36-.178-.7-.269-1.022-.271a1.937 1.937 0 0 0-.907.191 2.349 2.349 0 0 0-.761.592 3.861 3.861 0 0 0-.597.892 3.803 3.803 0 0 0-.34 1.003c-.074.339-.077.66-.008.965.055.308.186.591.391.85.198.253.476.469.836.647.36.178.7.268 1.022.27a2.03 2.03 0 0 0 .913-.204c.275-.134.529-.332.761-.591.22-.256.413-.551.579-.886.17-.343.289-.68.358-1.01.062-.334.064-.655.009-.964a2.095 2.095 0 0 0-.398-.837c-.198-.254-.476-.47-.836-.647ZM81.434 69.977c.212.168.427.332.645.493l.654.481-3.106 4.216-5.106-3.763-.573.778-2.66-1.96.681-.924 1.826 1.345 3.198-4.339-1.826-1.345.68-.925 2.66 1.96c-.22.301-.26.637-.117 1.01.073.215.226.456.46.72.241.271.508.538.802.8.318.293.643.567.976.824.334.27.603.48.806.629Zm-1.947 3.609 1.728-2.345c-.31-.24-.658-.507-1.043-.803a28.957 28.957 0 0 1-1.06-.85 18.821 18.821 0 0 1-.47-.4 6.148 6.148 0 0 1-.484-.477 3.935 3.935 0 0 1-.444-.554 2.315 2.315 0 0 1-.328-.641l-2.159 2.93 4.26 3.14ZM28.046 73.824l.974.683-5.766 8.217-.929-.651.606-.96a2.32 2.32 0 0 1-1.351.145 3.449 3.449 0 0 1-1.343-.548c-.466-.327-.803-.683-1.011-1.07a2.602 2.602 0 0 1-.355-1.223c-.029-.43.037-.874.198-1.332.156-.449.387-.891.692-1.327a5.438 5.438 0 0 1 1.021-1.114c.37-.299.762-.508 1.177-.628a2.89 2.89 0 0 1 1.294-.066c.444.083.899.288 1.365.615.458.322.797.668 1.016 1.038.219.37.345.744.377 1.12l2.035-2.9Zm-3.951 1.657c-.329-.23-.644-.366-.946-.407a1.873 1.873 0 0 0-.888.095c-.29.105-.56.269-.808.493-.256.22-.495.48-.718.78a4.206 4.206 0 0 0-.5.932 2.294 2.294 0 0 0-.189.927c.006.3.087.591.244.872.143.283.379.54.707.77.39.274.801.403 1.234.387a2.401 2.401 0 0 0 1.197-.34c.207-.117.393-.26.558-.43a4.25 4.25 0 0 0 .448-.54c.16-.23.295-.454.404-.674.104-.213.175-.436.214-.671.059-.392.02-.784-.116-1.176-.148-.39-.429-.729-.841-1.018Z"/><circle cx="12.616" cy="60.385" r="2"/><circle cx="82.616" cy="37.385" r="2"/></g><defs><clipPath id="a"><path fill="#fff" transform="rotate(90 48 48)" d="M0 0h96v96H0z"/></clipPath></defs></svg>