<svg width="48" height="48" viewBox="0 0 48 48" fill="none" xmlns="http://www.w3.org/2000/svg"><circle cx="24" cy="24" r="24" fill="#48C95F"/><path d="M33.512 14.475a12.514 12.514 0 0 0-8.868-3.675c-6.937 0-12.556 5.6-12.556 12.512 0 2.188.614 4.375 1.668 6.213L12 36l6.673-1.75c1.844.962 3.864 1.487 5.97 1.487 6.938 0 12.557-5.6 12.557-12.512-.088-3.238-1.317-6.388-3.688-8.75Zm-2.81 13.3c-.263.7-1.492 1.4-2.107 1.487a4.924 4.924 0 0 1-1.932-.087c-.439-.175-1.053-.35-1.756-.7-3.16-1.313-5.18-4.463-5.356-4.725-.175-.175-1.317-1.663-1.317-3.238s.79-2.275 1.054-2.625c.263-.35.614-.35.878-.35h.614c.176 0 .44-.087.703.525.263.613.878 2.188.966 2.275a.556.556 0 0 1 0 .525 1.83 1.83 0 0 1-.351.525c-.176.175-.352.438-.44.525-.175.175-.35.35-.175.613.175.35.79 1.312 1.756 2.187 1.23 1.05 2.195 1.4 2.546 1.575.352.175.527.088.703-.087.175-.175.79-.875.966-1.225.175-.35.439-.263.702-.175.264.087 1.844.875 2.107 1.05.352.175.527.262.615.35.088.262.088.875-.176 1.575Z" fill="#fff"/></svg>