<svg width="48" height="48" viewBox="0 0 48 48" fill="none" xmlns="http://www.w3.org/2000/svg"><mask id="a" style="mask-type:alpha" maskUnits="userSpaceOnUse" x="0" y="0" width="49" height="48"><path fill-rule="evenodd" clip-rule="evenodd" d="M11.93.021 13.983 0l21.364.008c.325.004.526.008.727.013 1.06.028 2.128.09 3.175.276a10.77 10.77 0 0 1 3.018.984c.949.477 1.818 1.1 2.57 1.846a9.999 9.999 0 0 1 1.867 2.54c.493.956.804 1.933.995 2.985.188 1.035.251 2.091.28 3.138A63 63 0 0 1 48 13.233l.003.855v18.964c0 .57 0 1.14-.003 1.712-.002.481-.008.961-.022 1.442-.028 1.046-.09 2.103-.279 3.138a10.477 10.477 0 0 1-.995 2.985 10.03 10.03 0 0 1-1.866 2.54 10.145 10.145 0 0 1-2.571 1.846c-.966.487-1.954.795-3.018.984-1.047.186-2.116.248-3.175.276l-3.19.025-20.228-.012a39.65 39.65 0 0 1-.726-.013c-1.059-.028-2.127-.09-3.175-.276a10.768 10.768 0 0 1-3.017-.983 10.131 10.131 0 0 1-2.571-1.846 10.056 10.056 0 0 1-1.868-2.541 10.526 10.526 0 0 1-.994-2.985c-.189-1.035-.25-2.092-.279-3.138-.013-.48-.02-.961-.022-1.442l-.003-.856L0 14.945c0-.571 0-1.143.004-1.712.003-.482.009-.962.022-1.443.028-1.047.09-2.103.279-3.138.191-1.052.502-2.03.994-2.985A10.108 10.108 0 0 1 5.737 1.28 10.772 10.772 0 0 1 8.756.298C9.803.111 10.871.05 11.93.021Z" fill="#fff"/></mask><g mask="url(#a)"><path d="M48.004-.004H0V48h48.004V-.004Z" fill="#19AA1E"/><path fill-rule="evenodd" clip-rule="evenodd" d="M0-.004h48.004v15.752L0 8.247v-8.25Z" fill="#FFB919"/><path fill-rule="evenodd" clip-rule="evenodd" d="m0 42.75 48.004-7.501V48H0v-5.25Z" fill="#82D714"/><path fill-rule="evenodd" clip-rule="evenodd" d="m0 7.298 16.756 2.618c2.086-1.32 4.567-2.044 7.246-2.044 3.71 0 7.042 1.389 9.468 3.827.306.308.595.63.866.964l13.668 2.136v1.898l-12.28-1.92a12.325 12.325 0 0 1 1.404 5.693c0 2.572-.575 5.136-1.764 7.71l-.037.079-.505 1.082h-1.194c-2.466 0-4.102.737-5.171 2.045-.84 1.026-1.326 2.41-1.489 3.92l-.005.047-.024.24-.01.106-.02.205a37.512 37.512 0 0 0-.125 1.712l21.22-3.316v1.898L0 43.698v-1.897l21.244-3.32-.01-.426-.003-.12-.001-.062-.004-.095a36.155 36.155 0 0 0-.142-1.981l-.015-.152-.025-.264c-.153-1.518-.631-2.919-1.469-3.96-1.058-1.317-2.679-2.065-5.125-2.08H13.181l-.505-1.082c-1.213-2.601-1.8-5.191-1.8-7.79 0-3.266 1.325-6.425 3.658-8.77.067-.067.135-.134.204-.2L0 9.196V7.298Z" fill="#fff"/><path fill-rule="evenodd" clip-rule="evenodd" d="M24.002 9.747c6.702 0 11.25 5.158 11.25 10.723 0 2.234-.487 4.558-1.624 6.995-6.595 0-8.222 4.723-8.53 7.695l-.02.198a37.107 37.107 0 0 0-.18 2.553l-1.787.279v-.058c-.007-.673-.07-1.616-.191-2.83l-.005-.053c-.285-2.965-1.878-7.784-8.54-7.784-1.137-2.437-1.624-4.761-1.624-6.995 0-5.565 4.55-10.723 11.25-10.723Z" fill="#0073FA"/></g></svg>