<svg width="49" height="49" viewBox="0 0 49 49" fill="none" xmlns="http://www.w3.org/2000/svg"><path d="M24.027 48.062c13.272 0 24.031-10.76 24.031-24.031C48.058 10.759 37.3 0 24.028 0 10.754 0-.005 10.759-.005 24.031c0 13.272 10.76 24.031 24.031 24.031Z" fill="#CE2457"/><path fill-rule="evenodd" clip-rule="evenodd" d="M22.842 9.578c-7.45.61-13.306 6.849-13.306 14.456 0 8.011 6.494 14.505 14.505 14.505 8.01 0 14.505-6.494 14.505-14.505 0-7.608-5.858-13.848-13.31-14.456l-.39 9.527a4.995 4.995 0 1 1-1.613 0l-.39-9.527Z" fill="#fff"/><path d="M24.025 8.562a3.13 3.13 0 1 0 0-6.262 3.13 3.13 0 0 0 0 6.262Z" fill="#fff"/></svg>