<svg width="48" height="48" viewBox="0 0 48 48" fill="none" xmlns="http://www.w3.org/2000/svg"><rect width="48.004" height="48" rx="24" fill="#005BFF"/><path d="M20.723 25.93h-3.447l4.4-5.818a.295.295 0 0 0-.058-.41.29.29 0 0 0-.176-.059h-6.365a1.02 1.02 0 0 0-1.018 1.017 1.02 1.02 0 0 0 1.018 1.017h2.86L13.52 27.5a.29.29 0 0 0 .053.41.256.256 0 0 0 .182.059h6.961a1.019 1.019 0 0 0 0-2.034v-.005h.006Zm22.243-6.287a1.02 1.02 0 0 0-1.017 1.017v3.412l-5.497-4.36a.29.29 0 0 0-.474.23v7.01a1.017 1.017 0 0 0 2.035 0V23.54l5.497 4.365a.296.296 0 0 0 .479-.229V20.66a1.021 1.021 0 0 0-1.023-1.017ZM28.42 26.122c-2.327 0-4.064-1.225-4.064-2.321 0-1.097 1.742-2.321 4.064-2.321 2.328 0 4.065 1.224 4.065 2.32 0 1.097-1.732 2.322-4.065 2.322Zm0-6.676c-3.366 0-6.098 1.949-6.098 4.355 0 2.406 2.732 4.354 6.098 4.354 3.367 0 6.1-1.948 6.1-4.354s-2.733-4.355-6.1-4.355ZM8.398 26.127a2.325 2.325 0 1 1 2.322-2.326v.005a2.327 2.327 0 0 1-2.322 2.321Zm0-6.68A4.362 4.362 0 0 0 4.035 23.8a4.362 4.362 0 0 0 4.357 4.36 4.362 4.362 0 0 0 4.362-4.355v-.005a4.361 4.361 0 0 0-4.357-4.355Z" fill="#fff"/></svg>