<svg width="49" height="49" viewBox="0 0 49 49" fill="none" xmlns="http://www.w3.org/2000/svg"><path d="M24.077.88C10.787.88.007 11.62.007 24.82c0 13.24 10.78 23.95 24.07 23.95 13.24 0 24.02-10.71 24.02-23.95 0-13.2-10.78-23.94-24.02-23.94Zm3.11 38.17V14.41h-2.21c-4.06 0-6.19 2.05-6.19 5.08 0 3.45 1.47 5.04 4.51 7.09l2.5 1.69-7.22 10.78h-5.37l6.48-9.64c-3.73-2.66-5.82-5.25-5.82-9.63 0-5.5 3.81-9.23 11.07-9.23h7.21v28.5h-4.96Z" fill="#FC3F1D"/><path d="M27.187 39.05V14.41h-2.21c-4.06 0-6.19 2.05-6.19 5.08 0 3.45 1.47 5.04 4.51 7.09l2.5 1.69-7.22 10.78h-5.37l6.48-9.64c-3.73-2.66-5.82-5.25-5.82-9.63 0-5.5 3.81-9.23 11.07-9.23h7.21v28.5h-4.96Z" fill="#fff"/></svg>