<svg width="36" height="36" viewBox="0 0 36 36" fill="none" xmlns="http://www.w3.org/2000/svg"><rect width="36" height="36" rx="18" fill="#F6DAF7"/><path fill-rule="evenodd" clip-rule="evenodd" d="M14.984 11.385h6.032c.626 0 1.056 0 1.419.126.685.238 1.216.789 1.445 1.483l-.439.144.439-.144c.12.368.12.805.12 1.453V23.153c0 .902-1.063 1.439-1.763.798a.12.12 0 0 0-.167 0l-.297.272a1.481 1.481 0 0 1-2.008 0 .558.558 0 0 0-.761 0 1.481 1.481 0 0 1-2.008 0 .558.558 0 0 0-.761 0 1.481 1.481 0 0 1-2.008 0l-.297-.272a.12.12 0 0 0-.167 0c-.7.64-1.763.104-1.763-.798V14.447c0-.648 0-1.085.12-1.453a2.335 2.335 0 0 1 1.445-1.483c.363-.127.793-.127 1.419-.126Zm.09.923c-.752 0-1.01.006-1.206.074-.405.142-.73.472-.87.9-.07.209-.075.483-.075 1.254v8.617c0 .074.037.118.083.14a.124.124 0 0 0 .067.011.12.12 0 0 0 .067-.034 1.043 1.043 0 0 1 1.413 0l.297.272c.219.2.543.2.761 0a1.481 1.481 0 0 1 2.008 0c.219.2.543.2.762 0a1.481 1.481 0 0 1 2.007 0c.219.2.543.2.762 0l.297-.272a1.044 1.044 0 0 1 1.413 0 .12.12 0 0 0 .066.034c.02.003.043 0 .068-.011.046-.022.083-.066.083-.14v-8.617c0-.771-.006-1.045-.075-1.254a1.413 1.413 0 0 0-.87-.9c-.196-.068-.455-.074-1.206-.074h-5.852Zm4.772 2.886c.19.17.206.462.037.652l-2.198 2.461a.461.461 0 0 1-.689 0l-.879-.984a.461.461 0 1 1 .689-.615l.535.6 1.853-2.077a.461.461 0 0 1 .652-.037Zm-5.077 4.96c0-.255.207-.462.462-.462h5.538a.462.462 0 1 1 0 .923h-5.538a.461.461 0 0 1-.462-.461Z" fill="#111"/></svg>