<svg width="36" height="36" viewBox="0 0 36 36" fill="none" xmlns="http://www.w3.org/2000/svg"><rect width="36" height="36" rx="18" fill="#DADBF7"/><rect width="36" height="36" rx="18" fill="#DAF7EE"/><path fill-rule="evenodd" clip-rule="evenodd" d="M13.333 14.937a.146.146 0 0 0-.146.146v7.583c0 .081.066.146.146.146h9.334c.08 0 .145-.065.145-.146v-7.583a.146.146 0 0 0-.145-.146h-9.334Zm-1.02.146c0-.564.457-1.02 1.02-1.02h9.334c.563 0 1.02.456 1.02 1.02v7.583a1.02 1.02 0 0 1-1.02 1.021h-9.334a1.02 1.02 0 0 1-1.02-1.02v-7.584Z" fill="#111"/><path fill-rule="evenodd" clip-rule="evenodd" d="M15.798 18.002c0-.242.196-.438.437-.438h3.5a.438.438 0 0 1 0 .875h-3.5a.437.437 0 0 1-.437-.437ZM14.462 12.17a.438.438 0 0 1 .33-.15h6.416c.127 0 .247.055.33.15l2.041 2.334a.437.437 0 0 1-.658.576l-1.911-2.184h-6.02l-1.91 2.184a.438.438 0 0 1-.66-.576l2.042-2.334Z" fill="#111"/></svg>