<svg width="36" height="36" viewBox="0 0 36 36" fill="none" xmlns="http://www.w3.org/2000/svg"><rect width="36" height="36" rx="18" fill="#DADBF7"/><path fill-rule="evenodd" clip-rule="evenodd" d="M18.448 12.844a.61.61 0 0 0-.896 0c-.358.377-.765.848-1.08 1.325-.327.495-.503.922-.503 1.227 0 1.197.927 2.135 2.031 2.135s2.031-.938 2.031-2.135c0-.305-.176-.732-.503-1.227a10.156 10.156 0 0 0-1.08-1.325Zm-1.577-.645a1.546 1.546 0 0 1 2.258 0c.375.396.824.912 1.181 1.454.346.524.659 1.148.659 1.743 0 1.679-1.312 3.073-2.969 3.073-1.657 0-2.969-1.394-2.969-3.073 0-.595.313-1.219.659-1.743a11.08 11.08 0 0 1 1.181-1.454Zm-2.173 6.895a.61.61 0 0 0-.896 0c-.358.377-.765.848-1.08 1.325-.326.495-.503.922-.503 1.227 0 1.197.927 2.135 2.031 2.135s2.031-.938 2.031-2.135c0-.305-.176-.732-.503-1.227a10.156 10.156 0 0 0-1.08-1.325Zm-1.577-.645a1.546 1.546 0 0 1 2.258 0c.375.396.824.912 1.181 1.454.346.524.659 1.148.659 1.743 0 1.679-1.312 3.073-2.969 3.073-1.657 0-2.969-1.394-2.969-3.073 0-.595.313-1.219.659-1.743a11.08 11.08 0 0 1 1.181-1.454Zm9.077.645a.61.61 0 0 0-.896 0c-.358.377-.765.848-1.08 1.325-.327.495-.503.922-.503 1.227 0 1.197.927 2.135 2.031 2.135s2.031-.938 2.031-2.135c0-.305-.176-.732-.503-1.227a10.156 10.156 0 0 0-1.08-1.325Zm-1.577-.645a1.546 1.546 0 0 1 2.258 0c.375.396.824.912 1.181 1.454.346.524.659 1.148.659 1.743 0 1.679-1.312 3.073-2.969 3.073-1.657 0-2.969-1.394-2.969-3.073 0-.595.313-1.219.659-1.743a11.08 11.08 0 0 1 1.181-1.454Z" fill="#111"/></svg>