<svg width="36" height="36" viewBox="0 0 36 36" fill="none" xmlns="http://www.w3.org/2000/svg"><rect width="36" height="36" rx="18" fill="#C9E5FF"/><path fill-rule="evenodd" clip-rule="evenodd" d="M15.984 11.878c.888-.305 1.44-.493 2.016-.493.577 0 1.128.188 2.016.493l.448.153c.912.312 1.615.553 2.119.757.253.103.472.203.647.305a1.4 1.4 0 0 1 .454.385c.114.162.173.361.21.553.038.2.061.44.076.714.03.546.03 1.294.03 2.264v.986c0 3.754-2.836 5.554-4.522 6.29l-.017.008c-.209.091-.405.177-.631.235a3.252 3.252 0 0 1-.83.087c-.338 0-.591-.026-.83-.087-.226-.058-.422-.143-.631-.235l-.017-.007C14.836 23.549 12 21.749 12 17.995v-.986c0-.97 0-1.718.03-2.264.015-.274.038-.514.076-.713.037-.193.096-.392.21-.554a1.4 1.4 0 0 1 .454-.385c.175-.102.394-.202.647-.305.504-.204 1.207-.445 2.119-.757l.448-.153Zm1.554.484c-.306.066-.698.198-1.335.416l-.352.12c-.93.32-1.61.552-2.086.745-.238.097-.41.178-.532.248-.06.035-.1.064-.128.086a.226.226 0 0 0-.033.031.243.243 0 0 0-.02.045 1.068 1.068 0 0 0-.04.153c-.026.14-.046.331-.06.59a40.483 40.483 0 0 0-.029 1.948l4.615-1.538v-2.844Zm.924 0v2.844l4.615 1.538c0-.847-.003-1.481-.028-1.948a4.597 4.597 0 0 0-.062-.59 1.068 1.068 0 0 0-.039-.153.243.243 0 0 0-.02-.045.232.232 0 0 0-.033-.03 1.013 1.013 0 0 0-.128-.087 4.381 4.381 0 0 0-.532-.248c-.476-.193-1.155-.426-2.086-.744l-.352-.121c-.637-.218-1.03-.35-1.335-.416Zm-.924 3.817-4.615 1.538v.278c0 3.184 2.382 4.752 3.969 5.445.228.1.36.156.507.194.043.01.088.02.14.029v-7.484Zm.924 7.484v-7.484l4.615 1.538v.278c0 3.184-2.382 4.752-3.969 5.445-.228.1-.36.156-.507.194-.043.01-.088.02-.14.029Z" fill="#111"/></svg>