<svg width="281" height="292" viewBox="0 0 281 292" fill="none" xmlns="http://www.w3.org/2000/svg"><g filter="url(#a)"><g clip-path="url(#b)"><rect x="53.403" y="11" width="216.593" height="230" rx="12" transform="rotate(10.624 53.403 11)" fill="#F6DAF7"/><path d="M73.57 43.03c-.734-.137-1.396-.119-1.985.056a3.844 3.844 0 0 0-1.503.857 4.918 4.918 0 0 0-1.07 1.468 7.655 7.655 0 0 0-.593 1.863 7.389 7.389 0 0 0-.11 1.994 5.15 5.15 0 0 0 .461 1.775c.268.525.645.976 1.13 1.352.486.375 1.096.632 1.83.77.904.17 1.694.114 2.37-.166.69-.277 1.177-.736 1.46-1.374l2.28.427a4.607 4.607 0 0 1-1.004 1.664c-.426.462-.923.83-1.49 1.104a5.976 5.976 0 0 1-1.884.501c-.69.06-1.408.021-2.155-.119-1.088-.204-2.011-.56-2.77-1.07a5.793 5.793 0 0 1-1.768-1.857 6.33 6.33 0 0 1-.818-2.473c-.113-.917-.073-1.892.122-2.928.189-1.009.502-1.92.94-2.733.453-.824 1.013-1.5 1.682-2.025a5.686 5.686 0 0 1 2.324-1.11c.895-.212 1.886-.217 2.973-.013 1.534.288 2.73.886 3.591 1.793.861.908 1.265 2.082 1.212 3.524l-2.241-.42a2.695 2.695 0 0 0-.838-1.826c-.514-.517-1.229-.861-2.146-1.033Zm8.674 5.575a3.515 3.515 0 0 1 1.783-.825 5.486 5.486 0 0 1 1.973.004c.708.132 1.316.362 1.824.688.522.328.942.733 1.258 1.212.317.48.527 1.029.628 1.644.104.603.09 1.258-.043 1.966a6.161 6.161 0 0 1-.748 2.037c-.344.6-.781 1.088-1.313 1.463a4.562 4.562 0 0 1-1.787.743c-.663.134-1.387.127-2.174-.02-1.032-.208-1.845-.577-2.437-1.109a4.65 4.65 0 0 1-1.258-1.864 6.567 6.567 0 0 1-.38-2.31c.008-.84.089-1.672.244-2.497.155-.826.372-1.66.653-2.503.293-.84.692-1.559 1.198-2.156.412-.465.85-.81 1.313-1.036a4.653 4.653 0 0 1 1.509-.45 8.718 8.718 0 0 1 1.662-.074c.578.027 1.176.058 1.794.092l1.425.105c.495.038.986.022 1.474-.05l-.402 2.143c-.255.061-.599.085-1.03.072-.43-.027-.885-.058-1.367-.094-.479-.05-.953-.09-1.421-.124-.466-.047-.881-.077-1.245-.091a2.756 2.756 0 0 0-2.115.865 3.28 3.28 0 0 0-.632.98 6.311 6.311 0 0 0-.386 1.19Zm1.825 6.976a2.65 2.65 0 0 0 1.228-.034 2.863 2.863 0 0 0 1.006-.483c.287-.23.523-.512.708-.844.186-.344.317-.713.39-1.107.077-.406.082-.798.018-1.177-.05-.389-.168-.73-.358-1.023a2.302 2.302 0 0 0-.711-.764c-.3-.206-.66-.348-1.08-.427a3.153 3.153 0 0 0-1.22-.005 2.428 2.428 0 0 0-.995.424c-.283.205-.53.47-.74.797-.21.327-.36.692-.45 1.096a4.2 4.2 0 0 0-.056 1.17c.038.373.143.719.314 1.036.185.32.43.602.736.85.322.237.725.4 1.21.491Zm12.855-6.623c.825.155 1.528.422 2.108.802.58.38 1.042.847 1.386 1.4a4.47 4.47 0 0 1 .689 1.859c.1.697.075 1.445-.075 2.244-.153.813-.402 1.526-.747 2.14-.33.602-.756 1.099-1.277 1.49-.52.39-1.126.65-1.815.778-.675.131-1.433.118-2.271-.04-.826-.154-1.53-.415-2.112-.782a4.65 4.65 0 0 1-1.39-1.38 4.954 4.954 0 0 1-.646-1.871c-.086-.695-.055-1.442.095-2.241.15-.8.391-1.507.724-2.123a4.597 4.597 0 0 1 1.296-1.487c.521-.39 1.12-.658 1.799-.802.678-.144 1.423-.14 2.236.013Zm-1.637 8.727c.51.096.96.092 1.345-.012a2.468 2.468 0 0 0 1.021-.561c.292-.257.53-.58.71-.966.195-.384.336-.812.424-1.284a4.79 4.79 0 0 0 .07-1.35 2.901 2.901 0 0 0-.308-1.177 2.296 2.296 0 0 0-.752-.873c-.322-.237-.738-.403-1.25-.5a3.145 3.145 0 0 0-1.325.017c-.399.101-.744.28-1.037.538-.28.26-.517.588-.714.985a5.35 5.35 0 0 0-.404 1.287c-.088.472-.118.921-.09 1.347.042.428.146.814.312 1.157.18.346.429.644.748.894.335.239.752.405 1.25.498Zm7.9 7.526-2.241-.42 2.699-14.39 2.123.399-.159 1.496a3.677 3.677 0 0 1 1.703-.942 4.57 4.57 0 0 1 2.007-.071c.708.133 1.319.383 1.833.75.517.355.929.799 1.236 1.331.321.535.517 1.149.591 1.84.089.682.057 1.436-.098 2.261a7.574 7.574 0 0 1-.697 2.088 5.026 5.026 0 0 1-1.205 1.544c-.469.4-1.016.678-1.642.832-.613.156-1.325.158-2.138.005a5.663 5.663 0 0 1-1.753-.633 3.726 3.726 0 0 1-1.282-1.3l-.977 5.21Zm4.024-5.289c.484.091.92.085 1.306-.02a2.512 2.512 0 0 0 1.001-.565c.292-.257.529-.579.71-.965.194-.384.336-.812.424-1.284a4.76 4.76 0 0 0 .07-1.35 2.904 2.904 0 0 0-.308-1.177 2.296 2.296 0 0 0-.752-.874c-.322-.236-.732-.402-1.23-.495a2.86 2.86 0 0 0-1.29.043c-.401.114-.755.3-1.06.554-.306.255-.563.58-.773.974a4.568 4.568 0 0 0-.413 1.225 5.033 5.033 0 0 0-.074 1.37c.042.428.153.815.332 1.16.195.336.459.63.791.882.333.252.754.426 1.266.522Zm6.268 3.048 1.943-10.36 2.221.417-.792 4.227 1.592.298 3.446-3.728 2.556.48-4.209 4.317 2.521 6.09-2.595-.487-1.947-4.7-1.729-.324-.786 4.187-2.221-.417Zm16.877 1.843a3.126 3.126 0 0 1-1.559.827c-.606.117-1.256.11-1.95-.02a5.584 5.584 0 0 1-1.477-.48 3.63 3.63 0 0 1-1.069-.811 3.053 3.053 0 0 1-.618-1.154 3.177 3.177 0 0 1-.036-1.431c.105-.564.306-1.021.603-1.373a2.764 2.764 0 0 1 1.089-.813 4.394 4.394 0 0 1 1.479-.292 6.902 6.902 0 0 1 1.688.113l2.654.498c.142-.76.082-1.382-.18-1.865-.262-.484-.817-.812-1.667-.985-.498-.093-.946-.089-1.345.012a1.332 1.332 0 0 0-.866.713l-2.3-.431c.182-.536.446-.968.792-1.296a3.96 3.96 0 0 1 1.2-.752 4.334 4.334 0 0 1 1.436-.28 7.362 7.362 0 0 1 1.523.123c.642.12 1.223.317 1.741.59.519.274.943.652 1.273 1.135.37.558.572 1.179.607 1.864a9.354 9.354 0 0 1-.166 2.187l-1.048 5.582-1.946-.365.142-1.296Zm.505-3.344-2.162-.406a6.816 6.816 0 0 0-1.159-.115 1.985 1.985 0 0 0-1.06.228c-.302.16-.49.444-.567.85-.093.498.013.911.317 1.24.321.318.743.526 1.267.624.406.076.789.094 1.15.053a2.24 2.24 0 0 0 1-.341c.296-.203.543-.475.743-.817.216-.353.373-.792.471-1.316Z" fill="#333"/><path opacity=".3" d="M76.566 190.181c5.953 1.095 11.066-.561 15.339-4.968 4.272-4.407 7.478-12.425 9.617-24.052 2.122-11.535 1.97-20.121-.455-25.76-2.407-5.732-6.588-9.146-12.541-10.241-6.046-1.112-11.214.582-15.504 5.082-4.18 4.424-7.33 12.404-9.452 23.938-2.139 11.627-2.042 20.252.29 25.874 2.424 5.639 6.66 9.015 12.706 10.127ZM91.811 107.3c5.674 1.044 10.704 2.979 15.088 5.805 4.478 2.843 8.006 6.666 10.585 11.467 2.689 4.726 4.382 10.423 5.079 17.091.79 6.684.38 14.398-1.228 23.142-1.625 8.837-3.95 16.247-6.974 22.23-3.024 5.983-6.586 10.713-10.688 14.19-4.101 3.477-8.75 5.747-13.947 6.811-5.103 1.081-10.585 1.082-16.445.004-5.86-1.077-11.03-3.038-15.507-5.881-4.385-2.826-7.921-6.602-10.61-11.328-2.596-4.709-4.242-10.397-4.94-17.064-.603-6.651-.092-14.394 1.533-23.231 1.608-8.744 3.924-16.108 6.948-22.091 3.024-5.983 6.633-10.704 10.828-14.164 4.211-3.553 8.869-5.87 13.972-6.951 5.103-1.08 10.539-1.09 16.306-.03Zm97.234 19.184c5.581 1.026 10.603 2.479 15.066 4.358 4.48 1.785 8.172 4.195 11.076 7.23 2.921 2.941 4.935 6.63 6.043 11.065 1.124 4.342 1.122 9.582-.007 15.722-1.078 5.86-3.127 10.724-6.146 14.592-3.003 3.776-6.604 6.623-10.804 8.543-3.683 1.727-7.767 2.755-12.251 3.084-4.391.346-9.192.04-14.401-.918l-17.441-3.208-1.899 10.325 22.464 4.132-2.695 14.651-22.464-4.132-1.873 10.186-20.232-3.722 1.874-10.185-11.442-2.105 2.695-14.65 11.441 2.104 1.899-10.325-11.441-2.105 3.003-16.325 11.441 2.105 8.701-47.3 37.393 6.878Zm-9.816 47.095c2.604.479 5.066.691 7.384.637 2.428-.131 4.582-.6 6.461-1.408a13.46 13.46 0 0 0 5.033-3.835c1.366-1.672 2.351-3.895 2.958-6.668.674-3.146.671-5.743-.01-7.791-.571-2.125-1.646-3.861-3.225-5.21-1.486-1.331-3.413-2.358-5.78-3.082-2.35-.817-4.967-1.491-7.85-2.021l-15.627-2.875-5.39 29.301 16.046 2.952Z" fill="#fff"/><circle cx="251.894" cy="63.189" r="5" transform="rotate(-1.376 251.894 63.189)" fill="#FAFAFA"/></g></g><defs><clipPath id="b"><rect x="53.403" y="11" width="216.593" height="230" rx="12" transform="rotate(10.624 53.403 11)" fill="#fff"/></clipPath><filter id="a" x="-1.5" y="-1.5" width="284.283" height="294.989" filterUnits="userSpaceOnUse" color-interpolation-filters="sRGB"><feFlood flood-opacity="0" result="BackgroundImageFix"/><feColorMatrix in="SourceAlpha" values="0 0 0 0 0 0 0 0 0 0 0 0 0 0 0 0 0 0 127 0" result="hardAlpha"/><feOffset dx="2" dy="2"/><feGaussianBlur stdDeviation="7.25"/><feComposite in2="hardAlpha" operator="out"/><feColorMatrix values="0 0 0 0 0 0 0 0 0 0 0 0 0 0 0 0 0 0 0.06 0"/><feBlend in2="BackgroundImageFix" result="effect1_dropShadow_439_3101"/><feBlend in="SourceGraphic" in2="effect1_dropShadow_439_3101" result="shape"/></filter></defs></svg>