<svg width="261" height="301" viewBox="0 0 261 301" fill="none" xmlns="http://www.w3.org/2000/svg"><g filter="url(#a)"><g clip-path="url(#b)"><rect x="12" y="25.803" width="216.593" height="259.232" rx="12" transform="rotate(-3.654 12 25.803)" fill="#C9E5FF"/><path d="m43.304 62.684-2.315.148-.769-12.035-6.826.436.769 12.035-2.315.148-.902-14.111 11.457-.732.901 14.111Zm5.416 3.763-2.275.145-.933-14.61 2.156-.138.215 1.49A3.673 3.673 0 0 1 49.301 52a4.57 4.57 0 0 1 1.928-.563c.719-.046 1.373.045 1.962.275a4.056 4.056 0 0 1 1.526.985c.442.44.784.985 1.026 1.638.255.638.408 1.377.462 2.215a7.557 7.557 0 0 1-.16 2.195 5.02 5.02 0 0 1-.788 1.793 3.933 3.933 0 0 1-1.385 1.211c-.556.303-1.246.48-2.07.533a5.663 5.663 0 0 1-1.856-.182 3.724 3.724 0 0 1-1.563-.942l.337 5.289Zm2.596-6.118c.492-.031.913-.145 1.26-.341.348-.21.625-.474.832-.795.22-.32.37-.691.45-1.11.093-.42.125-.87.094-1.35a4.788 4.788 0 0 0-.265-1.325 2.901 2.901 0 0 0-.589-1.065 2.298 2.298 0 0 0-.944-.66c-.37-.15-.808-.21-1.314-.178a2.86 2.86 0 0 0-1.24.36c-.36.21-.657.476-.89.799-.234.322-.403.7-.51 1.134a4.57 4.57 0 0 0-.097 1.29c.03.478.12.927.266 1.345.146.405.349.753.608 1.043.271.277.6.496.984.659.384.163.836.227 1.355.194Zm8.815-3.228c.051.384.154.738.308 1.062.155.324.353.606.595.844.242.225.534.4.876.525.355.125.759.172 1.211.143.48-.03.913-.145 1.3-.343.402-.2.683-.518.842-.956l2.335-.149a3.59 3.59 0 0 1-.57 1.42c-.269.404-.601.746-.998 1.025a4.785 4.785 0 0 1-1.302.624 7.09 7.09 0 0 1-1.527.258c-.838.054-1.585-.026-2.24-.238a4.17 4.17 0 0 1-1.647-.997 4.738 4.738 0 0 1-1.066-1.635c-.242-.653-.39-1.391-.442-2.216-.051-.799.016-1.531.2-2.198.184-.68.473-1.272.869-1.779.408-.507.91-.913 1.505-1.218.594-.319 1.284-.503 2.069-.553.825-.053 1.546.042 2.163.283a4.176 4.176 0 0 1 1.567 1.002c.442.44.783.965 1.022 1.578.24.613.383 1.285.43 2.017.022.346.023.686.005 1.021l-7.505.48Zm5.24-2.058c-.093-.823-.393-1.432-.899-1.827-.493-.396-1.118-.57-1.877-.521a2.896 2.896 0 0 0-1.105.27c-.31.154-.572.351-.784.592a2.76 2.76 0 0 0-.468.831 3.43 3.43 0 0 0-.197.995l5.33-.34Zm5.143-1.19c-.001-.441-.014-.962-.04-1.561a87.85 87.85 0 0 0-.1-1.898l8.103-.517.548 8.582 1.377-.088.32 5.01-2.215.142-.197-3.074-7.185.459.196 3.074-2.215.141-.32-5.01c.386-.024.697-.164.935-.42.25-.27.413-.548.488-.833a5.07 5.07 0 0 0 .182-.913c.043-.377.073-.747.09-1.108.017-.362.029-.697.036-1.005.007-.308.006-.635-.003-.982Zm5.814-1.855-3.753.24c.004.48.018 1 .04 1.56.022.56.037 1.1.043 1.621.006.294.004.58-.005.862-.01.268-.031.556-.065.866a7.077 7.077 0 0 1-.163.892 3.963 3.963 0 0 1-.326.863l4.65-.297-.421-6.607Zm9.826-2.792c.838-.053 1.585.033 2.241.258a4.523 4.523 0 0 1 1.688 1.014c.482.437.858.981 1.126 1.632.269.65.43 1.382.481 2.194.053.825-.013 1.577-.196 2.257a4.59 4.59 0 0 1-.87 1.759c-.409.507-.93.908-1.567 1.202-.622.294-1.36.468-2.21.522-.84.054-1.586-.025-2.24-.237a4.651 4.651 0 0 1-1.687-.995 4.955 4.955 0 0 1-1.088-1.654c-.255-.652-.409-1.383-.46-2.195-.053-.812.007-1.557.177-2.236.184-.68.48-1.267.89-1.76a4.524 4.524 0 0 1 1.545-1.221c.622-.307 1.345-.487 2.17-.54Zm.566 8.862c.519-.033.953-.147 1.3-.343.361-.21.645-.476.852-.796.22-.322.37-.692.45-1.111.093-.42.125-.87.094-1.349a4.788 4.788 0 0 0-.265-1.326 2.9 2.9 0 0 0-.589-1.064 2.299 2.299 0 0 0-.944-.662c-.37-.15-.815-.208-1.334-.175-.479.03-.906.145-1.28.343a2.464 2.464 0 0 0-.873.777c-.207.32-.356.697-.449 1.13a5.35 5.35 0 0 0-.074 1.348c.03.479.112.921.245 1.327.146.405.342.753.588 1.045.259.29.574.517.945.68.384.15.828.208 1.334.176Zm7.374 1.373-.672-10.519 9.222-.588.671 10.518-2.275.146-.546-8.543-4.67.298.546 8.543-2.276.145Zm12.353-5.819c.009-.909-.009-1.81-.052-2.702-.031-.907-.065-1.846-.1-2.82l7.864-.502.672 10.519-2.296.147-.545-8.543-3.453.22.045 1.962c.027.64.042 1.28.042 1.92.002.241-.006.529-.025.864-.006.321-.025.65-.057.986a5.168 5.168 0 0 1-.181.933 3.894 3.894 0 0 1-.349.804 2.442 2.442 0 0 1-1.062.95c-.441.202-.961.322-1.56.36l-.559.035-.125-1.956c.399-.025.713-.139.94-.34.24-.216.411-.474.512-.774.114-.315.186-.647.217-.996.044-.364.068-.72.072-1.067Zm17.565 2.606c-.315.514-.75.91-1.307 1.186-.558.262-1.189.416-1.895.461a5.59 5.59 0 0 1-1.549-.101 3.625 3.625 0 0 1-1.236-.522 3.043 3.043 0 0 1-.883-.966 3.17 3.17 0 0 1-.389-1.378c-.037-.572.046-1.065.246-1.479.2-.427.485-.779.855-1.056a4.404 4.404 0 0 1 1.361-.648 6.914 6.914 0 0 1 1.664-.307l2.695-.172c-.05-.772-.261-1.36-.634-1.763-.373-.404-.993-.585-1.859-.543-.505.032-.939.147-1.3.343-.348.196-.57.498-.664.905l-2.335.149c.044-.564.193-1.048.448-1.452.268-.404.594-.746.977-1.024.396-.28.837-.488 1.323-.626a7.36 7.36 0 0 1 1.506-.256 6.13 6.13 0 0 1 1.833.143 3.49 3.49 0 0 1 1.513.785c.497.45.846 1.002 1.048 1.657.202.655.328 1.375.379 2.16l.362 5.669-1.976.126-.183-1.291Zm-.335-3.366-2.196.14a6.83 6.83 0 0 0-1.151.174 1.985 1.985 0 0 0-.971.483c-.253.23-.366.551-.34.964.033.506.237.88.613 1.123.389.23.849.327 1.382.293a3.864 3.864 0 0 0 1.127-.233c.353-.129.648-.322.885-.577.237-.27.41-.594.519-.975.122-.395.166-.86.132-1.392Zm12.468-6.668.126 1.976-3.552.227.545 8.543-2.255.144-.546-8.543-3.552.227-.127-1.976 9.361-.598Zm8.684 8.705c-.315.514-.75.91-1.307 1.185-.558.263-1.189.417-1.895.462a5.588 5.588 0 0 1-1.549-.101 3.625 3.625 0 0 1-1.236-.523 3.043 3.043 0 0 1-.883-.965 3.17 3.17 0 0 1-.389-1.378c-.037-.573.046-1.066.246-1.48.2-.426.485-.778.855-1.056a4.404 4.404 0 0 1 1.361-.648 6.905 6.905 0 0 1 1.664-.306l2.694-.172c-.049-.772-.26-1.36-.633-1.764-.373-.403-.993-.584-1.859-.542-.505.032-.939.147-1.3.343-.349.196-.57.498-.664.904l-2.335.15c.044-.565.193-1.048.448-1.452.268-.405.594-.746.977-1.024.396-.28.837-.488 1.323-.626a7.36 7.36 0 0 1 1.506-.256 6.13 6.13 0 0 1 1.833.143 3.49 3.49 0 0 1 1.513.785c.497.45.846 1.002 1.048 1.657.202.655.328 1.375.379 2.16l.361 5.668-1.975.127-.183-1.291Zm-.335-3.366-2.196.14a6.83 6.83 0 0 0-1.151.174 1.985 1.985 0 0 0-.971.483c-.253.23-.366.551-.34.964.033.505.237.88.613 1.123.389.229.849.326 1.382.292a3.864 3.864 0 0 0 1.127-.232c.353-.13.648-.322.885-.577.237-.27.41-.594.519-.976.122-.395.166-.858.132-1.39Z" fill="#333"/><path opacity=".3" d="M81.007 192.285c6.041-.378 10.601-3.221 13.681-8.531 3.08-5.31 4.25-13.864 3.513-25.664-.731-11.705-2.955-20-6.672-24.885-3.723-4.979-8.605-7.28-14.646-6.903-6.136.384-10.74 3.278-13.814 8.682-2.986 5.304-4.113 13.808-3.381 25.513.737 11.8 2.917 20.145 6.54 25.036 3.717 4.885 8.643 7.135 14.779 6.752Zm-5.257-84.107c5.758-.359 11.106.301 16.044 1.983 5.033 1.675 9.381 4.531 13.045 8.566 3.752 3.935 6.773 9.053 9.062 15.354 2.383 6.295 3.852 13.879 4.407 22.753.56 8.967.097 16.719-1.39 23.256-1.486 6.537-3.799 11.989-6.938 16.354-3.138 4.366-7.1 7.694-11.885 9.983-4.69 2.283-10.009 3.61-15.956 3.982-5.947.372-11.436-.28-16.469-1.956-4.938-1.681-9.283-4.49-13.035-8.425-3.658-3.941-6.631-9.062-8.92-15.363-2.195-6.306-3.573-13.944-4.133-22.911-.555-8.873-.089-16.578 1.398-23.115 1.487-6.537 3.847-11.992 7.08-16.363 3.227-4.466 7.186-7.841 11.876-10.124 4.69-2.283 9.962-3.608 15.814-3.974Zm98.987-4.907c5.664-.354 10.888-.159 15.673.584 4.779.649 8.944 2.095 12.495 4.337 3.546 2.147 6.393 5.239 8.54 9.274 2.142 3.941 3.407 9.027 3.797 15.257.371 5.947-.44 11.162-2.434 15.646-2 4.389-4.805 8.023-8.416 10.903-3.156 2.566-6.87 4.551-11.142 5.955-4.177 1.398-8.908 2.263-14.194 2.593l-17.699 1.106.654 10.478 22.797-1.424.929 14.867-22.796 1.425.646 10.336-20.531 1.283-.646-10.336-11.611.725-.929-14.867 11.61-.726-.655-10.478-11.61.726-1.036-16.566 11.611-.726-3-48 37.947-2.372Zm1.867 48.071c2.644-.165 5.083-.554 7.319-1.168 2.325-.714 4.301-1.69 5.929-2.929a13.455 13.455 0 0 0 3.956-4.938c.92-1.953 1.339-4.348 1.257-7.186-.106-3.215-.738-5.735-1.894-7.558-1.068-1.923-2.531-3.348-4.389-4.274-1.765-.932-3.883-1.463-6.354-1.593-2.478-.224-5.18-.245-8.107-.062l-15.858.991 1.858 29.735 16.283-1.018Z" fill="#fff"/><circle cx="214.522" cy="29.508" r="5" transform="rotate(8.155 214.522 29.508)" fill="#FAFAFA"/></g></g><defs><clipPath id="b"><rect x="12" y="25.803" width="216.593" height="259.232" rx="12" transform="rotate(-3.654 12 25.803)" fill="#fff"/></clipPath><filter id="a" x="-.5" y="-.5" width="261.672" height="301.508" filterUnits="userSpaceOnUse" color-interpolation-filters="sRGB"><feFlood flood-opacity="0" result="BackgroundImageFix"/><feColorMatrix in="SourceAlpha" values="0 0 0 0 0 0 0 0 0 0 0 0 0 0 0 0 0 0 127 0" result="hardAlpha"/><feOffset dx="2" dy="2"/><feGaussianBlur stdDeviation="7.25"/><feComposite in2="hardAlpha" operator="out"/><feColorMatrix values="0 0 0 0 0 0 0 0 0 0 0 0 0 0 0 0 0 0 0.06 0"/><feBlend in2="BackgroundImageFix" result="effect1_dropShadow_439_3109"/><feBlend in="SourceGraphic" in2="effect1_dropShadow_439_3109" result="shape"/></filter></defs></svg>