<svg width="258" height="295" viewBox="0 0 258 295" fill="none" xmlns="http://www.w3.org/2000/svg"><g filter="url(#a)"><rect x="25.524" y="12" width="216" height="255.589" rx="12" transform="rotate(3.033 25.524 12)" fill="#DADBF7"/><path d="m41.406 56.726.307-5.792.16.009c.413.022.751-.067 1.016-.267.278-.212.507-.507.687-.885a5.32 5.32 0 0 0 .41-1.32c.108-.515.198-1.071.27-1.668.15-1.327.265-2.623.346-3.887l.287-3.91 9.606.509-.639 12.063 1.698.09-.307 5.791-2.297-.121.198-3.735-9.247-.49-.198 3.735-2.297-.122Zm10.133-5.271.53-9.986-5.093-.27-.406 5.006c-.03.319-.07.69-.119 1.115-.035.412-.091.843-.169 1.293-.063.437-.153.88-.27 1.327a7.703 7.703 0 0 1-.424 1.2l5.951.315Zm10.376-8.122c.839.044 1.57.216 2.196.517.625.3 1.144.701 1.558 1.204.428.49.738 1.073.929 1.751.19.678.265 1.423.222 2.235-.044.826-.197 1.565-.458 2.219a4.588 4.588 0 0 1-1.069 1.646 4.289 4.289 0 0 1-1.696 1.011c-.652.22-1.404.306-2.257.261-.839-.044-1.57-.21-2.197-.497a4.65 4.65 0 0 1-1.559-1.184 4.954 4.954 0 0 1-.888-1.77c-.177-.676-.245-1.42-.202-2.233.043-.812.189-1.546.437-2.2a4.597 4.597 0 0 1 1.089-1.645 4.524 4.524 0 0 1 1.677-1.032c.653-.233 1.392-.327 2.218-.283Zm-.47 8.867c.52.028.963-.036 1.332-.19.383-.166.695-.397.938-.691.256-.294.448-.644.576-1.051.142-.406.226-.85.251-1.329.025-.479-.01-.928-.109-1.347a2.901 2.901 0 0 0-.46-1.126 2.299 2.299 0 0 0-.862-.767c-.35-.192-.785-.302-1.304-.33a3.143 3.143 0 0 0-1.312.192c-.382.153-.7.376-.957.67a3.362 3.362 0 0 0-.577 1.07 5.35 5.35 0 0 0-.23 1.33c-.026.48.003.929.088 1.347.098.42.252.788.462 1.106.224.319.51.581.86.787.363.192.798.302 1.304.33Zm11.39 2.586c-.838-.044-1.57-.21-2.196-.496a4.489 4.489 0 0 1-1.52-1.182 4.907 4.907 0 0 1-.848-1.748 7.635 7.635 0 0 1-.183-2.213 7.19 7.19 0 0 1 .436-2.18 4.79 4.79 0 0 1 1.09-1.664 4.794 4.794 0 0 1 1.657-1.054c.64-.247 1.374-.348 2.2-.304a6.198 6.198 0 0 1 1.607.285c.5.147.934.377 1.305.69.371.3.685.678.941 1.132.257.44.423.97.497 1.588l-2.357-.125a1.666 1.666 0 0 0-.724-1.08c-.372-.273-.845-.425-1.417-.455-.506-.027-.944.043-1.313.21-.37.168-.676.406-.92.713-.243.308-.429.672-.558 1.092a5.89 5.89 0 0 0-.209 1.29c-.024.467.006.91.09 1.328.085.418.232.786.443 1.104.224.306.51.562.86.767.35.192.779.302 1.285.328.599.032 1.098-.075 1.499-.32.413-.246.685-.585.815-1.019l2.336.124c-.138.593-.365 1.102-.681 1.526a3.658 3.658 0 0 1-1.096 1.023c-.427.258-.898.44-1.41.547a7.017 7.017 0 0 1-1.628.093Zm14.956-9.902-.105 1.977-3.555-.188-.452 8.548-2.257-.12.453-8.548-3.555-.188.104-1.977 9.367.496Zm7.212 9.635a3.122 3.122 0 0 1-1.436 1.026c-.585.195-1.23.275-1.936.237a5.59 5.59 0 0 1-1.527-.28 3.624 3.624 0 0 1-1.167-.663 3.05 3.05 0 0 1-.764-1.062 3.174 3.174 0 0 1-.226-1.414c.03-.573.17-1.053.417-1.44.248-.401.572-.718.971-.95a4.399 4.399 0 0 1 1.428-.485 6.902 6.902 0 0 1 1.688-.111l2.697.143c.04-.773-.1-1.38-.424-1.825-.324-.445-.918-.697-1.783-.756-.506-.026-.95.037-1.332.19a1.334 1.334 0 0 0-.764.82l-2.337-.123c.11-.555.314-1.018.614-1.39.314-.37.677-.671 1.09-.903a4.332 4.332 0 0 1 1.386-.467 7.361 7.361 0 0 1 1.527-.08 6.125 6.125 0 0 1 1.803.356c.55.203 1.02.522 1.412.956.44.504.723 1.093.847 1.768.125.674.166 1.404.125 2.19l-.3 5.671-1.978-.105-.031-1.303Zm.059-3.381-2.197-.117a6.822 6.822 0 0 0-1.164.038c-.389.033-.729.156-1.02.367-.278.199-.428.505-.45.917-.026.506.133.902.478 1.188.36.272.805.423 1.338.45.413.023.795-.01 1.147-.099a2.24 2.24 0 0 0 .946-.47c.267-.24.476-.542.63-.908.166-.378.264-.834.292-1.366Zm4.552-5.627 4.494.238c.466.024.937.076 1.414.155.477.065.904.201 1.28.408.389.208.694.497.915.87.235.36.343.839.324 1.439a2.714 2.714 0 0 1-.388 1.281c-.234.388-.591.696-1.07.925.629.207 1.079.538 1.349.992.284.443.41.963.378 1.563-.03.559-.169 1.039-.417 1.44a2.886 2.886 0 0 1-.951.93c-.385.22-.827.377-1.326.471a7.378 7.378 0 0 1-1.567.077l-4.993-.264.558-10.526Zm2.196 2.018-.128 2.417 1.378.073.939.05c.334.004.629-.027.886-.093.271-.066.49-.181.659-.346.183-.164.282-.406.299-.725.015-.28-.04-.496-.166-.65a1.11 1.11 0 0 0-.44-.384 1.88 1.88 0 0 0-.632-.173 10.883 10.883 0 0 0-.638-.054l-2.157-.114Zm1.962 6.834c.266.014.526.014.781.001a2.16 2.16 0 0 0 .708-.142c.219-.096.399-.22.541-.373.142-.165.22-.388.235-.668.027-.506-.115-.854-.425-1.044-.297-.19-.672-.296-1.125-.32l-2.896-.153-.136 2.576 2.317.123Zm6.08 2.245.558-10.525 2.257.12-.228 4.293 1.618.086 2.924-4.151 2.596.137-3.601 4.837 3.303 5.702-2.636-.14-2.551-4.4-1.758-.094-.225 4.254-2.257-.12Zm16.973-.403a3.124 3.124 0 0 1-1.437 1.026c-.584.196-1.229.275-1.935.238a5.59 5.59 0 0 1-1.527-.282 3.621 3.621 0 0 1-1.167-.662 3.06 3.06 0 0 1-.765-1.062 3.164 3.164 0 0 1-.225-1.414c.03-.573.169-1.053.417-1.44.248-.4.572-.718.971-.95a4.402 4.402 0 0 1 1.428-.485 6.9 6.9 0 0 1 1.688-.111l2.696.143c.041-.772-.1-1.38-.424-1.825-.323-.444-.917-.696-1.782-.755-.506-.027-.95.036-1.332.19a1.334 1.334 0 0 0-.765.82l-2.336-.124c.109-.555.314-1.018.614-1.39a3.96 3.96 0 0 1 1.089-.903 4.345 4.345 0 0 1 1.387-.467 7.36 7.36 0 0 1 1.526-.08 6.123 6.123 0 0 1 1.804.357 3.49 3.49 0 0 1 1.411.955 3.63 3.63 0 0 1 .848 1.768c.125.674.166 1.404.124 2.19l-.3 5.672-1.977-.105-.031-1.304Zm.059-3.381-2.197-.117a6.828 6.828 0 0 0-1.164.039 1.989 1.989 0 0 0-1.021.366c-.277.2-.427.505-.449.918-.027.506.132.901.478 1.187.359.272.805.423 1.338.451.413.022.795-.011 1.147-.1.365-.087.68-.244.946-.47.266-.24.476-.542.629-.908.167-.378.264-.834.293-1.366Z" fill="#333"/><path opacity=".3" d="M73.816 189.691c6.046.299 10.895-2.018 14.548-6.951 3.653-4.933 5.771-13.303 6.355-25.111.58-11.714-.705-20.205-3.853-25.474-3.144-5.364-7.739-8.196-13.784-8.495-6.14-.303-11.04 2.059-14.697 7.086-3.559 4.937-5.628 13.263-6.207 24.977-.584 11.808.65 20.344 3.705 25.609 3.148 5.269 7.793 8.055 13.933 8.359Zm4.163-84.168c5.762.285 11.003 1.539 15.723 3.761 4.814 2.227 8.816 5.55 12.006 9.969 3.29 4.329 5.721 9.752 7.292 16.269 1.666 6.522 2.28 14.223 1.84 23.102-.444 8.974-1.769 16.626-3.976 22.957-2.207 6.33-5.114 11.489-8.72 15.477-3.606 3.988-7.915 6.853-12.925 8.594-4.916 1.745-10.35 2.471-16.3 2.176-5.952-.294-11.334-1.555-16.148-3.781-4.72-2.222-8.724-5.498-12.014-9.827-3.195-4.325-5.578-9.746-7.15-16.263-1.477-6.512-1.994-14.256-1.55-23.23.44-8.879 1.762-16.484 3.97-22.814 2.206-6.33 5.16-11.487 8.861-15.471 3.706-4.078 8.016-6.99 12.932-8.735 4.916-1.746 10.302-2.473 16.159-2.184Zm98.916 6.171c5.668.281 10.838 1.057 15.51 2.33 4.676 1.178 8.654 3.079 11.933 5.704 3.284 2.53 5.768 5.919 7.452 10.169 1.688 4.156 2.378 9.351 2.07 15.585-.295 5.952-1.683 11.044-4.165 15.277-2.477 4.139-5.671 7.437-9.58 9.895-3.423 2.198-7.335 3.757-11.737 4.675-4.307.924-9.105 1.255-14.395.993l-17.712-.876-.519 10.485 22.813 1.129-.736 14.878-22.813-1.128-.512 10.343-20.546-1.016.512-10.344-11.619-.574.736-14.879 11.619.575.519-10.485-11.619-.575.82-16.579 11.619.575 2.376-48.035 37.974 1.878Zm-3.509 47.979c2.645.131 5.112.017 7.403-.344 2.39-.45 4.463-1.199 6.219-2.249a13.451 13.451 0 0 0 4.482-4.466c1.133-1.837 1.816-4.171 2.051-7 .253-3.207-.093-5.781-1.038-7.722-.847-2.03-2.142-3.61-3.885-4.737-1.649-1.124-3.695-1.888-6.137-2.293-2.437-.499-5.12-.821-8.049-.966l-15.87-.785-1.471 29.756 16.295.806Z" fill="#fff"/><circle cx="227.241" cy="35.241" r="5" transform="rotate(2.832 227.241 35.24)" fill="#FAFAFA"/></g><defs><filter id="a" x="-.5" y="-.5" width="258.222" height="295.661" filterUnits="userSpaceOnUse" color-interpolation-filters="sRGB"><feFlood flood-opacity="0" result="BackgroundImageFix"/><feColorMatrix in="SourceAlpha" values="0 0 0 0 0 0 0 0 0 0 0 0 0 0 0 0 0 0 127 0" result="hardAlpha"/><feOffset dx="2" dy="2"/><feGaussianBlur stdDeviation="7.25"/><feComposite in2="hardAlpha" operator="out"/><feColorMatrix values="0 0 0 0 0 0 0 0 0 0 0 0 0 0 0 0 0 0 0.06 0"/><feBlend in2="BackgroundImageFix" result="effect1_dropShadow_439_3105"/><feBlend in="SourceGraphic" in2="effect1_dropShadow_439_3105" result="shape"/></filter></defs></svg>