<svg width="36" height="36" viewBox="0 0 36 36" fill="none" xmlns="http://www.w3.org/2000/svg">
<rect width="36" height="36" rx="18" fill="#DADBF7"/>
<rect width="36" height="36" rx="18" fill="#DAF7EE"/>
<path fill-rule="evenodd" clip-rule="evenodd" d="M13.3333 14.9373C13.2528 14.9373 13.1875 15.0026 13.1875 15.0831V22.6665C13.1875 22.747 13.2528 22.8123 13.3333 22.8123H22.6667C22.7472 22.8123 22.8125 22.747 22.8125 22.6665V15.0831C22.8125 15.0026 22.7472 14.9373 22.6667 14.9373H13.3333ZM12.3125 15.0831C12.3125 14.5193 12.7695 14.0623 13.3333 14.0623H22.6667C23.2305 14.0623 23.6875 14.5193 23.6875 15.0831V22.6665C23.6875 23.2302 23.2305 23.6873 22.6667 23.6873H13.3333C12.7695 23.6873 12.3125 23.2302 12.3125 22.6665V15.0831Z" fill="#111111"/>
<path fill-rule="evenodd" clip-rule="evenodd" d="M15.7979 18.002C15.7979 17.7604 15.9937 17.5645 16.2354 17.5645H19.7354C19.977 17.5645 20.1729 17.7604 20.1729 18.002C20.1729 18.2436 19.977 18.4395 19.7354 18.4395H16.2354C15.9937 18.4395 15.7979 18.2436 15.7979 18.002Z" fill="#111111"/>
<path fill-rule="evenodd" clip-rule="evenodd" d="M14.4624 12.1703C14.5455 12.0754 14.6655 12.0209 14.7917 12.0209H21.2083C21.3345 12.0209 21.4545 12.0754 21.5376 12.1703L23.5793 14.5037C23.7384 14.6855 23.7199 14.9619 23.5381 15.121C23.3563 15.2801 23.0799 15.2617 22.9208 15.0799L21.0098 12.8959H14.9902L13.0793 15.0799C12.9201 15.2617 12.6438 15.2801 12.4619 15.121C12.2801 14.9619 12.2616 14.6855 12.4208 14.5037L14.4624 12.1703Z" fill="#111111"/>
</svg>
