<svg width="36" height="36" viewBox="0 0 36 36" fill="none" xmlns="http://www.w3.org/2000/svg">
<rect width="36" height="36" rx="18" fill="#C9E5FF"/>
<path fill-rule="evenodd" clip-rule="evenodd" d="M15.9836 11.8776C16.8722 11.5733 17.4231 11.3846 18 11.3846C18.5769 11.3846 19.1278 11.5733 20.0164 11.8776L20.464 12.0308C21.3756 12.3429 22.0791 12.5837 22.5828 12.7883C22.8364 12.8914 23.0545 12.9912 23.2302 13.0932C23.3992 13.1913 23.5687 13.3137 23.6839 13.4779C23.7978 13.6401 23.8567 13.8395 23.8937 14.0315C23.9321 14.2311 23.9553 14.4705 23.9703 14.7455C24 15.2913 24 16.0391 24 17.0091V17.9947C24 21.7492 21.1643 23.5492 19.4779 24.2859L19.4613 24.2932C19.2522 24.3845 19.0556 24.4704 18.8298 24.5282C18.5913 24.5893 18.338 24.6154 18 24.6154C17.662 24.6154 17.4087 24.5893 17.1702 24.5282C16.9444 24.4704 16.7478 24.3845 16.5387 24.2932L16.5221 24.2859C14.8357 23.5492 12 21.7492 12 17.9947V17.0092C12 16.0392 12 15.2913 12.0297 14.7455C12.0447 14.4705 12.0679 14.2311 12.1063 14.0315C12.1433 13.8395 12.2022 13.6401 12.3161 13.4779C12.4313 13.3137 12.6008 13.1913 12.7698 13.0932C12.9455 12.9912 13.1636 12.8914 13.4172 12.7883C13.9209 12.5837 14.6244 12.3429 15.536 12.0309L15.9836 11.8776ZM17.5385 12.3618C17.2323 12.4283 16.8401 12.5601 16.2035 12.778L15.851 12.8987C14.9201 13.2173 14.2413 13.4499 13.7647 13.6435C13.5268 13.7401 13.3544 13.8211 13.2334 13.8914C13.1737 13.9261 13.1325 13.9547 13.105 13.9771C13.0817 13.996 13.0728 14.0067 13.0716 14.0083C13.0704 14.0102 13.0627 14.023 13.052 14.0533C13.0397 14.0878 13.026 14.1373 13.0127 14.2062C12.9859 14.3457 12.9655 14.5372 12.9514 14.7956C12.926 15.2629 12.9234 15.8972 12.9231 16.7443L17.5385 15.2058V12.3618ZM18.4615 12.3618V15.2058L23.0769 16.7443C23.0766 15.8972 23.074 15.2629 23.0486 14.7956C23.0345 14.5372 23.0141 14.3457 22.9873 14.2062C22.974 14.1373 22.9603 14.0878 22.948 14.0533C22.9373 14.023 22.9296 14.0102 22.9284 14.0083C22.9271 14.0067 22.9183 13.996 22.895 13.9771C22.8675 13.9547 22.8263 13.9261 22.7666 13.8914C22.6456 13.8211 22.4732 13.7401 22.2353 13.6435C21.7587 13.4499 21.0799 13.2173 20.149 12.8987L19.7965 12.778C19.1599 12.5601 18.7677 12.4283 18.4615 12.3618ZM17.5385 16.1788L12.9231 17.7173V17.9947C12.9231 21.1794 15.3046 22.7467 16.8916 23.44C17.1202 23.5398 17.2522 23.5964 17.3991 23.634C17.4419 23.6449 17.4875 23.6546 17.5385 23.6628V16.1788ZM18.4615 23.6628V16.1788L23.0769 17.7173V17.9947C23.0769 21.1794 20.6954 22.7467 19.1084 23.44C18.8798 23.5399 18.7478 23.5964 18.6009 23.634C18.5581 23.6449 18.5125 23.6546 18.4615 23.6628Z" fill="#111111"/>
</svg>
