<svg width="36" height="36" viewBox="0 0 36 36" fill="none" xmlns="http://www.w3.org/2000/svg">
<rect width="36" height="36" rx="18" fill="#DADBF7"/>
<path fill-rule="evenodd" clip-rule="evenodd" d="M18.4484 12.8442C18.1995 12.5817 17.8005 12.5817 17.5516 12.8442C17.1943 13.2212 16.7871 13.6924 16.4721 14.1695C16.1455 14.6643 15.9688 15.0912 15.9688 15.3958C15.9688 16.5934 16.896 17.5313 18 17.5313C19.104 17.5313 20.0312 16.5934 20.0312 15.3958C20.0312 15.0912 19.8545 14.6643 19.5279 14.1695C19.2129 13.6924 18.8057 13.2212 18.4484 12.8442ZM16.8712 12.1993C17.4898 11.5466 18.5102 11.5466 19.1288 12.1993C19.5042 12.5954 19.9527 13.1114 20.3103 13.653C20.6562 14.177 20.9688 14.8006 20.9688 15.3958C20.9688 17.0747 19.6574 18.4688 18 18.4688C16.3426 18.4688 15.0312 17.0747 15.0312 15.3958C15.0312 14.8006 15.3438 14.177 15.6897 13.653C16.0473 13.1114 16.4958 12.5954 16.8712 12.1993ZM14.6984 19.0942C14.4495 18.8317 14.0505 18.8317 13.8016 19.0942C13.4443 19.4712 13.0371 19.9424 12.7221 20.4195C12.3955 20.9143 12.2188 21.3412 12.2188 21.6458C12.2188 22.8434 13.146 23.7813 14.25 23.7813C15.354 23.7813 16.2812 22.8434 16.2812 21.6458C16.2812 21.3412 16.1045 20.9143 15.7779 20.4195C15.4629 19.9424 15.0557 19.4712 14.6984 19.0942ZM13.1212 18.4493C13.7398 17.7966 14.7602 17.7966 15.3788 18.4493C15.7542 18.8454 16.2027 19.3614 16.5603 19.903C16.9062 20.427 17.2188 21.0506 17.2188 21.6458C17.2188 23.3247 15.9074 24.7188 14.25 24.7188C12.5926 24.7188 11.2812 23.3247 11.2812 21.6458C11.2812 21.0506 11.5938 20.427 11.9397 19.903C12.2973 19.3614 12.7458 18.8454 13.1212 18.4493ZM22.1984 19.0942C21.9495 18.8317 21.5505 18.8317 21.3016 19.0942C20.9443 19.4712 20.5371 19.9424 20.2221 20.4195C19.8955 20.9143 19.7188 21.3412 19.7188 21.6458C19.7188 22.8434 20.646 23.7813 21.75 23.7813C22.854 23.7813 23.7812 22.8434 23.7812 21.6458C23.7812 21.3412 23.6045 20.9143 23.2779 20.4195C22.9629 19.9424 22.5557 19.4712 22.1984 19.0942ZM20.6212 18.4493C21.2398 17.7966 22.2602 17.7966 22.8788 18.4493C23.2542 18.8454 23.7027 19.3614 24.0603 19.903C24.4062 20.427 24.7188 21.0506 24.7188 21.6458C24.7188 23.3247 23.4074 24.7188 21.75 24.7188C20.0926 24.7188 18.7812 23.3247 18.7812 21.6458C18.7812 21.0506 19.0938 20.427 19.4397 19.903C19.7973 19.3614 20.2458 18.8454 20.6212 18.4493Z" fill="#111111"/>
</svg>
