<svg width="36" height="36" viewBox="0 0 36 36" fill="none" xmlns="http://www.w3.org/2000/svg">
<rect width="36" height="36" rx="18" fill="#F6DAF7"/>
<path fill-rule="evenodd" clip-rule="evenodd" d="M14.9838 11.3848C15.0134 11.3848 15.0434 11.3848 15.0738 11.3848H20.9259C20.9564 11.3848 20.9864 11.3848 21.016 11.3848C21.6416 11.3845 22.0722 11.3843 22.4349 11.5105C23.1198 11.7488 23.6515 12.3 23.8795 12.9943L23.441 13.1383L23.8795 12.9943C24.0001 13.3618 24 13.7986 23.9997 14.4472C23.9997 14.4762 23.9997 14.5057 23.9997 14.5355V23.1532C23.9997 24.0549 22.937 24.5917 22.2371 23.9512C22.1881 23.9064 22.1191 23.9064 22.0702 23.9512L21.7729 24.2232C21.2017 24.7459 20.3364 24.7459 19.7652 24.2232C19.5467 24.0233 19.2222 24.0233 19.0037 24.2232C18.4326 24.7459 17.5672 24.7459 16.996 24.2232C16.7776 24.0233 16.453 24.0233 16.2346 24.2232C15.6634 24.7459 14.798 24.7459 14.2269 24.2232L13.9296 23.9512C13.8807 23.9064 13.8116 23.9064 13.7627 23.9512C13.0628 24.5917 12 24.0549 12 23.1532V14.5355C12 14.5057 12 14.4762 12 14.4472C11.9998 13.7986 11.9996 13.3618 12.1203 12.9943C12.3482 12.3 12.88 11.7488 13.5649 11.5105C13.9275 11.3843 14.3581 11.3845 14.9838 11.3848ZM15.0738 12.3079C14.3224 12.3079 14.0636 12.3143 13.8682 12.3823C13.4625 12.5235 13.1379 12.8538 12.9973 13.2823C12.9289 13.4905 12.9231 13.765 12.9231 14.5355V23.1532C12.9231 23.2265 12.96 23.2713 13.0062 23.2927C13.0303 23.3038 13.0539 23.3067 13.0735 23.3041C13.0909 23.3018 13.1133 23.2943 13.1396 23.2702C13.5412 22.9027 14.1511 22.9027 14.5527 23.2702L14.85 23.5423C15.0685 23.7422 15.393 23.7422 15.6114 23.5423C16.1826 23.0196 17.048 23.0196 17.6192 23.5423C17.8376 23.7422 18.1622 23.7422 18.3806 23.5423C18.9518 23.0196 19.8171 23.0196 20.3883 23.5423C20.6068 23.7422 20.9313 23.7422 21.1498 23.5423L21.447 23.2702C21.8487 22.9027 22.4586 22.9027 22.8602 23.2702C22.8865 23.2943 22.9089 23.3018 22.9262 23.3041C22.9459 23.3067 22.9694 23.3038 22.9935 23.2927C23.0398 23.2713 23.0767 23.2265 23.0767 23.1532V14.5355C23.0767 13.765 23.0709 13.4905 23.0025 13.2823C22.8618 12.8538 22.5373 12.5235 22.1315 12.3823C21.9362 12.3143 21.6774 12.3079 20.9259 12.3079H15.0738ZM19.8457 15.1943C20.0358 15.364 20.0523 15.6558 19.8826 15.8459L17.6848 18.3074C17.5973 18.4055 17.472 18.4615 17.3406 18.4615C17.2091 18.4615 17.0839 18.4055 16.9963 18.3074L16.1172 17.3228C15.9474 17.1327 15.9639 16.8409 16.1541 16.6712C16.3442 16.5014 16.636 16.5179 16.8057 16.7081L17.3406 17.3071L19.194 15.2312C19.3638 15.041 19.6555 15.0245 19.8457 15.1943ZM14.7692 20.1538C14.7692 19.8989 14.9758 19.6923 15.2307 19.6923H20.769C21.0239 19.6923 21.2306 19.8989 21.2306 20.1538C21.2306 20.4087 21.0239 20.6153 20.769 20.6153H15.2307C14.9758 20.6153 14.7692 20.4087 14.7692 20.1538Z" fill="#111111"/>
</svg>
