<svg width="45" height="45" viewBox="0 0 45 45" fill="none" xmlns="http://www.w3.org/2000/svg">
<rect width="45" height="45" rx="22.5" fill="white"/>
<path d="M20.001 27.1998L16.501 23.6998C16.4095 23.6071 16.3005 23.5336 16.1803 23.4834C16.0602 23.4332 15.9313 23.4073 15.801 23.4073C15.6708 23.4073 15.5419 23.4332 15.4217 23.4834C15.3016 23.5336 15.1926 23.6071 15.101 23.6998C15.0084 23.7913 14.9348 23.9003 14.8846 24.0204C14.8344 24.1406 14.8086 24.2695 14.8086 24.3998C14.8086 24.53 14.8344 24.6589 14.8846 24.7791C14.9348 24.8992 15.0084 25.0082 15.101 25.0998L19.291 29.2898C19.681 29.6798 20.311 29.6798 20.701 29.2898L31.301 18.6998C31.3937 18.6082 31.4672 18.4992 31.5174 18.3791C31.5676 18.2589 31.5935 18.13 31.5935 17.9998C31.5935 17.8695 31.5676 17.7406 31.5174 17.6204C31.4672 17.5003 31.3937 17.3913 31.301 17.2998C31.2095 17.2071 31.1005 17.1336 30.9803 17.0834C30.8602 17.0332 30.7313 17.0073 30.601 17.0073C30.4708 17.0073 30.3419 17.0332 30.2217 17.0834C30.1016 17.1336 29.9926 17.2071 29.901 17.2998L20.001 27.1998Z" fill="#349FEC"/>
</svg>
