<svg width="103" height="19" viewBox="0 0 103 19" fill="none" xmlns="http://www.w3.org/2000/svg">
<path d="M6.79222 5.15271C3.36817 6.78721 4.37033 12.1063 4.2961 15.0336C4.27135 15.7847 3.88781 16.2249 3.14547 16.3541C3.04649 16.3726 2.94441 16.3664 2.83925 16.3357C2.1897 16.1694 1.85565 15.7539 1.83709 15.089C1.76285 12.8543 1.77213 10.7365 1.86492 8.73569C2.16186 2.76098 8.77799 0.461589 13.5939 3.63825C14.2435 4.06304 14.3332 4.58632 13.863 5.20811L13.5847 5.57749C13.2382 6.03306 12.8268 6.10694 12.3505 5.79912C10.408 4.53092 8.55529 4.31545 6.79222 5.15271Z" fill="#2F2F2F"/>
<path d="M19.5886 11.1922C19.7927 11.7832 20.1268 12.2572 20.5907 12.6143C22.8239 14.3565 25.0602 14.3288 27.2996 12.5312C27.4465 12.4121 27.6251 12.3375 27.8141 12.3162C28.0032 12.295 28.195 12.3279 28.3668 12.4111C28.6761 12.5651 28.9019 12.799 29.0441 13.113C29.304 13.6793 29.1957 14.1595 28.7194 14.5535C24.3396 18.1458 18.0204 16.225 16.7769 10.6197C15.7841 6.12246 19.5329 1.91154 24.1168 2.13316C27.5007 2.29938 29.7679 4.13705 30.9186 7.64615C31.4104 9.16984 30.4546 10.6104 28.8214 10.6104C25.815 10.6043 22.892 10.5827 20.0525 10.5458C19.5947 10.5458 19.4401 10.7612 19.5886 11.1922ZM19.6721 8.00629L28.042 7.96936C28.0578 7.96936 28.0735 7.96625 28.0881 7.96022C28.1028 7.95419 28.1161 7.94534 28.1273 7.93419C28.1385 7.92305 28.1474 7.90981 28.1534 7.89525C28.1595 7.88068 28.1626 7.86507 28.1626 7.84931V7.78467C28.1605 7.37947 28.0494 6.97873 27.8356 6.60533C27.6218 6.23193 27.3094 5.89319 26.9165 5.60847C26.5235 5.32376 26.0576 5.09864 25.5454 4.94599C25.0332 4.79334 24.4847 4.71615 23.9313 4.71882H23.7457C22.6288 4.72419 21.5596 5.05405 20.7731 5.63589C19.9866 6.21772 19.5472 7.00391 19.5514 7.8216V7.88625C19.5514 7.91808 19.5642 7.94862 19.5868 7.97113C19.6094 7.99365 19.6401 8.00629 19.6721 8.00629Z" fill="#2F2F2F"/>
<path d="M41.7847 16.345C38.0451 16.3358 34.9273 13.51 34.5932 9.97323C34.4076 8.05246 34.3829 5.80233 34.519 3.22283C34.5249 3.0973 34.5567 2.97375 34.6125 2.85952C34.6683 2.7453 34.747 2.64273 34.8438 2.55794C35.2026 2.23166 35.5552 2.11777 35.9016 2.21627C36.6934 2.42558 37.0832 2.93656 37.0708 3.74919C37.0337 7.2583 35.9944 13.824 41.729 13.8055C49.1153 13.7748 56.9563 13.7717 65.252 13.7963C66.1057 13.7963 66.6005 14.218 66.7366 15.0614C66.7985 15.4677 66.4768 15.8556 65.7716 16.225C65.6069 16.3039 65.4261 16.3449 65.2427 16.345C57.4481 16.3573 49.6287 16.3573 41.7847 16.345Z" fill="#2F2F2F"/>
<path d="M79.6903 15.0983C73.5938 19.0506 65.9384 12.8912 69.047 6.27012C72.0349 -0.0832045 81.2029 1.13575 82.5762 7.94156C82.8855 9.51142 82.9474 11.8047 82.7618 14.8212C82.7308 15.2707 82.5978 15.6431 82.3628 15.9386C82.0782 16.2895 81.7039 16.4188 81.24 16.3265C81.1004 16.2973 80.9684 16.2376 80.853 16.1515C80.7377 16.0655 80.6418 15.955 80.5719 15.8278L80.2564 15.2368C80.1203 14.9905 79.9316 14.9444 79.6903 15.0983ZM80.1821 9.22515C80.1821 8.00303 79.6943 6.83097 78.8259 5.9668C77.9576 5.10263 76.7798 4.61715 75.5518 4.61715C74.3237 4.61715 73.146 5.10263 72.2776 5.9668C71.4093 6.83097 70.9214 8.00303 70.9214 9.22515C70.9214 10.4473 71.4093 11.6193 72.2776 12.4835C73.146 13.3477 74.3237 13.8332 75.5518 13.8332C76.7798 13.8332 77.9576 13.3477 78.8259 12.4835C79.6943 11.6193 80.1821 10.4473 80.1821 9.22515Z" fill="#2F2F2F"/>
<path d="M41.9053 11.894C43.3454 11.894 44.5128 10.7322 44.5128 9.29911C44.5128 7.86599 43.3454 6.70422 41.9053 6.70422C40.4653 6.70422 39.2979 7.86599 39.2979 9.29911C39.2979 10.7322 40.4653 11.894 41.9053 11.894Z" fill="#2F2F2F"/>
<path fill-rule="evenodd" clip-rule="evenodd" d="M87.3329 1.95406C87.7859 1.50327 88.5203 1.50327 88.9733 1.95406L94.2774 7.23259L99.5815 1.95406C100.035 1.50327 100.769 1.50327 101.222 1.95406C101.675 2.40484 101.675 3.13571 101.222 3.5865L95.9178 8.86504L101.222 14.1436C101.675 14.5944 101.675 15.3252 101.222 15.776C100.769 16.2268 100.035 16.2268 99.5815 15.776L94.2774 10.4975L88.9733 15.776C88.5203 16.2268 87.7859 16.2268 87.3329 15.776C86.8799 15.3252 86.8799 14.5944 87.3329 14.1436L92.637 8.86504L87.3329 3.5865C86.8799 3.13571 86.8799 2.40484 87.3329 1.95406Z" fill="#2F2F2F"/>
</svg>
