<svg width="20" height="20" viewBox="0 0 20 20" fill="none" xmlns="http://www.w3.org/2000/svg">
<path d="M5 8.20963C5 11.6271 8.03179 14.4533 9.37373 15.5368C9.56579 15.6919 9.66296 15.7703 9.80625 15.8101C9.91782 15.8411 10.082 15.8411 10.1936 15.8101C10.3372 15.7703 10.4336 15.6926 10.6264 15.5369C11.9684 14.4534 15 11.6274 15 8.20994C15 6.91663 14.4732 5.67613 13.5356 4.76162C12.5979 3.84711 11.3262 3.33334 10.0001 3.33334C8.674 3.33334 7.40216 3.84719 6.46447 4.7617C5.52679 5.67621 5 6.91632 5 8.20963Z" stroke="#111111" stroke-width="1.3" stroke-linecap="round" stroke-linejoin="round"/>
<path d="M8.57145 7.5596C8.57145 8.33763 9.21105 8.96835 10 8.96835C10.789 8.96835 11.4286 8.33763 11.4286 7.5596C11.4286 6.78156 10.789 6.15085 10 6.15085C9.21105 6.15085 8.57145 6.78156 8.57145 7.5596Z" stroke="#111111" stroke-width="1.3" stroke-linecap="round" stroke-linejoin="round"/>
</svg>
