<svg width="20" height="20" viewBox="0 0 20 20" fill="none" xmlns="http://www.w3.org/2000/svg">
<path d="M8.38095 4.98152C8.1841 4.48937 7.70745 4.16666 7.1774 4.16666H5.39454C4.71632 4.16666 4.1665 4.71635 4.1665 5.39459C4.1665 11.1597 8.84004 15.8333 14.605 15.8333C15.2832 15.8333 15.8329 15.2835 15.8329 14.6052L15.8332 12.822C15.8332 12.2919 15.5105 11.8154 15.0184 11.6185L13.3096 10.9352C12.8676 10.7584 12.3643 10.838 11.9985 11.1428L11.5575 11.5106C11.0424 11.9398 10.2846 11.9057 9.81056 11.4316L8.56876 10.1886C8.09469 9.71456 8.05966 8.95734 8.48886 8.44229L8.8566 8.0013C9.1614 7.63552 9.24169 7.13204 9.06486 6.68996L8.38095 4.98152Z" stroke="#111111" stroke-width="1.3" stroke-linecap="round" stroke-linejoin="round"/>
</svg>
