<svg width="20" height="21" viewBox="0 0 20 21" fill="none" xmlns="http://www.w3.org/2000/svg">
<g id="Communication / Share_iOS_Export">
<path id="Vector" d="M7.49967 5.5L9.99967 3M9.99967 3L12.4997 5.5M9.99967 3V11.3333M5.8332 8.83333C5.05663 8.83333 4.66835 8.83333 4.36206 8.9602C3.95368 9.12936 3.62903 9.45401 3.45988 9.86239C3.33301 10.1687 3.33301 10.5568 3.33301 11.3333V15.3333C3.33301 16.2668 3.33301 16.7331 3.51466 17.0897C3.67445 17.4033 3.92924 17.6587 4.24284 17.8185C4.59901 18 5.0655 18 5.9971 18H14.0027C14.9343 18 15.4001 18 15.7562 17.8185C16.0698 17.6587 16.3251 17.4033 16.4849 17.0897C16.6663 16.7335 16.6663 16.2675 16.6663 15.3359V11.3333C16.6663 10.5568 16.6663 10.1687 16.5394 9.86239C16.3702 9.45401 16.0459 9.12936 15.6375 8.9602C15.3312 8.83333 14.9429 8.83333 14.1663 8.83333" stroke="#333333" stroke-width="1.3" stroke-linecap="round" stroke-linejoin="round"/>
</g>
</svg>
