<svg width="21" height="21" viewBox="0 0 21 21" fill="none" xmlns="http://www.w3.org/2000/svg">
<path fill-rule="evenodd" clip-rule="evenodd" d="M10.4977 1.9585C10.7356 1.95789 10.9533 2.09248 11.0591 2.30564L13.4938 7.21129L18.9234 8.00299C19.1585 8.03727 19.3538 8.20188 19.4274 8.42777C19.501 8.65365 19.4402 8.90175 19.2705 9.06798L15.3215 12.9354L16.2595 18.3094C16.3005 18.5447 16.2039 18.7828 16.0104 18.923C15.817 19.0631 15.5606 19.0807 15.3498 18.9684L10.4993 16.3831L5.64988 18.9684C5.43895 19.0808 5.18237 19.0631 4.98889 18.9228C4.7954 18.7824 4.69891 18.544 4.7403 18.3086L5.68508 12.9354L1.7296 9.06836C1.55959 8.90215 1.49861 8.65386 1.57228 8.42779C1.64596 8.20173 1.84152 8.03704 2.07683 8.00292L7.53605 7.2113L9.93801 2.30852C10.0427 2.09481 10.2597 1.95911 10.4977 1.9585ZM10.5029 3.99668L8.51345 8.05747C8.42264 8.24283 8.24616 8.37141 8.04188 8.40103L3.50763 9.05852L6.79465 12.272C6.94217 12.4163 7.00901 12.624 6.97329 12.8272L6.1935 17.262L10.2053 15.1233C10.389 15.0253 10.6095 15.0253 10.7932 15.1233L14.808 17.2631L14.0336 12.8264C13.9982 12.6236 14.0649 12.4164 14.212 12.2724L17.4943 9.05784L12.9894 8.40096C12.7864 8.37136 12.6109 8.24407 12.5197 8.06035L10.5029 3.99668Z" fill="#333333"/>
</svg>
