<svg width="96" height="96" viewBox="0 0 96 96" fill="none" xmlns="http://www.w3.org/2000/svg">
<g clip-path="url(#clip0_678_7878)">
<path d="M6.14476 43.8L6.87459 41.0388C6.99623 40.5786 7.13156 40.1944 7.28058 39.8863C7.432 39.5691 7.61873 39.3192 7.84077 39.1365C8.0286 38.9738 8.24961 38.8681 8.50382 38.8194C8.76041 38.7617 9.0421 38.7735 9.3489 38.8545C10.0618 39.043 10.4869 39.4981 10.6244 40.2198C10.8614 39.7612 11.1665 39.4653 11.5396 39.3322C11.9126 39.1991 12.3022 39.1862 12.7082 39.2936C13.0848 39.4028 13.3795 39.5482 13.5921 39.7299C13.7957 39.9092 13.9591 40.131 14.0823 40.3953C14.1989 40.6481 14.2663 40.9411 14.2845 41.2741C14.3026 41.6072 14.2604 41.9677 14.1579 42.3557L13.2778 45.6853L6.14476 43.8ZM7.47115 42.8907L9.50143 43.4273L9.76259 42.4393C9.82222 42.2137 9.87852 41.9824 9.93151 41.7454C9.97548 41.506 9.98973 41.2878 9.97426 41.0906C9.9617 40.8459 9.89448 40.6254 9.77261 40.4291C9.65073 40.2328 9.47819 40.1003 9.25499 40.0316C8.99331 39.9625 8.78832 39.971 8.64001 40.0573C8.48506 40.1322 8.35905 40.2437 8.26197 40.3918C8.15588 40.5376 8.07328 40.704 8.01417 40.8911C7.95506 41.0782 7.90404 41.253 7.86111 41.4154L7.47115 42.8907ZM12.5874 44.243L13.0847 42.3616C13.1396 42.1541 13.1785 41.952 13.2015 41.7554C13.2269 41.5497 13.2226 41.3651 13.1886 41.2017C13.1455 41.0358 13.0683 40.8899 12.9568 40.7639C12.8453 40.6379 12.6869 40.5429 12.4818 40.4791C12.2111 40.4075 11.9823 40.4146 11.7955 40.5004C11.5997 40.5838 11.4371 40.7242 11.3077 40.9217C11.2058 41.0879 11.1206 41.2826 11.052 41.5058C10.9833 41.729 10.9168 41.9624 10.8524 42.206L10.476 43.6849L12.5874 44.243Z" fill="#349FEC"/>
<path d="M15.7603 37.6503L15.2371 38.6878L8.64945 35.3655L9.18532 34.303L14.2354 36.8499C14.1482 36.7327 14.0631 36.5905 13.9802 36.4232C13.889 36.2518 13.8205 36.118 13.775 36.0218L11.0325 30.6404L11.562 29.5904L18.1497 32.9127L17.6138 33.9752L12.5637 31.4283C12.6551 31.558 12.7381 31.694 12.8127 31.8361C12.8832 31.9658 12.9433 32.0849 12.9931 32.1936L15.7603 37.6503Z" fill="#349FEC"/>
<path d="M22.712 21.1319C22.9357 21.3716 23.1743 21.5699 23.428 21.7268C23.6832 21.8706 23.9476 21.9656 24.2212 22.0119C24.4948 22.0582 24.7755 22.0455 25.0634 21.9739C25.3528 21.8891 25.6407 21.7344 25.927 21.5097C26.0665 21.4002 26.2011 21.2768 26.3306 21.1396C26.4618 20.9892 26.5704 20.8328 26.6564 20.6703C26.7367 20.5005 26.788 20.3239 26.8101 20.1404C26.8322 19.957 26.8113 19.7717 26.7475 19.5845L27.7057 18.8325C27.8586 19.1634 27.9349 19.495 27.9347 19.8274C27.9418 20.154 27.8871 20.4698 27.7706 20.7748C27.6614 21.0741 27.5005 21.3604 27.2881 21.634C27.0698 21.9001 26.8249 22.1398 26.5532 22.353C26.0906 22.716 25.6292 22.9595 25.1689 23.0835C24.7159 23.2017 24.2747 23.2216 23.8454 23.1432C23.4104 23.0575 22.9966 22.878 22.6042 22.6046C22.2059 22.3239 21.8368 21.967 21.4969 21.5338C21.1569 21.1006 20.9045 20.658 20.7397 20.206C20.5764 19.741 20.5048 19.287 20.525 18.844C20.5452 18.4011 20.6629 17.9765 20.878 17.5704C21.0932 17.1642 21.4284 16.7826 21.8836 16.4253C22.3462 16.0623 22.8184 15.8401 23.3002 15.7586C23.782 15.6771 24.2438 15.7062 24.6856 15.8459C25.1217 15.9783 25.5155 16.1853 25.8671 16.467C26.226 16.7429 26.5134 17.0335 26.7292 17.3387C26.781 17.4048 26.8292 17.4738 26.8737 17.5456C26.9256 17.6117 26.9738 17.6807 27.0183 17.7525L22.712 21.1319ZM25.4536 17.6635C25.0528 17.1831 24.5846 16.904 24.0489 16.8261C23.5132 16.7482 22.9994 16.9022 22.5075 17.2883C22.2358 17.5015 22.0317 17.7328 21.8953 17.9822C21.7589 18.2317 21.6814 18.4882 21.6629 18.7519C21.6444 19.0156 21.6754 19.2819 21.756 19.5509C21.8308 19.8125 21.9436 20.0621 22.0944 20.2996L25.4536 17.6635Z" fill="#349FEC"/>
<path d="M29.3879 12.1306C29.9187 11.8776 30.418 11.743 30.8859 11.7267C31.3538 11.7105 31.7906 11.7917 32.1963 11.9705C32.6105 12.1453 32.9812 12.4132 33.3084 12.7742C33.64 13.1228 33.9243 13.5456 34.1612 14.0427C34.3982 14.5397 34.5497 15.031 34.6157 15.5166C34.6861 15.9896 34.6588 16.4421 34.5338 16.8739C34.4132 17.2933 34.1951 17.6816 33.8794 18.0389C33.5638 18.3961 33.1406 18.7013 32.6098 18.9543C32.079 19.2073 31.5755 19.344 31.0992 19.3642C30.6313 19.3805 30.1923 19.3054 29.7821 19.1391C29.3764 18.9603 29.0077 18.6966 28.6761 18.348C28.3489 17.987 28.0668 17.558 27.8299 17.0609C27.5929 16.5638 27.4392 16.0788 27.3688 15.6057C27.3028 15.1202 27.3281 14.6635 27.4446 14.2357C27.5697 13.8039 27.79 13.4094 28.1056 13.0521C28.4213 12.6948 28.8487 12.3877 29.3879 12.1306ZM32.158 18.0065C32.5203 17.8338 32.8019 17.622 33.0028 17.3711C33.2121 17.1162 33.3489 16.8391 33.4129 16.5397C33.4814 16.2279 33.4833 15.9065 33.4185 15.5754C33.3622 15.2404 33.2517 14.9002 33.0871 14.5548C32.9264 14.2178 32.7337 13.9219 32.5089 13.6672C32.2884 13.4 32.0376 13.1991 31.7562 13.0644C31.4793 12.9172 31.1759 12.8447 30.846 12.8469C30.5246 12.845 30.1828 12.9304 29.8205 13.1031C29.4582 13.2758 29.1766 13.4876 28.9757 13.7385C28.7748 13.9894 28.6401 14.2707 28.5716 14.5825C28.5075 14.8819 28.5056 15.2033 28.566 15.5468C28.6307 15.8778 28.7434 16.2118 28.9041 16.5488C29.0687 16.8943 29.2593 17.1963 29.4756 17.4551C29.7005 17.7098 29.9513 17.9107 30.2283 18.0579C30.5096 18.1926 30.811 18.2609 31.1324 18.2627C31.4539 18.2646 31.7957 18.1792 32.158 18.0065Z" fill="#349FEC"/>
<path d="M42.5966 8.48048C43.1798 8.40591 43.6962 8.43398 44.1457 8.5647C44.5953 8.69541 44.9849 8.90906 45.3145 9.20566C45.6533 9.50107 45.9218 9.87135 46.1198 10.3165C46.326 10.7512 46.4639 11.2417 46.5338 11.7879C46.6036 12.3341 46.5941 12.8481 46.5051 13.33C46.4242 13.8014 46.257 14.2226 46.0033 14.5938C45.7578 14.9545 45.4292 15.2553 45.0178 15.4961C44.6063 15.7369 44.109 15.8945 43.5257 15.9691C42.9425 16.0437 42.4215 16.0162 41.9627 15.8867C41.5131 15.7559 41.1195 15.5475 40.7818 15.2614C40.4522 14.9648 40.1844 14.5991 39.9782 14.1644C39.7802 13.7193 39.6462 13.2236 39.5764 12.6774C39.5066 12.1311 39.5121 11.6223 39.593 11.1509C39.6819 10.6691 39.8486 10.2432 40.093 9.87322C40.3466 9.50205 40.6792 9.19608 41.0906 8.95529C41.5021 8.7145 42.004 8.55623 42.5966 8.48048ZM43.3926 14.9276C43.7907 14.8767 44.1243 14.7635 44.3936 14.5879C44.6721 14.4112 44.8885 14.1906 45.0429 13.9262C45.2054 13.6514 45.3076 13.3466 45.3494 13.012C45.4006 12.6761 45.4019 12.3184 45.3534 11.9388C45.306 11.5685 45.2154 11.2272 45.0814 10.915C44.9554 10.5924 44.7799 10.3231 44.5547 10.1073C44.3376 9.881 44.072 9.71736 43.758 9.61636C43.4532 9.51418 43.1018 9.48854 42.7037 9.53944C42.3056 9.59033 41.972 9.70356 41.7027 9.87912C41.4335 10.0547 41.2176 10.2799 41.0552 10.5547C40.9008 10.8191 40.7986 11.1238 40.7486 11.469C40.7067 11.8036 40.7095 12.1561 40.7568 12.5265C40.8053 12.906 40.892 13.2525 41.0167 13.5659C41.1507 13.8781 41.3263 14.1473 41.5434 14.3736C41.7686 14.5895 42.0336 14.7485 42.3383 14.8507C42.6431 14.9528 42.9945 14.9785 43.3926 14.9276Z" fill="#349FEC"/>
<path d="M49.3385 9.8068C49.496 9.62457 49.6738 9.47704 49.8717 9.36418C50.0705 9.24203 50.2811 9.14441 50.5035 9.07131C50.7351 8.99908 50.9642 8.95473 51.1907 8.93826C51.4274 8.91335 51.6526 8.91082 51.8663 8.93066C52.3681 8.97724 52.8023 9.0972 53.1686 9.29056C53.5443 9.48477 53.8484 9.74265 54.081 10.0642C54.3238 10.3773 54.4959 10.7448 54.5973 11.1666C54.6988 11.5885 54.7262 12.0503 54.6797 12.5522C54.6331 13.054 54.5152 13.5164 54.3259 13.9394C54.1376 14.3531 53.8847 14.7046 53.5672 14.9938C53.2591 15.2839 52.8873 15.5025 52.4519 15.6495C52.0266 15.7882 51.5444 15.8324 51.0054 15.7824C50.392 15.7255 49.8862 15.5707 49.4878 15.3182C49.0903 15.0563 48.7783 14.7321 48.5517 14.3455C48.3353 13.9505 48.1904 13.4918 48.117 12.9694C48.0436 12.4471 48.0252 11.9392 48.0616 11.4458C48.0568 11.2954 48.0751 10.9971 48.1165 10.551C48.1681 10.0965 48.2292 9.68978 48.3001 9.33079C48.3717 8.9625 48.4654 8.61031 48.5809 8.27422C48.7066 7.9297 48.861 7.63002 49.044 7.37517C49.3363 6.95238 49.6829 6.65179 50.0838 6.47341C50.4939 6.29589 50.9538 6.18859 51.4634 6.15153C51.624 6.13832 51.9819 6.11998 52.5371 6.09652C53.1025 6.06464 53.4887 6.04424 53.6957 6.03534C53.874 6.03314 54.0667 6.02759 54.2737 6.01869C54.4909 6.00135 54.7035 5.98358 54.9114 5.96539L54.8105 7.05271C54.6667 7.08624 54.4909 7.11211 54.283 7.1303C54.076 7.13921 53.8411 7.14552 53.5783 7.14925C53.3898 7.15988 53.1921 7.16965 52.985 7.17855C52.7881 7.17902 52.5815 7.18328 52.3652 7.19132C52.159 7.19093 51.8391 7.20342 51.4056 7.2288C51.0853 7.24594 50.8169 7.31008 50.6004 7.42121C50.3931 7.5332 50.2053 7.68917 50.0367 7.88912C49.836 8.13294 49.6766 8.43684 49.5584 8.80082C49.4504 9.15636 49.3771 9.49168 49.3385 9.8068ZM51.1303 14.7395C51.4742 14.7714 51.7822 14.7344 52.0545 14.6284C52.3361 14.5233 52.5755 14.3675 52.7728 14.1608C52.9794 13.955 53.1429 13.7078 53.2635 13.419C53.384 13.1302 53.4598 12.8186 53.4909 12.484C53.5211 12.1587 53.498 11.852 53.4216 11.5637C53.3554 11.2669 53.2435 11.0082 53.0859 10.7873C52.9292 10.5572 52.7305 10.3747 52.49 10.2399C52.2503 10.0958 51.9492 10.0069 51.5868 9.97329C51.2513 9.95153 50.9479 9.98898 50.6765 10.0856C50.405 10.1823 50.166 10.3335 49.9595 10.5393C49.7538 10.7358 49.5911 10.9738 49.4714 11.2533C49.3526 11.5234 49.2743 11.8114 49.2366 12.1173C49.2064 12.4425 49.2193 12.7577 49.2753 13.0629C49.3415 13.3596 49.4526 13.6277 49.6084 13.8671C49.7643 14.1065 49.9663 14.3034 50.2144 14.4577C50.4719 14.6128 50.7772 14.7067 51.1303 14.7395Z" fill="#349FEC"/>
<path d="M61.0657 13.5518C61.4756 13.8362 61.7224 14.1576 61.806 14.5162C61.8897 14.8747 61.8662 15.2634 61.7355 15.6821C61.6098 16.0535 61.4206 16.3465 61.1679 16.5609C60.9241 16.7782 60.6422 16.9297 60.3221 17.0156C60.002 17.1015 59.6601 17.1317 59.2965 17.1062C58.9329 17.0807 58.5729 17.0124 58.2166 16.9012C57.878 16.7955 57.5447 16.6573 57.2167 16.4865C56.8976 16.3185 56.6236 16.1156 56.3947 15.878C56.1657 15.6403 55.9966 15.3676 55.8874 15.0597C55.787 14.7546 55.7877 14.4077 55.8895 14.0191L56.9987 14.3652C56.976 14.5635 57.012 14.7458 57.1067 14.9122C57.2042 15.0698 57.3295 15.2164 57.4827 15.3522C57.6475 15.4819 57.8224 15.5951 58.0073 15.6919C58.2039 15.7826 58.3823 15.853 58.5427 15.903C58.7298 15.9614 58.9255 16.0078 59.1299 16.0422C59.3432 16.0795 59.5469 16.0844 59.7413 16.057C59.9356 16.0297 60.1084 15.9614 60.2598 15.8522C60.414 15.7341 60.5272 15.5592 60.5995 15.3276C60.6579 15.1405 60.6706 14.9587 60.6377 14.7822C60.6076 14.5968 60.5204 14.4376 60.3761 14.3046C60.2469 14.1861 60.0857 14.0918 59.8925 14.0217C59.702 13.9427 59.5221 13.8768 59.3529 13.8239L58.0966 13.4319L58.4094 12.4296L59.4385 12.7507C59.6077 12.8036 59.7856 12.8444 59.9722 12.8733C60.1615 12.8933 60.3399 12.8854 60.5075 12.8497C60.684 12.8168 60.8363 12.7518 60.9643 12.6549C61.104 12.5519 61.2158 12.3814 61.2998 12.1437C61.3582 11.9566 61.3623 11.7867 61.3121 11.6342C61.2709 11.4844 61.1901 11.3517 61.0698 11.2359C60.9612 11.114 60.8219 11.0119 60.6521 10.9296C60.4939 10.8411 60.3302 10.7705 60.1609 10.7176C60.0005 10.6676 59.8271 10.6281 59.6406 10.5992C59.4568 10.5615 59.2781 10.5546 59.1044 10.5786C58.9334 10.5937 58.7764 10.6425 58.6334 10.7249C58.4903 10.8074 58.3762 10.938 58.2911 11.1167L57.1685 10.7664C57.2886 10.4128 57.4664 10.1408 57.7019 9.95025C57.949 9.7536 58.224 9.62432 58.5269 9.5624C58.8325 9.49157 59.151 9.47363 59.4823 9.50857C59.8253 9.53739 60.1527 9.60046 60.4645 9.69777C60.7763 9.79509 61.074 9.92219 61.3575 10.0791C61.6498 10.2388 61.8927 10.4319 62.086 10.6584C62.282 10.876 62.4183 11.1288 62.4947 11.4166C62.571 11.7044 62.5536 12.0265 62.4424 12.3829C62.3423 12.7036 62.1776 12.9651 61.9483 13.1673C61.719 13.3695 61.4248 13.4977 61.0657 13.5518Z" fill="#349FEC"/>
<path d="M67.876 13.135C68.3887 13.4228 68.7866 13.7531 69.0696 14.126C69.3526 14.499 69.5381 14.9027 69.6259 15.3374C69.7219 15.7765 69.7167 16.2339 69.6104 16.7093C69.5168 17.1812 69.3352 17.6573 69.0656 18.1375C68.7961 18.6177 68.482 19.0247 68.1234 19.3585C67.7775 19.6888 67.392 19.9274 66.9671 20.0742C66.5549 20.2174 66.1119 20.2631 65.638 20.2112C65.1641 20.1592 64.6708 19.9893 64.158 19.7015C63.6453 19.4137 63.2433 19.0811 62.9522 18.7036C62.6691 18.3307 62.4774 17.9287 62.3768 17.4976C62.289 17.063 62.2919 16.6098 62.3855 16.1379C62.4918 15.6624 62.6797 15.1846 62.9493 14.7044C63.2188 14.2242 63.5265 13.8189 63.8725 13.4887C64.2311 13.1548 64.6188 12.9122 65.0356 12.7608C65.4605 12.614 65.9099 12.5666 66.3838 12.6185C66.8577 12.6704 67.3551 12.8426 67.876 13.135ZM64.672 18.7859C65.0219 18.9824 65.3573 19.0903 65.6782 19.1099C66.0071 19.134 66.3124 19.0859 66.594 18.9657C66.8882 18.8419 67.1519 18.6581 67.3851 18.4143C67.6263 18.1751 67.8406 17.8887 68.0279 17.555C68.2107 17.2295 68.3413 16.9014 68.4198 16.5709C68.511 16.2368 68.5305 15.9159 68.4784 15.6084C68.439 15.2973 68.3233 15.0076 68.1314 14.7393C67.9476 14.4756 67.6807 14.2455 67.3307 14.0491C66.9808 13.8526 66.6454 13.7447 66.3245 13.7251C66.0037 13.7056 65.6962 13.7577 65.4019 13.8815C65.1203 14.0018 64.8566 14.1856 64.6108 14.4329C64.3777 14.6766 64.1697 14.9613 63.987 15.2868C63.7997 15.6205 63.6627 15.9504 63.5761 16.2763C63.4976 16.6069 63.478 16.9277 63.5175 17.2388C63.5696 17.5464 63.6876 17.832 63.8713 18.0957C64.0551 18.3594 64.322 18.5895 64.672 18.7859Z" fill="#349FEC"/>
<path d="M14.6008 25.8727C14.3975 25.6938 14.1912 25.5185 13.982 25.3467C13.7728 25.175 13.5635 25.0033 13.3543 24.8316L16.676 20.7842L21.5784 24.8075L22.1913 24.0608L24.7453 26.1569L24.017 27.0443L22.2638 25.6054L18.8444 29.7719L20.5976 31.2108L19.8693 32.0982L17.3153 30.0021C17.5521 29.7135 17.6088 29.3797 17.4852 29.0006C17.4238 28.7812 17.2833 28.533 17.0637 28.2563C16.837 27.9735 16.5839 27.6934 16.3046 27.4159C16.0023 27.1074 15.6918 26.8164 15.373 26.5427C15.053 26.2559 14.7956 26.0326 14.6008 25.8727ZM16.7328 22.3702L14.8854 24.6211C15.1825 24.877 15.5156 25.1625 15.8849 25.4777C16.2541 25.7928 16.5922 26.0944 16.8991 26.3825C17.0375 26.5081 17.1873 26.6492 17.3486 26.8057C17.5027 26.9563 17.6552 27.1237 17.8059 27.3078C17.9554 27.4788 18.0937 27.6707 18.2207 27.8837C18.3537 28.0894 18.4516 28.3086 18.5143 28.5411L20.8235 25.7274L16.7328 22.3702Z" fill="#349FEC"/>
<path d="M68.1168 24.8159L67.1797 24.0825L73.3663 16.1777L74.2594 16.8766L73.6046 17.8041C74.0504 17.6434 74.5027 17.6181 74.9616 17.7284C75.4336 17.8371 75.8709 18.043 76.2736 18.3463C76.7219 18.6972 77.04 19.0706 77.2279 19.4666C77.4289 19.8609 77.5259 20.2746 77.5189 20.7076C77.5249 21.139 77.4356 21.5787 77.2509 22.0268C77.0719 22.4675 76.8185 22.8973 76.4906 23.3162C76.157 23.7425 75.7978 24.0955 75.413 24.3751C75.0282 24.6547 74.6257 24.8434 74.2055 24.9412C73.7853 25.0389 73.3531 25.0385 72.9089 24.9397C72.4704 24.8336 72.027 24.6051 71.5787 24.2542C71.1377 23.9091 70.8175 23.5459 70.6181 23.1646C70.4187 22.7834 70.3126 22.404 70.2998 22.0266L68.1168 24.8159ZM72.1486 23.3669C72.4647 23.6143 72.7724 23.7662 73.0719 23.8228C73.3844 23.8778 73.6816 23.8615 73.9635 23.7739C74.2584 23.6848 74.536 23.5346 74.7961 23.3234C75.0636 23.1179 75.316 22.871 75.5535 22.5828C75.7836 22.2888 75.9662 21.9873 76.1014 21.6783C76.2497 21.3677 76.3288 21.0621 76.3387 20.7618C76.3486 20.4614 76.2828 20.1669 76.1412 19.8783C76.0128 19.5881 75.7905 19.3194 75.4745 19.072C75.0996 18.7787 74.6957 18.6284 74.2627 18.6214C73.8354 18.607 73.4312 18.6995 73.0499 18.8989C72.8368 19.0047 72.6436 19.138 72.4704 19.2987C72.3029 19.4521 72.1444 19.6243 71.9949 19.8154C71.8223 20.0359 71.6759 20.2532 71.5558 20.4673C71.4413 20.6741 71.3584 20.8936 71.307 21.126C71.228 21.5145 71.2461 21.9079 71.3611 22.3061C71.4892 22.7027 71.7518 23.0563 72.1486 23.3669Z" fill="#349FEC"/>
<path d="M88.9425 51.6327L88.3577 54.4282C88.2602 54.8941 88.1451 55.2848 88.0123 55.6003C87.8777 55.9249 87.7042 56.1843 87.492 56.3782C87.3129 56.5506 87.0977 56.6676 86.8464 56.7295C86.5932 56.8005 86.3113 56.8035 86.0006 56.7385C85.2789 56.5875 84.8306 56.1552 84.6557 55.4416C84.4429 55.912 84.1537 56.2234 83.788 56.3758C83.4224 56.5281 83.0341 56.5613 82.623 56.4753C82.2412 56.3859 81.9394 56.256 81.7176 56.0857C81.5049 55.9172 81.3301 55.7042 81.1933 55.4468C81.0637 55.2003 80.9811 54.9113 80.9456 54.5797C80.9101 54.248 80.9334 53.8858 81.0156 53.493L81.7208 50.122L88.9425 51.6327ZM87.6653 52.6099L85.6098 52.1799L85.4005 53.1802C85.3528 53.4086 85.3086 53.6425 85.268 53.882C85.2366 54.1233 85.2338 54.342 85.2595 54.5381C85.2848 54.7818 85.3634 54.9985 85.4954 55.1882C85.6273 55.3779 85.8066 55.5012 86.033 55.5581C86.298 55.6135 86.5022 55.5943 86.6458 55.5004C86.7967 55.4175 86.9167 55.2996 87.0059 55.1466C87.1043 54.9955 87.1781 54.825 87.2273 54.6351C87.2766 54.4452 87.3184 54.268 87.3528 54.1035L87.6653 52.6099ZM82.4854 51.5263L82.087 53.431C82.043 53.6412 82.0147 53.845 82.0019 54.0426C81.9873 54.2493 82.0012 54.4334 82.0437 54.5949C82.0954 54.7582 82.1802 54.8999 82.2981 55.0199C82.416 55.14 82.5791 55.2265 82.7873 55.2796C83.0614 55.3369 83.2894 55.3179 83.4715 55.2225C83.6627 55.129 83.8177 54.9803 83.9367 54.7763C84.0297 54.6051 84.1047 54.4062 84.1616 54.1797C84.2185 53.9532 84.2728 53.7167 84.3244 53.47L84.6232 51.9735L82.4854 51.5263Z" fill="#349FEC"/>
<path d="M79.6617 58.2756L80.1301 57.2122L86.8821 60.1864L86.4024 61.2754L81.2263 58.9954C81.3195 59.1079 81.4119 59.2455 81.5034 59.4082C81.6035 59.5746 81.6788 59.7047 81.7293 59.7983L84.7488 65.0294L84.2747 66.1056L77.5227 63.1314L78.0025 62.0424L83.1785 64.3224C83.0805 64.1976 82.9905 64.0662 82.9086 63.9281C82.8314 63.8023 82.7652 63.6865 82.7098 63.5805L79.6617 58.2756Z" fill="#349FEC"/>
<path d="M73.5809 75.1341C73.345 74.9064 73.0963 74.7208 72.8348 74.5774C72.5725 74.4471 72.3035 74.366 72.0278 74.334C71.7522 74.3021 71.4725 74.3294 71.1888 74.416C70.9042 74.5157 70.6248 74.6852 70.3505 74.9246C70.2169 75.0412 70.089 75.1714 69.9668 75.3152C69.8437 75.4723 69.7434 75.6341 69.6659 75.8008C69.5945 75.9746 69.5526 76.1537 69.5401 76.338C69.5276 76.5224 69.5581 76.7064 69.6316 76.89L68.7139 77.6909C68.544 77.3684 68.4505 77.0412 68.4333 76.7093C68.4092 76.3836 68.4473 76.0653 68.5478 75.7546C68.6413 75.4501 68.7869 75.1557 68.9848 74.8715C69.1889 74.5943 69.421 74.3422 69.6812 74.1151C70.1242 73.7284 70.5723 73.4612 71.0256 73.3134C71.4718 73.1717 71.9113 73.1288 72.344 73.1847C72.783 73.2476 73.2055 73.4053 73.6117 73.6578C74.0241 73.9173 74.4113 74.2545 74.7734 74.6694C75.1355 75.0843 75.4106 75.5131 75.5988 75.9559C75.7861 76.4118 75.8813 76.8614 75.8842 77.3048C75.8872 77.7482 75.7918 78.1783 75.5981 78.5952C75.4044 79.012 75.0896 79.4106 74.6536 79.7911C74.2106 80.1778 73.7507 80.4243 73.2738 80.5308C72.7969 80.6374 72.3342 80.6324 71.8857 80.5159C71.4433 80.4065 71.0392 80.2203 70.6734 79.9573C70.3006 79.7004 69.9984 79.4252 69.767 79.1317C69.7118 79.0684 69.6601 79.002 69.6119 78.9326C69.5566 78.8693 69.5049 78.803 69.4567 78.7336L73.5809 75.1341ZM71.0239 78.7408C71.4492 79.1997 71.9313 79.454 72.4704 79.5039C73.0094 79.5537 73.5145 79.3731 73.9856 78.9619C74.2458 78.7348 74.4375 78.4931 74.5608 78.2369C74.684 77.9807 74.748 77.7205 74.7527 77.4562C74.7574 77.1919 74.7126 76.9276 74.6181 76.6632C74.5297 76.4058 74.404 76.1624 74.241 75.9331L71.0239 78.7408Z" fill="#349FEC"/>
<path d="M67.3837 84.4714C66.8669 84.7518 66.3753 84.9123 65.9089 84.9529C65.4425 84.9935 65.002 84.9351 64.5875 84.7778C64.1647 84.6248 63.7806 84.3766 63.435 84.0332C63.0857 83.7024 62.7797 83.295 62.5172 82.8109C62.2546 82.3269 62.0777 81.8442 61.9864 81.3628C61.8914 80.894 61.8951 80.4408 61.9974 80.003C62.096 79.5779 62.2935 79.1787 62.5901 78.8055C62.8867 78.4323 63.2934 78.1055 63.8103 77.8251C64.3271 77.5447 64.8229 77.382 65.2975 77.3369C65.7638 77.2963 66.2062 77.3483 66.6245 77.4931C67.039 77.6504 67.4209 77.8945 67.7703 78.2253C68.1158 78.5688 68.4199 78.9825 68.6825 79.4665C68.9451 79.9506 69.1238 80.427 69.2188 80.8957C69.3101 81.3771 69.3087 81.8345 69.2145 82.2678C69.1122 82.7056 68.9128 83.111 68.6162 83.4843C68.3196 83.8575 67.9088 84.1866 67.3837 84.4714ZM64.3109 78.748C63.9582 78.9394 63.688 79.1656 63.5004 79.4266C63.3046 79.6921 63.1826 79.976 63.1342 80.2783C63.0821 80.5932 63.097 80.9143 63.1789 81.2415C63.2526 81.5732 63.3807 81.9072 63.5632 82.2435C63.7412 82.5717 63.9491 82.8571 64.1869 83.0997C64.4209 83.355 64.682 83.5426 64.9699 83.6624C65.2542 83.7949 65.5609 83.8515 65.8902 83.8322C66.2113 83.8173 66.5482 83.7141 66.901 83.5228C67.2538 83.3314 67.524 83.1052 67.7115 82.8442C67.8991 82.5832 68.0189 82.2952 68.0711 81.9802C68.1194 81.6779 68.1045 81.3568 68.0264 81.017C67.9444 80.6898 67.8145 80.3621 67.6365 80.034C67.454 79.6976 67.248 79.4059 67.0184 79.1588C66.7806 78.9161 66.5196 78.7286 66.2353 78.5961C65.9473 78.4762 65.6428 78.4237 65.3217 78.4386C65.0006 78.4535 64.6637 78.5567 64.3109 78.748Z" fill="#349FEC"/>
<path d="M54.3828 88.8056C53.8043 88.9104 53.2871 88.9094 52.8314 88.8023C52.3756 88.6952 51.9754 88.5021 51.6308 88.2231C51.277 87.9458 50.9896 87.59 50.7686 87.1558C50.54 86.7325 50.3767 86.2499 50.2784 85.708C50.1802 85.1662 50.1629 84.6524 50.2266 84.1666C50.2828 83.6916 50.4279 83.2622 50.6618 82.8783C50.8882 82.5052 51.2006 82.1877 51.5989 81.9258C51.9973 81.6639 52.4857 81.4805 53.0643 81.3756C53.6429 81.2707 54.1646 81.271 54.6295 81.3764C55.0853 81.4835 55.4892 81.6711 55.8414 81.9392C56.186 82.2182 56.4726 82.5694 56.7011 82.9928C56.9221 83.427 57.0817 83.915 57.1799 84.4568C57.2782 84.9987 57.2992 85.5071 57.243 85.9821C57.1793 86.4679 57.0351 86.9019 56.8104 87.2841C56.5764 87.668 56.2603 87.9909 55.862 88.2528C55.4636 88.5148 54.9706 88.699 54.3828 88.8056ZM53.2516 82.4088C52.8567 82.4803 52.5294 82.6108 52.2697 82.8002C52.0008 82.9912 51.7961 83.2228 51.6557 83.4949C51.5078 83.7778 51.4217 84.0874 51.3973 84.4239C51.3637 84.7619 51.3811 85.1192 51.4494 85.4958C51.516 85.8631 51.6243 86.1992 51.7744 86.5039C51.917 86.8196 52.1064 87.0793 52.3425 87.2831C52.5711 87.4978 52.8449 87.6473 53.1637 87.7318C53.4734 87.8179 53.8257 87.8252 54.2206 87.7536C54.6155 87.682 54.9428 87.5516 55.2025 87.3622C55.4622 87.1728 55.666 86.9367 55.8139 86.6538C55.9543 86.3817 56.0405 86.072 56.0724 85.7248C56.0967 85.3883 56.0756 85.0365 56.009 84.6691C55.9408 84.2926 55.8362 83.9511 55.6953 83.6447C55.5451 83.3399 55.3558 83.0802 55.1271 82.8655C54.891 82.6617 54.6181 82.5167 54.3084 82.4306C53.9988 82.3444 53.6465 82.3372 53.2516 82.4088Z" fill="#349FEC"/>
<path d="M47.581 87.8327C47.4332 88.0229 47.2634 88.1795 47.0717 88.3025C46.8795 88.4349 46.6743 88.5434 46.456 88.628C46.2284 88.7122 46.002 88.7684 45.7767 88.7967C45.5416 88.8339 45.3169 88.8482 45.1024 88.8395C44.5988 88.8192 44.159 88.722 43.7831 88.548C43.3978 88.3737 43.0806 88.132 42.8316 87.823C42.5728 87.523 42.3817 87.165 42.2584 86.749C42.1351 86.3331 42.0836 85.8733 42.104 85.3697C42.1243 84.8661 42.2179 84.3982 42.3848 83.9659C42.5514 83.5429 42.7856 83.1787 43.0875 82.8733C43.3801 82.5676 43.74 82.3299 44.1671 82.1603C44.5846 81.9997 45.0638 81.9303 45.6047 81.9522C46.2202 81.977 46.7335 82.1052 47.1445 82.3366C47.5551 82.5774 47.8836 82.8849 48.13 83.2591C48.3668 83.6423 48.5354 84.0928 48.6359 84.6106C48.7364 85.1285 48.7814 85.6347 48.7707 86.1293C48.7834 86.2793 48.7806 86.5781 48.7626 87.0257C48.7348 87.4823 48.6949 87.8917 48.6429 88.2539C48.5905 88.6254 48.5154 88.982 48.4175 89.3237C48.31 89.6743 48.1715 89.9816 48.002 90.2457C47.7321 90.6831 47.4017 91.0014 47.0107 91.2004C46.6103 91.3991 46.1567 91.5302 45.6497 91.5938C45.49 91.6154 45.1336 91.6524 44.5803 91.7048C44.0174 91.7661 43.6328 91.8066 43.4265 91.8263C43.2486 91.8378 43.0564 91.8534 42.8501 91.8731C42.6341 91.9017 42.4228 91.9306 42.2161 91.9596L42.2602 90.8685C42.402 90.8275 42.5762 90.7925 42.7829 90.7635C42.9892 90.7438 43.2234 90.7252 43.4857 90.7078C43.6733 90.6873 43.8703 90.6673 44.0766 90.6476C44.2732 90.6368 44.4793 90.6218 44.6949 90.6025C44.9008 90.5921 45.2196 90.563 45.6512 90.515C45.9702 90.4812 46.2349 90.4031 46.4453 90.2809C46.6464 90.1582 46.8259 89.9927 46.9838 89.7842C47.1715 89.5302 47.3149 89.2184 47.4139 88.8488C47.5032 88.4881 47.5589 88.1494 47.581 87.8327ZM45.5344 83.0002C45.1893 82.9862 44.8836 83.0393 44.6172 83.1593C44.3415 83.2789 44.1105 83.4471 43.9243 83.6638C43.7287 83.88 43.5783 84.1355 43.473 84.4302C43.3677 84.7248 43.3082 85.04 43.2947 85.3757C43.2815 85.7021 43.3206 86.0073 43.4118 86.2912C43.4934 86.5841 43.6187 86.8367 43.7876 87.049C43.9561 87.2706 44.164 87.4425 44.4113 87.5646C44.6582 87.696 44.9635 87.769 45.3272 87.7837C45.6633 87.7879 45.9643 87.7347 46.2304 87.624C46.4964 87.5133 46.7272 87.3499 46.9227 87.1336C47.1179 86.9266 47.2679 86.6805 47.3729 86.3951C47.4774 86.1191 47.5406 85.8274 47.5623 85.5201C47.5755 85.1937 47.5462 84.8796 47.4743 84.5777C47.3927 84.2849 47.2678 84.023 47.0997 83.792C46.9315 83.561 46.7195 83.375 46.4637 83.2339C46.1985 83.0924 45.8887 83.0145 45.5344 83.0002Z" fill="#349FEC"/>
<path d="M35.675 84.7045C35.2508 84.4419 34.9876 84.1338 34.8853 83.7801C34.7831 83.4264 34.7863 83.0371 34.8949 82.6121C35.0011 82.2346 35.1747 81.9322 35.4159 81.7048C35.648 81.4752 35.9217 81.3091 36.2369 81.2067C36.5521 81.1042 36.8919 81.0562 37.2563 81.0627C37.6207 81.0692 37.9838 81.1186 38.3455 81.2111C38.6891 81.299 39.0292 81.4196 39.3656 81.5731C39.6931 81.7242 39.9773 81.9125 40.2183 82.1379C40.4593 82.3633 40.6424 82.6268 40.7676 82.9286C40.8837 83.228 40.9011 83.5744 40.8197 83.9679L39.694 83.6801C39.7063 83.4809 39.6609 83.3007 39.5576 83.1394C39.452 82.9872 39.3192 82.8473 39.1592 82.7197C38.9878 82.5988 38.8072 82.4948 38.6176 82.4078C38.4165 82.3275 38.2346 82.2665 38.0718 82.2249C37.882 82.1764 37.6841 82.1402 37.4782 82.1165C37.2633 82.0905 37.0595 82.0962 36.8669 82.1336C36.6743 82.1711 36.5052 82.2483 36.3597 82.3652C36.2119 82.4912 36.108 82.6717 36.0479 82.9068C35.9993 83.0967 35.9961 83.2789 36.0382 83.4535C36.0779 83.637 36.1733 83.7915 36.3243 83.9168C36.4595 84.0284 36.6255 84.1142 36.8221 84.1741C37.0164 84.243 37.1995 84.2995 37.3713 84.3434L38.6463 84.6694L38.3862 85.6867L37.3418 85.4196C37.17 85.3757 36.9902 85.3442 36.8024 85.3251C36.6123 85.315 36.4345 85.3322 36.269 85.3766C36.0945 85.4187 35.9458 85.4914 35.823 85.5949C35.6889 85.7051 35.5861 85.8811 35.5146 86.123C35.4661 86.3129 35.4708 86.4827 35.5289 86.6324C35.5779 86.7798 35.6655 86.9082 35.7917 87.0175C35.9065 87.1335 36.0509 87.2283 36.2248 87.3016C36.3874 87.3817 36.5545 87.4437 36.7263 87.4876C36.8891 87.5293 37.0644 87.5596 37.2522 87.5787C37.4376 87.6069 37.6165 87.6044 37.7887 87.5714C37.9586 87.5474 38.1128 87.4905 38.2514 87.4007C38.39 87.3109 38.4971 87.1745 38.5728 86.9915L39.7121 87.2828C39.6106 87.6422 39.4473 87.9232 39.2221 88.1257C38.9855 88.335 38.7176 88.4784 38.4184 88.5561C38.1169 88.6427 37.7998 88.6773 37.4671 88.6597C37.1231 88.6488 36.7928 88.6029 36.4764 88.522C36.1599 88.441 35.856 88.3296 35.5647 88.1877C35.2644 88.0435 35.0119 87.8633 34.807 87.6472C34.5999 87.4401 34.4506 87.1948 34.3593 86.9114C34.268 86.6279 34.2686 86.3054 34.3611 85.9437C34.4443 85.6181 34.5951 85.3484 34.8136 85.1345C35.0321 84.9206 35.3192 84.7773 35.675 84.7045Z" fill="#349FEC"/>
<path d="M28.8952 85.4761C28.3681 85.2154 27.9536 84.9063 27.6515 84.5486C27.3494 84.191 27.1431 83.7974 27.0327 83.368C26.914 82.9344 26.8953 82.4774 26.9767 81.997C27.0456 81.5209 27.2021 81.036 27.4462 80.5424C27.6903 80.0488 27.9827 79.626 28.3234 79.2739C28.6517 78.926 29.0241 78.6677 29.4408 78.4989C29.845 78.3343 30.285 78.2656 30.761 78.2928C31.2369 78.3199 31.7384 78.4638 32.2655 78.7245C32.7926 78.9852 33.2113 79.2964 33.5218 79.6582C33.8239 80.0158 34.0364 80.4073 34.1593 80.8325C34.2697 81.2619 34.2904 81.7147 34.2215 82.1909C34.1402 82.6712 33.9774 83.1582 33.7333 83.6518C33.4892 84.1454 33.203 84.5661 32.8748 84.914C32.534 85.2661 32.1595 85.5286 31.7512 85.7015C31.3345 85.8703 30.8882 85.9411 30.4123 85.914C29.9363 85.8869 29.4306 85.7409 28.8952 85.4761ZM31.8 79.6657C31.4403 79.4878 31.0997 79.3974 30.7783 79.3947C30.4485 79.3877 30.1462 79.4517 29.8713 79.5864C29.5839 79.7254 29.3301 79.9227 29.11 80.1783C28.8815 80.4297 28.6825 80.727 28.5128 81.07C28.3473 81.4046 28.234 81.739 28.1729 82.0732C28.0992 82.4116 28.0964 82.733 28.1645 83.0375C28.2201 83.3461 28.3508 83.6294 28.5564 83.8872C28.7537 84.141 29.0322 84.3568 29.392 84.5348C29.7517 84.7127 30.0923 84.803 30.4137 84.8058C30.7351 84.8086 31.0395 84.7404 31.3269 84.6015C31.6018 84.4667 31.8556 84.2694 32.0882 84.0096C32.3083 83.754 32.5011 83.4589 32.6666 83.1243C32.8363 82.7813 32.9558 82.4447 33.0254 82.1147C33.0865 81.7805 33.0893 81.4591 33.0337 81.1504C32.9656 80.846 32.8329 80.5669 32.6356 80.3132C32.4383 80.0594 32.1598 79.8436 31.8 79.6657Z" fill="#349FEC"/>
<path d="M81.4338 69.9767C81.6462 70.1448 81.8613 70.3091 82.0792 70.4696C82.2971 70.6302 82.515 70.7908 82.7329 70.9513L79.6268 75.1665L74.5212 71.4044L73.9482 72.1821L71.2883 70.2221L71.9693 69.2979L73.7952 70.6433L76.9926 66.3041L75.1668 64.9587L75.8478 64.0345L78.5076 65.9945C78.2862 66.295 78.247 66.6314 78.3902 67.0035C78.4629 67.2194 78.6162 67.4599 78.8499 67.7248C79.0911 67.9953 79.3584 68.2619 79.6519 68.5245C79.9698 68.8167 80.2951 69.0912 80.6277 69.3479C80.9622 69.6176 81.2309 69.8272 81.4338 69.9767ZM79.4875 73.5857L81.2149 71.2414C80.9049 71.0013 80.5573 70.7336 80.1721 70.4382C79.7869 70.1427 79.4336 69.8592 79.112 69.5875C78.9673 69.4692 78.8103 69.3362 78.6411 69.1883C78.4793 69.0459 78.3184 68.8867 78.1582 68.7107C78 68.5478 77.8519 68.3633 77.7139 68.1573C77.5704 67.9587 77.4612 67.745 77.3865 67.516L75.2272 70.4464L79.4875 73.5857Z" fill="#349FEC"/>
<path d="M28.0455 73.8236L29.0196 74.5071L23.2537 82.7239L22.3254 82.0725L22.931 81.1121C22.4942 81.2959 22.0437 81.3447 21.5797 81.2585C21.1027 81.1746 20.6552 80.9917 20.2373 80.7099C19.7713 80.3829 19.4341 80.0265 19.2258 79.6409C19.0045 79.2576 18.8861 78.8495 18.8705 78.4168C18.842 77.9862 18.9082 77.5425 19.0693 77.0854C19.2251 76.636 19.4557 76.1935 19.7613 75.7581C20.0723 75.3149 20.4126 74.9437 20.7822 74.6444C21.1519 74.3451 21.544 74.1357 21.9585 74.0161C22.3731 73.8966 22.8047 73.8745 23.2535 73.9499C23.6969 74.033 24.1516 74.2381 24.6176 74.5651C25.076 74.8868 25.4147 75.2328 25.6337 75.6031C25.8528 75.9734 25.9785 76.3467 26.0109 76.723L28.0455 73.8236ZM24.0947 75.4809C23.7662 75.2504 23.4509 75.1147 23.149 75.0738C22.834 75.0352 22.538 75.067 22.2611 75.1691C21.9712 75.2735 21.7019 75.438 21.4531 75.6625C21.1967 75.8817 20.9575 76.1414 20.7354 76.4416C20.521 76.7472 20.3543 77.0578 20.2354 77.3735C20.1035 77.6914 20.0405 78.0006 20.0463 78.3011C20.052 78.6016 20.1331 78.8923 20.2895 79.1731C20.433 79.4561 20.6689 79.7129 20.9974 79.9435C21.3871 80.2169 21.7983 80.3458 22.2311 80.3303C22.6585 80.3223 23.0574 80.2089 23.4277 79.9899C23.6351 79.8731 23.821 79.73 23.9856 79.5604C24.1449 79.3985 24.2942 79.2182 24.4336 79.0196C24.5944 78.7904 24.7292 78.5657 24.8381 78.3456C24.9415 78.1332 25.0129 77.9096 25.0522 77.6749C25.1107 77.2828 25.0722 76.8909 24.9365 76.4992C24.7879 76.1099 24.5073 75.7704 24.0947 75.4809Z" fill="#349FEC"/>
<circle cx="12.6162" cy="60.3848" r="2" fill="#349FEC"/>
<circle cx="82.6162" cy="37.3848" r="2" fill="#349FEC"/>
</g>
<defs>
<clipPath id="clip0_678_7878">
<rect width="96" height="96" fill="white" transform="matrix(0 1 -1 0 96 0)"/>
</clipPath>
</defs>
</svg>
