<svg width="281" height="292" viewBox="0 0 281 292" fill="none" xmlns="http://www.w3.org/2000/svg">
<g filter="url(#filter0_d_439_3101)">
<g clip-path="url(#clip0_439_3101)">
<rect x="53.4028" y="11" width="216.593" height="230" rx="12" transform="rotate(10.6238 53.4028 11)" fill="#F6DAF7"/>
<path d="M73.5696 43.0305C72.8358 42.8929 72.1744 42.9112 71.5854 43.0857C71.0096 43.2625 70.5084 43.5483 70.0816 43.9431C69.6548 44.3379 69.2985 44.8272 69.0126 45.4112C68.7423 45.9845 68.5444 46.6053 68.4191 47.2737C68.2912 47.9551 68.2547 48.6198 68.3096 49.2677C68.3644 49.9156 68.5179 50.5073 68.7702 51.043C69.038 51.5681 69.4147 52.0186 69.9004 52.3946C70.386 52.7705 70.9958 53.0274 71.7297 53.165C72.6339 53.3346 73.4243 53.2794 74.1009 52.9993C74.7905 52.7217 75.2767 52.2635 75.5593 51.6246L77.8395 52.0524C77.6093 52.701 77.2747 53.2555 76.8357 53.7158C76.4097 54.1785 75.9133 54.5467 75.3465 54.8202C74.7822 55.0806 74.154 55.2477 73.4618 55.3213C72.7722 55.3819 72.0539 55.3421 71.3069 55.202C70.2192 54.998 69.2957 54.6416 68.5365 54.1329C67.7904 53.6267 67.2011 53.0074 66.7687 52.2752C66.3363 51.5429 66.0636 50.7185 65.9506 49.8019C65.8377 48.8854 65.8783 47.9095 66.0725 46.8742C66.2618 45.8652 66.5751 44.954 67.0126 44.1407C67.4656 43.3167 68.0263 42.6419 68.6946 42.1161C69.3655 41.5772 70.1404 41.207 71.0192 41.0056C71.9137 40.7935 72.9047 40.7895 73.9924 40.9935C75.5257 41.2811 76.7227 41.8787 77.5835 42.7863C78.4442 43.6939 78.8479 44.8685 78.7946 46.31L76.5537 45.8897C76.5111 45.1763 76.2319 44.5677 75.7159 44.0639C75.2024 43.5471 74.487 43.2026 73.5696 43.0305ZM82.2441 48.6053C82.7618 48.1598 83.3561 47.8846 84.0269 47.7798C84.7002 47.6619 85.3579 47.6632 86 47.7837C86.7077 47.9164 87.3158 48.1458 87.8244 48.4718C88.3461 48.8003 88.7655 49.2045 89.0824 49.6845C89.3993 50.1645 89.6086 50.7125 89.7101 51.3284C89.8141 51.9312 89.7997 52.5865 89.6669 53.2942C89.5244 54.0542 89.2749 54.7332 88.9186 55.3311C88.5754 55.9314 88.1379 56.4192 87.6063 56.7943C87.0903 57.1587 86.4944 57.4064 85.8187 57.5374C85.1561 57.6709 84.4316 57.6639 83.6453 57.5164C82.6125 57.3091 81.8 56.9396 81.2079 56.408C80.6288 55.8789 80.2095 55.2576 79.9499 54.5441C79.6903 53.8307 79.5634 53.0608 79.5692 52.2344C79.5775 51.3948 79.659 50.5623 79.8139 49.7367C79.9688 48.9111 80.1863 48.0769 80.4665 47.2341C80.7598 46.3937 81.1591 45.675 81.6645 45.078C82.0773 44.6128 82.5152 44.2676 82.9779 44.0424C83.4563 43.8065 83.9592 43.6567 84.4867 43.5928C85.0166 43.5159 85.5707 43.4909 86.149 43.518C86.7272 43.5451 87.3251 43.5758 87.9427 43.6103C88.4112 43.6439 88.8863 43.6787 89.3679 43.7148C89.8626 43.7533 90.354 43.737 90.8422 43.6658L90.4403 45.8084C90.1847 45.869 89.8411 45.8927 89.4095 45.8796C88.9803 45.8534 88.5249 45.8222 88.0433 45.7861C87.5641 45.7369 87.0903 45.6955 86.6218 45.6619C86.1558 45.6152 85.7409 45.5849 85.3773 45.5709C84.9456 45.5578 84.5451 45.6319 84.1757 45.7932C83.8218 45.9439 83.5171 46.1581 83.2616 46.4357C83.0085 46.7002 82.7979 47.027 82.63 47.4161C82.4645 47.792 82.3359 48.1884 82.2441 48.6053ZM84.0693 55.5814C84.5149 55.665 84.924 55.6535 85.2967 55.5471C85.6825 55.4431 86.0179 55.2822 86.3029 55.0643C86.5904 54.8334 86.8264 54.552 87.0107 54.2203C87.1974 53.8755 87.3277 53.5065 87.4014 53.1134C87.4776 52.7071 87.4834 52.3148 87.4187 51.9364C87.3696 51.5473 87.2505 51.2062 87.0613 50.913C86.8877 50.6091 86.6506 50.3543 86.35 50.1487C86.0494 49.9431 85.6894 49.801 85.2701 49.7223C84.8376 49.6412 84.431 49.6395 84.0501 49.7173C83.6848 49.7845 83.3531 49.9257 83.0549 50.1411C82.7723 50.3459 82.5258 50.6116 82.3152 50.9384C82.1047 51.2652 81.9548 51.6305 81.8655 52.0343C81.7917 52.4274 81.7729 52.8173 81.8089 53.2039C81.8474 53.5774 81.9522 53.9226 82.1233 54.2396C82.3076 54.5591 82.5529 54.8425 82.8592 55.0899C83.1811 55.3266 83.5844 55.4904 84.0693 55.5814ZM96.9239 48.9577C97.7495 49.1126 98.4523 49.3801 99.0321 49.7601C99.612 50.1402 100.074 50.6067 100.418 51.1596C100.777 51.7019 101.007 52.3215 101.107 53.0185C101.207 53.7155 101.182 54.4638 101.032 55.2631C100.879 56.0756 100.63 56.7886 100.285 57.4021C99.9546 58.0049 99.5291 58.5016 99.0081 58.8923C98.4872 59.2829 97.8823 59.5425 97.1934 59.671C96.5177 59.802 95.7605 59.7889 94.9218 59.6316C94.0962 59.4767 93.3922 59.2158 92.8099 58.8488C92.23 58.4687 91.7669 58.0088 91.4205 57.469C91.0896 56.9186 90.8742 56.2948 90.7743 55.5978C90.6876 54.9032 90.7192 54.1563 90.8691 53.3569C91.0191 52.5575 91.2603 51.8498 91.5929 51.2339C91.9386 50.6205 92.3707 50.125 92.8892 49.7474C93.4101 49.3568 94.0097 49.0894 94.6879 48.9453C95.3661 48.8012 96.1114 48.8053 96.9239 48.9577ZM95.2868 57.6855C95.7979 57.7814 96.2463 57.7773 96.6321 57.6733C97.0335 57.5587 97.3738 57.3715 97.6531 57.1119C97.9455 56.8548 98.1823 56.5329 98.3633 56.1463C98.5575 55.7622 98.6988 55.3342 98.7873 54.8625C98.8758 54.3907 98.8991 53.9406 98.8574 53.5122C98.8312 53.0732 98.7285 52.6809 98.5491 52.3352C98.3829 51.992 98.1323 51.7008 97.7973 51.4617C97.4754 51.2249 97.0589 51.0586 96.5478 50.9628C96.0761 50.8743 95.6342 50.8796 95.2222 50.9786C94.8233 51.0802 94.4776 51.2595 94.1852 51.5167C93.9059 51.7763 93.6679 52.1047 93.4713 52.502C93.2903 52.8885 93.1555 53.3177 93.067 53.7895C92.9785 54.2613 92.9486 54.7101 92.9772 55.136C93.019 55.5644 93.123 55.9502 93.2892 56.2934C93.4686 56.639 93.718 56.9368 94.0374 57.1866C94.3723 57.4258 94.7888 57.5921 95.2868 57.6855ZM103.187 65.2109L100.946 64.7906L103.645 50.4015L105.768 50.7997L105.609 52.2961C106.09 51.8301 106.658 51.5161 107.312 51.3539C107.982 51.1812 108.651 51.1575 109.319 51.2828C110.027 51.4156 110.638 51.6658 111.152 52.0336C111.669 52.3883 112.081 52.8319 112.388 53.3643C112.709 53.8991 112.905 54.5126 112.979 55.2047C113.068 55.8862 113.036 56.6397 112.881 57.4653C112.736 58.2385 112.503 58.9343 112.184 59.5527C111.864 60.171 111.463 60.6858 110.979 61.0969C110.51 61.4974 109.963 61.7746 109.337 61.9286C108.724 62.085 108.012 62.0869 107.199 61.9345C106.57 61.8166 105.986 61.6052 105.446 61.3005C104.922 60.9851 104.495 60.5522 104.164 60.0017L103.187 65.2109ZM107.211 59.9221C107.695 60.0131 108.131 60.0065 108.517 59.9026C108.905 59.7855 109.239 59.5971 109.518 59.3375C109.81 59.0803 110.047 58.7584 110.228 58.3719C110.422 57.9877 110.564 57.5598 110.652 57.088C110.741 56.6162 110.764 56.1662 110.722 55.7378C110.696 55.2988 110.593 54.9064 110.414 54.5608C110.248 54.2176 109.997 53.9264 109.662 53.6872C109.34 53.4505 108.93 53.2854 108.432 53.192C107.987 53.1084 107.557 53.1227 107.142 53.2349C106.741 53.3495 106.387 53.5342 106.082 53.7889C105.776 54.0436 105.519 54.3684 105.309 54.7631C105.115 55.1472 104.977 55.5555 104.896 55.988C104.808 56.4598 104.783 56.9164 104.822 57.3579C104.864 57.7862 104.975 58.1733 105.154 58.5189C105.349 58.8539 105.613 59.1476 105.945 59.3999C106.278 59.6522 106.699 59.8262 107.211 59.9221ZM113.479 62.97L115.422 52.6107L117.643 53.0273L116.851 57.2536L118.443 57.5523L121.889 53.8238L124.445 54.3031L120.236 58.6213L122.757 64.7104L120.162 64.2236L118.215 59.5241L116.486 59.1997L115.7 63.3866L113.479 62.97ZM130.356 64.813C129.924 65.234 129.404 65.5095 128.797 65.6397C128.191 65.7568 127.541 65.7502 126.847 65.6199C126.296 65.5167 125.804 65.3565 125.37 65.1394C124.949 64.9248 124.593 64.6545 124.301 64.3285C124.012 63.9894 123.806 63.6048 123.683 63.1748C123.563 62.7317 123.551 62.2546 123.647 61.7435C123.752 61.18 123.953 60.7226 124.25 60.3712C124.549 60.0067 124.912 59.7357 125.339 59.558C125.778 59.3827 126.272 59.2853 126.818 59.2657C127.367 59.2329 127.929 59.2707 128.506 59.3788L131.16 59.8766C131.302 59.1165 131.242 58.4948 130.98 58.0116C130.718 57.5283 130.163 57.2002 129.313 57.0274C128.815 56.9339 128.367 56.938 127.968 57.0395C127.582 57.1435 127.293 57.381 127.102 57.7521L124.802 57.3207C124.984 56.785 125.248 56.353 125.594 56.0246C125.954 55.6986 126.354 55.448 126.794 55.2727C127.247 55.1 127.725 55.0066 128.23 54.9927C128.747 54.9813 129.255 55.0223 129.753 55.1157C130.395 55.2361 130.976 55.4332 131.494 55.7068C132.013 55.9804 132.437 56.3584 132.767 56.8409C133.137 57.3987 133.339 58.0199 133.374 58.7047C133.408 59.3894 133.353 60.1184 133.208 60.8916L132.16 66.4742L130.214 66.1092L130.356 64.813ZM130.861 61.4688L128.699 61.0632C128.319 60.9919 127.932 60.9534 127.54 60.9477C127.15 60.9288 126.797 61.0049 126.48 61.1761C126.178 61.3366 125.99 61.62 125.913 62.0262C125.82 62.5242 125.926 62.9374 126.23 63.2659C126.551 63.5837 126.973 63.7918 127.497 63.8901C127.903 63.9663 128.286 63.984 128.647 63.943C129.02 63.9046 129.354 63.7907 129.647 63.6016C129.943 63.3993 130.19 63.127 130.39 62.7846C130.606 62.4316 130.763 61.993 130.861 61.4688Z" fill="#333333"/>
<path opacity="0.3" d="M76.5661 190.181C82.5194 191.276 87.6323 189.62 91.9049 185.213C96.1775 180.806 99.3832 172.788 101.522 161.161C103.644 149.626 103.492 141.04 101.067 135.401C98.6595 129.669 94.4791 126.255 88.5258 125.16C82.4796 124.048 77.3116 125.742 73.0218 130.242C68.8422 134.666 65.6916 142.646 63.57 154.18C61.4313 165.807 61.5278 174.432 63.8596 180.054C66.2843 185.693 70.5199 189.069 76.5661 190.181ZM91.8109 107.3C97.4851 108.344 102.515 110.279 106.899 113.105C111.377 115.948 114.905 119.771 117.484 124.572C120.173 129.298 121.866 134.995 122.563 141.663C123.353 148.347 122.943 156.061 121.335 164.805C119.71 173.642 117.385 181.052 114.361 187.035C111.337 193.018 107.775 197.748 103.673 201.225C99.5716 204.702 94.9226 206.972 89.7263 208.036C84.623 209.117 79.1413 209.118 73.2811 208.04C67.4208 206.963 62.2519 205.002 57.7742 202.159C53.3895 199.333 49.8527 195.557 47.1638 190.831C44.5679 186.122 42.9215 180.434 42.2246 173.767C41.6207 167.116 42.1315 159.373 43.7569 150.536C45.3652 141.792 47.6813 134.428 50.7051 128.445C53.729 122.462 57.3382 117.741 61.5327 114.281C65.7444 110.728 70.4019 108.411 75.5052 107.33C80.6084 106.25 86.0437 106.24 91.8109 107.3ZM189.045 126.484C194.626 127.51 199.648 128.963 204.111 130.842C208.591 132.627 212.283 135.037 215.187 138.072C218.108 141.013 220.122 144.702 221.23 149.137C222.354 153.479 222.352 158.719 221.223 164.859C220.145 170.719 218.096 175.583 215.077 179.451C212.074 183.227 208.473 186.074 204.273 187.994C200.59 189.721 196.506 190.749 192.022 191.078C187.631 191.424 182.83 191.118 177.621 190.16L160.18 186.952L158.281 197.277L180.745 201.409L178.05 216.06L155.586 211.928L153.713 222.114L133.481 218.392L135.355 208.207L123.913 206.102L126.608 191.452L138.049 193.556L139.948 183.231L128.507 181.126L131.51 164.801L142.951 166.906L151.652 119.606L189.045 126.484ZM179.229 173.579C181.833 174.058 184.295 174.27 186.613 174.216C189.041 174.085 191.195 173.616 193.074 172.808C195.064 171.924 196.742 170.645 198.107 168.973C199.473 167.301 200.458 165.078 201.065 162.305C201.739 159.159 201.736 156.562 201.055 154.514C200.484 152.389 199.409 150.653 197.83 149.304C196.344 147.973 194.417 146.946 192.05 146.222C189.7 145.405 187.083 144.731 184.2 144.201L168.573 141.326L163.183 170.627L179.229 173.579Z" fill="white"/>
<circle cx="251.894" cy="63.189" r="5" transform="rotate(-1.37616 251.894 63.189)" fill="#FAFAFA"/>
</g>
</g>
<defs>
<filter id="filter0_d_439_3101" x="-1.5" y="-1.5" width="284.283" height="294.989" filterUnits="userSpaceOnUse" color-interpolation-filters="sRGB">
<feFlood flood-opacity="0" result="BackgroundImageFix"/>
<feColorMatrix in="SourceAlpha" type="matrix" values="0 0 0 0 0 0 0 0 0 0 0 0 0 0 0 0 0 0 127 0" result="hardAlpha"/>
<feOffset dx="2" dy="2"/>
<feGaussianBlur stdDeviation="7.25"/>
<feComposite in2="hardAlpha" operator="out"/>
<feColorMatrix type="matrix" values="0 0 0 0 0 0 0 0 0 0 0 0 0 0 0 0 0 0 0.06 0"/>
<feBlend mode="normal" in2="BackgroundImageFix" result="effect1_dropShadow_439_3101"/>
<feBlend mode="normal" in="SourceGraphic" in2="effect1_dropShadow_439_3101" result="shape"/>
</filter>
<clipPath id="clip0_439_3101">
<rect x="53.4028" y="11" width="216.593" height="230" rx="12" transform="rotate(10.6238 53.4028 11)" fill="white"/>
</clipPath>
</defs>
</svg>
