<svg width="258" height="295" viewBox="0 0 258 295" fill="none" xmlns="http://www.w3.org/2000/svg">
<g filter="url(#filter0_d_439_3105)">
<rect x="25.5244" y="12" width="216" height="255.589" rx="12" transform="rotate(3.03319 25.5244 12)" fill="#DADBF7"/>
<path d="M41.4063 56.7261L41.7132 50.9343L41.8729 50.9427C42.2857 50.9646 42.6242 50.8757 42.8885 50.6761C43.1668 50.4638 43.396 50.1689 43.5763 49.7912C43.7565 49.4136 43.8933 48.9735 43.9867 48.4711C44.0941 47.9561 44.1836 47.4 44.2553 46.803C44.4058 45.4758 44.5212 44.18 44.6015 42.9159C44.6959 41.6391 44.7916 40.3356 44.8888 39.0056L54.4953 39.5146L53.8561 51.5777L55.5538 51.6677L55.2469 57.4595L52.9501 57.3378L53.148 53.6031L43.9009 53.1131L43.703 56.8478L41.4063 56.7261ZM51.5394 51.4549L52.0685 41.4689L46.9757 41.1991L46.5702 46.2046C46.54 46.5235 46.5003 46.8952 46.4511 47.3199C46.4159 47.7319 46.3597 48.1629 46.2824 48.6128C46.2192 49.0501 46.129 49.4926 46.0118 49.9403C45.8953 50.3748 45.754 50.7745 45.5877 51.1396L51.5394 51.4549ZM61.915 43.3326C62.7538 43.377 63.4857 43.5493 64.1107 43.8495C64.7357 44.1496 65.2552 44.551 65.6692 45.0536C66.0972 45.5436 66.4067 46.1275 66.5978 46.8052C66.7888 47.483 66.8629 48.2279 66.8198 49.0401C66.7761 49.8656 66.6234 50.6052 66.3618 51.259C66.1142 51.9001 65.758 52.4487 65.2932 52.9047C64.8284 53.3608 64.2631 53.698 63.5973 53.9164C62.9448 54.1355 62.1925 54.2225 61.3403 54.1774C60.5015 54.1329 59.7692 53.9673 59.1435 53.6804C58.5185 53.3803 57.9987 52.9855 57.584 52.4962C57.1833 51.9943 56.8875 51.4045 56.6964 50.7268C56.5186 50.0498 56.4513 49.3052 56.4943 48.493C56.5373 47.6808 56.683 46.9475 56.9313 46.293C57.193 45.6393 57.5558 45.091 58.0199 44.6483C58.4847 44.1923 59.0437 43.848 59.6969 43.6156C60.3501 43.3832 61.0895 43.2888 61.915 43.3326ZM61.4451 52.2001C61.9644 52.2276 62.4083 52.1644 62.777 52.0103C63.1597 51.8437 63.4723 51.6132 63.7149 51.319C63.9708 51.0255 64.1629 50.6751 64.2913 50.268C64.433 49.8616 64.5166 49.4188 64.542 48.9394C64.5674 48.4601 64.5311 48.0109 64.4331 47.5918C64.3492 47.1601 64.1955 46.7847 63.9721 46.4658C63.7619 46.1476 63.475 45.892 63.1114 45.6992C62.7611 45.5071 62.3263 45.3972 61.807 45.3697C61.3277 45.3443 60.8904 45.4079 60.4951 45.5606C60.1131 45.7139 59.7942 45.9373 59.5383 46.2309C59.2957 46.5251 59.1032 46.8821 58.9608 47.3018C58.8324 47.7089 58.7555 48.1521 58.7301 48.6315C58.7047 49.1108 58.7343 49.5597 58.819 49.9781C58.9169 50.3972 59.071 50.7658 59.2811 51.0841C59.5045 51.403 59.7911 51.6652 60.1407 51.8706C60.5043 52.0635 60.9391 52.1733 61.4451 52.2001ZM72.8359 54.7865C71.9971 54.742 71.2648 54.5764 70.6391 54.2896C70.0274 53.9901 69.5209 53.5961 69.1195 53.1075C68.7322 52.6063 68.4493 52.0238 68.2708 51.3601C68.1064 50.6838 68.0453 49.9462 68.0876 49.1473C68.13 48.3485 68.2753 47.6218 68.5236 46.9674C68.7852 46.3136 69.1484 45.7587 69.6132 45.3027C70.078 44.8466 70.6307 44.4954 71.2713 44.2489C71.9119 44.0025 72.645 43.9011 73.4705 43.9449C74.0563 43.9759 74.592 44.0711 75.0776 44.2303C75.5772 44.377 76.0123 44.607 76.3829 44.9204C76.7542 45.2204 77.0681 45.5976 77.3244 46.0518C77.5814 46.4926 77.747 47.0221 77.821 47.6403L75.4643 47.5154C75.3685 47.0563 75.1272 46.6964 74.7405 46.4356C74.3677 46.1621 73.8951 46.0102 73.3226 45.9799C72.8166 45.9531 72.379 46.0234 72.0096 46.1907C71.6402 46.3581 71.3339 46.5955 71.0906 46.9031C70.8473 47.2107 70.6611 47.5746 70.532 47.9951C70.417 48.4029 70.3474 48.8331 70.3234 49.2858C70.2988 49.7519 70.3287 50.1941 70.4134 50.6125C70.498 51.0309 70.6454 51.3992 70.8555 51.7174C71.0797 52.023 71.3666 52.2786 71.7162 52.484C72.0665 52.6762 72.4946 52.7856 73.0006 52.8124C73.5998 52.8442 74.0994 52.7371 74.4997 52.4913C74.9132 52.2462 75.1849 51.9068 75.3147 51.473L77.6514 51.5968C77.5132 52.1904 77.2859 52.699 76.9697 53.1229C76.6668 53.5475 76.3016 53.8886 75.874 54.1464C75.4465 54.4041 74.9762 54.5861 74.4632 54.6925C73.9509 54.7855 73.4084 54.8168 72.8359 54.7865ZM87.7913 44.884L87.6865 46.8612L84.1315 46.6728L83.6786 55.2208L81.4217 55.1012L81.8747 46.5532L78.3197 46.3649L78.4244 44.3876L87.7913 44.884ZM95.0028 54.5191C94.6305 54.9934 94.1518 55.3352 93.5666 55.5445C92.982 55.7405 92.3369 55.8198 91.6313 55.7824C91.072 55.7528 90.563 55.6591 90.104 55.5012C89.6584 55.3441 89.2695 55.1232 88.9374 54.8386C88.6061 54.5406 88.3511 54.1866 88.1725 53.7766C87.9947 53.3533 87.9195 52.882 87.947 52.3627C87.9774 51.7902 88.1163 51.3102 88.3638 50.9227C88.612 50.522 88.9359 50.2053 89.3355 49.9728C89.7483 49.741 90.2242 49.5793 90.7631 49.4877C91.3028 49.3828 91.8655 49.3458 92.4514 49.3769L95.1476 49.5197C95.1885 48.7475 95.0471 48.1391 94.7235 47.6947C94.3999 47.2503 93.8058 46.9985 92.941 46.9393C92.4351 46.9125 91.9911 46.9758 91.6091 47.1291C91.2404 47.2832 90.9856 47.5567 90.8446 47.9498L88.5079 47.826C88.6174 47.271 88.8222 46.8079 89.1223 46.4366C89.4357 46.066 89.7988 45.7648 90.2116 45.533C90.6378 45.3018 91.1 45.1461 91.5983 45.0657C92.1099 44.986 92.6187 44.9595 93.1246 44.9863C93.777 45.0209 94.3783 45.1395 94.9283 45.3423C95.4784 45.545 95.9488 45.8637 96.3397 46.2983C96.7803 46.8023 97.0629 47.3914 97.1874 48.0656C97.3119 48.7398 97.3533 49.4697 97.3117 50.2553L97.0111 55.9273L95.0339 55.8225L95.0028 54.5191ZM95.0618 51.1375L92.8649 51.021C92.4788 51.0006 92.0909 51.0134 91.7013 51.0595C91.3123 51.0923 90.972 51.2145 90.6804 51.426C90.4029 51.6249 90.2531 51.9308 90.2313 52.3435C90.2045 52.8495 90.3637 53.2451 90.7091 53.5305C91.0685 53.8032 91.5145 53.9537 92.0471 53.9819C92.4599 54.0038 92.8422 53.9706 93.194 53.8825C93.5591 53.795 93.8745 53.6381 94.1402 53.4119C94.4066 53.1723 94.6162 52.8696 94.7691 52.5039C94.9361 52.1255 95.0336 51.67 95.0618 51.1375ZM99.6141 45.5105L104.108 45.7486C104.574 45.7733 105.045 45.8249 105.522 45.9036C105.999 45.9689 106.426 46.105 106.802 46.3119C107.191 46.5195 107.496 46.8094 107.717 47.1816C107.952 47.5411 108.06 48.0209 108.041 48.6207C108.017 49.0867 107.887 49.5138 107.653 49.902C107.419 50.2901 107.062 50.5983 106.583 50.8266C107.212 51.0336 107.662 51.3645 107.932 51.8194C108.216 52.2617 108.342 52.7824 108.31 53.3816C108.28 53.9408 108.141 54.4208 107.893 54.8216C107.645 55.209 107.329 55.5193 106.942 55.7526C106.557 55.9725 106.115 56.1293 105.616 56.223C105.117 56.3034 104.595 56.3292 104.049 56.3003L99.0564 56.0357L99.6141 45.5105ZM101.81 47.5295L101.682 49.9461L103.06 50.0191C103.367 50.0353 103.679 50.0519 103.999 50.0689C104.333 50.0732 104.628 50.0421 104.885 49.9756C105.156 49.9098 105.375 49.7946 105.544 49.63C105.727 49.4661 105.826 49.2244 105.843 48.9048C105.858 48.6252 105.803 48.4086 105.677 48.2551C105.566 48.089 105.419 47.9611 105.237 47.8713C105.055 47.7815 104.844 47.7236 104.605 47.6976C104.38 47.6723 104.167 47.6544 103.967 47.6438L101.81 47.5295ZM103.772 54.3628C104.038 54.3769 104.298 54.3774 104.553 54.3642C104.82 54.3516 105.056 54.3041 105.261 54.2215C105.48 54.1262 105.66 54.0023 105.802 53.8495C105.944 53.6835 106.022 53.4607 106.037 53.1811C106.064 52.6751 105.922 52.3271 105.612 52.1371C105.315 51.9478 104.94 51.8411 104.487 51.8171L101.591 51.6637L101.455 54.2401L103.772 54.3628ZM109.852 56.6077L110.41 46.0825L112.667 46.2021L112.439 50.4961L114.057 50.5818L116.981 46.4307L119.577 46.5683L115.976 51.4045L119.279 57.1072L116.643 56.9676L114.092 52.5664L112.334 52.4733L112.109 56.7273L109.852 56.6077ZM126.825 56.2053C126.452 56.6796 125.974 57.0214 125.388 57.2307C124.804 57.4267 124.159 57.506 123.453 57.4686C122.894 57.439 122.385 57.3453 121.926 57.1874C121.48 57.0303 121.091 56.8094 120.759 56.5248C120.428 56.2268 120.173 55.8728 119.994 55.4628C119.816 55.0395 119.741 54.5682 119.769 54.0489C119.799 53.4764 119.938 52.9964 120.186 52.6089C120.434 52.2082 120.758 51.8915 121.157 51.659C121.57 51.4272 122.046 51.2655 122.585 51.1739C123.125 51.0689 123.687 51.032 124.273 51.063L126.969 51.2059C127.01 50.4337 126.869 49.8253 126.545 49.3809C126.222 48.9365 125.628 48.6847 124.763 48.6255C124.257 48.5987 123.813 48.662 123.431 48.8153C123.062 48.9694 122.807 49.2429 122.666 49.636L120.33 49.5122C120.439 48.9572 120.644 48.4941 120.944 48.1228C121.257 47.7522 121.621 47.451 122.033 47.2191C122.46 46.988 122.922 46.8323 123.42 46.7519C123.932 46.6722 124.44 46.6457 124.946 46.6725C125.599 46.7071 126.2 46.8257 126.75 47.0285C127.3 47.2312 127.771 47.5499 128.161 47.9845C128.602 48.4885 128.885 49.0776 129.009 49.7518C129.134 50.426 129.175 51.1559 129.133 51.9415L128.833 57.6135L126.856 57.5087L126.825 56.2053ZM126.884 52.8236L124.687 52.7072C124.301 52.6868 123.913 52.6996 123.523 52.7457C123.134 52.7785 122.794 52.9007 122.502 53.1122C122.225 53.3111 122.075 53.617 122.053 54.0297C122.026 54.5357 122.185 54.9313 122.531 55.2167C122.89 55.4894 123.336 55.6399 123.869 55.6681C124.282 55.69 124.664 55.6568 125.016 55.5687C125.381 55.4812 125.696 55.3243 125.962 55.0981C126.228 54.8585 126.438 54.5558 126.591 54.1901C126.758 53.8117 126.855 53.3562 126.884 52.8236Z" fill="#333333"/>
<path opacity="0.3" d="M73.8157 189.691C79.8615 189.99 84.7108 187.673 88.3639 182.74C92.0169 177.807 94.1354 169.437 94.7195 157.629C95.2989 145.915 94.0143 137.424 90.8659 132.155C87.7222 126.791 83.1275 123.959 77.0818 123.66C70.9416 123.357 66.0426 125.719 62.3849 130.746C58.8264 135.683 56.7574 144.009 56.178 155.723C55.594 167.531 56.8289 176.067 59.8829 181.332C63.0313 186.601 67.6756 189.387 73.8157 189.691ZM77.9789 105.523C83.7412 105.808 88.9821 107.062 93.7017 109.284C98.5157 111.511 102.518 114.834 105.708 119.253C108.998 123.582 111.429 129.005 113 135.522C114.666 142.044 115.28 149.745 114.84 158.624C114.396 167.598 113.071 175.25 110.864 181.581C108.657 187.911 105.75 193.07 102.144 197.058C98.5378 201.046 94.2295 203.911 89.2192 205.652C84.3034 207.397 78.8699 208.123 72.9186 207.828C66.9674 207.534 61.5847 206.273 56.7707 204.047C52.0511 201.825 48.0466 198.549 44.757 194.22C41.5618 189.895 39.1785 184.474 37.6069 177.957C36.1298 171.445 35.6132 163.701 36.0571 154.727C36.4963 145.848 37.8194 138.243 40.0265 131.913C42.2335 125.583 45.1874 120.426 48.8881 116.442C52.5936 112.364 56.9042 109.452 61.82 107.707C66.7358 105.961 72.1221 105.234 77.9789 105.523ZM176.895 111.694C182.563 111.975 187.733 112.751 192.405 114.024C197.081 115.202 201.059 117.103 204.338 119.728C207.622 122.258 210.106 125.647 211.79 129.897C213.478 134.053 214.168 139.248 213.86 145.482C213.565 151.434 212.177 156.526 209.695 160.759C207.218 164.898 204.024 168.196 200.115 170.654C196.692 172.852 192.78 174.411 188.378 175.329C184.071 176.253 179.273 176.584 173.983 176.322L156.271 175.446L155.752 185.931L178.565 187.06L177.829 201.938L155.016 200.81L154.504 211.153L133.958 210.137L134.47 199.793L122.851 199.219L123.587 184.34L135.206 184.915L135.725 174.43L124.106 173.855L124.926 157.276L136.545 157.851L138.921 109.816L176.895 111.694ZM173.386 159.673C176.031 159.804 178.498 159.69 180.789 159.329C183.179 158.879 185.252 158.13 187.008 157.08C188.864 155.941 190.358 154.452 191.49 152.614C192.623 150.777 193.306 148.443 193.541 145.614C193.794 142.407 193.448 139.833 192.503 137.892C191.656 135.862 190.361 134.282 188.618 133.155C186.969 132.031 184.923 131.267 182.481 130.862C180.044 130.363 177.361 130.041 174.432 129.896L158.562 129.111L157.091 158.867L173.386 159.673Z" fill="white"/>
<circle cx="227.241" cy="35.2409" r="5" transform="rotate(2.83168 227.241 35.2409)" fill="#FAFAFA"/>
</g>
<defs>
<filter id="filter0_d_439_3105" x="-0.5" y="-0.5" width="258.222" height="295.661" filterUnits="userSpaceOnUse" color-interpolation-filters="sRGB">
<feFlood flood-opacity="0" result="BackgroundImageFix"/>
<feColorMatrix in="SourceAlpha" type="matrix" values="0 0 0 0 0 0 0 0 0 0 0 0 0 0 0 0 0 0 127 0" result="hardAlpha"/>
<feOffset dx="2" dy="2"/>
<feGaussianBlur stdDeviation="7.25"/>
<feComposite in2="hardAlpha" operator="out"/>
<feColorMatrix type="matrix" values="0 0 0 0 0 0 0 0 0 0 0 0 0 0 0 0 0 0 0.06 0"/>
<feBlend mode="normal" in2="BackgroundImageFix" result="effect1_dropShadow_439_3105"/>
<feBlend mode="normal" in="SourceGraphic" in2="effect1_dropShadow_439_3105" result="shape"/>
</filter>
</defs>
</svg>
