<svg width="261" height="301" viewBox="0 0 261 301" fill="none" xmlns="http://www.w3.org/2000/svg">
<g filter="url(#filter0_d_439_3109)">
<g clip-path="url(#clip0_439_3109)">
<rect x="12" y="25.8027" width="216.593" height="259.232" rx="12" transform="rotate(-3.65375 12 25.8027)" fill="#C9E5FF"/>
<path d="M43.3041 62.6844L40.9889 62.8322L40.2203 50.7967L33.3942 51.2326L34.1628 63.2681L31.8475 63.4159L30.9464 49.3047L42.403 48.5731L43.3041 62.6844ZM48.7205 66.4468L46.4452 66.5921L45.5122 51.9819L47.6678 51.8442L47.8832 53.3336C48.2342 52.7634 48.7069 52.319 49.3011 52.0005C49.9078 51.6678 50.5505 51.4798 51.2291 51.4365C51.9476 51.3906 52.6015 51.4824 53.1906 51.712C53.7789 51.9283 54.2876 52.2566 54.7165 52.6968C55.1587 53.1362 55.5009 53.6821 55.7429 54.3347C55.9975 54.9731 56.1515 55.7115 56.205 56.5498C56.2552 57.3348 56.2017 58.0664 56.0446 58.7445C55.8875 59.4225 55.625 60.0204 55.2573 60.5383C54.902 61.0419 54.4401 61.4455 53.8716 61.749C53.3165 62.0517 52.6264 62.2294 51.8014 62.282C51.1627 62.3228 50.5442 62.2621 49.946 62.0999C49.3603 61.9236 48.8392 61.6095 48.3828 61.1576L48.7205 66.4468ZM51.3159 60.329C51.8083 60.2976 52.2286 60.1839 52.5768 59.988C52.9242 59.7787 53.2012 59.5139 53.4078 59.1934C53.6278 58.8721 53.7778 58.5017 53.858 58.0825C53.9514 57.6623 53.9828 57.2127 53.9522 56.7337C53.9216 56.2547 53.8333 55.8127 53.6872 55.4079C53.5535 54.9889 53.3572 54.634 53.0981 54.3433C52.8524 54.0517 52.5377 53.8313 52.1541 53.6821C51.7838 53.5321 51.3458 53.4732 50.8401 53.5055C50.3877 53.5344 49.9745 53.6543 49.6005 53.8652C49.2399 54.0753 48.9429 54.3414 48.7096 54.6636C48.4763 54.9858 48.3068 55.364 48.2009 55.7983C48.1075 56.2185 48.0748 56.6481 48.1028 57.0872C48.1334 57.5662 48.2222 58.0148 48.3691 58.4329C48.5152 58.8378 48.7178 59.1856 48.9769 59.4763C49.2484 59.7529 49.5764 59.9725 49.9608 60.135C50.3453 60.2975 50.797 60.3622 51.3159 60.329ZM60.1309 57.1007C60.1822 57.4849 60.285 57.8391 60.4393 58.1632C60.5936 58.4874 60.7919 58.7686 61.0343 59.007C61.2758 59.2321 61.5675 59.4072 61.9095 59.5323C62.2648 59.6566 62.6687 59.7043 63.1211 59.6754C63.6001 59.6448 64.0337 59.5303 64.4218 59.3318C64.8233 59.1325 65.1036 58.814 65.2627 58.3763L67.5979 58.2271C67.4988 58.7679 67.3086 59.241 67.0272 59.6464C66.7591 60.051 66.4269 60.3928 66.0305 60.672C65.6466 60.937 65.2123 61.1451 64.7277 61.2963C64.2554 61.4333 63.7465 61.5193 63.201 61.5541C62.3627 61.6076 61.6161 61.5284 60.9613 61.3164C60.3197 61.1035 59.7708 60.7711 59.3144 60.3193C58.858 59.8674 58.5025 59.3223 58.248 58.6839C58.0059 58.0313 57.8586 57.2926 57.8059 56.4676C57.7549 55.6692 57.8217 54.9368 58.0063 54.2703C58.19 53.5906 58.4794 52.9976 58.8747 52.4914C59.2832 51.9843 59.785 51.5782 60.3801 51.273C60.9743 50.9545 61.664 50.7701 62.449 50.72C63.274 50.6673 63.9948 50.7616 64.6115 51.0028C65.2272 51.2307 65.7496 51.5647 66.1785 52.005C66.6207 52.4443 66.9616 52.9703 67.2011 53.583C67.4407 54.1956 67.5838 54.8679 67.6305 55.5997C67.6526 55.9457 67.6543 56.2863 67.6357 56.6215L60.1309 57.1007ZM65.3704 55.0426C65.2778 54.2202 64.9784 53.6114 64.4722 53.2161C63.9793 52.8201 63.3536 52.6463 62.5952 52.6947C62.1694 52.7219 61.8011 52.8122 61.4902 52.9657C61.1793 53.1191 60.918 53.3162 60.7063 53.5568C60.5078 53.7966 60.3518 54.0738 60.2383 54.3883C60.1248 54.7029 60.0591 55.0344 60.0413 55.3829L65.3704 55.0426ZM70.5141 53.8524C70.5127 53.4116 70.4995 52.8914 70.4746 52.2918C70.4488 51.6788 70.4151 51.0464 70.3735 50.3943L78.477 49.8769L79.025 58.4594L80.4022 58.3715L80.7221 63.3813L78.5066 63.5227L78.3103 60.449L71.125 60.9078L71.3213 63.9816L69.1058 64.123L68.7859 59.1132C69.1717 59.0886 69.4834 58.9485 69.721 58.6928C69.9709 58.423 70.1336 58.1454 70.2089 57.86C70.2867 57.6145 70.3475 57.3101 70.391 56.9465C70.4338 56.5697 70.4636 56.2004 70.4806 55.8386C70.4976 55.4768 70.5096 55.142 70.5167 54.8342C70.5238 54.5265 70.5229 54.1992 70.5141 53.8524ZM76.3278 51.9982L72.5754 52.2378C72.5794 52.7185 72.5926 53.2387 72.6149 53.7984C72.6373 54.3581 72.6518 54.8983 72.6583 55.419C72.6637 55.7125 72.662 55.9999 72.6532 56.281C72.6436 56.5489 72.622 56.8375 72.5883 57.1469C72.5537 57.4431 72.4993 57.7405 72.4248 58.0392C72.3504 58.3378 72.2418 58.6253 72.0991 58.9017L76.7496 58.6047L76.3278 51.9982ZM86.154 49.2063C86.9923 49.1528 87.7393 49.2387 88.395 49.464C89.0507 49.6893 89.6134 50.0275 90.0831 50.4785C90.5652 50.9153 90.9407 51.4592 91.2094 52.11C91.478 52.7609 91.6383 53.4922 91.6901 54.3039C91.7428 55.1288 91.6773 55.8812 91.4936 56.561C91.3223 57.2266 91.0324 57.8129 90.6239 58.32C90.2154 58.827 89.6932 59.2278 89.0573 59.5222C88.4348 59.8158 87.6977 59.9898 86.8461 60.0442C86.0078 60.0977 85.2612 60.0185 84.6064 59.8065C83.9507 59.5811 83.3884 59.2496 82.9196 58.8119C82.4632 58.3601 82.1007 57.8087 81.832 57.1579C81.5766 56.5062 81.423 55.7745 81.3712 54.9628C81.3193 54.1511 81.3786 53.4058 81.549 52.7269C81.7328 52.0471 82.0293 51.4604 82.4387 50.9666C82.8472 50.4596 83.3623 50.0526 83.984 49.7457C84.6057 49.4388 85.3291 49.259 86.154 49.2063ZM86.7199 58.0682C87.2389 58.0351 87.6725 57.9206 88.0207 57.7246C88.3814 57.5146 88.665 57.2493 88.8717 56.9288C89.0917 56.6075 89.2417 56.2371 89.3218 55.8179C89.4152 55.3977 89.4466 54.9481 89.4161 54.4691C89.3855 53.9901 89.2971 53.5481 89.151 53.1433C89.0174 52.7243 88.821 52.3694 88.562 52.0787C88.3162 51.7871 88.0015 51.5667 87.6179 51.4175C87.2476 51.2675 86.803 51.209 86.284 51.2421C85.805 51.2727 85.3781 51.3868 85.0033 51.5845C84.6417 51.7812 84.351 52.0403 84.131 52.3616C83.9243 52.6821 83.7747 53.0591 83.6822 53.4925C83.6021 53.9118 83.5773 54.361 83.6079 54.84C83.6385 55.319 83.7202 55.7614 83.8529 56.1671C83.999 56.5719 84.195 56.9201 84.4407 57.2117C84.6998 57.5025 85.0149 57.7295 85.386 57.8929C85.7697 58.0421 86.2143 58.1005 86.7199 58.0682ZM94.0941 59.4411L93.4224 48.9225L102.644 48.3337L103.315 58.8523L101.04 58.9976L100.494 50.455L95.824 50.7532L96.3695 59.2958L94.0941 59.4411ZM106.447 53.622C106.456 52.713 106.438 51.8123 106.395 50.9199C106.364 50.0134 106.33 49.0736 106.295 48.1005L114.159 47.5984L114.831 58.1169L112.535 58.2635L111.99 49.7209L108.537 49.9414C108.552 50.5951 108.567 51.2488 108.582 51.9025C108.609 52.5421 108.624 53.1825 108.624 53.8237C108.626 54.0641 108.618 54.3519 108.599 54.6871C108.593 55.0081 108.574 55.3367 108.542 55.6727C108.509 55.9955 108.449 56.3066 108.361 56.6061C108.273 56.8924 108.156 57.1603 108.012 57.41C107.758 57.8271 107.404 58.1436 106.95 58.3596C106.509 58.5615 105.989 58.6816 105.39 58.7198L104.831 58.7555L104.706 56.7995C105.105 56.774 105.419 56.6604 105.646 56.4589C105.886 56.2431 106.057 55.9851 106.158 55.6847C106.272 55.3701 106.344 55.0382 106.375 54.6888C106.419 54.3253 106.443 53.9697 106.447 53.622ZM124.012 56.228C123.697 56.7424 123.262 57.1377 122.705 57.4137C122.147 57.6765 121.516 57.8303 120.81 57.8754C120.252 57.9111 119.735 57.8772 119.261 57.7739C118.8 57.6697 118.388 57.4956 118.025 57.2516C117.661 56.9943 117.367 56.6724 117.142 56.2859C116.916 55.8862 116.786 55.4268 116.753 54.9079C116.716 54.3357 116.799 53.8428 116.999 53.4292C117.199 53.0023 117.484 52.6501 117.854 52.3726C118.237 52.0943 118.691 51.8783 119.215 51.7245C119.739 51.5575 120.294 51.4553 120.879 51.4179L123.574 51.2458C123.524 50.4741 123.313 49.8863 122.94 49.4826C122.567 49.0789 121.947 48.898 121.081 48.9399C120.576 48.9722 120.142 49.0868 119.781 49.2835C119.433 49.4794 119.211 49.7808 119.117 50.1877L116.782 50.3368C116.826 49.7728 116.975 49.289 117.23 48.8853C117.498 48.4807 117.824 48.1392 118.207 47.8609C118.603 47.5818 119.044 47.3732 119.53 47.2354C120.029 47.0966 120.531 47.0111 121.036 46.9788C121.688 46.9372 122.299 46.985 122.869 47.1223C123.439 47.2596 123.944 47.5213 124.382 47.9075C124.879 48.3568 125.228 48.909 125.43 49.5641C125.632 50.2192 125.758 50.9393 125.809 51.7244L126.171 57.3928L124.195 57.519L124.012 56.228ZM123.677 52.8625L121.481 53.0027C121.095 53.0274 120.712 53.0853 120.33 53.1764C119.947 53.2543 119.624 53.4153 119.359 53.6593C119.106 53.8892 118.993 54.2104 119.019 54.6229C119.052 55.1285 119.256 55.5029 119.632 55.7461C120.021 55.9751 120.481 56.0727 121.014 56.0387C121.426 56.0123 121.802 55.9349 122.141 55.8064C122.494 55.677 122.789 55.4844 123.026 55.2288C123.263 54.9598 123.436 54.6348 123.545 54.2537C123.667 53.8585 123.711 53.3948 123.677 52.8625ZM136.145 46.1944L136.271 48.1704L132.719 48.3972L133.264 56.9398L131.009 57.0839L130.463 48.5413L126.911 48.7681L126.784 46.7921L136.145 46.1944ZM144.829 54.8987C144.514 55.4131 144.079 55.8084 143.522 56.0844C142.964 56.3472 142.333 56.501 141.627 56.5461C141.068 56.5818 140.552 56.5479 140.078 56.4446C139.617 56.3404 139.205 56.1663 138.842 55.9223C138.478 55.665 138.184 55.3431 137.959 54.9566C137.733 54.5569 137.603 54.0975 137.57 53.5786C137.533 53.0064 137.616 52.5135 137.816 52.0999C138.016 51.673 138.301 51.3208 138.671 51.0433C139.054 50.765 139.508 50.549 140.032 50.3952C140.556 50.2282 141.11 50.126 141.696 50.0886L144.39 49.9165C144.341 49.1448 144.13 48.557 143.757 48.1533C143.384 47.7496 142.764 47.5687 141.898 47.6106C141.393 47.6429 140.959 47.7575 140.598 47.9542C140.249 48.1501 140.028 48.4515 139.934 48.8584L137.599 49.0075C137.643 48.4435 137.792 47.9597 138.047 47.556C138.315 47.1514 138.641 46.8099 139.024 46.5316C139.42 46.2525 139.861 46.0439 140.347 45.9061C140.846 45.7673 141.348 45.6818 141.853 45.6495C142.505 45.6079 143.116 45.6557 143.686 45.793C144.256 45.9303 144.761 46.192 145.199 46.5782C145.696 47.0275 146.045 47.5797 146.247 48.2348C146.449 48.8899 146.575 49.61 146.626 50.3951L146.987 56.0635L145.012 56.1897L144.829 54.8987ZM144.494 51.5332L142.298 51.6734C141.912 51.6981 141.529 51.756 141.147 51.8471C140.764 51.925 140.441 52.086 140.176 52.33C139.923 52.5599 139.81 52.8811 139.836 53.2936C139.869 53.7992 140.073 54.1736 140.449 54.4168C140.838 54.6458 141.298 54.7434 141.831 54.7094C142.243 54.683 142.619 54.6056 142.958 54.4771C143.311 54.3477 143.606 54.1551 143.843 53.8995C144.08 53.6305 144.253 53.3055 144.362 52.9244C144.484 52.5292 144.528 52.0655 144.494 51.5332Z" fill="#333333"/>
<path opacity="0.3" d="M81.0066 192.285C87.048 191.907 91.6084 189.064 94.6881 183.754C97.7678 178.444 98.9389 169.89 98.2015 158.09C97.4699 146.385 95.2457 138.09 91.5289 133.205C87.8062 128.226 82.9242 125.925 76.8829 126.302C70.7471 126.686 66.1424 129.58 63.0686 134.984C60.0834 140.288 58.9565 148.792 59.688 160.497C60.4255 172.297 62.6054 180.642 66.2278 185.533C69.9446 190.418 74.8709 192.668 81.0066 192.285ZM75.7501 108.178C81.5083 107.819 86.8564 108.479 91.7944 110.161C96.8269 111.836 101.175 114.692 104.839 118.727C108.591 122.662 111.612 127.78 113.901 134.081C116.284 140.376 117.753 147.96 118.308 156.834C118.868 165.801 118.405 173.553 116.918 180.09C115.432 186.627 113.119 192.079 109.98 196.444C106.842 200.81 102.88 204.138 98.0952 206.427C93.4049 208.71 88.0863 210.037 82.1393 210.409C76.1924 210.781 70.7027 210.129 65.6703 208.453C60.7322 206.772 56.387 203.963 52.6348 200.028C48.977 196.087 46.0035 190.966 43.7145 184.665C41.5198 178.359 40.1422 170.721 39.5818 161.754C39.0272 152.881 39.4933 145.176 40.98 138.639C42.4668 132.102 44.8267 126.647 48.0597 122.276C51.2869 117.81 55.2456 114.435 59.9359 112.152C64.6262 109.869 69.8976 108.544 75.7501 108.178ZM174.737 103.271C180.401 102.917 185.625 103.112 190.41 103.855C195.189 104.504 199.354 105.95 202.905 108.192C206.451 110.339 209.298 113.431 211.445 117.466C213.587 121.407 214.852 126.493 215.242 132.723C215.613 138.67 214.802 143.885 212.808 148.369C210.808 152.758 208.003 156.392 204.392 159.272C201.236 161.838 197.522 163.823 193.25 165.227C189.073 166.625 184.342 167.49 179.056 167.82L161.357 168.926L162.011 179.404L184.808 177.98L185.737 192.847L162.941 194.272L163.587 204.608L143.056 205.891L142.41 195.555L130.799 196.28L129.87 181.413L141.48 180.687L140.825 170.209L129.215 170.935L128.179 154.369L139.79 153.643L136.79 105.643L174.737 103.271ZM176.604 151.342C179.248 151.177 181.687 150.788 183.923 150.174C186.248 149.46 188.224 148.484 189.852 147.245C191.569 145.906 192.888 144.26 193.808 142.307C194.728 140.354 195.147 137.959 195.065 135.121C194.959 131.906 194.327 129.386 193.171 127.563C192.103 125.64 190.64 124.215 188.782 123.289C187.017 122.357 184.899 121.826 182.428 121.696C179.95 121.472 177.248 121.451 174.321 121.634L158.463 122.625L160.321 152.36L176.604 151.342Z" fill="white"/>
<circle cx="214.522" cy="29.5083" r="5" transform="rotate(8.15459 214.522 29.5083)" fill="#FAFAFA"/>
</g>
</g>
<defs>
<filter id="filter0_d_439_3109" x="-0.5" y="-0.5" width="261.672" height="301.508" filterUnits="userSpaceOnUse" color-interpolation-filters="sRGB">
<feFlood flood-opacity="0" result="BackgroundImageFix"/>
<feColorMatrix in="SourceAlpha" type="matrix" values="0 0 0 0 0 0 0 0 0 0 0 0 0 0 0 0 0 0 127 0" result="hardAlpha"/>
<feOffset dx="2" dy="2"/>
<feGaussianBlur stdDeviation="7.25"/>
<feComposite in2="hardAlpha" operator="out"/>
<feColorMatrix type="matrix" values="0 0 0 0 0 0 0 0 0 0 0 0 0 0 0 0 0 0 0.06 0"/>
<feBlend mode="normal" in2="BackgroundImageFix" result="effect1_dropShadow_439_3109"/>
<feBlend mode="normal" in="SourceGraphic" in2="effect1_dropShadow_439_3109" result="shape"/>
</filter>
<clipPath id="clip0_439_3109">
<rect x="12" y="25.8027" width="216.593" height="259.232" rx="12" transform="rotate(-3.65375 12 25.8027)" fill="white"/>
</clipPath>
</defs>
</svg>
