<svg width="647" height="552" viewBox="0 0 647 552" fill="none" xmlns="http://www.w3.org/2000/svg"><path d="M85.867 299.207c-.633-.724-1.628-5.79-2.171-11.219-.543-5.519-1.448-10.314-1.9-10.766-.543-.453-2.895-1.539-5.248-2.443-3.619-1.267-4.976-2.534-7.6-6.605-2.985-4.705-3.076-5.157-2.08-8.505.542-1.9 1.537-3.709 2.17-3.89 1.81-.724 8.415 2.081 12.939 5.428 2.804 2.172 5.157 3.257 7.147 3.257 2.443 0 3.529.724 6.153 3.891 2.985 3.619 3.257 4.433 3.257 9.771-.09 8.686-1.176 12.124-5.52 17.01-4.704 5.247-5.79 5.79-7.147 4.071ZM77.003 224.745c-.995-.633-.995-1.447-.09-4.433 1.628-5.7.904-6.514-5.79-6.514h-5.791l-.634-4.614c-.542-4.072-.904-4.705-3.71-6.062-1.718-.815-3.166-1.991-3.166-2.715 0-1.538 7.057-11.942 8.143-11.942.453 0 1.086.814 1.357 1.719.905 2.804 13.029 5.609 15.472 3.619.814-.724 4.885-1.448 9.5-1.719 7.419-.453 7.961-.362 8.414 1.357.995 3.619.452 6.243-1.81 9.319-2.895 3.619-4.523 10.676-2.986 12.486.815.995.634 1.266-.814 1.266-1.085 0-3.347 1.81-5.61 4.524-3.437 4.071-4.161 4.524-7.509 4.524-2.08-.091-4.343-.362-4.976-.815ZM256.508 218.593l-6.243-4.162-3.347 1.991c-4.976 2.804-9.772 2.442-15.291-1.086-3.8-2.443-4.523-3.257-4.252-5.157.271-1.629-.724-3.348-4.433-7.148-4.615-4.795-4.886-4.976-7.057-3.8-2.353 1.176-7.057.814-9.591-.724-1.9-1.266 3.529-5.79 11.672-9.952 3.709-1.99 8.052-4.162 9.5-4.976 1.9-.995 5.066-1.448 10.223-1.448 9.319 0 13.481 1.81 17.643 7.872 6.152 8.866 8.143 10.495 15.924 12.847 6.876 1.991 7.419 2.081 8.957.634 2.081-1.81 6.514-1.991 6.514-.272 0 .724-.633 1.81-1.357 2.443-.905.724-1.357 2.714-1.357 5.881v4.795l-5.067-.452c-4.252-.362-5.609-.091-8.414 1.719-8.686 5.79-7.148 5.7-14.024.995Z" fill="#C9E5FF"/><path d="M101.885 214.884c-4.252-1.448-4.433-1.629-3.98-4.343.27-1.629 1.718-4.614 3.257-6.695 2.533-3.529 2.714-4.253 2.261-9.048-.542-4.433-.361-5.247.996-5.79 1.085-.453 2.443.09 4.071 1.628 2.262 2.262 2.714 2.353 10.948 1.81 4.704-.272 9.5-.634 10.766-.814 1.81-.272 2.624.271 3.8 2.261.905 1.538 2.172 2.715 2.895 2.715 1.991 0 4.162 3.619 4.162 7.057 0 2.262-.723 3.709-2.804 5.7-3.167 2.985-5.158 3.166-10.948 1.176l-4.162-1.448-5.881 3.71c-6.333 4.071-8.505 4.343-15.381 2.081ZM206.382 221.579c-6.876-8.776-11.49-13.21-13.481-13.21-.995 0-2.352-.633-2.985-1.357-.905-1.176-.815-1.719.543-3.257 1.357-1.538 1.447-2.171.542-3.619-1.628-2.624-.633-3.528 3.8-3.528 2.624 0 4.705.633 6.877 2.171 3.981 2.986 12.033 4.886 14.023 3.257 1.177-.995 1.719-.905 3.348.543 4.524 3.89 6.062 6.152 5.519 8.595-.362 2.081.09 2.714 3.257 4.434 4.162 2.352 4.705 3.619 1.719 3.619-1.086 0-2.895.814-3.981 1.9-1.628 1.447-2.352 1.628-3.8.904-3.438-1.9-6.333-1.266-7.871 1.629-.724 1.447-1.719 2.895-2.172 3.167-.452.271-2.895-2.081-5.338-5.248ZM96.907 266.364c-2.262-2.804-3.71-3.709-6.695-4.162-2.353-.452-5.7-1.99-8.415-4.071-2.442-1.809-6.242-3.8-8.323-4.433-3.167-.905-3.89-1.538-3.89-3.167 0-1.176-.815-4.433-1.81-7.328-2.353-6.877-2.353-7.148 1.357-8.867 1.719-.814 3.8-2.805 4.524-4.343 1.447-2.805 1.719-2.895 6.152-2.443 4.343.453 4.976.905 9.5 5.791 6.695 7.419 7.328 8.414 8.414 14.204.814 4.434 1.538 5.791 5.881 10.043 2.714 2.714 4.886 5.338 4.886 5.791 0 .452-1.086 1.538-2.443 2.442-6.876 4.434-6.062 4.343-9.138.543ZM127.309 277.945c-2.262-1.176-3.619-2.714-4.343-4.885-.543-1.719-1.538-3.529-2.081-3.891-.633-.362-1.81-1.719-2.624-3.076-.905-1.357-2.805-2.624-4.343-2.986-1.538-.362-3.89-2.081-5.428-3.981l-2.715-3.257 3.167-.271c2.714-.272 3.8-1.086 6.967-5.429 1.99-2.895 3.981-5.519 4.433-5.971.362-.452 1.719.362 2.895 1.719l2.172 2.533 3.981-1.628c2.171-.815 4.433-1.719 4.976-1.991.904-.362 10.314 10.948 10.314 12.305 0 .271-2.262 2.171-4.976 4.162l-4.976 3.619.181 6.695c.271 6.514.181 6.786-2.081 7.329-1.448.452-3.438.09-5.519-.996ZM152.461 205.293c-.272-1.085-.543-3.257-.543-4.795 0-2.714.271-2.895 3.981-3.528 5.157-.724 5.971-.181 5.971 4.161 0 3.981-.181 4.072-5.157 5.248-3.438.724-3.8.633-4.252-1.086Z" fill="#C9E5FF"/><path d="M147.028 229.45c-.181-.271.181-1.719.815-3.257 1.085-2.624.904-3.347-1.991-9.681-2.624-5.79-3.076-7.419-2.533-11.038.633-4.976-1.629-10.676-4.162-10.676-.814 0-2.443-1.447-3.529-3.166l-1.899-3.167 2.985-5.429c2.443-4.433 3.529-5.609 6.153-6.333 5.157-1.448 6.966-1.086 9.319 1.9 1.99 2.533 3.166 2.986 11.038 4.524 11.309 2.171 17.552 6.605 11.309 8.052-1.629.362-2.533 1.81-4.162 6.695-1.9 5.429-1.99 6.696-1.086 9.772.543 1.9 2.172 4.524 3.62 5.7 2.985 2.443 3.076 3.257.814 8.143-1.629 3.619-1.81 3.709-8.324 4.885-3.709.634-9.229 1.719-12.305 2.353-3.076.633-5.79.904-6.062.723Zm11.219-20.99 5.881-1.628.272-4.886c.362-7.148-.634-8.053-8.414-7.329l-6.334.634.272 6.333c.271 6.695.633 8.595 1.719 8.595.452 0 3.347-.814 6.604-1.719ZM101.616 251.617c-.453-.633-1.267-3.619-1.9-6.514-.905-4.434-1.9-6.062-6.605-11.129-3.167-3.438-5.248-6.243-4.795-6.876 2.352-4.252 5.971-7.781 7.238-7.238.814.271 1.9-.091 2.623-1.086 1.086-1.447 1.72-1.447 7.51-.362l6.333 1.177.543 4.433c.452 2.986 1.538 5.338 3.257 7.328 3.981 4.524 3.71 9.591-.814 15.924-3.257 4.795-3.529 4.976-8.052 5.248-3.077.181-4.886-.181-5.338-.905ZM169.197 261.479c-2.805-2.805-2.896-2.805-7.057-1.719-2.986.814-4.434.904-4.615.181-.723-2.081-3.166-3.619-5.881-3.619-3.709-.091-4.161-.362-9.138-6.786-4.523-5.881-4.795-6.424-2.804-7.148.723-.271 2.352-2.533 3.619-5.066 1.447-2.896 2.985-4.705 4.342-4.976 4.796-1.177 21.172-4.072 22.891-4.072 1.9 0 9.228 8.414 14.295 16.467l2.624 4.343-6.695 7.057c-3.71 3.981-7.148 7.328-7.781 7.69-.543.272-2.262-.814-3.8-2.352ZM84.693 189.188c-2.714-1.538-1.99-11.49 1.538-22.347 2.896-8.686 3.529-9.862 8.505-14.838 5.338-5.338 5.429-5.338 8.505-4.253 2.533.905 4.162 2.715 8.324 9.591l5.247 8.504h13.391l3.619 4.615c1.99 2.533 3.619 4.885 3.619 5.338 0 .995-5.338 10.947-6.696 12.395-.723.724-4.614 1.448-10.223 1.719l-9.138.633-2.262-2.624-2.262-2.623-4.343 1.99c-4.795 2.081-15.471 3.257-17.824 1.9Z" fill="#C9E5FF"/><path d="M142.324 295.859c-6.695-7.238-8.234-9.228-8.867-11.762-.452-2.081-.271-2.533 1.81-2.985 2.262-.634 2.262-.724 2.081-7.691-.181-3.89-.091-7.238.181-7.419 6.514-5.338 9.59-6.966 12.757-6.966 2.804 0 3.709.362 4.523 2.262 1.177 2.533 1.267 2.623 6.696 1.176 3.8-.905 4.342-.815 6.061.995l1.991 1.99-2.533 1.81-2.534 1.9.634 10.676.633 10.676-9.138 4.614c-5.067 2.534-9.5 4.615-9.952 4.615-.362 0-2.353-1.719-4.343-3.891ZM175.349 184.484c-1.719-1.538-4.795-2.533-10.947-3.619-7.872-1.448-8.686-1.81-11.038-4.795-2.443-3.077-2.714-3.167-6.605-2.534-2.262.272-4.614.724-5.157.996-.633.18-2.986-2.081-5.338-5.067l-4.252-5.429h-6.062c-3.438-.09-6.605-.362-7.148-.723-1.357-.905-9.409-13.934-9.409-15.2 0-.634 1.266-1.629 2.714-2.172 3.347-1.447 4.071-2.714 4.976-8.595 1.086-7.69 3.348-9.771 6.062-5.7.995 1.538 3.438 2.443 10.314 3.89 4.886 1.086 10.224 2.534 11.852 3.167 2.534 1.086 3.439.995 8.958-1.357l6.061-2.624 5.248 5.61c4.524 4.885 5.519 5.519 7.057 4.704 2.714-1.447 4.252-1.176 8.867 1.81 3.166 1.99 5.338 2.714 8.504 2.714 3.71 0 4.343.272 4.796 2.172.814 3.257-.815 6.514-5.61 11.219-5.338 5.157-8.505 12.666-6.605 15.652.996 1.628.815 2.262-1.266 4.886-1.267 1.719-2.624 3.166-2.986 3.076-.362 0-1.719-.905-2.986-2.081ZM124.05 242.66c-.815-1.448-1.81-2.624-2.172-2.624-.452 0-.724-1.448-.724-3.167 0-2.262-.814-4.071-2.804-6.333-2.443-2.805-2.896-3.981-2.986-8.414l-.091-5.067 4.072-2.533 4.071-2.534 5.338 1.539c5.248 1.447 5.429 1.447 8.686-.453l3.438-1.99 2.533 5.7c2.896 6.514 2.896 6.695 1.086 11.219-5.338 12.938-5.067 12.576-13.752 15.562l-5.157 1.809-1.538-2.714ZM180.417 234.427c-6.695-8.415-6.423-7.329-3.709-13.391l2.352-5.428-3.257-2.986c-4.705-4.253-5.247-6.333-3.438-13.029.814-3.166 1.81-5.7 2.081-5.7.271 0 1.719 1.448 3.167 3.258 2.442 3.076 2.804 3.166 6.423 2.623 4.615-.633 5.972.543 3.529 3.257-1.538 1.629-1.538 1.991-.271 4.253.723 1.357 2.714 2.895 4.342 3.438 4.072 1.267 17.643 16.557 16.105 18.095-.905.905-21.714 10.314-22.709 10.224-.543 0-2.624-2.081-4.615-4.614ZM99.442 315.131c-2.261-1.448-4.433-2.624-4.976-2.715-.723 0-4.252-5.157-5.7-8.233-.09-.362 2.172-3.257 5.157-6.514 5.881-6.514 7.329-10.586 7.329-20.448v-5.247l5.067-3.438c5.7-3.8 8.866-3.8 10.314 0 .452 1.266 1.266 2.262 1.809 2.262.543 0 1.719 1.809 2.715 3.981 1.266 2.985 2.533 4.433 4.795 5.338 3.257 1.357 6.062 4.523 6.062 6.876 0 .814 2.895 4.433 6.333 8.233 5.7 6.152 6.333 7.148 6.333 10.586 0 4.704-1.447 5.066-6.152 1.447-2.895-2.171-3.529-2.352-9.862-1.809-3.709.271-6.967.724-7.238.905-.271.271-.724 1.9-1.086 3.528-.543 2.624-1.266 3.257-5.881 5.067-8.052 3.166-10.314 3.257-15.019.181Z" fill="#C9E5FF"/><path d="M179.602 195.703c-1.991-2.171-1.357-4.614 2.623-9.5 4.072-5.157 4.253-5.609 3.077-7.871-1.719-3.167.633-8.686 6.062-14.114 6.061-5.972 8.052-6.062 12.847-.905l3.619 3.8 2.533-1.719c2.262-1.538 2.534-1.538 3.619-.091 1.086 1.538 3.077 12.938 3.077 18.095 0 2.353-.453 3.167-2.081 3.529-1.086.271-4.162 2.443-6.876 4.705-3.8 3.257-5.339 4.071-6.786 3.528-3.257-1.085-14.205-.362-15.652.995-1.81 1.81-4.253 1.629-6.062-.452ZM17.92 405.787c-.633-1.357-1.357-2.805-1.537-3.167-.181-.362.633-.633 1.81-.633 1.175-.09 2.713-.452 3.437-.905 1.086-.724 1.176-1.176.272-2.714-1.9-2.986-1.358-4.162 2.352-5.881 3.438-1.538 6.062-5.157 5.067-6.876-.362-.452-1.9-.814-3.62-.814-3.438 0-7.328-3.348-8.233-7.057-.814-3.167.181-3.439 3.257-.815 2.081 1.719 3.89 2.443 6.424 2.443 3.257 0 3.71.272 4.976 3.167 1.81 4.343 2.715 14.204 1.448 16.376-.905 1.538-1.086 1.447-1.99-1.267-.634-1.628-1.539-2.895-2.172-2.895-.543 0-2.805 2.986-5.067 6.786-2.171 3.709-4.252 6.785-4.614 6.785-.271 0-1.085-1.176-1.81-2.533ZM136.99 443.063c-5.972-.633-11.581-.995-12.396-.724-.904.272-2.171.091-2.985-.362-1.086-.633-.634-1.447 2.623-4.704l4.072-3.891-1.81-3.528c-1.99-3.981-2.262-3.71 5.7-5.248 2.896-.633 5.429-1.357 5.61-1.719.181-.271 0-2.624-.453-5.067-.814-4.162-.633-4.614 2.353-9.047 1.719-2.534 3.166-4.886 3.166-5.248 0-.362-2.08-.633-4.614-.633h-4.705l.634-7.238c.362-4.614.181-8.595-.543-11.219-.543-2.262-.814-4.433-.452-4.795.452-.362 3.89-.634 7.69-.543 5.971.09 7.148.452 8.505 2.081 1.99 2.443 2.081 4.162.271 5.971-1.447 1.448-1.628 4.252-.543 7.148.453 1.085.091 3.619-.904 6.604-1.991 5.791-1.629 6.696 4.071 10.948 2.262 1.719 4.343 3.709 4.524 4.524.271.814.724 5.066.995 9.59l.633 8.233-3.8 1.539c-3.8 1.447-3.89 1.447-3.257 5.066.634 4.253 1.991 4.072-14.385 2.262ZM64.879 478.529c-.815-1.628-1.177-3.438-.905-3.89.362-.543 5.066-3.8 10.586-7.329 9.77-6.333 9.952-6.423 11.58-4.704.905.995 2.443 1.809 3.348 1.809 3.167 0 2.171 3.438-1.357 5.157-2.443 1.177-3.438 2.353-4.524 5.7l-1.448 4.253-6.514.633c-3.528.362-7.147.814-7.962.995-.904.272-1.9-.633-2.804-2.624Z" fill="#C9E5FF"/><path d="M74.647 519.334c-.271-1.086-.543-4.886-.543-8.324 0-5.971-.18-6.514-4.614-13.209-4.072-6.243-4.433-7.329-3.89-10.314.723-4.072 2.714-4.977 11.218-4.977 6.786 0 6.877-.09 9.048-5.88.814-1.991 2.262-4.072 3.348-4.615 3.98-1.9 4.885-3.347 4.614-6.604-.181-2.805-.633-3.348-2.714-3.529-2.443-.362-3.71-1.719-7.781-8.505l-1.99-3.257 7.78-4.252 7.781-4.343 4.886 4.886c5.338 5.247 5.7 5.971 3.347 6.876-4.433 1.538-4.795 2.624-4.162 12.938.634 10.857.724 10.405-6.152 19.452l-3.438 4.614-.271 14.386-.272 14.476-4.524.995c-2.442.634-5.971 1.086-7.78 1.177-2.715.09-3.439-.272-3.891-1.991Z" fill="#C9E5FF"/><path d="M60.897 471.201c-.362-.905.181-2.352 1.448-3.619 1.81-1.9 1.99-2.805 1.447-7.238l-.633-4.976h6.695c8.143 0 12.124.724 12.757 2.262.362.995-3.347 3.619-19.09 13.843-1.81 1.085-2.081 1.085-2.624-.272ZM41.173 447.858c-.904-3.076-2.352-6.514-3.438-7.6l-1.81-1.99 4.525-2.262 4.523-2.352 4.886 2.714c2.624 1.448 7.51 4.071 10.857 5.881l6.062 3.167-1.81 3.076c-1.809 2.985-1.809 3.076-7.057 2.533-3.619-.271-6.695 0-9.68.995-2.353.815-4.524 1.538-4.886 1.538-.362 0-1.267-2.533-2.172-5.7ZM104.596 446.049c-4.434-4.071-5.52-5.79-7.058-10.586-.995-3.166-3.166-8.776-4.885-12.485-1.72-3.71-3.438-8.414-3.71-10.495-.633-3.891-5.88-14.205-8.685-17.01-.905-.995-2.896-1.628-4.705-1.628-2.534 0-3.167-.362-3.438-2.081-.181-1.629-.724-1.991-3.076-1.719-1.629.09-3.258-.362-3.8-1.086-.905-.995-.272-1.357 3.619-1.9 2.623-.362 5.519-1.267 6.333-1.991 1.357-1.266 1.719-.995 3.89 2.443 1.358 2.081 2.896 5.067 3.529 6.696 2.08 5.609 2.805 6.242 7.962 6.604 4.885.453 4.976.362 6.152-2.443 1.176-2.804 1.267-2.895 5.429-2.262l4.343.543 3.347-5.428c1.81-3.076 3.076-5.972 2.714-6.424-.271-.543-2.171-.905-4.161-.905-2.986 0-3.619-.271-3.348-1.628.271-1.267 1.448-1.629 7.057-1.81 5.248-.271 7.238-.724 8.686-2.081 2.081-1.99 3.076-1.538 3.076 1.357 0 2.896 1.719 4.253 3.89 3.077 3.077-1.629 3.8.452 3.8 11.309v10.133l3.438.272c1.81.181 3.348.633 3.348 1.085 0 .453-.995 2.262-2.262 4.072-1.448 2.262-1.99 4.071-1.719 5.7 1.176 5.971 1.267 5.971-5.067 7.147-3.166.724-6.242 1.629-6.695 2.081-.543.453-.181 2.262.815 4.524l1.719 3.71-4.343 4.162c-4.343 4.252-4.343 4.252-2.443 5.79 2.533 2.081 2.443 2.714-.995 5.067-5.61 3.709-6.967 3.438-12.757-1.81ZM32.218 435.373c-2.081-1.629-12.848-18.729-12.215-19.362.181-.181 2.353-1.266 4.796-2.262l4.433-1.9 2.805 3.348 2.895 3.348 2.986-1.539c4.071-1.99 4.795-1.9 6.514 1.086 1.447 2.353 1.447 2.533 0 3.438-1.448.905-1.448 1.267 0 5.067l1.447 4.162-2.714 1.085c-1.447.634-4.071 2.081-5.7 3.258-2.986 1.99-3.076 1.99-5.247.271Z" fill="#C9E5FF"/><path d="M32.94 412.392c-1.357-1.719-2.895-3.167-3.529-3.167-.543 0-3.347 1.176-6.152 2.534-2.895 1.357-5.519 2.261-5.88 1.9-.363-.362-2.172-1.086-3.982-1.629-3.89-1.267-4.433-3.076-4.433-15.652 0-6.424-.453-9.229-2.805-15.834C2.54 370.23 1.002 364.711.28 359.283c-.544-3.891-.363-4.343 1.175-4.343.905 0 2.443 1.176 3.258 2.714 2.08 3.438 3.438 3.348 8.414-.181 3.71-2.714 4.252-2.805 9.771-2.262 6.876.634 7.6.091 7.962-6.243.271-4.885 0-4.704 7.69-3.528 2.624.452 2.896.724 2.443 2.986-.723 3.438 1.629 5.79 4.524 4.704 1.72-.633 2.533-.362 3.89 1.177 4.162 4.795 4.162 4.795 2.534 9.68l-1.538 4.524 3.347 4.976c2.624 3.891 3.258 5.7 2.986 8.324-.271 3.348-.362 3.438-4.071 3.438-3.438 0-4.072.362-6.153 3.348-2.623 3.89-2.714 4.885-.814 9.771 1.448 3.438 1.357 3.619-.452 5.157-.996.905-2.443 3.257-3.076 5.248-.815 2.262-2.262 4.162-4.072 5.247l-2.714 1.629-2.443-3.257Zm-7.69-7.51 3.89-6.061 1.267 2.895c1.628 3.981 3.347 3.709 5.157-.905 1.176-3.257 1.266-5.067.633-10.676-1.448-11.129-3.167-13.481-9.862-13.481-1.266 0-3.438-1.086-4.886-2.443-2.17-2.081-2.804-2.262-4.795-1.357-3.076 1.448-2.895 5.067.543 9.681 1.9 2.443 3.62 3.709 5.52 4.071 4.342.634 3.98 2.262-1.177 4.343-4.705 1.991-4.886 2.353-3.167 6.605.543 1.086 0 1.538-2.08 1.99-1.72.362-2.805 1.086-2.805 1.991 0 2.533 4.614 9.5 6.333 9.5.995 0 3.076-2.262 5.428-6.153ZM52.393 465.41c-5.971-1.538-6.876-2.443-8.504-7.871-.453-1.719 0-2.081 4.162-3.076 2.623-.543 6.604-.905 8.866-.815l4.072.362.271 5.248c.272 4.795-.724 8.052-2.443 7.781-.271-.091-3.166-.814-6.424-1.629Z" fill="#C9E5FF"/><path d="M68.047 452.744c-2.533-.271-2.533-.724-.271-4.162 2.443-3.8 2.352-4.433-1.538-6.243-1.9-.905-6.696-3.438-10.767-5.7-6.786-3.89-7.329-4.433-8.143-8.143-.814-3.438-.724-3.89.633-3.89 2.896 0 2.715-1.719-.452-6.514-1.81-2.624-3.257-5.519-3.257-6.424 0-2.262 1.628-5.338 3.8-7.057 1.81-1.448 1.81-1.538.271-6.514-1.538-4.796-1.538-5.158-.09-7.419 1.086-1.629 2.171-2.262 3.98-2.172 1.358.091 3.439-.271 4.615-.905 1.9-1.085 2.443-.904 5.881 2.534 2.714 2.624 4.343 3.528 5.428 3.166 1.086-.452 1.72-.09 2.082 1.267.361 1.629 1.176 1.99 4.252 1.99 3.528 0 3.89.181 7.238 5.52 2.352 3.528 3.98 7.509 4.705 11.038.543 3.076 2.533 8.504 4.252 12.033 4.162 8.414 5.519 13.119 3.98 14.476-.542.543-3.89 2.533-7.418 4.433-8.143 4.343-8.776 4.886-8.233 7.148.452 1.719.09 1.9-4.253 1.9-2.624 0-5.61-.181-6.695-.362ZM89.939 398.549c-3.348-.452-4.976-1.719-4.976-3.981 0-2.352-6.153-13.39-7.781-14.023-.724-.272-2.172.542-3.167 1.899-1.81 2.262-2.352 2.353-7.871 2.172l-6.062-.272-.453-3.619c-.271-1.99-1.9-5.609-3.528-8.052l-2.986-4.433 1.538-4.705 1.629-4.795-3.348-4.162c-3.528-4.252-3.98-4.524-7.6-4.252-1.628.181-2.08-.181-1.81-1.448.272-1.357 1.177-1.629 4.525-1.629 2.352 0 4.795-.542 5.428-1.266 1.267-1.267.09-2.534-6.062-7.057-2.624-1.9-2.624-1.991-.995-3.8 1.267-1.448 2.805-1.9 5.7-1.9 3.529 0 4.524.543 9.5 5.066l5.519 5.157 2.805-3.166c1.538-1.719 4.252-5.157 5.971-7.51 2.352-3.257 4.072-4.704 6.786-5.428 5.79-1.719 7.51-2.986 8.595-6.605 1.719-5.157 2.262-5.338 7.419-2.081 3.981 2.443 5.248 2.805 7.962 2.352 6.786-1.357 6.605-1.447 8.052 4.796 1.538 6.333 1.629 6.152-4.886 10.676-1.809 1.266-1.809 1.267.272 5.157s2.081 3.981.543 7.238c-1.538 3.167-1.81 3.348-5.972 3.348-4.523 0-9.771 1.99-9.771 3.619 0 .542.633 2.262 1.448 3.709 1.176 2.353 1.266 3.529.452 6.786-1.357 5.157.18 10.585 3.529 13.028 1.9 1.357 2.352 2.262 1.99 4.434-.362 2.714-.271 2.804 3.438 2.804h3.71l-2.081 3.71c-2.081 3.709-2.081 3.709-6.334 3.167-4.071-.453-4.433-.362-5.7 2.171-1.628 3.076-1.99 3.257-5.428 2.895Z" fill="#C9E5FF"/><path d="M152.459 380.816c-1.357-3.167-2.985-3.8-11.852-4.434-2.986-.271-11.671 1.267-12.848 2.262-1.176.996-1.447.543-2.442-4.071-.724-3.257-1.81-3.076-5.158.724-2.714 2.985-3.076 3.166-8.957 3.166-8.233 0-10.404-.995-11.761-5.066-.815-2.534-.815-4.162 0-7.148.904-3.257.814-4.343-.453-6.785-2.08-4.072-.995-4.796 7.51-4.977 3.709 0 3.98-.271 6.333-4.433l2.352-4.343-1.9-3.438-1.99-3.438 3.709-3.076 3.8-3.167-1.176-5.338c-.633-2.986-1.357-6.152-1.538-7.147-.362-1.358.362-2.262 2.895-3.619 3.257-1.81 4.253-2.896 5.248-6.153.362-1.266 1.538-1.538 5.881-1.538 2.985 0 5.7.453 6.062.995.271.453 1.809 1.719 3.347 2.624 1.448.905 3.8 3.619 5.067 5.972 2.262 4.161 2.624 4.433 8.957 6.242 3.619.996 6.967 2.443 7.509 3.167.996 1.719 1.086 7.781 0 11.4-1.085 3.709.091 5.429 4.072 6.152 2.352.453 3.709 1.448 5.066 3.8 1.086 1.81 3.167 3.8 4.615 4.434 1.9.723 3.076 2.171 3.89 4.523.634 1.9.995 3.8.724 4.162-.181.362-3.8 2.534-7.962 4.795-8.686 4.705-9.319 5.339-9.771 9.41-.181 2.352-.995 3.348-4.072 5.157l-3.8 2.262-1.357-3.076ZM320.197 185.751c-1.267-.453-3.438-.815-4.795-.815-1.629-.09-3.348-.995-4.433-2.443-1.629-1.99-2.262-2.261-5.338-1.719l-3.529.543v-3.528c0-2.805-.362-3.71-1.719-4.072-.995-.271-2.624-2.171-3.619-4.162-1.9-3.709-3.71-4.523-6.333-2.895-.634.362-2.262.453-3.619.091-1.9-.453-2.443-1.267-2.805-4.162-.362-2.895-.814-3.529-2.262-3.348-.995.181-3.619.543-5.881.814-3.89.543-4.252.362-6.514-2.623-1.538-1.991-4.886-4.253-9.229-6.334-5.247-2.533-6.966-3.8-7.419-5.609-.362-1.357-1.357-2.533-2.714-2.805-2.533-.633-13.933-12.486-13.933-14.476 0-.724.995-3.8 2.262-6.695 1.266-2.986 2.261-5.972 2.261-6.786 0-.724 1.629-2.171 3.529-3.167 3.167-1.538 3.71-2.352 4.524-6.423.543-2.624 1.99-5.881 3.257-7.329 2.081-2.533 2.171-2.714.905-6.876-2.262-7.419-1.81-9.771 3.076-16.286 1.9-2.442 2.805-2.895 6.062-2.895 2.985 0 3.89.362 4.252 1.72.362 1.628 5.519 5.518 7.148 5.518.995 0 7.057-5.519 8.052-7.328.543-1.086.452-2.986-.271-5.61-1.267-4.795-.181-11.31 2.171-12.757 2.443-1.538 3.348.09 4.252 8.324l.815 7.51 5.79 6.061c7.6 7.962 9.048 8.143 11.491 1.357 4.523-12.576 6.152-13.752 19.542-13.752 11.672.09 11.943.181 15.019 7.6 3.71 8.595 4.614 9.41 8.053 7.419l2.623-1.629 6.424 12.215 6.424 12.214 5.609-.543c4.072-.362 6.062-.09 7.329.814 1.538 1.177 1.448 1.538-1.9 8.415l-3.619 7.238 1.99 6.514c1.719 5.428 1.81 6.786.905 8.143-1.086 1.357-1.628 1.447-5.338.452-2.262-.633-5.79-1.086-7.871-1.086-3.076 0-4.253-.633-8.053-4.342-2.442-2.353-7.057-5.7-10.314-7.419-5.519-2.896-6.062-2.986-9.5-1.991-2.081.633-3.709 1.719-3.709 2.352 0 .634 1.266 3.891 2.714 7.058 2.352 5.066 2.624 6.242 1.809 8.504-.633 1.448-.814 4.434-.542 6.786.633 4.614.814 4.433-4.977 5.609-1.9.453-2.623 1.539-4.433 7.419l-2.171 6.877 2.714 2.171c3.619 2.986 5.067 2.805 8.414-1.357 2.443-3.076 3.438-3.619 6.334-3.619 2.714 0 3.8.452 4.885 2.081 1.357 2.081 1.176 2.352-6.243 9.771-6.604 6.424-7.6 7.962-7.238 9.953.996 5.066-3.619 7.418-10.314 5.338Z" fill="#C9E5FF"/><path d="M463.422 125.222c-16.557-7.328-22.438-10.404-34.11-18.185-10.676-6.967-14.657-9.138-16.195-8.777-1.809.453-27.414.543-41.619.181-3.347-.09-6.423-.542-6.876-.995-.452-.452-3.347-5.7-6.424-11.58-4.614-8.596-5.428-10.858-4.433-11.582.724-.452 2.624-1.628 4.343-2.714l2.986-1.9-.543-6.243-.634-6.152 3.891-1.719c5.338-2.262 13.39-11.128 13.39-14.657 0-1.357.362-2.805.815-3.076 1.447-.905 5.7 3.347 7.419 7.419 2.171 5.157 2.171 8.595 0 10.585-1.719 1.538-1.991 1.538-6.424 0-4.434-1.628-4.524-1.628-8.595.362-2.262 1.086-4.343 2.624-4.705 3.438-.543 1.538 1.267 15.653 2.262 17.281.724 1.086 9.862 4.796 11.943 4.796.814 0 3.619-2.262 6.333-4.977l4.886-4.976h25.604c14.205 0 25.695.362 25.967.814.362.453-1.719 2.081-4.434 3.62-2.804 1.537-5.247 3.438-5.609 4.252-.543 1.447 5.338 8.143 8.324 9.319 1.176.452 3.619.09 6.695-.995 6.152-2.081 7.962-2.081 13.662.18 3.709 1.448 5.7 1.63 11.4 1.177l6.876-.543-.633 4.162c-.634 3.98-.543 4.252 1.899 5.247 4.343 1.81 8.777 1.267 13.029-1.538l3.89-2.623-.542-6.062c-.453-4.796-.181-6.424.904-7.51 1.448-1.538 1.267-1.538 15.381 6.514 2.172 1.267 4.976 3.981 6.695 6.696l2.896 4.523-1.9 2.624c-2.443 3.257-2.443 2.895.452 9.681 1.267 3.167 2.081 5.971 1.719 6.333-.362.362-1.9.091-3.529-.543-2.804-1.085-2.985-.995-6.242 2.624-2.353 2.624-4.524 3.981-7.148 4.615-2.081.452-5.428 2.261-7.509 3.89-2.262 1.9-5.791 3.619-9.229 4.524-3.076.814-5.7 1.357-5.881 1.357-.181 0-9.409-4.071-20.447-8.867ZM476.628 43.703c-3.89-2.985-7.147-6.333-7.419-7.419-.271-1.176-1.357-6.604-2.352-12.123-1.719-8.776-1.719-10.496-.724-13.572.995-2.895 1.9-3.8 4.705-4.704 2.081-.724 6.695-4.253 12.033-9.32 7.6-7.147 8.957-8.052 11.129-7.6 2.171.453 2.895-.09 6.695-4.976 2.262-2.985 6.062-6.695 8.414-8.323 2.353-1.629 8.143-5.79 12.848-9.32 4.705-3.618 9.681-7.147 10.947-8.052 2.805-1.81 21.081-4.704 38.272-6.061 7.147-.543 15.471-1.81 19.18-2.805 3.619-1.086 7.148-1.629 7.962-1.357 2.534.995 1.629 5.7-1.719 9.047-3.438 3.438-3.438 3.438-23.614 5.61-14.657 1.538-18.819 3.076-30.943 11.128-2.804 1.81-7.6 4.343-10.495 5.52-2.895 1.266-8.052 4.432-11.309 7.056-3.257 2.715-9.229 7.329-13.21 10.315-7.6 5.61-17.1 15.742-20.99 22.347-2.262 3.8-2.262 4.252-1.81 14.929.272 6.061.634 11.761.815 12.757.543 3.076-1.448 2.352-8.415-3.077ZM17.378 77.451c-1.448-1.9-5.429-7.51-8.867-12.395C1.816 55.375 1.816 54.56 8.24 54.56c2.804 0 3.618.452 5.157 2.985.995 1.629 2.714 3.71 3.71 4.705 1.809 1.629 1.9 1.629 4.523-.271 1.629-1.267 2.805-1.629 3.167-1.086.995 1.538 4.976 14.748 4.976 16.467 0 1.9-.453 2.171-5.52 2.985-3.98.543-4.252.453-6.875-2.895ZM183.763 127.665c-.633-.633-1.086-1.447-1.086-1.809 0-.452-1.719-4.433-3.8-8.867l-3.709-8.142h-3.529c-3.166 0-3.528-.272-2.986-1.81.362-1.176-.18-3.076-1.357-4.976-1.99-3.257-3.438-3.71-8.142-2.353-3.529.996-9.772-.542-12.305-3.076-2.172-2.171-2.353-2.262-4.886-.904-1.447.723-2.805 1.357-3.076 1.357-.181 0-.633-2.353-.905-5.248-.362-2.805-1.447-7.962-2.533-11.31-2.352-7.056-2.172-7.328 4.343-8.323 2.895-.453 4.976-.09 8.414 1.357 4.795 2.08 5.609 3.348 6.967 11.038.542 3.167.723 3.348 5.247 3.89 2.533.272 6.062.453 7.781.272 2.805-.271 3.348-.814 5.519-5.248 1.357-2.804 2.262-5.338 1.991-5.7-.181-.362-2.896-2.08-6.153-3.8-4.252-2.443-5.971-3.98-6.695-6.062-1.448-4.252-1.267-5.066 2.081-8.504 2.714-2.896 3.529-3.167 7.057-2.896 3.8.272 3.981.453 6.514 5.43 1.448 2.894 5.067 10.766 8.143 17.642l5.519 12.486 5.248.723c4.885.724 5.428.634 7.6-1.357l2.262-2.08 2.171 2.714c1.176 1.447 3.438 4.342 4.886 6.423l2.714 3.8-3.257 1.086c-1.81.633-6.243 3.709-9.862 6.876-5.248 4.614-6.695 6.424-6.967 8.686-.181 2.352-1.176 3.347-5.7 6.243-6.242 3.89-6.061 3.8-7.509 2.442Z" fill="#C9E5FF"/><path d="M237.053 107.58c-2.624-2.805-3.619-3.167-9.5-3.71l-6.605-.633-6.242-8.505c-3.439-4.614-6.786-8.505-7.329-8.505-.633 0-2.081.996-3.167 2.262-1.9 2.172-4.614 2.715-8.504 1.72-1.538-.453-3.619-4.163-8.867-16.105-3.8-8.505-6.876-16.015-6.876-16.648 0-.814 1.809-1.086 6.152-1.086 7.419 0 30.943-4.162 32.391-5.7.633-.633 1.719-5.338 2.533-10.585.814-5.248 1.809-9.772 2.171-10.224.453-.362 2.534-1.176 4.796-1.81 3.799-1.085 4.252-1.628 8.957-10.042 4.523-8.053 5.428-9.138 10.404-12.034 6.967-4.071 8.867-5.88 13.3-12.304 1.9-2.805 3.891-5.157 4.343-5.157.543 0 2.986 1.447 5.519 3.257 4.252 3.076 4.524 3.528 3.981 6.152-1.357 5.7-.09 8.686 3.71 8.686 2.442 0 2.533.452 4.071 11.219l1.086 8.143-2.534 1.809c-5.338 3.8-9.319 7.871-14.476 14.657l-5.338 6.876 1.719 8.233c.905 4.524 1.81 8.958 2.081 9.862.362 1.358-.181 1.629-3.709 1.629-3.8 0-4.253.271-7.781 4.795-3.529 4.524-3.71 5.157-3.619 10.676.09 3.167.362 6.786.723 8.053.543 1.628.181 2.895-1.266 4.614-1.176 1.357-2.353 4.343-2.624 6.605-.543 3.347-1.176 4.433-3.257 5.519-1.448.723-2.805 1.357-2.895 1.357-.181 0-1.719-1.448-3.348-3.076ZM405.7 223.026c-9.228-3.709-13.481-4.071-24.157-2.08-6.514 1.176-7.419 1.176-13.119-.453-5.881-1.628-6.243-1.9-8.504-6.243l-2.262-4.523-6.786-.634c-9.409-.814-9.862-.633-9.862 4.795 0 6.424-1.9 6.967-13.752 3.981-9.681-2.352-10.495-2.262-14.205 1.719-1.267 1.267-2.714 2.353-3.257 2.353-1.086 0-4.071-8.957-4.071-12.214 0-.905 1.357-3.167 3.076-4.977 2.352-2.623 3.438-5.157 4.705-10.404l1.628-6.967 3.257.543c9.953 1.9 10.495 1.809 12.938-1.448 1.538-1.99 2.172-3.8 1.9-5.247-.362-1.9.815-3.619 7.329-9.953 4.252-4.252 7.69-8.052 7.69-8.414 0-.452-1.085-2.171-2.443-3.89-2.262-2.715-2.985-3.076-6.785-3.076-3.8 0-4.434.271-7.238 3.709-2.805 3.348-3.348 3.619-5.067 2.714-2.352-1.266-2.352-1.809-.271-7.781 1.447-4.252 1.9-4.614 5.609-5.519l3.981-.995-.271-5.428c-.181-2.896.181-6.515.723-7.962.815-2.172.543-3.438-1.809-8.415-2.172-4.614-2.533-6.152-1.629-6.695 2.081-1.266 4.162-.814 9.048 2.081 7.509 4.434 9.862 6.243 10.766 8.595.634 1.81 1.358 2.172 4.796 2.172 2.171 0 6.604.814 9.771 1.809 3.167.905 5.791 1.719 5.881 1.81.09 0 1.176-1.448 2.443-3.257l2.171-3.257-2.171-6.334-2.081-6.333 2.352-4.705c1.267-2.533 3.257-6.062 4.434-7.871l2.08-3.348 16.648.181 16.648.091 13.933 9.138c9.862 6.424 17.552 10.676 26.147 14.295 6.696 2.895 13.843 5.971 15.834 6.786 13.119 5.881 11.58 5.609 18.547 3.709 4.252-1.086 7.419-2.624 9.952-4.795 2.353-1.991 4.977-3.348 7.238-3.619 2.534-.362 4.253-1.357 6.424-3.71 4.162-4.795 8.595-4.071 4.886.815-1.9 2.623-1.629 4.795.995 7.057l2.262 1.99-2.533 3.619c-1.357 2.081-4.343 5.429-6.605 7.419-3.8 3.438-4.886 3.891-12.667 5.248-8.504 1.447-12.938 3.438-16.828 7.781-.814.905-4.343 2.533-7.691 3.528-3.438.996-8.685 3.529-11.671 5.61-4.976 3.438-5.609 3.709-6.424 2.262-1.447-2.534-2.804-1.9-8.866 4.162-4.886 4.976-5.7 6.333-6.062 9.68-.181 2.172-.453 3.981-.543 3.981-.181.091-2.714 2.081-5.79 4.434-5.339 4.071-5.7 4.614-9.772 14.838-6.514 16.014-8.866 20.538-10.947 20.719-.996.09-5.429-1.267-9.953-3.077Z" fill="#C9E5FF"/><path d="M317.759 46.96c-5.699-2.352-7.509-3.98-12.576-11.037-5.157-7.238-9.047-18.005-10.947-30.49-1.448-9.048-1.81-10.224-3.529-10.405-1.357-.181-2.985.995-5.7 4.252-2.714 3.167-4.524 4.614-6.062 4.614-2.895 0-3.438-1.628-1.719-5.7 1.267-3.166 1.267-3.257-1.176-5.338-1.357-1.176-4.071-3.166-5.881-4.342-3.619-2.443-3.89-3.257-2.262-6.786 1.086-2.443 1.357-2.624 9.319-4.162 7.238-1.357 9.138-2.714 9.862-6.876 2.262-13.029 3.348-16.376 5.791-17.462 8.866-4.071 11.852-4.614 22.709-3.619 16.105 1.448 16.376 1.538 16.376 4.071 0 1.9-.452 2.262-2.714 2.262-1.538 0-2.986.543-3.257 1.267-.905 2.262 2.262 11.4 6.966 20.447 4.253 8.053 4.615 9.229 5.881 19.905.724 6.153 2.172 13.662 3.167 16.648 2.081 6.424 2.081 10.766.09 22.71l-1.538 9.047-5.428 1.447c-7.238 2.081-11.762 1.9-17.372-.452ZM181.32 142.684c-2.715-1.719-4.434-2.171-6.786-1.809-2.895.452-3.619 0-8.324-4.705l-5.247-5.157-3.8 1.538a269.27 269.27 0 0 0-6.696 2.624c-2.352.904-3.347.904-5.881-.362-1.719-.724-6.152-1.9-9.861-2.534-5.429-.904-7.419-1.628-9.681-3.8l-2.896-2.804 5.972-6.696 5.971-6.604-1.085-3.529c-.543-1.809-.996-4.433-.996-5.7 0-1.99.453-2.352 3.438-2.714 1.81-.181 4.615-.905 6.153-1.629 2.533-.995 3.076-.995 4.795.724 2.443 2.172 8.686 3.348 13.843 2.443 4.343-.724 6.062.995 6.152 6.152 0 3.348.091 3.439 3.619 3.439h3.619l3.71 7.871c4.704 10.224 4.976 11.49 3.076 14.476-1.538 2.262-1.538 2.443.181 3.8 1.085.814 2.533 1.809 3.438 2.352.905.543 1.447 1.719 1.266 2.896l-.361 1.9-3.619-2.172Z" fill="#C9E5FF"/><path d="M102.337 141.598c-3.98-7.78-10.948-26.418-10.405-27.957.815-2.352 12.034-21.261 13.662-23.161.724-.815 2.624-1.538 4.162-1.538 3.8 0 6.062-1.72 9.5-7.148 2.805-4.343 6.152-6.424 10.043-6.424 2.171 0 5.247 8.233 5.971 16.014l.633 6.605h-2.261c-3.348 0-4.615 2.081-4.072 6.514.272 2.172.724 4.705 1.086 5.7.362 1.267-.633 2.986-3.619 6.334-11.038 11.942-12.033 13.39-13.029 18.909-.542 2.986-.995 5.519-.995 5.7 0 .724-5.971 3.891-7.328 3.891-.815 0-2.353-1.539-3.348-3.439ZM157.977 85.504c-.634-.996-1.629-7.42-1.267-7.42.271 0 1.9.634 3.8 1.358 4.252 1.81 6.243 1.176 5.7-1.81-.272-1.267-.091-2.262.362-2.262.633 0 3.981 1.81 6.062 3.348.181.09-.362 1.9-1.267 3.89l-1.629 3.62h-5.7c-3.076 0-5.88-.363-6.061-.724ZM270.527 198.96c-5.609-1.81-6.152-2.262-10.676-8.686-3.89-5.519-5.7-7.238-9.952-9.409-4.976-2.533-5.519-2.624-13.843-1.991-6.062.453-9.409 1.086-11.581 2.353-1.719.995-3.347 1.628-3.528 1.447-.272-.271-.995-4.342-1.629-9.228-.995-6.695-1.719-9.229-3.257-10.948-2.262-2.352-3.619-2.624-6.333-.995-1.629.995-2.172.814-4.615-2.352-1.538-1.9-3.799-3.8-4.976-4.253-1.628-.633-2.081-1.447-2.081-3.8 0-3.981-1.357-5.157-6.061-5.157-3.8 0-3.891-.09-3.891-2.986 0-2.171-.724-3.528-2.895-5.338-2.895-2.352-2.986-2.442-1.176-4.342.904-1.086 4.162-3.438 7.238-5.158 7.509-4.523 8.595-5.609 8.595-8.504 0-1.9 1.267-3.619 5.7-7.51 3.167-2.714 6.786-5.428 7.962-5.881 1.447-.542 5.7-.542 10.766-.181 8.234.724 8.596.815 11.491 3.981l2.985 3.257-2.714 7.329c-1.447 4.071-2.714 7.871-2.714 8.414 0 1.538 13.752 16.014 15.2 16.014.633 0 1.538.996 1.99 2.172.543 1.538 3.076 3.347 7.872 5.79 4.614 2.353 8.052 4.796 9.952 7.148l2.895 3.619 4.615-.905c5.157-.995 6.333-.362 6.333 3.619 0 2.443 3.076 3.438 8.052 2.624 3.257-.543 3.619-.362 4.614 2.262.634 1.447 2.172 3.347 3.348 4.162 2.081 1.357 2.624 4.071 1.538 6.966-.271.724-2.986 2.443-5.881 3.8-5.519 2.443-6.514 4.253-3.8 6.243 1.267.905 1.448 1.629.634 3.71-.815 2.352-1.177 2.533-4.705 2.352-2.353-.181-4.524.181-5.791 1.086-2.442 1.719-2.442 1.719-9.681-.724ZM677.669 551.453c-2.443-.271-3.529-1.176-5.61-4.524-1.538-2.262-2.895-4.885-3.166-5.7-.724-2.261-2.624-2.714-5.429-1.266-2.533 1.357-10.043 1.628-14.024.543-2.352-.634-14.747-17.1-13.933-18.457.272-.362 1.448-.634 2.624-.634 1.809 0 2.443-.724 3.347-3.709.905-3.167.905-3.891-.271-4.524-4.976-2.895-4.886-2.986 3.076-5.61 7.419-2.442 7.781-2.714 11.4-7.871 3.981-5.7 4.614-5.971 10.224-4.614 3.981.905 4.705.271 5.7-4.886 1.176-6.786 1.267-6.876 9.409-5.067 3.891.905 7.51 1.9 8.053 2.262 1.447.815.271 3.348-2.715 5.972-2.533 2.081-2.623 2.533-2.352 8.504l.271 6.334 3.981 1.176c3.439.905 4.343.905 5.972-.181 1.9-1.176 2.081-.995 4.795 4.795 1.538 3.348 3.71 7.6 4.795 9.41l2.081 3.438-2.533 2.624-2.624 2.714 2.805 3.166c2.714 3.077 2.986 5.429.814 6.153-.633.271-4.524 1.176-8.686 2.171-6.695 1.538-7.871 2.081-10.314 5.067-1.538 1.9-3.166 3.348-3.709 3.257-.543-.09-2.353-.271-3.981-.543Z" fill="#C9E5FF"/><path d="m602.394 441.887-9.319 3.891c-6.695 2.714-12.214 4.342-19.452 5.428l-11.4 2.624c2.714 4.343 4.704 10.314 13.119 33.928 3.619 10.134 6.785 18.276 7.057 18.276.362 0 2.171-2.08 4.071-4.614 4.976-6.695 6.786-5.609 10.043 5.791l1.448 5.157 4.614.09c2.624.091 9.319.091 14.838-.09l10.043-.181 2.895 4.071c2.443 3.348 3.347 3.981 5.157 3.619 1.267-.271 2.624-1.266 3.257-2.262 1.086-2.081.724-2.352-4.705-5.428-2.442-1.357-2.714-1.9-1.809-2.986.633-.814 1.447-1.357 1.99-1.357.543 0 4.343-1.086 8.596-2.352 7.328-2.262 7.509-2.353 11.671-8.143l4.162-5.881 4.885.452c4.705.634 4.796.724 5.338-1.809a87.936 87.936 0 0 1 1.901-6.334c.995-2.714 1.176-5.609.723-11.309l-.633-7.6-8.686-10.133c-4.795-5.61-9.138-10.224-9.681-10.224-.542 0-1.538.633-2.171 1.357-1.99 2.443-4.071 3.076-12.667 4.072l-8.414.904-4.524 4.976c-2.533 2.805-5.066 4.977-5.609 4.886-.543-.181-4.705-4.433-8.867-9.5l-7.871-9.319ZM829.665 119.703c2.714.724 5.157 2.443 8.053 5.428l4.161 4.343 2.805 14.929c1.629 8.143 2.895 15.381 2.895 16.014 0 .543-1.447 2.805-3.166 4.886-3.8 4.704-3.891 5.971-.543 8.414 2.171 1.628 2.624 2.714 3.167 7.6.452 4.705 1.266 6.786 4.614 11.852 2.262 3.348 4.071 6.695 4.071 7.51 0 .814-.814 3.076-1.9 5.157-1.628 3.166-1.809 4.795-1.357 9.59.271 3.257.724 6.062 1.086 6.424.633.633 2.352.724 14.657.814l8.776.181-5.338 3.529c-2.986 1.99-5.7 4.162-6.062 4.795-.362.633-.814 5.79-.905 11.49l-.181 10.224 2.986 2.533c2.805 2.262 2.986 2.715 2.443 6.424-2.443 16.376-2.172 15.291-6.152 19.453-3.439 3.528-3.981 4.523-4.524 9.59-.362 3.167-.996 6.514-1.267 7.6-.724 2.443 3.981 8.052 8.324 9.862 3.709 1.538 3.89 3.89.724 9.862-1.267 2.352-2.262 4.614-2.262 4.976 0 .452 1.9 1.9 4.162 3.257 2.895 1.719 3.981 2.805 3.709 3.89-.271.815-.995 2.896-1.628 4.705-.543 1.719-1.177 3.619-1.358 4.253-.361 1.357-2.623 1.357-5.7.18-1.176-.542-4.523-2.352-7.419-4.071-4.342-2.624-5.79-3.076-8.323-2.624-2.534.453-5.519 1.086-6.153 1.9-.633.815-.633 1.629 0 2.895 3.077 5.61 3.077 5.7-4.071 16.467-5.971 9.138-6.695 10.767-6.695 14.657 0 5.881-1.538 5.61-6.786-1.086-2.262-2.985-4.524-5.428-4.976-5.428-.362 0-1.9 1.447-3.348 3.257-2.533 3.076-3.076 3.348-8.957 3.89l-6.243.543-3.347 6.334c-1.9 3.438-3.348 6.966-3.438 7.69 0 .724 1.266 4.614 2.714 8.505 3.076 7.962 3.438 6.966-3.89 15.381l-4.434 4.976 1.357 4.071c1.267 3.71 1.267 4.976 0 12.667l-1.447 8.505-4.795 3.347c-2.715 1.9-4.886 3.981-4.886 4.705 0 .724 2.352 3.89 5.247 7.057 2.805 3.257 5.158 6.152 5.158 6.424 0 .362-4.434 1.9-9.953 3.528l-9.952 2.895-.814 3.8c-.543 2.443-1.629 4.343-2.986 5.248-1.176.724-3.71 4.072-5.61 7.419-5.971 10.133-9.228 12.486-20.9 14.929-.723.181-4.523-.181-8.323-.724-5.791-.814-7.51-1.448-9.5-3.529l-2.534-2.533 5.158-4.705c3.619-3.257 5.428-5.79 6.061-8.143.453-1.809 2.353-5.066 4.072-7.147 1.809-2.081 3.257-4.343 3.257-5.067 0-.633-2.805-6.786-6.243-13.571-3.347-6.876-6.514-14.114-6.786-16.195-1.176-6.515-1.809-6.877-9.409-5.338-9.681 2.081-11.129 1.9-13.481-1.539-3.167-4.704-3.257-5.519-.271-8.323 2.262-2.172 2.714-3.348 2.714-6.605 0-3.257-.724-5.067-3.981-9.681l-3.981-5.7 1.629-2.533c1.085-1.629 1.538-3.438 1.176-5.248-.362-2.352.271-3.709 3.257-7.509 2.986-3.71 3.709-5.338 3.709-8.324 0-3.438-.18-3.71-3.347-4.524-12.124-3.166-11.129-2.624-11.129-6.243 0-4.162.362-4.614 5.7-8.233 4.705-3.257 4.886-3.89 2.805-9.138-1.357-3.438-1.628-3.619-5.338-3.619s-4.162-.362-8.595-5.881c-5.248-6.424-5.248-6.424-17.914-7.328-10.224-.724-12.034-1.9-9.319-6.062 1.719-2.715 1.719-2.805-.272-8.143-1.357-3.891-1.628-5.519-.814-5.791 1.628-.633 15.109-10.404 15.833-11.49 1.176-1.719.814-2.171-5.066-5.61-4.343-2.533-6.243-4.252-7.419-6.876-1.81-3.981-1.629-4.252 6.423-12.938 5.429-5.881 5.7-7.057 3.529-13.481-1.448-4.252-1.448-4.252 1.086-7.871 4.433-6.152 4.885-7.419 4.885-14.567 0-8.233-1.085-9.952-7.419-11.581-4.795-1.266-4.343-.18-4.795-11.761-.09-2.805-.271-5.519-.362-6.153 0-.633-1.447-1.809-3.167-2.443l-2.985-1.266-.634-9.229c-.633-7.781-1.085-9.862-3.257-13.481-1.628-2.804-2.895-6.785-3.619-11.219-.904-6.152-.814-7.057.815-10.223 1.628-3.167 5.428-8.957 6.333-11.581.905-2.624.633-3.981-2.262-12.214l-3.348-9.229-3.257.633c-6.424 1.177-6.604 1.086-10.585-4.523-2.172-2.986-3.891-5.7-3.981-6.062 0-.362 2.442-2.353 5.428-4.524 5.7-4.162 7.781-7.6 8.686-14.657.543-3.438.181-4.162-3.167-8.233-1.99-2.534-3.709-4.977-3.709-5.429 0-.543 2.081-3.076 4.614-5.7l4.614-4.795 1.448 1.99c3.076 4.343 4.705 5.429 8.143 5.157l3.347-.271.272-5.61c.271-5.338.181-5.7-4.162-11.309-2.353-3.167-4.614-6.424-4.976-7.328-.634-1.72.995-15.11 1.99-16.196.272-.362 7.51-1.266 15.924-2.08 22.076-2.081 23.071-2.263 23.704-3.8.272-.815-.542-3.53-1.809-6.243l-2.352-4.796 3.8-5.61c2.08-3.166 5.88-8.051 8.504-10.856 4.072-4.343 6.243-5.7 15.743-9.953 7.871-3.528 11.31-5.519 11.943-7.057.905-1.81 8.324-6.423 10.495-6.423.452 0 1.267 1.176 1.9 2.623 1.99 4.886 2.624 4.886 12.576.09l9.229-4.523-.272-3.348c-.271-3.076-.09-3.347 2.895-4.161 5.248-1.358 5.7-2.262 4.434-8.505l-1.086-5.429 4.433-7.057c2.443-3.89 5.248-7.6 6.243-8.233 2.172-1.629 5.972-1.629 7.962-.181 1.357 1.086 1.176 1.538-2.171 5.428-5.157 6.062-4.434 7.42 3.619 6.605 5.971-.633 6.243-.543 6.785 1.448.272 1.176.543 2.986.543 4.071 0 1.629 1.538 3.076 3.257 3.076.181 0 2.353-1.9 4.886-4.071l4.614-4.071h16.286l5.881 4.704c3.347 2.624 6.152 5.7 6.424 6.967.362 1.267.633 6.424.723 11.4v9.048l-5.971 9.047c-3.257 4.976-8.052 12.848-10.676 17.462-2.624 4.705-6.514 11.4-8.776 14.928-3.891 6.334-4.795 9.048-3.167 10.043.543.272 3.167.272 6.062-.09 4.886-.543 5.609-.995 12.938-7.69 4.252-3.891 8.052-7.058 8.414-7.058.724 0 .996.724 3.076 10.224 1.448 6.243 1.991 7.419 5.067 9.862 1.991 1.447 6.243 6.876 9.681 11.943 9.5 14.204 9.228 12.304 2.805 19.542-6.153 6.967-6.786 8.505-7.691 18.276-.814 8.596-1.266 9.319-5.7 8.958-3.257-.181-3.8.18-9.952 6.604" fill="#C9E5FF"/><path d="M559.237 375.297h-.181c-.453.271-.905 1.9-.905 3.438 0 1.809-.814 3.619-2.262 5.157l-2.352 2.533 1.9 3.167c2.262 3.89 1.809 4.252-6.424 6.424l-5.971 1.538-1.991 6.967-1.99 6.876 3.076 4.523c3.438 4.796 3.438 5.248.181 12.667l-1.448 3.529 1.991-.453c1.176-.271 4.071-1.085 6.514-1.719 3.438-.995 4.343-.905 5.247 0 .905.905.905 1.719-.723 4.614-1.177 1.9-2.081 4.162-2.081 4.796 0 .633 2.623 4.071 5.7 7.871 1.447 1.81 2.623 3.076 3.619 4.524 4.071-1.629 8.323-2.443 12.757-3.167 7.238-1.176 12.576-2.624 19.452-5.519l9.5-4.071 4.976 5.609c2.714 3.076 6.424 7.329 8.324 9.319l3.347 3.71 4.615-4.615 4.614-4.795 8.143-.633c9.409-.724 13.481-2.986 13.481-7.51 0-4.342-2.986-27.685-3.619-28.499-.362-.362-3.257.542-6.334 2.171-3.076 1.538-5.971 2.533-6.423 2.171-.453-.452-1.358-4.071-2.172-8.052-.724-3.89-1.719-7.419-2.081-7.781-.362-.362-4.071-.09-8.233.453-6.786.814-7.69.633-8.776-.724-.724-1.086-3.438-1.81-7.419-2.443l-6.334-.905-3.166-5.247c-1.629-2.805-4.253-5.881-5.881-6.967-3.076-2.171-27.957-9.319-30.671-8.957Z" fill="#C9E5FF"/><path d="M510.922 437.092c-.271-.452-.271-2.262.091-4.071.723-3.891-.091-5.067-7.329-9.681-4.252-2.805-6.152-3.438-8.866-3.257-2.353.181-3.71-.181-4.162-1.086-.453-.724-1.267-6.876-1.9-13.752l-1.086-12.395 4.433-8.867 4.343-8.867 5.429-1.357 5.428-1.357-.181-5.428c-.452-8.867-1.176-10.586-5.247-11.672-3.438-.995-3.619-1.176-3.891-5.066-.181-3.258.362-5.067 2.805-9.048 1.628-2.714 3.348-4.886 3.8-4.705.543.091 1.447 1.81 2.171 3.8 1.267 3.891.724 3.619 13.21 6.695 2.985.724 9.047 1.538 13.39 1.9 7.51.543 8.233.453 11.943-1.719 2.171-1.266 4.162-2.352 4.433-2.352.272 0 0 1.448-.452 3.257-.814 2.805-.452 4.614 2.805 13.662 4.523 12.847 4.704 16.286.723 20.719-2.804 3.257-2.895 3.347-1.357 5.971.905 1.538 1.357 2.986 1.176 3.348-.271.362-2.714 1.176-5.428 1.809-2.805.634-5.519 1.629-6.152 2.262-.634.634-2.172 4.434-3.258 8.505l-2.171 7.419 3.257 4.524 3.257 4.524-1.809 4.614c-.995 2.533-1.719 5.247-1.538 5.971.543 3.348-25.967 8.776-27.867 5.7ZM633.971 405.335l-1.357-7.419h-8.596c-5.247 0-9.138-.452-9.952-1.086-.724-.542-3.89-1.357-6.967-1.719-6.242-.723-6.242-.723-10.133-6.876-3.709-5.971-7.6-8.052-22.619-12.033-7.238-1.9-13.571-3.71-14.295-4.071-.724-.362-2.895-5.158-4.795-10.586-3.438-9.319-3.529-10.043-2.533-14.657.904-3.8 2.261-6.153 7.057-11.853 5.609-6.785 6.152-7.147 9.681-7.238 2.08 0 4.252-.542 4.795-1.266.543-.634 2.804-5.972 5.066-11.853 2.172-5.88 4.253-10.857 4.434-11.128.181-.181 4.071-.091 8.685.271 7.872.634 8.324.815 9.591 3.258l1.357 2.623 7.419-.633c7.238-.543 7.6-.452 13.933 2.714 3.619 1.81 7.148 3.348 7.781 3.348.724 0 4.072-1.81 7.51-4.072 4.795-3.076 6.514-3.8 7.78-3.076.905.453 1.629 1.267 1.629 1.719 0 .543.995 1.267 2.171 1.719 1.358.543 2.986 2.443 4.072 5.067l1.9 4.252-1.81 2.534c-1.719 2.442-1.809 2.804-.542 5.247 1.538 2.896 2.352 3.076 16.285 4.343 7.148.543 7.238.633 10.857 4.705 7.148 7.962 7.6 8.324 10.948 8.324 2.624 0 3.347.361 4.071 2.261 1.357 3.529 1.267 3.62-3.528 6.696-4.615 2.985-5.519 4.885-5.519 11.49 0 2.714.271 3.076 3.89 3.981 8.867 2.443 11.038 3.348 11.31 4.614.18.815-1.629 3.981-3.891 7.057-3.528 4.796-4.162 6.153-3.709 8.505.904 5.248-.724 6.152-13.21 7.148-10.043.814-11.581 1.176-16.195 3.89-2.986 1.719-8.052 3.529-12.033 4.343-3.71.814-9.229 2.714-12.214 4.162-2.986 1.538-5.791 2.805-6.243 2.805-.453 0-1.357-3.348-2.081-7.51ZM437.818 390.497c-9.681-1.086-14.023-1.176-16.738-.452-2.714.724-6.062.543-13.752-.634-5.519-.814-10.405-1.809-10.767-2.171-.271-.362.543-2.081 1.9-3.89 1.357-1.719 2.262-3.71 1.991-4.343-.272-.634-3.167-1.9-6.424-2.805-3.257-.814-5.971-1.9-5.971-2.171 0-1.448 5.428-8.867 8.504-11.853 3.167-3.076 3.257-3.257 3.257-9.952v-6.967l3.167-1.447c1.81-.905 4.162-1.538 5.338-1.538 3.71 0 10.586 2.895 12.033 5.066 1.72 2.715 2.715 2.715 6.153 0 3.8-3.076 6.152-1.809 5.338 2.895-.814 4.977 4.795 16.196 8.505 16.919 4.704.996 10.042 3.981 11.581 6.515.904 1.357 3.347 4.162 5.428 6.152 5.248 4.886 5.7 6.967 2.262 9.409-3.8 2.715-6.514 2.805-21.805 1.267Z" fill="#C9E5FF"/><path d="M421.442 344.897c-1.267-1.9-10.133-5.338-13.933-5.338-.995 0-3.438.814-5.519 1.9l-3.619 1.991-3.529-2.443c-1.99-1.267-4.071-2.353-4.614-2.353-.905 0-3.619-1.176-14.567-6.061-1.9-.815-2.985-1.901-2.985-2.986 0-2.624-1.629-3.076-5.338-1.448l-3.439 1.538-5.971-3.257c-6.514-3.619-6.514-3.619-4.795-10.857l.995-4.524 4.976-.452c4.886-.452 4.976-.543 7.148-4.795 2.171-4.524 2.805-4.796 8.233-3.529 4.433 1.086 5.338.543 5.972-3.619.633-3.8.18-3.438 10.133-7.6 2.533-1.086 2.895-1.719 2.714-4.252-.09-1.719.543-3.981 1.357-5.248 1.991-2.805 1.9-4.614-.271-8.776-2.534-4.705-2.353-7.238.724-8.505 2.352-1.085 8.957-7.509 15.019-14.747 1.719-2.081 3.347-5.248 3.709-7.238.724-4.253 2.895-8.776 4.614-9.772.724-.452 1.267-1.447 1.267-2.352 0-.905.543-2.352 1.267-3.348 1.266-1.719 1.357-1.628 2.262.996 1.628 4.523 2.352 5.338 6.695 7.69 3.438 1.81 5.066 3.71 9.319 10.767l5.157 8.414-1.991 8.505-1.9 8.414 1.991 3.981c1.809 3.89 1.809 4.252.543 9.59l-1.448 5.519 2.714 2.262c1.448 1.176 2.986 2.262 3.258 2.262.361 0 1.809.995 3.166 2.262 2.081 1.99 2.443 2.986 2.443 7.509.09 2.805.633 6.153 1.357 7.419.724 1.177 1.357 4.343 1.357 6.877v4.614l-3.347.543c-5.248.904-8.867.724-9.953-.453-1.628-1.538-7.509 11.853-7.509 17.01 0 2.171-.181 3.981-.453 3.981-.271 0-1.719-.634-3.257-1.448-2.533-1.267-2.804-1.267-5.7.995l-2.985 2.262-1.267-1.9Z" fill="#C9E5FF"/><path d="M473.377 389.954c-7.69-2.623-8.504-3.076-9.409-5.79-.453-1.629-2.534-4.252-4.434-5.791-1.99-1.538-4.071-3.89-4.704-5.157-1.538-3.166-7.51-7.147-11.762-7.781-3.076-.542-3.619-1.085-6.152-6.061-3.167-6.515-3.348-7.962-.905-11.038 1.266-1.629 1.809-3.71 1.809-6.967 0-3.076.724-6.062 2.262-9.048 2.443-4.795 3.167-5.066 14.024-5.7l4.071-.181.272-4.795c.271-4.433.452-4.705 2.624-4.705 1.357 0 4.071-.814 6.061-1.719 2.081-.995 7.329-2.623 11.762-3.709 9.048-2.172 16.919-6.876 18.729-11.129.543-1.357 1.447-2.442 1.99-2.442.543 0 4.886 2.171 9.681 4.885 8.686 4.976 8.776 5.067 13.843 13.391 2.805 4.614 5.881 10.223 6.876 12.576 1.81 4.071 2.081 4.252 10.224 7.057 4.614 1.628 8.776 3.257 9.228 3.709.362.362-1.447 2.172-4.071 3.891-4.886 3.076-4.886 3.167-11.219 2.262-8.505-1.086-15.562-2.353-19.633-3.529-2.986-.814-3.529-1.447-5.338-6.333-1.358-3.619-2.443-5.338-3.529-5.338-.905 0-3.257 2.714-5.971 6.966-4.162 6.605-4.434 7.419-4.434 13.21 0 6.424.815 7.781 4.615 7.871 2.714 0 3.8 1.629 4.433 6.876l.633 4.524-5.066 1.176-5.157 1.086-5.158 10.405c-3.257 6.605-5.609 10.224-6.514 10.224-.724-.091-5.157-1.358-9.681-2.896Z" fill="#C9E5FF"/><path d="M542.681 334.764c-8.053-2.986-10.767-4.614-10.767-6.514 0-.543-2.805-5.7-6.243-11.4l-6.152-10.314-10.224-5.881c-9.409-5.338-10.314-5.7-11.219-4.162-4.343 7.328-10.133 11.038-21.262 13.662-4.795 1.176-9.952 2.804-11.4 3.528-4.704 2.443-6.514 1.9-8.595-2.624-1.086-2.443-1.809-5.881-1.809-8.866v-4.886l-4.977-3.348c-5.428-3.619-5.609-4.161-3.98-11.128.904-3.891.814-4.795-.905-7.871l-1.991-3.529 1.9-8.505 1.991-8.504-5.7-9.591c-4.976-8.505-6.153-9.771-9.681-11.4-2.986-1.266-4.343-2.533-5.338-5.066-2.172-5.158-1.719-8.777 2.714-19.996 4.252-10.676 5.157-11.942 13.662-18.366 2.805-2.172 3.257-3.076 3.257-6.153 0-3.076.633-4.342 3.981-7.871 3.8-3.981 4.162-4.162 6.243-2.986 2.171 1.086 2.714.905 8.866-3.438 3.619-2.533 7.51-4.614 8.686-4.614 1.991 0 2.081.362 2.081 5.7 0 4.705-.543 6.695-2.805 10.857l-2.804 5.157 3.257 4.343 3.166 4.343 9.772 1.176c6.062.724 11.49 1.9 14.385 3.167 4.524 2.081 4.615 2.171 4.524 5.971-.09 3.8.091 4.072 4.343 6.514l4.433 2.624 6.605-1.99 6.695-1.991 4.343 3.619c3.891 3.257 4.343 3.981 4.795 8.505.272 3.076 1.719 7.419 3.981 11.852l3.529 7.057h5.79c5.61 0 5.972.091 11.943 4.886 5.61 4.433 6.786 4.976 14.114 6.243l7.962 1.448 6.333 6.876 6.334 6.785h17.461l5.158-4.252 5.157-4.252 5.157 5.609c4.886 5.248 5.428 5.61 9.228 5.61 2.896 0 5.338.814 9.41 3.166 2.986 1.81 6.062 3.619 6.786 3.981.814.453 1.266 1.629 1.085 3.076-.543 4.434 2.986 10.315 7.872 13.391 2.533 1.538 4.342 3.257 4.071 3.709-1.086 1.629-12.938 8.867-14.657 8.867-.905 0-2.443-.814-3.348-1.81-.904-.995-2.171-1.809-2.804-1.809-.634 0-4.343 1.9-8.143 4.252l-6.876 4.253-6.696-3.438c-6.604-3.439-6.876-3.439-13.48-2.896-6.696.634-6.786.634-7.781-1.719-.634-1.266-1.991-2.533-2.986-2.714-3.8-.724-18.367-1.267-19.271-.633-.543.362-2.624 4.976-4.615 10.223-5.066 13.481-5.066 13.481-9.138 13.481-3.257 0-3.89.453-9.138 6.696-3.166 3.8-6.423 6.785-7.147 6.785-.724 0-4.886-1.357-9.138-2.895Z" fill="#C9E5FF"/><path d="M650.166 273.059c-5.157-3.076-7.962-4.071-10.676-4.071-3.257 0-4.162-.543-8.324-5.067-6.785-7.328-6.785-7.328-12.847-2.171l-5.248 4.524H597.419l-6.062-6.695-6.062-6.696-8.233-1.538c-7.6-1.538-8.776-2.081-14.386-6.514-5.971-4.614-6.423-4.795-11.943-4.886h-5.699l-3.439-7.419c-2.171-4.885-3.347-8.776-3.347-11.219 0-3.438-.453-4.162-4.705-7.962-2.624-2.261-5.428-4.071-6.243-4.071-.904 0-4.071.724-7.238 1.719l-5.609 1.81-3.8-2.262c-3.438-1.991-3.8-2.534-3.8-5.972 0-5.79-4.615-8.052-19.995-9.862-9.229-1.085-9.319-1.085-11.491-4.342-2.805-4.072-2.805-4.434 0-9.319 1.81-3.257 2.262-5.157 2.262-10.857v-6.967l2.714-.543c1.448-.362 4.705-2.443 7.148-4.614 4.162-3.8 5.157-4.162 12.486-5.429 10.857-1.9 10.042-1.538 17.19-8.324 4.705-4.523 6.786-7.238 7.6-10.042.995-3.348.995-4.072-.181-4.705-3.981-2.443-3.981-2.262-.543-7.329 1.9-2.623 3.348-5.338 3.348-5.881 0-.542-1.086-3.166-2.353-5.699-2.352-4.705-2.352-7.239-.09-7.239.633 0 5.157 6.062 10.043 13.572 6.333 9.59 9.409 13.571 10.585 13.571 1.086 0 2.805-1.628 4.524-4.343 3.529-5.609 3.981-7.69 2.172-10.495-1.177-1.809-1.358-3.347-.815-7.419.634-5.157.634-5.157-2.714-7.962l-3.438-2.804 2.171-2.715c1.086-1.447 3.619-5.88 5.429-9.862 3.167-6.966 3.257-7.328 1.9-9.68-2.443-4.162-1.086-6.424 7.328-11.672 6.786-4.252 8.324-5.79 14.477-14.114 4.433-6.062 7.509-9.41 8.595-9.41 1.719 0 11.762 3.439 12.938 4.524.452.362.452 2.715.09 5.338-.543 3.981-1.538 5.79-6.785 12.396-3.439 4.342-6.243 8.595-6.243 9.68 0 .996.633 4.253 1.447 7.148 1.448 5.157 1.448 5.338-.904 12.395-1.267 3.981-2.353 7.962-2.353 8.867 0 .905-1.447 5.971-3.166 11.128-1.719 5.157-3.167 10.224-3.167 11.219 0 .996 1.086 4.343 2.352 7.329l2.262 5.519-3.709 6.966c-2.081 3.8-4.072 6.967-4.524 6.967-.452 0-3.257 2.986-6.333 6.786-5.338 6.604-5.519 6.785-9.591 6.785-2.171 0-6.876-.904-10.224-1.9-12.666-3.89-14.928-.995-6.152 7.962 6.243 6.424 12.938 10.134 18.095 10.224 5.429 0 15.924-5.338 19.905-10.314 1.9-2.353 5.881-5.881 8.866-7.872l5.339-3.619v-10.314c0-11.581.452-12.666 6.061-13.662 5.158-.995 7.6.905 9.138 6.877 2.986 12.123 2.805 11.761 5.429 11.761 1.357 0 3.8-.904 5.519-1.9l2.986-1.809-.634-6.514c-.362-3.619-.995-7.419-1.357-8.415-.452-1.085-3.528-3.89-6.876-6.333-5.157-3.709-7.147-4.524-12.486-5.338-5.609-.814-6.423-1.176-6.966-3.167-1.538-5.7-.905-8.595 3.709-15.833 2.534-3.98 4.524-7.6 4.524-8.143 0-.543-.995-4.976-2.171-9.952-2.534-10.133-2.262-11.31 3.257-16.376 4.614-4.343 11.128-8.686 11.4-7.781.181.543-1.176 4.705-2.895 9.5-1.81 4.705-3.258 9.047-3.258 9.59 0 1.99 17.281 11.853 20.9 11.853 2.081 0 4.343-2.353 4.434-4.434 0-.633-2.624-4.162-5.881-7.78-3.257-3.62-5.881-7.239-5.881-7.962 0-2.443 1.809-2.805 3.981-.724 2.262 2.08 4.252 2.352 6.966.904 2.353-1.176 2.172-2.895-.633-7.69-1.9-3.257-2.171-4.252-1.267-5.428 2.715-3.167 6.515-.272 4.253 3.347-.905 1.448-.815 1.99.271 2.895.814.543 3.257 2.986 5.429 5.429l3.89 4.343-4.162 4.252c-2.352 2.352-4.252 4.705-4.252 5.248 0 .633 1.809 3.076 4.071 5.61 4.343 4.704 4.705 6.423 3.076 12.032-.814 2.624-2.533 4.615-7.238 8.234-3.347 2.624-6.333 5.247-6.604 5.881-.453.995 3.619 7.509 8.685 13.842 2.443 3.077 2.534 3.077 6.334 2.081 2.171-.633 4.162-.814 4.523-.452.362.362 1.719 3.619 2.986 7.238l2.262 6.514-4.524 8.957-4.524 8.867.996 7.148c.724 4.885 1.9 8.685 3.8 12.123 2.442 4.343 2.804 6.062 3.166 13.572.453 9.319 1.176 11.762 3.619 11.762 3.077 0 3.8 1.9 3.8 10.042 0 8.777.634 9.772 6.786 11.219 4.524 1.086 4.976 1.991 4.976 8.957 0 6.243-.181 6.786-3.709 11.762l-3.8 5.248 1.538 4.705c.814 2.623 1.447 5.338 1.447 6.062 0 1.628-8.866 11.671-10.223 11.671-.634 0-4.253-1.9-8.053-4.072ZM344.991 412.392c-.272-.724-.091-2.624.452-4.252 1.267-3.619.271-4.976-4.705-5.791-6.876-1.085-7.238-1.628-4.885-6.514 1.176-2.352 3.076-6.786 4.252-9.952 2.624-7.238 8.776-13.391 12.486-12.486 6.152 1.538 6.785 1.267 9.861-4.433 4.796-8.867 3.71-12.124-3.438-10.495-3.076.633-5.7.452-11.581-.815-4.161-.904-7.78-1.99-8.142-2.442-.362-.453-1.448-2.534-2.353-4.705l-1.719-3.891 2.262-1.719c3.891-3.076 5.881-3.076 9.591-.181 2.895 2.353 4.523 2.805 10.766 3.348 8.505.814 8.324.905 11.219-7.872 1.086-3.347 2.262-6.061 2.533-6.061 1.9 0 20.9 8.323 23.162 10.133 2.172 1.719 2.715 2.895 3.076 7.148.362 5.066.362 5.066-4.161 10.133-4.615 5.066-8.324 11.128-8.324 13.571 0 .814 2.171 1.9 5.881 2.895 3.257.905 5.881 1.81 5.881 1.991 0 .271-.905 1.99-1.9 3.89-2.353 4.162-3.257 4.162-15.11-.181-8.414-3.076-10.495-2.804-13.3 1.357-1.357 2.172-1.357 2.715.815 9.319 2.352 7.51 1.9 8.867-2.081 6.696-2.624-1.448-9.681-1.177-11.31.452-.724.724-1.628 3.167-1.99 5.429-.272 2.261-1.177 4.704-1.9 5.428-1.719 1.719-4.705 1.719-5.338 0Z" fill="#C9E5FF"/><path d="M338.024 438.359c-4.343-2.714-5.519-3.076-6.786-2.172-4.705 3.348-5.428 3.348-9.138-.271-2.895-2.714-3.709-4.343-4.162-7.962-1.086-7.328-5.971-10.495-12.576-7.962-2.533.995-2.352 1.086-8.957-6.695l-2.262-2.714-7.509 1.538c-4.162.905-8.053 1.628-8.686 1.628-.633 0-1.538-1.628-2.081-3.528-.452-1.991-1.629-4.433-2.533-5.61-1.448-1.719-1.9-1.809-3.619-.904-1.086.542-2.353.814-2.805.542-.452-.271-1.448-4.252-2.352-8.866-.905-4.614-1.991-9.048-2.353-9.862-.452-.905-2.624-2.352-4.886-3.348-3.98-1.809-4.071-1.9-4.071-6.242 0-5.881-.905-6.605-7.69-5.881l-5.61.452-.543-2.895c-.904-4.253-.995-4.162 2.986-5.338 2.171-.634 4.433-2.172 5.7-3.891 1.267-1.719 4.705-3.981 9.228-6.152 6.243-2.986 8.234-4.433 14.748-11.581 4.071-4.524 7.419-8.957 7.419-9.862 0-.995 1.267.181 3.167 3.076 2.895 4.253 3.166 5.248 3.257 11.31 0 5.7.543 7.962 4.343 17.371 3.981 9.772 4.252 11.038 3.528 14.838-1.086 5.881-.543 6.786 3.8 6.243 1.991-.271 3.8-.181 4.072.271.723 1.086-1.177 5.519-2.896 6.786-1.357.995-1.266 1.357.453 4.162 1.719 2.895 1.809 3.348.633 5.7-2.262 4.252-1.719 5.609 2.081 6.243 5.157.905 8.143.724 10.133-.543 1.538-.905 2.262-.633 5.338 2.443 4.253 4.071 5.61 3.89 8.234-1.267.995-1.99 2.533-3.619 3.347-3.619 3.619 0 12.938 2.171 12.938 3.076 0 .543-.633 2.895-1.538 5.248l-1.538 4.252 5.067 7.51c7.69 11.671 7.509 10.947 4.252 14.657-1.538 1.809-3.257 3.257-3.8 3.166-.633 0-3.438-1.447-6.333-3.347Z" fill="#C9E5FF"/><path d="M317.216 405.426c-2.986-2.443-3.71-2.715-5.7-1.81-2.352 1.086-8.686 1.448-9.59.543-.272-.272-.091-1.9.452-3.619.633-1.991.633-3.71.09-5.067-.633-1.447-.452-3.347.724-6.876 2.353-7.238 2.353-7.419-2.805-7.419h-4.433l.453-4.795c.452-4.253 0-5.881-3.71-14.567-3.348-7.962-4.162-10.766-4.162-15.109 0-4.886.362-5.972 4.253-11.762 2.985-4.524 4.433-7.691 4.795-10.586l.452-4.252 6.786-2.081c8.143-2.533 8.866-3.076 7.328-5.971-1.809-3.258-.995-4.162 5.067-6.515l5.609-2.081 2.262 2.986c1.81 2.443 3.077 3.076 6.786 3.619 4.795.633 6.786 2.443 10.043 8.957.724 1.448 2.352 2.986 3.619 3.438 1.267.543 3.076 1.629 4.071 2.534 3.438 3.076 14.024 8.414 15.834 7.961 2.261-.633 2.261.815.09 7.058l-1.629 4.523-5.157.272c-5.428.271-9.138-1.267-12.757-5.248-.905-.995-2.171-1.809-2.895-1.809-2.262 0-11.128 6.514-11.128 8.142 0 2.805 4.704 12.577 6.242 13.029 6.153 1.809 14.838 3.257 18.367 3.076 2.352-.09 4.614.091 4.886.362.361.362-.453 2.443-1.81 4.705-2.262 3.89-2.443 3.981-5.067 3.076-1.538-.543-3.619-.724-4.795-.452-2.352.633-11.49 9.047-11.49 10.585 0 .634-1.81 5.519-4.162 10.857-3.257 7.781-4.524 9.862-6.062 10.134-1.176.09-2.714 1.538-3.8 3.619-.995 1.9-2.171 3.438-2.714 3.347-.453 0-2.443-1.266-4.343-2.804ZM188.288 376.021c-.453-.905-1.177-3.077-1.539-4.796-.361-1.809-2.08-6.966-3.89-11.58-2.805-7.329-3.529-8.505-5.7-8.958-1.538-.271-3.076-1.628-4.343-3.98-1.447-2.624-2.714-3.62-4.885-4.072l-2.986-.543.09-7.871c0-5.067-.362-8.505-1.085-9.319-.634-.724-4.253-2.081-8.053-3.076-6.243-1.538-7.057-1.991-8.324-4.615-1.085-2.352-1.176-3.438-.361-5.066.542-1.086 1.176-3.619 1.266-5.61.272-3.528.453-3.709 7.057-7.057 3.71-1.809 7.238-3.347 7.781-3.347.453 0 2.534 1.628 4.524 3.709 1.9 1.991 6.333 6.152 9.681 9.138 5.609 4.976 6.876 5.7 14.114 7.6 6.153 1.629 8.776 2.895 11.491 5.248 1.9 1.809 5.247 3.89 7.509 4.614 2.352.814 4.705 1.809 5.429 2.081 3.528 1.809 17.642 32.752 15.471 34.109-1.176.724-19.543 3.8-27.324 4.615-6.695.633-8.595 1.99-10.223 6.966-1.086 3.348-4.343 4.343-5.7 1.81ZM232.527 354.759c-1.81-5.881-8.686-19.995-11.219-23.162-.724-.905-.362-1.357 1.176-1.719 1.9-.543 1.99-.814 1.357-6.876-.724-7.69-.543-7.871 8.233-7.871 6.062 0 6.605.181 11.219 3.619 2.715 1.99 5.067 3.619 5.248 3.619.181 0 2.443-1.81 5.067-4.072l4.795-4.071 1.99 2.714c2.262 3.167 3.71 3.348 5.972.905 2.081-2.353 3.347-2.352 6.062.271 1.447 1.357 2.623 3.891 3.438 7.6l1.176 5.61-6.695 7.509c-7.962 8.867-7.057 8.143-14.386 11.31-3.619 1.538-7.329 3.981-9.59 6.333-2.353 2.352-4.615 3.89-5.881 3.89-1.177 0-2.986.181-3.981.453-1.629.452-2.172-.272-3.981-6.062Z" fill="#C9E5FF"/><path d="M284.011 331.326c-2.081-2.986-4.071-5.158-4.524-4.886-.724.452-2.714-4.886-2.714-7.419 0-1.176-5.7-5.7-7.238-5.7-.633 0-2.172.814-3.438 1.809l-2.443 1.9-1.99-2.533c-1.177-1.448-2.081-2.986-2.081-3.529 0-.542-.996-1.899-2.081-2.985-1.177-1.086-2.624-3.619-3.258-5.61-.904-3.166-1.357-3.528-3.98-3.528-3.348-.091-4.253-.543-6.334-3.8-1.266-2.081-2.262-2.534-6.243-2.714-3.347-.181-4.885-.724-5.066-1.629-.181-.995.543-1.448 2.262-1.448 1.447 0 4.523-.09 6.876-.181l4.433-.181-.362-3.8-.271-3.8 4.976-1.628c2.714-.905 8.686-2.805 13.3-4.252l8.233-2.624 3.257 2.171c2.172 1.538 3.891 1.991 5.429 1.629 2.352-.543 2.533-.181 4.705 11.762.723 3.98 3.619 11.038 4.795 11.761.452.272 4.343-.723 8.685-2.171 4.343-1.538 8.324-2.443 8.686-2.262 1.629.995.724 4.072-1.9 7.057-3.347 3.8-3.347 4.795-.452 5.519 2.895.724 5.247 5.067 3.166 5.791-.723.271-3.8 1.357-6.785 2.352l-5.429 1.9-.452 4.162c-.362 2.714-1.629 5.971-3.891 9.319-1.809 2.714-3.528 5.067-3.8 5.067-.181 0-2.081-2.443-4.071-5.519Z" fill="#C9E5FF"/><path d="M214.977 325.535c-2.443-.724-6.062-2.352-8.053-3.709l-3.709-2.353 5.247-4.704 5.338-4.705-1.176-5.429c-.633-2.985-.995-6.966-.814-8.957l.271-3.619 4.886-.271c4.433-.272 4.886-.543 5.791-2.986.542-1.448 1.447-2.624 1.99-2.624 2.081 0 4.886 2.805 5.157 5.157.181 1.357.905 2.534 1.629 2.624 10.043 1.357 9.952 1.357 11.309 3.981 1.176 2.171 1.991 2.714 4.614 2.714 2.805 0 3.348.362 4.615 3.348.724 1.9 2.262 4.343 3.257 5.519l1.99 2.081-4.252 4.071-4.343 4.072-4.795-3.71c-4.524-3.347-5.248-3.619-10.676-3.619-3.167 0-7.329.453-9.319.995l-3.438.905.543 6.243c.723 7.057.995 6.876-6.062 4.976ZM345.986 319.835c-.542-.361-2.352-2.895-3.98-5.609-1.629-2.805-3.077-5.067-3.167-5.248-.181-.09-2.443-.633-5.157-1.085-3.8-.724-5.429-1.629-7.419-3.891-2.262-2.624-5.519-8.776-4.976-9.319.181-.09 1.809-.814 3.709-1.628 1.81-.724 3.348-1.9 3.348-2.624 0-.634 1.628-4.614 3.619-8.686 2.262-4.705 3.619-8.776 3.619-10.947 0-5.429.995-8.867 3.166-11.129 1.086-1.086 2.624-3.257 3.348-4.705 1.267-2.352 1.267-3.076.091-6.333-1.177-3.529-1.177-3.709.814-5.338 3.438-2.714 9.5-8.505 10.224-9.59.271-.543-1.72-3.348-4.524-6.243-4.976-5.338-5.067-5.429-4.795-10.224.271-4.614.452-4.795 2.895-5.157 1.447-.091 3.981 0 5.7.271 2.533.543 3.438 1.357 5.066 4.886 1.991 4.071 2.172 4.252 9.5 6.424l7.419 2.171 9.048-1.628c10.043-1.9 11.309-1.719 23.795 2.804 3.8 1.357 6.967 3.076 6.967 3.71 0 .633-.815 2.714-1.81 4.524-.995 1.9-1.809 4.433-1.809 5.79 0 4.162-13.119 18.909-18.548 20.719l-3.347 1.086.452 4.252c.271 2.352 1.176 5.7 2.081 7.51 1.447 3.076 1.447 3.438.09 5.609-.814 1.267-1.538 3.438-1.538 4.976 0 2.443-.452 2.805-5.157 4.524-5.79 2.171-7.509 3.8-7.509 7.148 0 2.171-.091 2.171-5.429 1.628l-5.338-.633-2.262 4.524-2.352 4.523-5.157.272-5.248.271-1.357 6.243c-1.357 6.152-2.262 7.51-4.072 6.152Z" fill="#C9E5FF"/><path d="M192.81 314.407c-8.233-2.353-8.776-2.715-16.919-10.134-4.614-4.252-8.686-8.323-8.957-8.957-.362-.723.09-1.719.814-2.262 1.176-.904 1.357-2.895 1.176-11.852l-.271-10.766 2.443-.905c3.528-1.267 13.481 5.338 17.552 11.762 3.71 5.7 4.162 6.061 6.333 4.433 1.448-.995 2.353-.905 6.696.995 7.509 3.348 7.871 3.981 8.414 14.205l.362 8.776-4.162 3.619c-2.262 1.99-4.343 3.529-4.614 3.529-.272 0-4.253-1.177-8.867-2.443ZM308.256 304.002c1.539-1.628 1.991-3.257 1.991-6.785 0-5.7-.091-5.7-10.676-2.262-7.419 2.443-7.6 2.442-8.867.723-1.719-2.352-1.628-4.071.634-9.952 1.266-3.528 2.352-4.976 3.528-4.976 2.262 0 3.348-1.629 4.071-6.333.905-5.519 1.267-5.881 5.339-5.881 3.438 0 3.709-.272 7.78-6.786 4.977-7.781 4.524-7.69 14.477-2.895l6.785 3.347-.271 6.334c-.181 3.981-.814 7.328-1.81 9.047-.904 1.448-2.533 4.886-3.619 7.691-1.719 4.162-2.624 5.157-5.7 6.514-3.257 1.357-3.619 1.81-3.076 3.619 1.719 5.338 1.267 6.333-4.524 8.505-7.057 2.805-8.595 2.805-6.062.09Z" fill="#C9E5FF"/><path d="M203.67 285.002c-5.61-2.714-7.781-3.347-8.505-2.624-1.719 1.629-2.171 1.357-4.795-3.076-1.629-2.805-4.343-5.428-8.595-8.233l-6.334-4.162 3.438-3.709c1.9-2.081 4.796-5.339 6.515-7.239 4.614-5.066 5.7-5.428 10.947-3.709l4.434 1.448v6.333c0 5.338.452 6.966 2.804 11.219 1.538 2.714 3.077 5.157 3.529 5.338.362.271 3.619-.995 7.147-2.714 3.62-1.719 6.696-3.077 6.877-3.077.181 0 1.176 1.629 2.171 3.619l1.9 3.619-2.714 5.429-2.714 5.429-4.343-.091c-3.076-.09-6.334-1.086-11.762-3.8ZM228.73 285.274c-2.624-2.172-2.805-2.624-1.991-5.157.634-1.629.634-3.257.181-3.981-1.357-2.172-.904-3.076 2.172-4.434 2.624-1.266 2.895-1.809 3.167-6.061.271-4.615.361-4.796 3.438-5.338 1.719-.362 5.338-.001 8.233.723l5.247 1.267 1.629 4.886c.814 2.714 1.81 5.609 2.081 6.514.362 1.176-.724 2.171-4.795 4.071-4.976 2.353-5.248 2.715-4.976 5.429.271 3.347-.091 3.528-6.786 4.071-4.071.362-5.067.091-7.6-1.99ZM287.268 285.093c-.271-.634-1.538-7.51-2.895-15.11-1.447-7.69-3.076-14.476-3.619-15.019-1.176-1.176-15.381-4.614-17.462-4.162-.723.091-2.442 1.086-3.8 2.081-1.447 1.086-2.714 1.719-2.895 1.538-.181-.181-.633-2.261-.905-4.523-.452-3.71-.271-4.343 2.715-7.419 1.9-2.081 3.709-3.258 4.704-2.986.815.181 2.443.633 3.529.995 1.538.453 3.167-.09 5.7-1.9 1.9-1.357 3.529-2.805 3.529-3.166 0-.453-2.172-2.534-4.886-4.615-2.714-2.171-4.976-4.343-4.976-4.976-.091-.543 1.9-2.262 4.252-3.8 3.891-2.533 5.157-2.805 10.857-2.805h6.514v-5.79c0-4.886.362-5.972 2.262-7.781 1.267-1.176 2.262-2.714 2.262-3.348 0-.723.905-2.985 1.9-5.066 1.538-2.895 1.719-4.072.905-5.338-.905-1.448-.272-1.991 5.338-4.796 3.438-1.719 6.695-3.166 7.148-3.166.452 0 1.538 1.086 2.352 2.443 1.538 2.262 1.538 2.714.09 8.323-1.176 4.343-2.442 6.877-4.885 9.319l-3.257 3.438.995 4.705c1.809 8.776 3.981 15.2 5.157 15.2.633 0 3.257-1.9 5.881-4.071 2.624-2.262 4.795-4.072 4.886-4.072.09 0 3.257.815 6.966 1.81 3.71.995 8.867 1.809 11.31 1.809 4.342.091 4.704.272 9.047 5.157l4.524 5.067-6.333 5.791-6.243 5.79 1.448 3.981c1.447 3.89 1.447 3.89-1.267 7.6-1.448 1.99-2.895 3.709-3.076 3.709-.272 0-2.353-.995-4.796-2.261-7.871-3.981-13.842-5.972-15.109-4.886-.633.452-2.805 3.709-4.795 7.147-3.71 6.153-3.8 6.243-7.962 6.515l-4.343.271-1.176 5.61c-.995 4.433-1.629 5.7-2.895 5.7-1.991 0-3.257 1.447-4.072 4.704-.724 2.896-2.081 4.072-2.624 2.353Z" fill="#C9E5FF"/><path d="M255.692 274.688c-.181-.452-1.358-3.89-2.443-7.781-1.267-4.343-2.624-7.147-3.529-7.328-.814-.272-3.8-.905-6.695-1.448l-5.248-1.085.272-5.067.271-4.976 4.072-1.177c3.438-1.085 4.342-.995 6.061.091 1.086.724 2.624 1.357 3.258 1.357.904 0 1.538 1.629 1.9 5.429.723 6.333 1.538 6.604 6.876 2.804l3.619-2.623 7.419 1.719c4.071.995 7.6 1.9 7.69 2.081.181.09.905 3.619 1.629 7.78 1.176 6.696 1.176 7.781 0 8.958-1.176 1.176-1.629 1.085-3.891-.634-1.447-.995-3.166-1.99-3.89-2.171-1.086-.181-11.038 2.533-15.652 4.343-.634.271-1.448.09-1.719-.272Z" fill="#C9E5FF"/><path d="M205.297 269.169c-1.447-2.895-2.352-6.424-2.714-11.038l-.452-6.695-5.519-1.629c-5.519-1.628-9.229-4.885-8.234-7.419.272-.542 6.243-3.619 13.3-6.876 10.043-4.614 13.119-6.424 14.114-8.414 1.539-2.805 1.358-2.805 5.881-1.448 3.167.905 3.619.815 6.062-1.176 2.262-1.9 3.981-2.352 10.314-2.805 4.253-.271 8.505-.995 9.591-1.719 1.809-1.085 2.443-.904 6.152 1.086 2.262 1.267 7.329 4.886 11.31 8.052 7.057 5.519 7.147 5.791 5.609 7.51-1.538 1.628-4.705 1.719-8.776.181-.724-.272-3.167 1.538-5.519 4.071l-4.252 4.524-2.443-1.809c-2.262-1.72-2.533-1.72-8.233-.181l-5.881 1.628-.272 6.153c-.271 5.88-.362 6.152-2.895 7.057-2.533.904-2.714 1.266-2.714 5.7 0 4.161-.272 4.885-2.353 5.971-2.081 1.176-2.443 1.086-3.528-.271-1.448-2.081-2.081-1.991-8.776 1.176-3.077 1.447-6.153 2.714-6.605 2.714-.543 0-1.991-1.99-3.167-4.343Z" fill="#C9E5FF"/><path d="M155 173.25a12.39 12.39 0 0 0-12.375 12.375c0 10.589 11.25 18.586 11.73 18.921a1.12 1.12 0 0 0 1.29 0c.48-.335 11.73-8.332 11.73-18.921A12.39 12.39 0 0 0 155 173.25Zm0 7.875a4.503 4.503 0 0 1 4.157 2.778 4.502 4.502 0 0 1-.975 4.904 4.502 4.502 0 0 1-6.364-6.364 4.5 4.5 0 0 1 3.182-1.318ZM194 197.25a12.39 12.39 0 0 0-12.375 12.375c0 10.589 11.25 18.586 11.73 18.921a1.12 1.12 0 0 0 1.29 0c.48-.335 11.73-8.332 11.73-18.921A12.39 12.39 0 0 0 194 197.25Zm0 7.875a4.503 4.503 0 0 1 4.157 2.778 4.502 4.502 0 0 1-.975 4.904 4.502 4.502 0 0 1-6.364-6.364 4.5 4.5 0 0 1 3.182-1.318ZM182 165.25a12.39 12.39 0 0 0-12.375 12.375c0 10.589 11.25 18.586 11.73 18.921a1.12 1.12 0 0 0 1.29 0c.48-.335 11.73-8.332 11.73-18.921A12.39 12.39 0 0 0 182 165.25Zm0 7.875a4.503 4.503 0 0 1 4.157 2.778 4.502 4.502 0 0 1-.975 4.904 4.502 4.502 0 0 1-6.364-6.364 4.5 4.5 0 0 1 3.182-1.318ZM220 237.25a12.39 12.39 0 0 0-12.375 12.375c0 10.589 11.25 18.586 11.73 18.921a1.12 1.12 0 0 0 1.29 0c.48-.335 11.73-8.332 11.73-18.921A12.39 12.39 0 0 0 220 237.25Zm0 7.875a4.503 4.503 0 0 1 4.157 2.778 4.502 4.502 0 0 1-.975 4.904 4.502 4.502 0 0 1-6.364-6.364 4.5 4.5 0 0 1 3.182-1.318Z" fill="#349FEC"/><path d="M224 206.25a12.39 12.39 0 0 0-12.375 12.375c0 10.589 11.25 18.586 11.73 18.921a1.12 1.12 0 0 0 1.29 0c.48-.335 11.73-8.332 11.73-18.921A12.39 12.39 0 0 0 224 206.25Zm0 7.875a4.503 4.503 0 0 1 4.157 2.778 4.502 4.502 0 0 1-.975 4.904 4.502 4.502 0 0 1-6.364-6.364 4.5 4.5 0 0 1 3.182-1.318ZM188 232.25a12.39 12.39 0 0 0-12.375 12.375c0 10.589 11.25 18.586 11.73 18.921a1.12 1.12 0 0 0 1.29 0c.48-.335 11.73-8.332 11.73-18.921A12.39 12.39 0 0 0 188 232.25Zm0 7.875a4.503 4.503 0 0 1 4.157 2.778 4.502 4.502 0 0 1-.975 4.904 4.502 4.502 0 0 1-6.364-6.364 4.5 4.5 0 0 1 3.182-1.318ZM244 185.25a12.39 12.39 0 0 0-12.375 12.375c0 10.589 11.25 18.586 11.73 18.921a1.12 1.12 0 0 0 1.29 0c.48-.335 11.73-8.332 11.73-18.921A12.39 12.39 0 0 0 244 185.25Zm0 7.875a4.503 4.503 0 0 1 4.157 2.778 4.502 4.502 0 0 1-.975 4.904 4.502 4.502 0 0 1-6.364-6.364 4.5 4.5 0 0 1 3.182-1.318ZM294 200.25a12.39 12.39 0 0 0-12.375 12.375c0 10.589 11.25 18.586 11.73 18.921a1.12 1.12 0 0 0 1.29 0c.48-.335 11.73-8.332 11.73-18.921A12.39 12.39 0 0 0 294 200.25Zm0 7.875a4.503 4.503 0 0 1 4.157 2.778 4.502 4.502 0 0 1-.975 4.904 4.502 4.502 0 0 1-6.364-6.364 4.5 4.5 0 0 1 3.182-1.318ZM251 319.25a12.39 12.39 0 0 0-12.375 12.375c0 10.589 11.25 18.586 11.73 18.921a1.12 1.12 0 0 0 1.29 0c.48-.335 11.73-8.332 11.73-18.921A12.39 12.39 0 0 0 251 319.25Zm0 7.875a4.503 4.503 0 0 1 4.157 2.778 4.502 4.502 0 0 1-.975 4.904 4.502 4.502 0 0 1-6.364-6.364 4.5 4.5 0 0 1 3.182-1.318ZM228 301.25a12.39 12.39 0 0 0-12.375 12.375c0 10.589 11.25 18.586 11.73 18.921a1.12 1.12 0 0 0 1.29 0c.48-.335 11.73-8.332 11.73-18.921A12.39 12.39 0 0 0 228 301.25Zm0 7.875a4.503 4.503 0 0 1 4.157 2.778 4.502 4.502 0 0 1-.975 4.904 4.502 4.502 0 0 1-6.364-6.364 4.5 4.5 0 0 1 3.182-1.318Z" fill="#349FEC"/></svg>