<svg width="647" height="552" viewBox="0 0 647 552" fill="none" xmlns="http://www.w3.org/2000/svg">
<path d="M85.8672 299.207C85.2339 298.483 84.2387 293.417 83.6958 287.988C83.153 282.469 82.2482 277.674 81.7958 277.222C81.253 276.769 78.9006 275.683 76.5482 274.779C72.9292 273.512 71.5721 272.245 68.9483 268.174C65.9626 263.469 65.8721 263.017 66.8673 259.669C67.4102 257.769 68.4054 255.96 69.0387 255.779C70.8483 255.055 77.453 257.86 81.9768 261.207C84.7815 263.379 87.1339 264.464 89.1243 264.464C91.5672 264.464 92.6529 265.188 95.2767 268.355C98.2624 271.974 98.5338 272.788 98.5338 278.126C98.4434 286.812 97.3576 290.25 93.0148 295.136C88.3101 300.383 87.2244 300.926 85.8672 299.207Z" fill="#C9E5FF"/>
<path d="M77.0031 224.745C76.0079 224.112 76.0079 223.298 76.9126 220.312C78.5412 214.612 77.8174 213.798 71.1222 213.798H65.3317L64.6984 209.184C64.1556 205.112 63.7937 204.479 60.9889 203.122C59.2699 202.307 57.8223 201.131 57.8223 200.407C57.8223 198.869 64.8794 188.465 65.9651 188.465C66.4175 188.465 67.0508 189.279 67.3222 190.184C68.227 192.988 80.3507 195.793 82.7936 193.803C83.6078 193.079 87.6793 192.355 92.2935 192.084C99.7125 191.631 100.255 191.722 100.708 193.441C101.703 197.06 101.16 199.684 98.8982 202.76C96.003 206.379 94.3745 213.436 95.9125 215.246C96.7268 216.241 96.5459 216.512 95.0983 216.512C94.0126 216.512 91.7507 218.322 89.4888 221.036C86.0507 225.107 85.3269 225.56 81.9793 225.56C79.8983 225.469 77.6364 225.198 77.0031 224.745Z" fill="#C9E5FF"/>
<path d="M256.508 218.593L250.265 214.431L246.918 216.422C241.942 219.226 237.146 218.864 231.627 215.336C227.827 212.893 227.104 212.079 227.375 210.179C227.646 208.55 226.651 206.831 222.942 203.031C218.327 198.236 218.056 198.055 215.885 199.231C213.532 200.407 208.828 200.045 206.294 198.507C204.394 197.241 209.823 192.717 217.966 188.555C221.675 186.565 226.018 184.393 227.466 183.579C229.366 182.584 232.532 182.131 237.689 182.131C247.008 182.131 251.17 183.941 255.332 190.003C261.484 198.869 263.475 200.498 271.256 202.85C278.132 204.841 278.675 204.931 280.213 203.484C282.294 201.674 286.727 201.493 286.727 203.212C286.727 203.936 286.094 205.022 285.37 205.655C284.465 206.379 284.013 208.369 284.013 211.536V216.331L278.946 215.879C274.694 215.517 273.337 215.788 270.532 217.598C261.846 223.388 263.384 223.298 256.508 218.593Z" fill="#C9E5FF"/>
<path d="M101.885 214.884C97.633 213.436 97.452 213.255 97.9044 210.541C98.1758 208.912 99.6234 205.927 101.162 203.846C103.695 200.317 103.876 199.593 103.423 194.798C102.881 190.365 103.062 189.551 104.419 189.008C105.504 188.555 106.862 189.098 108.49 190.636C110.752 192.898 111.204 192.989 119.438 192.446C124.142 192.174 128.938 191.812 130.204 191.632C132.014 191.36 132.828 191.903 134.004 193.893C134.909 195.431 136.176 196.608 136.899 196.608C138.89 196.608 141.061 200.227 141.061 203.665C141.061 205.927 140.338 207.374 138.257 209.365C135.09 212.35 133.099 212.531 127.309 210.541L123.147 209.093L117.266 212.803C110.933 216.874 108.761 217.146 101.885 214.884Z" fill="#C9E5FF"/>
<path d="M206.382 221.579C199.506 212.803 194.892 208.369 192.901 208.369C191.906 208.369 190.549 207.736 189.916 207.012C189.011 205.836 189.101 205.293 190.459 203.755C191.816 202.217 191.906 201.584 191.001 200.136C189.373 197.512 190.368 196.608 194.801 196.608C197.425 196.608 199.506 197.241 201.678 198.779C205.659 201.765 213.711 203.665 215.701 202.036C216.878 201.041 217.42 201.131 219.049 202.579C223.573 206.469 225.111 208.731 224.568 211.174C224.206 213.255 224.658 213.888 227.825 215.608C231.987 217.96 232.53 219.227 229.544 219.227C228.458 219.227 226.649 220.041 225.563 221.127C223.935 222.574 223.211 222.755 221.763 222.031C218.325 220.131 215.43 220.765 213.892 223.66C213.168 225.107 212.173 226.555 211.72 226.827C211.268 227.098 208.825 224.746 206.382 221.579Z" fill="#C9E5FF"/>
<path d="M96.9069 266.364C94.645 263.56 93.1974 262.655 90.2117 262.202C87.8594 261.75 84.5118 260.212 81.7975 258.131C79.3546 256.322 75.5547 254.331 73.4737 253.698C70.3071 252.793 69.5833 252.16 69.5833 250.531C69.5833 249.355 68.769 246.098 67.7738 243.203C65.4214 236.326 65.4214 236.055 69.1309 234.336C70.8499 233.522 72.9309 231.531 73.6547 229.993C75.1023 227.188 75.3737 227.098 79.807 227.55C84.1499 228.003 84.7832 228.455 89.307 233.341C96.0022 240.76 96.6355 241.755 97.7212 247.545C98.5355 251.979 99.2593 253.336 103.602 257.588C106.316 260.302 108.488 262.926 108.488 263.379C108.488 263.831 107.402 264.917 106.045 265.821C99.1688 270.255 99.9831 270.164 96.9069 266.364Z" fill="#C9E5FF"/>
<path d="M127.309 277.945C125.047 276.769 123.69 275.231 122.966 273.06C122.423 271.341 121.428 269.531 120.885 269.169C120.252 268.807 119.075 267.45 118.261 266.093C117.356 264.736 115.456 263.469 113.918 263.107C112.38 262.745 110.028 261.026 108.49 259.126L105.775 255.869L108.942 255.598C111.656 255.326 112.742 254.512 115.909 250.169C117.899 247.274 119.89 244.65 120.342 244.198C120.704 243.746 122.061 244.56 123.237 245.917L125.409 248.45L129.39 246.822C131.561 246.007 133.823 245.103 134.366 244.831C135.27 244.469 144.68 255.779 144.68 257.136C144.68 257.407 142.418 259.307 139.704 261.298L134.728 264.917L134.909 271.612C135.18 278.126 135.09 278.398 132.828 278.941C131.38 279.393 129.39 279.031 127.309 277.945Z" fill="#C9E5FF"/>
<path d="M152.461 205.293C152.189 204.208 151.918 202.036 151.918 200.498C151.918 197.784 152.189 197.603 155.899 196.97C161.056 196.246 161.87 196.789 161.87 201.131C161.87 205.112 161.689 205.203 156.713 206.379C153.275 207.103 152.913 207.012 152.461 205.293Z" fill="#C9E5FF"/>
<path d="M147.028 229.45C146.847 229.179 147.209 227.731 147.843 226.193C148.928 223.569 148.747 222.846 145.852 216.512C143.228 210.722 142.776 209.093 143.319 205.474C143.952 200.498 141.69 194.798 139.157 194.798C138.343 194.798 136.714 193.351 135.628 191.632L133.729 188.465L136.714 183.036C139.157 178.603 140.243 177.427 142.867 176.703C148.024 175.255 149.833 175.617 152.186 178.603C154.176 181.136 155.352 181.589 163.224 183.127C174.533 185.298 180.776 189.732 174.533 191.179C172.904 191.541 172 192.989 170.371 197.874C168.471 203.303 168.381 204.57 169.285 207.646C169.828 209.546 171.457 212.17 172.905 213.346C175.89 215.789 175.981 216.603 173.719 221.489C172.09 225.108 171.909 225.198 165.395 226.374C161.686 227.008 156.166 228.093 153.09 228.727C150.014 229.36 147.3 229.631 147.028 229.45ZM158.247 208.46L164.128 206.832L164.4 201.946C164.762 194.798 163.766 193.893 155.986 194.617L149.652 195.251L149.924 201.584C150.195 208.279 150.557 210.179 151.643 210.179C152.095 210.179 154.99 209.365 158.247 208.46Z" fill="#C9E5FF"/>
<path d="M101.616 251.617C101.163 250.984 100.349 247.998 99.7155 245.103C98.8107 240.669 97.8155 239.041 93.1108 233.974C89.9441 230.536 87.8632 227.731 88.3156 227.098C90.6679 222.846 94.287 219.317 95.5536 219.86C96.3679 220.131 97.4536 219.769 98.1774 218.774C99.2631 217.327 99.8965 217.327 105.687 218.412L112.02 219.589L112.563 224.022C113.015 227.008 114.101 229.36 115.82 231.35C119.801 235.874 119.53 240.941 115.006 247.274C111.749 252.069 111.477 252.25 106.954 252.522C103.877 252.703 102.068 252.341 101.616 251.617Z" fill="#C9E5FF"/>
<path d="M169.197 261.479C166.392 258.674 166.301 258.674 162.14 259.76C159.154 260.574 157.706 260.664 157.525 259.941C156.802 257.86 154.359 256.322 151.644 256.322C147.935 256.231 147.483 255.96 142.506 249.536C137.983 243.655 137.711 243.112 139.702 242.388C140.425 242.117 142.054 239.855 143.321 237.322C144.768 234.426 146.306 232.617 147.663 232.346C152.459 231.169 168.835 228.274 170.554 228.274C172.454 228.274 179.782 236.688 184.849 244.741L187.473 249.084L180.778 256.141C177.068 260.122 173.63 263.469 172.997 263.831C172.454 264.103 170.735 263.017 169.197 261.479Z" fill="#C9E5FF"/>
<path d="M84.6933 189.188C81.979 187.65 82.7028 177.698 86.2314 166.841C89.1266 158.155 89.7599 156.979 94.7361 152.003C100.074 146.665 100.165 146.665 103.241 147.75C105.774 148.655 107.403 150.465 111.565 157.341L116.812 165.845H123.507H130.203L133.822 170.46C135.812 172.993 137.441 175.345 137.441 175.798C137.441 176.793 132.103 186.745 130.745 188.193C130.022 188.917 126.131 189.641 120.522 189.912L111.384 190.545L109.122 187.921L106.86 185.298L102.517 187.288C97.7218 189.369 87.0457 190.545 84.6933 189.188Z" fill="#C9E5FF"/>
<path d="M142.324 295.859C135.629 288.621 134.09 286.631 133.457 284.097C133.005 282.016 133.186 281.564 135.267 281.112C137.529 280.478 137.529 280.388 137.348 273.421C137.167 269.531 137.257 266.183 137.529 266.002C144.043 260.664 147.119 259.036 150.286 259.036C153.09 259.036 153.995 259.398 154.809 261.298C155.986 263.831 156.076 263.921 161.505 262.474C165.305 261.569 165.847 261.659 167.566 263.469L169.557 265.459L167.024 267.269L164.49 269.169L165.124 279.845L165.757 290.521L156.619 295.135C151.552 297.669 147.119 299.75 146.667 299.75C146.305 299.75 144.314 298.031 142.324 295.859Z" fill="#C9E5FF"/>
<path d="M175.349 184.484C173.63 182.946 170.554 181.951 164.402 180.865C156.53 179.417 155.716 179.055 153.364 176.07C150.921 172.993 150.65 172.903 146.759 173.536C144.497 173.808 142.145 174.26 141.602 174.532C140.969 174.712 138.616 172.451 136.264 169.465L132.012 164.036H125.95C122.512 163.946 119.345 163.674 118.802 163.313C117.445 162.408 109.393 149.379 109.393 148.113C109.393 147.479 110.659 146.484 112.107 145.941C115.454 144.494 116.178 143.227 117.083 137.346C118.169 129.656 120.431 127.575 123.145 131.646C124.14 133.184 126.583 134.089 133.459 135.536C138.345 136.622 143.683 138.07 145.311 138.703C147.845 139.789 148.75 139.698 154.269 137.346L160.33 134.722L165.578 140.332C170.102 145.217 171.097 145.851 172.635 145.036C175.349 143.589 176.887 143.86 181.502 146.846C184.668 148.836 186.84 149.56 190.006 149.56C193.716 149.56 194.349 149.832 194.802 151.732C195.616 154.989 193.987 158.246 189.192 162.951C183.854 168.108 180.687 175.617 182.587 178.603C183.583 180.231 183.402 180.865 181.321 183.489C180.054 185.208 178.697 186.655 178.335 186.565C177.973 186.565 176.616 185.66 175.349 184.484Z" fill="#C9E5FF"/>
<path d="M124.05 242.66C123.235 241.212 122.24 240.036 121.878 240.036C121.426 240.036 121.154 238.588 121.154 236.869C121.154 234.607 120.34 232.798 118.35 230.536C115.907 227.731 115.454 226.555 115.364 222.122L115.273 217.055L119.345 214.522L123.416 211.988L128.754 213.527C134.002 214.974 134.183 214.974 137.44 213.074L140.878 211.084L143.411 216.784C146.307 223.298 146.307 223.479 144.497 228.003C139.159 240.941 139.43 240.579 130.745 243.565L125.588 245.374L124.05 242.66Z" fill="#C9E5FF"/>
<path d="M180.417 234.427C173.722 226.012 173.994 227.098 176.708 221.036L179.06 215.608L175.803 212.622C171.098 208.369 170.556 206.289 172.365 199.593C173.179 196.427 174.175 193.893 174.446 193.893C174.717 193.893 176.165 195.341 177.613 197.151C180.055 200.227 180.417 200.317 184.036 199.774C188.651 199.141 190.008 200.317 187.565 203.031C186.027 204.66 186.027 205.022 187.294 207.284C188.017 208.641 190.008 210.179 191.636 210.722C195.708 211.989 209.279 227.279 207.741 228.817C206.836 229.722 186.027 239.131 185.032 239.041C184.489 239.041 182.408 236.96 180.417 234.427Z" fill="#C9E5FF"/>
<path d="M99.4424 315.131C97.1805 313.683 95.0091 312.507 94.4663 312.416C93.7425 312.416 90.2139 307.259 88.7663 304.183C88.6758 303.821 90.9377 300.926 93.9234 297.669C99.8043 291.155 101.252 287.083 101.252 277.221V271.974L106.319 268.536C112.019 264.736 115.185 264.736 116.633 268.536C117.085 269.802 117.899 270.798 118.442 270.798C118.985 270.798 120.161 272.607 121.157 274.779C122.423 277.764 123.69 279.212 125.952 280.117C129.209 281.474 132.014 284.64 132.014 286.993C132.014 287.807 134.909 291.426 138.347 295.226C144.047 301.378 144.68 302.374 144.68 305.812C144.68 310.516 143.233 310.878 138.528 307.259C135.633 305.088 134.999 304.907 128.666 305.45C124.957 305.721 121.699 306.174 121.428 306.355C121.157 306.626 120.704 308.255 120.342 309.883C119.799 312.507 119.076 313.14 114.461 314.95C106.409 318.116 104.147 318.207 99.4424 315.131Z" fill="#C9E5FF"/>
<path d="M179.602 195.703C177.611 193.532 178.245 191.089 182.225 186.203C186.297 181.046 186.478 180.594 185.302 178.332C183.583 175.165 185.935 169.646 191.364 164.218C197.425 158.246 199.416 158.156 204.211 163.313L207.83 167.113L210.363 165.394C212.625 163.856 212.897 163.856 213.982 165.303C215.068 166.841 217.059 178.241 217.059 183.398C217.059 185.751 216.606 186.565 214.978 186.927C213.892 187.198 210.816 189.37 208.102 191.632C204.302 194.889 202.763 195.703 201.316 195.16C198.059 194.075 187.111 194.798 185.664 196.155C183.854 197.965 181.411 197.784 179.602 195.703Z" fill="#C9E5FF"/>
<path d="M17.9207 405.787C17.2874 404.43 16.5635 402.982 16.3826 402.62C16.2016 402.258 17.0159 401.987 18.1921 401.987C19.3683 401.897 20.9064 401.535 21.6302 401.082C22.7159 400.358 22.8064 399.906 21.9016 398.368C20.0016 395.382 20.5445 394.206 24.254 392.487C27.6921 390.949 30.3159 387.33 29.3206 385.611C28.9587 385.159 27.4206 384.797 25.7016 384.797C22.2635 384.797 18.3731 381.449 17.4683 377.74C16.654 374.573 17.6493 374.301 20.7254 376.925C22.8064 378.644 24.6159 379.368 27.1492 379.368C30.4063 379.368 30.8587 379.64 32.1254 382.535C33.9349 386.878 34.8396 396.739 33.573 398.911C32.6682 400.449 32.4873 400.358 31.5825 397.644C30.9492 396.016 30.0444 394.749 29.4111 394.749C28.8682 394.749 26.6063 397.735 24.3445 401.535C22.173 405.244 20.0921 408.32 19.7302 408.32C19.4588 408.32 18.6445 407.144 17.9207 405.787Z" fill="#C9E5FF"/>
<path d="M136.99 443.063C131.018 442.43 125.409 442.068 124.594 442.339C123.69 442.611 122.423 442.43 121.609 441.977C120.523 441.344 120.975 440.53 124.232 437.273L128.304 433.382L126.494 429.854C124.504 425.873 124.232 426.144 132.194 424.606C135.09 423.973 137.623 423.249 137.804 422.887C137.985 422.616 137.804 420.263 137.351 417.82C136.537 413.658 136.718 413.206 139.704 408.773C141.423 406.239 142.87 403.887 142.87 403.525C142.87 403.163 140.79 402.892 138.256 402.892H133.551L134.185 395.654C134.547 391.04 134.366 387.059 133.642 384.435C133.099 382.173 132.828 380.002 133.19 379.64C133.642 379.278 137.08 379.006 140.88 379.097C146.851 379.187 148.028 379.549 149.385 381.178C151.375 383.621 151.466 385.34 149.656 387.149C148.209 388.597 148.028 391.401 149.113 394.297C149.566 395.382 149.204 397.916 148.209 400.901C146.218 406.692 146.58 407.597 152.28 411.849C154.542 413.568 156.623 415.558 156.804 416.373C157.075 417.187 157.528 421.439 157.799 425.963L158.432 434.196L154.632 435.735C150.832 437.182 150.742 437.182 151.375 440.801C152.009 445.054 153.366 444.873 136.99 443.063Z" fill="#C9E5FF"/>
<path d="M64.8786 478.529C64.0644 476.901 63.7025 475.091 63.9739 474.639C64.3358 474.096 69.0405 470.839 74.5595 467.31C84.3309 460.977 84.5119 460.887 86.1404 462.606C87.0452 463.601 88.5833 464.415 89.488 464.415C92.6547 464.415 91.6595 467.853 88.1309 469.572C85.6881 470.749 84.6928 471.925 83.6071 475.272L82.1595 479.525L75.6452 480.158C72.1167 480.52 68.4977 480.972 67.6834 481.153C66.7786 481.425 65.7834 480.52 64.8786 478.529Z" fill="#C9E5FF"/>
<path d="M74.647 519.334C74.3756 518.248 74.1042 514.448 74.1042 511.01C74.1042 505.039 73.9232 504.496 69.4899 497.801C65.4185 491.558 65.0566 490.472 65.5994 487.487C66.3232 483.415 68.3137 482.51 76.8184 482.51C83.6041 482.51 83.6946 482.42 85.866 476.63C86.6803 474.639 88.1279 472.558 89.2136 472.015C93.1945 470.115 94.0993 468.668 93.8279 465.411C93.6469 462.606 93.1945 462.063 91.1136 461.882C88.6707 461.52 87.4041 460.163 83.3327 453.377L81.3422 450.12L89.1231 445.868L96.904 441.525L101.79 446.411C107.128 451.658 107.49 452.382 105.137 453.287C100.704 454.825 100.342 455.911 100.975 466.225C101.609 477.082 101.699 476.63 94.8231 485.677L91.385 490.291L91.1136 504.677L90.8422 519.153L86.3184 520.148C83.8755 520.782 80.347 521.234 78.5375 521.325C75.8232 521.415 75.0994 521.053 74.647 519.334Z" fill="#C9E5FF"/>
<path d="M60.8972 471.201C60.5353 470.296 61.0781 468.849 62.3448 467.582C64.1543 465.682 64.3352 464.777 63.7924 460.344L63.1591 455.368H69.8543C77.9971 455.368 81.978 456.092 82.6113 457.63C82.9733 458.625 79.2637 461.249 63.521 471.473C61.7114 472.558 61.44 472.558 60.8972 471.201Z" fill="#C9E5FF"/>
<path d="M41.1734 447.858C40.2686 444.782 38.821 441.344 37.7353 440.258L35.9258 438.268L40.4496 436.006L44.9734 433.654L49.859 436.368C52.4828 437.816 57.3685 440.439 60.7161 442.249L66.778 445.416L64.9685 448.492C63.159 451.477 63.159 451.568 57.9114 451.025C54.2924 450.754 51.2162 451.025 48.2305 452.02C45.8781 452.835 43.7067 453.558 43.3448 453.558C42.9829 453.558 42.0781 451.025 41.1734 447.858Z" fill="#C9E5FF"/>
<path d="M104.596 446.049C100.162 441.978 99.0765 440.259 97.5385 435.463C96.5432 432.297 94.3718 426.687 92.6528 422.978C90.9337 419.268 89.2147 414.564 88.9433 412.483C88.3099 408.592 83.0623 398.278 80.2576 395.473C79.3528 394.478 77.3624 393.845 75.5529 393.845C73.0195 393.845 72.3862 393.483 72.1148 391.764C71.9338 390.135 71.391 389.773 69.0386 390.045C67.41 390.135 65.7815 389.683 65.2386 388.959C64.3339 387.964 64.9672 387.602 68.8576 387.059C71.4814 386.697 74.3767 385.792 75.1909 385.068C76.5481 383.802 76.91 384.073 79.0814 387.511C80.4385 389.592 81.9766 392.578 82.61 394.207C84.6909 399.816 85.4147 400.449 90.5718 400.811C95.4575 401.264 95.548 401.173 96.7242 398.368C97.9004 395.564 97.9908 395.473 102.153 396.106L106.496 396.649L109.843 391.221C111.653 388.145 112.919 385.249 112.557 384.797C112.286 384.254 110.386 383.892 108.396 383.892C105.41 383.892 104.777 383.621 105.048 382.264C105.319 380.997 106.496 380.635 112.105 380.454C117.353 380.183 119.343 379.73 120.791 378.373C122.872 376.383 123.867 376.835 123.867 379.73C123.867 382.626 125.586 383.983 127.757 382.807C130.834 381.178 131.557 383.259 131.557 394.116V404.249L134.995 404.521C136.805 404.702 138.343 405.154 138.343 405.606C138.343 406.059 137.348 407.868 136.081 409.678C134.633 411.94 134.091 413.749 134.362 415.378C135.538 421.349 135.629 421.349 129.295 422.525C126.129 423.249 123.053 424.154 122.6 424.606C122.057 425.059 122.419 426.868 123.415 429.13L125.134 432.84L120.791 437.002C116.448 441.254 116.448 441.254 118.348 442.792C120.881 444.873 120.791 445.506 117.353 447.859C111.743 451.568 110.386 451.297 104.596 446.049Z" fill="#C9E5FF"/>
<path d="M32.2176 435.373C30.1367 433.744 19.3701 416.644 20.0034 416.011C20.1843 415.83 22.3558 414.745 24.7986 413.749L29.2319 411.849L32.0367 415.197L34.9319 418.545L37.9176 417.006C41.989 415.016 42.7128 415.106 44.4318 418.092C45.8795 420.445 45.8795 420.625 44.4318 421.53C42.9842 422.435 42.9842 422.797 44.4318 426.597L45.8795 430.759L43.1652 431.844C41.7176 432.478 39.0938 433.925 37.4652 435.102C34.4795 437.092 34.389 437.092 32.2176 435.373Z" fill="#C9E5FF"/>
<path d="M32.9399 412.392C31.5828 410.673 30.0447 409.225 29.4114 409.225C28.8685 409.225 26.0638 410.401 23.259 411.759C20.3638 413.116 17.74 414.02 17.3781 413.659C17.0162 413.297 15.2067 412.573 13.3972 412.03C9.50673 410.763 8.96388 408.954 8.96388 396.378C8.96388 389.954 8.5115 387.149 6.15913 380.544C2.5401 370.23 1.00202 364.711 0.27821 359.283C-0.264644 355.392 -0.0836928 354.94 1.45439 354.94C2.35915 354.94 3.89724 356.116 4.71152 357.654C6.79246 361.092 8.1496 361.002 13.1258 357.473C16.8353 354.759 17.3781 354.668 22.8971 355.211C29.7733 355.845 30.4971 355.302 30.859 348.968C31.1304 344.083 30.859 344.264 38.5494 345.44C41.1732 345.892 41.4447 346.164 40.9923 348.426C40.2685 351.864 42.6208 354.216 45.5161 353.13C47.2351 352.497 48.0494 352.768 49.4065 354.307C53.5684 359.102 53.5684 359.102 51.9398 363.987L50.4018 368.511L53.7494 373.487C56.3732 377.378 57.0065 379.187 56.7351 381.811C56.4636 385.159 56.3732 385.249 52.6636 385.249C49.2256 385.249 48.5922 385.611 46.5113 388.597C43.8875 392.487 43.797 393.482 45.697 398.368C47.1446 401.806 47.0542 401.987 45.2446 403.525C44.2494 404.43 42.8018 406.782 42.1685 408.773C41.3542 411.035 39.9066 412.935 38.0971 414.02L35.3828 415.649L32.9399 412.392ZM25.2495 404.882L29.14 398.821L30.4066 401.716C32.0352 405.697 33.7542 405.425 35.5637 400.811C36.7399 397.554 36.8304 395.744 36.1971 390.135C34.7495 379.006 33.0304 376.654 26.3352 376.654C25.0686 376.654 22.8971 375.568 21.4495 374.211C19.2781 372.13 18.6448 371.949 16.6543 372.854C13.5781 374.302 13.7591 377.921 17.1972 382.535C19.0972 384.978 20.8162 386.244 22.7162 386.606C27.059 387.24 26.6971 388.868 21.54 390.949C16.8353 392.94 16.6543 393.302 18.3734 397.554C18.9162 398.64 18.3734 399.092 16.2924 399.544C14.5734 399.906 13.4877 400.63 13.4877 401.535C13.4877 404.068 18.1019 411.035 19.821 411.035C20.8162 411.035 22.8971 408.773 25.2495 404.882Z" fill="#C9E5FF"/>
<path d="M52.3934 465.41C46.422 463.872 45.5173 462.967 43.8887 457.539C43.4363 455.82 43.8887 455.458 48.0506 454.463C50.6744 453.92 54.6553 453.558 56.9172 453.648L60.9886 454.01L61.26 459.258C61.5315 464.053 60.5362 467.31 58.8172 467.039C58.5458 466.948 55.6506 466.225 52.3934 465.41Z" fill="#C9E5FF"/>
<path d="M68.0471 452.744C65.5137 452.473 65.5137 452.02 67.7756 448.582C70.2185 444.782 70.128 444.149 66.2375 442.339C64.3376 441.434 59.5424 438.901 55.4709 436.639C48.6853 432.749 48.1424 432.206 47.3281 428.496C46.5138 425.058 46.6043 424.606 47.9615 424.606C50.8567 424.606 50.6757 422.887 47.5091 418.092C45.6996 415.468 44.252 412.573 44.252 411.668C44.252 409.406 45.8805 406.33 48.0519 404.611C49.8614 403.163 49.8614 403.073 48.3234 398.097C46.7853 393.301 46.7853 392.939 48.2329 390.678C49.3186 389.049 50.4043 388.416 52.2138 388.506C53.571 388.597 55.6519 388.235 56.8281 387.601C58.7281 386.516 59.2709 386.697 62.709 390.135C65.4233 392.759 67.0518 393.663 68.1375 393.301C69.2233 392.849 69.8566 393.211 70.2185 394.568C70.5804 396.197 71.3947 396.558 74.4708 396.558C77.9994 396.558 78.3613 396.739 81.7089 402.078C84.0613 405.606 85.6898 409.587 86.4136 413.116C86.9565 416.192 88.947 421.62 90.666 425.149C94.8279 433.563 96.185 438.268 94.6469 439.625C94.1041 440.168 90.7565 442.158 87.2279 444.058C79.0851 448.401 78.4518 448.944 78.9946 451.206C79.447 452.925 79.0851 453.106 74.7423 453.106C72.1185 453.106 69.1328 452.925 68.0471 452.744Z" fill="#C9E5FF"/>
<path d="M89.9388 398.549C86.5912 398.097 84.9626 396.83 84.9626 394.568C84.9626 392.216 78.8103 381.178 77.1817 380.545C76.4579 380.273 75.0103 381.087 74.0151 382.444C72.2056 384.706 71.6627 384.797 66.1437 384.616L60.0818 384.344L59.6294 380.725C59.358 378.735 57.7295 375.116 56.1009 372.673L53.1152 368.24L54.6533 363.535L56.2818 358.74L52.9342 354.578C49.4057 350.326 48.9533 350.054 45.3343 350.326C43.7057 350.507 43.2533 350.145 43.5248 348.878C43.7962 347.521 44.7009 347.249 48.0486 347.249C50.4009 347.249 52.8438 346.707 53.4771 345.983C54.7438 344.716 53.5676 343.449 47.4152 338.926C44.7914 337.026 44.7914 336.935 46.42 335.126C47.6866 333.678 49.2247 333.226 52.12 333.226C55.6485 333.226 56.6437 333.769 61.6199 338.292L67.1389 343.449L69.9437 340.283C71.4818 338.564 74.196 335.126 75.9151 332.773C78.2674 329.516 79.9865 328.069 82.7008 327.345C88.4912 325.626 90.2102 324.359 91.2959 320.74C93.015 315.583 93.5578 315.402 98.715 318.659C102.696 321.102 103.963 321.464 106.677 321.011C113.463 319.654 113.282 319.564 114.729 325.807C116.267 332.14 116.358 331.959 109.843 336.483C108.034 337.749 108.034 337.75 110.115 341.64C112.196 345.53 112.196 345.621 110.658 348.878C109.12 352.045 108.848 352.226 104.686 352.226C100.163 352.226 94.915 354.216 94.915 355.845C94.915 356.387 95.5483 358.107 96.3626 359.554C97.5388 361.907 97.6292 363.083 96.815 366.34C95.4578 371.497 96.9959 376.925 100.344 379.368C102.244 380.725 102.696 381.63 102.334 383.802C101.972 386.516 102.063 386.606 105.772 386.606H109.482L107.401 390.316C105.32 394.025 105.32 394.025 101.067 393.483C96.9959 393.03 96.634 393.121 95.3674 395.654C93.7388 398.73 93.3769 398.911 89.9388 398.549Z" fill="#C9E5FF"/>
<path d="M152.459 380.816C151.102 377.649 149.474 377.016 140.607 376.382C137.621 376.111 128.936 377.649 127.759 378.644C126.583 379.64 126.312 379.187 125.317 374.573C124.593 371.316 123.507 371.497 120.159 375.297C117.445 378.282 117.083 378.463 111.202 378.463C102.969 378.463 100.798 377.468 99.4405 373.397C98.6262 370.863 98.6262 369.235 99.4405 366.249C100.345 362.992 100.255 361.906 98.9881 359.464C96.9071 355.392 97.9929 354.668 106.498 354.487C110.207 354.487 110.478 354.216 112.831 350.054L115.183 345.711L113.283 342.273L111.293 338.835L115.002 335.759L118.802 332.592L117.626 327.254C116.993 324.268 116.269 321.102 116.088 320.107C115.726 318.749 116.45 317.845 118.983 316.488C122.24 314.678 123.236 313.592 124.231 310.335C124.593 309.069 125.769 308.797 130.112 308.797C133.097 308.797 135.812 309.25 136.174 309.792C136.445 310.245 137.983 311.511 139.521 312.416C140.969 313.321 143.321 316.035 144.588 318.388C146.85 322.549 147.212 322.821 153.545 324.63C157.164 325.626 160.512 327.073 161.054 327.797C162.05 329.516 162.14 335.578 161.054 339.197C159.969 342.906 161.145 344.626 165.126 345.349C167.478 345.802 168.835 346.797 170.192 349.149C171.278 350.959 173.359 352.949 174.807 353.583C176.707 354.306 177.883 355.754 178.697 358.106C179.331 360.006 179.692 361.906 179.421 362.268C179.24 362.63 175.621 364.802 171.459 367.063C162.773 371.768 162.14 372.402 161.688 376.473C161.507 378.825 160.693 379.821 157.616 381.63L153.816 383.892L152.459 380.816Z" fill="#C9E5FF"/>
<path d="M320.197 185.751C318.93 185.298 316.759 184.936 315.402 184.936C313.773 184.846 312.054 183.941 310.969 182.493C309.34 180.503 308.707 180.232 305.631 180.774L302.102 181.317V177.789C302.102 174.984 301.74 174.079 300.383 173.717C299.388 173.446 297.759 171.546 296.764 169.555C294.864 165.846 293.054 165.032 290.431 166.66C289.797 167.022 288.169 167.113 286.812 166.751C284.912 166.298 284.369 165.484 284.007 162.589C283.645 159.694 283.193 159.06 281.745 159.241C280.75 159.422 278.126 159.784 275.864 160.055C271.974 160.598 271.612 160.417 269.35 157.432C267.812 155.441 264.464 153.179 260.121 151.098C254.874 148.565 253.155 147.298 252.702 145.489C252.34 144.132 251.345 142.956 249.988 142.684C247.455 142.051 236.055 130.198 236.055 128.208C236.055 127.484 237.05 124.408 238.317 121.513C239.583 118.527 240.578 115.541 240.578 114.727C240.578 114.003 242.207 112.556 244.107 111.56C247.274 110.022 247.817 109.208 248.631 105.137C249.174 102.513 250.621 99.2558 251.888 97.8082C253.969 95.2748 254.059 95.0939 252.793 90.932C250.531 83.513 250.983 81.1606 255.869 74.6464C257.769 72.2035 258.674 71.7512 261.931 71.7512C264.916 71.7512 265.821 72.1131 266.183 73.4702C266.545 75.0988 271.702 78.9892 273.331 78.9892C274.326 78.9892 280.388 73.4702 281.383 71.6607C281.926 70.575 281.835 68.675 281.112 66.0512C279.845 61.256 280.931 54.7417 283.283 53.2941C285.726 51.756 286.631 53.3846 287.535 61.6179L288.35 69.1274L294.14 75.1892C301.74 83.1511 303.188 83.332 305.631 76.5464C310.154 63.9702 311.783 62.7941 325.173 62.7941C336.845 62.8845 337.116 62.975 340.192 70.394C343.902 78.9892 344.806 79.8035 348.245 77.813L350.868 76.1845L357.292 88.3987L363.716 100.613L369.325 100.07C373.397 99.7082 375.387 99.9796 376.654 100.884C378.192 102.061 378.102 102.422 374.754 109.299L371.135 116.537L373.125 123.051C374.844 128.479 374.935 129.837 374.03 131.194C372.944 132.551 372.402 132.641 368.692 131.646C366.43 131.013 362.902 130.56 360.821 130.56C357.745 130.56 356.568 129.927 352.768 126.218C350.326 123.865 345.711 120.518 342.454 118.799C336.935 115.903 336.392 115.813 332.954 116.808C330.873 117.441 329.245 118.527 329.245 119.16C329.245 119.794 330.511 123.051 331.959 126.218C334.311 131.284 334.583 132.46 333.768 134.722C333.135 136.17 332.954 139.156 333.226 141.508C333.859 146.122 334.04 145.941 328.249 147.117C326.349 147.57 325.626 148.656 323.816 154.536L321.645 161.413L324.359 163.584C327.978 166.57 329.426 166.389 332.773 162.227C335.216 159.151 336.211 158.608 339.107 158.608C341.821 158.608 342.907 159.06 343.992 160.689C345.349 162.77 345.168 163.041 337.749 170.46C331.145 176.884 330.149 178.422 330.511 180.413C331.507 185.479 326.892 187.831 320.197 185.751Z" fill="#C9E5FF"/>
<path d="M463.422 125.222C446.865 117.894 440.984 114.818 429.312 107.037C418.636 100.07 414.655 97.8986 413.117 98.2605C411.308 98.7129 385.703 98.8034 371.498 98.4415C368.151 98.351 365.075 97.8986 364.622 97.4463C364.17 96.9939 361.275 91.7463 358.198 85.8654C353.584 77.2702 352.77 75.0083 353.765 74.2845C354.489 73.8321 356.389 72.6559 358.108 71.5702L361.094 69.6702L360.551 63.4274L359.917 57.275L363.808 55.556C369.146 53.2941 377.198 44.4275 377.198 40.8989C377.198 39.5418 377.56 38.0942 378.013 37.8227C379.46 36.918 383.713 41.1703 385.432 45.2417C387.603 50.3989 387.603 53.8369 385.432 55.8274C383.713 57.3655 383.441 57.3655 379.008 55.8274C374.574 54.1989 374.484 54.1988 370.413 56.1893C368.151 57.275 366.07 58.8131 365.708 59.6274C365.165 61.1655 366.975 75.2797 367.97 76.9082C368.694 77.994 377.832 81.7035 379.913 81.7035C380.727 81.7035 383.532 79.4416 386.246 76.7273L391.132 71.7511H416.736C430.941 71.7511 442.431 72.113 442.703 72.5654C443.065 73.0178 440.984 74.6464 438.269 76.1845C435.465 77.7225 433.022 79.6225 432.66 80.4368C432.117 81.8844 437.998 88.5796 440.984 89.7558C442.16 90.2082 444.603 89.8463 447.679 88.7606C453.831 86.6796 455.641 86.6796 461.341 88.9415C465.05 90.3891 467.041 90.5701 472.741 90.1177L479.617 89.5748L478.984 93.7367C478.35 97.7177 478.441 97.9891 480.883 98.9843C485.226 100.794 489.66 100.251 493.912 97.4463L497.802 94.8225L497.26 88.7606C496.807 83.9654 497.079 82.3368 498.164 81.2511C499.612 79.713 499.431 79.713 513.545 87.7653C515.717 89.032 518.521 91.7463 520.24 94.4606L523.136 98.9843L521.236 101.608C518.793 104.865 518.793 104.503 521.688 111.289C522.955 114.456 523.769 117.26 523.407 117.622C523.045 117.984 521.507 117.713 519.878 117.079C517.074 115.994 516.893 116.084 513.636 119.703C511.283 122.327 509.112 123.684 506.488 124.318C504.407 124.77 501.06 126.579 498.979 128.208C496.717 130.108 493.188 131.827 489.75 132.732C486.674 133.546 484.05 134.089 483.869 134.089C483.688 134.089 474.46 130.018 463.422 125.222Z" fill="#C9E5FF"/>
<path d="M476.628 43.7035C472.738 40.7178 469.481 37.3702 469.209 36.2845C468.938 35.1083 467.852 29.6797 466.857 24.1607C465.138 15.3846 465.138 13.6655 466.133 10.5894C467.128 7.69413 468.033 6.78937 470.838 5.88461C472.919 5.16081 477.533 1.63227 482.871 -3.43438C490.471 -10.582 491.828 -11.4867 494 -11.0343C496.171 -10.582 496.895 -11.1248 500.695 -16.0105C502.957 -18.9962 506.757 -22.7057 509.109 -24.3343C511.462 -25.9628 517.252 -30.1247 521.957 -33.6533C526.662 -37.2723 531.638 -40.8008 532.904 -41.7056C535.709 -43.5151 553.985 -46.4103 571.176 -47.7675C578.323 -48.3103 586.647 -49.577 590.356 -50.5722C593.975 -51.6579 597.504 -52.2008 598.318 -51.9294C600.852 -50.9341 599.947 -46.2294 596.599 -42.8818C593.161 -39.4437 593.161 -39.4437 572.985 -37.2723C558.328 -35.7342 554.166 -34.1961 542.042 -26.1438C539.238 -24.3343 534.442 -21.8009 531.547 -20.6248C528.652 -19.3581 523.495 -16.1915 520.238 -13.5677C516.981 -10.8534 511.009 -6.23911 507.028 -3.25341C499.428 2.35608 489.928 12.4893 486.038 19.0941C483.776 22.8941 483.776 23.3464 484.228 34.0226C484.5 40.0844 484.862 45.7844 485.043 46.7796C485.586 49.8558 483.595 49.132 476.628 43.7035Z" fill="#C9E5FF"/>
<path d="M17.3776 77.4511C15.9299 75.5511 11.949 69.9416 8.51093 65.0559C1.81573 55.375 1.81573 54.5607 8.23951 54.5607C11.0443 54.5607 11.8585 55.0131 13.3966 57.5464C14.3919 59.175 16.1109 61.2559 17.1061 62.2512C18.9156 63.8797 19.0061 63.8797 21.6299 61.9797C23.2585 60.7131 24.4347 60.3512 24.7966 60.894C25.7918 62.4321 29.7727 75.6416 29.7727 77.3606C29.7727 79.2606 29.3204 79.532 24.2537 80.3463C20.2728 80.8892 20.0014 80.7987 17.3776 77.4511Z" fill="#C9E5FF"/>
<path d="M183.763 127.665C183.13 127.032 182.677 126.218 182.677 125.856C182.677 125.404 180.958 121.423 178.877 116.989L175.168 108.847H171.639C168.473 108.847 168.111 108.575 168.653 107.037C169.015 105.861 168.473 103.961 167.296 102.061C165.306 98.8037 163.858 98.3513 159.154 99.7085C155.625 100.704 149.382 99.1656 146.849 96.6323C144.677 94.4609 144.496 94.3704 141.963 95.7275C140.516 96.4513 139.158 97.0847 138.887 97.0847C138.706 97.0847 138.254 94.7323 137.982 91.837C137.62 89.0323 136.535 83.8752 135.449 80.5276C133.097 73.4705 133.277 73.1991 139.792 72.2038C142.687 71.7515 144.768 72.1134 148.206 73.561C153.001 75.6419 153.815 76.9086 155.173 84.599C155.715 87.7656 155.896 87.9466 160.42 88.4895C162.953 88.7609 166.482 88.9418 168.201 88.7609C171.006 88.4895 171.549 87.9466 173.72 83.5133C175.077 80.7086 175.982 78.1752 175.711 77.8133C175.53 77.4514 172.815 75.7324 169.558 74.0133C165.306 71.5705 163.587 70.0324 162.863 67.9515C161.415 63.6991 161.596 62.8848 164.944 59.4467C167.658 56.5515 168.473 56.2801 172.001 56.5515C175.801 56.8229 175.982 57.0039 178.515 61.9801C179.963 64.8753 183.582 72.7467 186.658 79.6228L192.177 92.1085L197.425 92.8323C202.31 93.5561 202.853 93.4656 205.025 91.4752L207.287 89.3942L209.458 92.1085C210.634 93.5561 212.896 96.4513 214.344 98.5323L217.058 102.332L213.801 103.418C211.991 104.051 207.558 107.127 203.939 110.294C198.691 114.908 197.244 116.718 196.972 118.98C196.791 121.332 195.796 122.327 191.272 125.223C185.03 129.113 185.211 129.023 183.763 127.665Z" fill="#C9E5FF"/>
<path d="M237.053 107.58C234.429 104.775 233.434 104.413 227.553 103.87L220.948 103.237L214.706 94.732C211.267 90.1178 207.92 86.2273 207.377 86.2273C206.744 86.2273 205.296 87.2226 204.21 88.4892C202.31 90.6606 199.596 91.2035 195.706 90.2083C194.168 89.7559 192.087 86.0464 186.839 74.1036C183.039 65.5989 179.963 58.0894 179.963 57.456C179.963 56.6418 181.772 56.3703 186.115 56.3703C193.534 56.3703 217.058 52.2084 218.506 50.6704C219.139 50.037 220.225 45.3323 221.039 40.0847C221.853 34.8371 222.848 30.3133 223.21 29.8609C223.663 29.499 225.744 28.6848 228.006 28.0514C231.805 26.9657 232.258 26.4229 236.963 18.0086C241.486 9.9563 242.391 8.87058 247.367 5.97535C254.334 1.90395 256.234 0.0944262 260.667 -6.32935C262.567 -9.1341 264.558 -11.4865 265.01 -11.4865C265.553 -11.4865 267.996 -10.0388 270.529 -8.22932C274.781 -5.15314 275.053 -4.70078 274.51 -2.07698C273.153 3.62299 274.42 6.6087 278.22 6.6087C280.662 6.6087 280.753 7.06107 282.291 17.8277L283.377 25.9705L280.843 27.78C275.505 31.58 271.524 35.6514 266.367 42.4371L261.029 49.3132L262.748 57.5465C263.653 62.0703 264.558 66.5036 264.829 67.4084C265.191 68.7655 264.648 69.0369 261.12 69.0369C257.32 69.0369 256.867 69.3084 253.339 73.8321C249.81 78.3559 249.629 78.9893 249.72 84.5083C249.81 87.6749 250.082 91.294 250.443 92.5606C250.986 94.1892 250.624 95.4559 249.177 97.1749C248.001 98.532 246.824 101.518 246.553 103.78C246.01 107.127 245.377 108.213 243.296 109.299C241.848 110.022 240.491 110.656 240.401 110.656C240.22 110.656 238.682 109.208 237.053 107.58Z" fill="#C9E5FF"/>
<path d="M405.7 223.026C396.472 219.317 392.219 218.955 381.543 220.946C375.029 222.122 374.124 222.122 368.424 220.493C362.543 218.865 362.181 218.593 359.92 214.25L357.658 209.727L350.872 209.093C341.463 208.279 341.01 208.46 341.01 213.888C341.01 220.312 339.11 220.855 327.258 217.869C317.577 215.517 316.763 215.607 313.053 219.588C311.786 220.855 310.339 221.941 309.796 221.941C308.71 221.941 305.725 212.984 305.725 209.727C305.725 208.822 307.082 206.56 308.801 204.75C311.153 202.127 312.239 199.593 313.506 194.346L315.134 187.379L318.391 187.922C328.344 189.822 328.886 189.731 331.329 186.474C332.867 184.484 333.501 182.674 333.229 181.227C332.867 179.327 334.044 177.608 340.558 171.274C344.81 167.022 348.248 163.222 348.248 162.86C348.248 162.408 347.163 160.689 345.805 158.97C343.543 156.255 342.82 155.894 339.02 155.894C335.22 155.894 334.586 156.165 331.782 159.603C328.977 162.951 328.434 163.222 326.715 162.317C324.363 161.051 324.363 160.508 326.444 154.536C327.891 150.284 328.344 149.922 332.053 149.017L336.034 148.022L335.763 142.594C335.582 139.698 335.944 136.079 336.486 134.632C337.301 132.46 337.029 131.194 334.677 126.217C332.505 121.603 332.144 120.065 333.048 119.522C335.129 118.256 337.21 118.708 342.096 121.603C349.605 126.037 351.958 127.846 352.862 130.198C353.496 132.008 354.22 132.37 357.658 132.37C359.829 132.37 364.262 133.184 367.429 134.179C370.596 135.084 373.22 135.898 373.31 135.989C373.4 135.989 374.486 134.541 375.753 132.732L377.924 129.475L375.753 123.141L373.672 116.808L376.024 112.103C377.291 109.57 379.281 106.041 380.458 104.232L382.538 100.884L399.186 101.065L415.834 101.156L429.767 110.294C439.629 116.718 447.319 120.97 455.914 124.589C462.61 127.484 469.757 130.56 471.748 131.375C484.867 137.256 483.328 136.984 490.295 135.084C494.547 133.998 497.714 132.46 500.247 130.289C502.6 128.298 505.224 126.941 507.485 126.67C510.019 126.308 511.738 125.313 513.909 122.96C518.071 118.165 522.504 118.889 518.795 123.775C516.895 126.398 517.166 128.57 519.79 130.832L522.052 132.822L519.519 136.441C518.162 138.522 515.176 141.87 512.914 143.86C509.114 147.298 508.028 147.751 500.247 149.108C491.743 150.555 487.309 152.546 483.419 156.889C482.605 157.794 479.076 159.422 475.728 160.417C472.29 161.413 467.043 163.946 464.057 166.027C459.081 169.465 458.448 169.736 457.633 168.289C456.186 165.755 454.829 166.389 448.767 172.451C443.881 177.427 443.067 178.784 442.705 182.131C442.524 184.303 442.252 186.112 442.162 186.112C441.981 186.203 439.448 188.193 436.372 190.546C431.033 194.617 430.672 195.16 426.6 205.384C420.086 221.398 417.734 225.922 415.653 226.103C414.657 226.193 410.224 224.836 405.7 223.026Z" fill="#C9E5FF"/>
<path d="M317.759 46.9609C312.06 44.6085 310.25 42.98 305.183 35.9229C300.026 28.6848 296.136 17.9182 294.236 5.43253C292.788 -3.61504 292.426 -4.79122 290.707 -4.97217C289.35 -5.15313 287.722 -3.97693 285.007 -0.719803C282.293 2.44685 280.483 3.89446 278.945 3.89446C276.05 3.89446 275.507 2.26588 277.226 -1.80552C278.493 -4.97217 278.493 -5.06264 276.05 -7.14359C274.693 -8.31977 271.979 -10.3102 270.169 -11.4864C266.55 -13.9293 266.279 -14.7435 267.907 -18.2721C268.993 -20.7149 269.264 -20.8959 277.226 -22.434C284.464 -23.7911 286.364 -25.1483 287.088 -29.3101C289.35 -42.3386 290.436 -45.6862 292.879 -46.7719C301.745 -50.8433 304.731 -51.3862 315.588 -50.391C331.693 -48.9434 331.964 -48.8529 331.964 -46.3196C331.964 -44.4196 331.512 -44.0577 329.25 -44.0577C327.712 -44.0577 326.264 -43.5148 325.993 -42.791C325.088 -40.5291 328.255 -31.3911 332.959 -22.3435C337.212 -14.2912 337.574 -13.115 338.84 -2.43884C339.564 3.71351 341.012 11.223 342.007 14.2087C344.088 20.6325 344.088 24.9753 342.097 36.9181L340.559 45.9657L335.131 47.4133C327.893 49.4942 323.369 49.3133 317.759 46.9609Z" fill="#C9E5FF"/>
<path d="M181.32 142.684C178.605 140.965 176.886 140.513 174.534 140.875C171.639 141.327 170.915 140.875 166.21 136.17L160.963 131.013L157.163 132.551C154.991 133.365 152.005 134.541 150.467 135.175C148.115 136.079 147.12 136.079 144.586 134.813C142.867 134.089 138.434 132.913 134.725 132.279C129.296 131.375 127.306 130.651 125.044 128.479L122.148 125.675L128.12 118.979L134.091 112.375L133.006 108.846C132.463 107.037 132.01 104.413 132.01 103.146C132.01 101.156 132.463 100.794 135.448 100.432C137.258 100.251 140.063 99.5272 141.601 98.8034C144.134 97.8082 144.677 97.8082 146.396 99.5272C148.839 101.699 155.082 102.875 160.239 101.97C164.582 101.246 166.301 102.965 166.391 108.122C166.391 111.47 166.482 111.561 170.01 111.561H173.629L177.339 119.432C182.043 129.656 182.315 130.922 180.415 133.908C178.877 136.17 178.877 136.351 180.596 137.708C181.681 138.522 183.129 139.517 184.034 140.06C184.939 140.603 185.481 141.779 185.3 142.956L184.939 144.856L181.32 142.684Z" fill="#C9E5FF"/>
<path d="M102.337 141.598C98.3561 133.818 91.3894 115.18 91.9323 113.641C92.7466 111.289 103.966 92.3797 105.594 90.4797C106.318 89.6654 108.218 88.9416 109.756 88.9416C113.556 88.9416 115.818 87.2226 119.256 81.794C122.061 77.4512 125.408 75.3702 129.299 75.3702C131.47 75.3702 134.546 83.6035 135.27 91.3844L135.903 97.9892H133.642C130.294 97.9892 129.027 100.07 129.57 104.503C129.842 106.675 130.294 109.208 130.656 110.203C131.018 111.47 130.023 113.189 127.037 116.537C115.999 128.479 115.004 129.927 114.008 135.446C113.466 138.432 113.013 140.965 113.013 141.146C113.013 141.87 107.042 145.037 105.685 145.037C104.87 145.037 103.332 143.498 102.337 141.598Z" fill="#C9E5FF"/>
<path d="M157.977 85.5035C157.343 84.5083 156.348 78.0845 156.71 78.0845C156.981 78.0845 158.61 78.7178 160.51 79.4416C164.762 81.2512 166.753 80.6178 166.21 77.6321C165.938 76.3655 166.119 75.3702 166.572 75.3702C167.205 75.3702 170.553 77.1797 172.634 78.7178C172.815 78.8083 172.272 80.6178 171.367 82.6083L169.738 86.2273H164.038C160.962 86.2273 158.158 85.8654 157.977 85.5035Z" fill="#C9E5FF"/>
<path d="M270.527 198.96C264.918 197.15 264.375 196.698 259.851 190.274C255.961 184.755 254.151 183.036 249.899 180.865C244.923 178.332 244.38 178.241 236.056 178.874C229.994 179.327 226.647 179.96 224.475 181.227C222.756 182.222 221.128 182.855 220.947 182.674C220.675 182.403 219.952 178.332 219.318 173.446C218.323 166.751 217.599 164.217 216.061 162.498C213.799 160.146 212.442 159.874 209.728 161.503C208.099 162.498 207.556 162.317 205.113 159.151C203.575 157.251 201.314 155.351 200.137 154.898C198.509 154.265 198.056 153.451 198.056 151.098C198.056 147.117 196.699 145.941 191.995 145.941C188.195 145.941 188.104 145.851 188.104 142.955C188.104 140.784 187.38 139.427 185.209 137.617C182.314 135.265 182.223 135.175 184.033 133.275C184.937 132.189 188.195 129.837 191.271 128.117C198.78 123.594 199.866 122.508 199.866 119.613C199.866 117.713 201.133 115.994 205.566 112.103C208.733 109.389 212.352 106.675 213.528 106.222C214.975 105.68 219.228 105.68 224.294 106.041C232.528 106.765 232.89 106.856 235.785 110.022L238.77 113.279L236.056 120.608C234.609 124.679 233.342 128.479 233.342 129.022C233.342 130.56 247.094 145.036 248.542 145.036C249.175 145.036 250.08 146.032 250.532 147.208C251.075 148.746 253.608 150.555 258.404 152.998C263.018 155.351 266.456 157.794 268.356 160.146L271.251 163.765L275.866 162.86C281.023 161.865 282.199 162.498 282.199 166.479C282.199 168.922 285.275 169.917 290.251 169.103C293.508 168.56 293.87 168.741 294.865 171.365C295.499 172.812 297.037 174.712 298.213 175.527C300.294 176.884 300.837 179.598 299.751 182.493C299.48 183.217 296.765 184.936 293.87 186.293C288.351 188.736 287.356 190.546 290.07 192.536C291.337 193.441 291.518 194.165 290.704 196.246C289.889 198.598 289.527 198.779 285.999 198.598C283.646 198.417 281.475 198.779 280.208 199.684C277.766 201.403 277.766 201.403 270.527 198.96Z" fill="#C9E5FF"/>
<path d="M677.669 551.453C675.226 551.182 674.14 550.277 672.059 546.929C670.521 544.667 669.164 542.044 668.893 541.229C668.169 538.968 666.269 538.515 663.464 539.963C660.931 541.32 653.421 541.591 649.44 540.506C647.088 539.872 634.693 523.406 635.507 522.049C635.779 521.687 636.955 521.415 638.131 521.415C639.94 521.415 640.574 520.691 641.478 517.706C642.383 514.539 642.383 513.815 641.207 513.182C636.231 510.287 636.321 510.196 644.283 507.572C651.702 505.13 652.064 504.858 655.683 499.701C659.664 494.001 660.297 493.73 665.907 495.087C669.888 495.992 670.612 495.358 671.607 490.201C672.783 483.415 672.874 483.325 681.016 485.134C684.907 486.039 688.526 487.034 689.069 487.396C690.516 488.211 689.34 490.744 686.354 493.368C683.821 495.449 683.731 495.901 684.002 501.872L684.273 508.206L688.254 509.382C691.693 510.287 692.597 510.287 694.226 509.201C696.126 508.025 696.307 508.206 699.021 513.996C700.559 517.344 702.731 521.596 703.816 523.406L705.897 526.844L703.364 529.468L700.74 532.182L703.545 535.348C706.259 538.425 706.531 540.777 704.359 541.501C703.726 541.772 699.835 542.677 695.673 543.672C688.978 545.21 687.802 545.753 685.359 548.739C683.821 550.639 682.193 552.087 681.65 551.996C681.107 551.906 679.297 551.725 677.669 551.453Z" fill="#C9E5FF"/>
<path d="M602.394 441.887L593.075 445.778C586.38 448.492 580.861 450.12 573.623 451.206L562.223 453.83C564.937 458.173 566.927 464.144 575.342 487.758C578.961 497.892 582.127 506.034 582.399 506.034C582.761 506.034 584.57 503.954 586.47 501.42C591.446 494.725 593.256 495.811 596.513 507.211L597.961 512.368L602.575 512.458C605.199 512.549 611.894 512.549 617.413 512.368L627.456 512.187L630.351 516.258C632.794 519.606 633.698 520.239 635.508 519.877C636.775 519.606 638.132 518.611 638.765 517.615C639.851 515.534 639.489 515.263 634.06 512.187C631.618 510.83 631.346 510.287 632.251 509.201C632.884 508.387 633.698 507.844 634.241 507.844C634.784 507.844 638.584 506.758 642.837 505.492C650.165 503.23 650.346 503.139 654.508 497.349L658.67 491.468L663.555 491.92C668.26 492.554 668.351 492.644 668.893 490.111C669.255 488.663 670.07 485.858 670.794 483.777C671.789 481.063 671.97 478.168 671.517 472.468L670.884 464.868L662.198 454.735C657.403 449.125 653.06 444.511 652.517 444.511C651.975 444.511 650.979 445.144 650.346 445.868C648.356 448.311 646.275 448.944 637.679 449.94L629.265 450.844L624.741 455.82C622.208 458.625 619.675 460.797 619.132 460.706C618.589 460.525 614.427 456.273 610.265 451.206L602.394 441.887Z" fill="#C9E5FF"/>
<path d="M829.665 119.703C832.379 120.427 834.822 122.146 837.718 125.131L841.879 129.474L844.684 144.403C846.313 152.546 847.579 159.784 847.579 160.417C847.579 160.96 846.132 163.222 844.413 165.303C840.613 170.007 840.522 171.274 843.87 173.717C846.041 175.345 846.494 176.431 847.037 181.317C847.489 186.022 848.303 188.103 851.651 193.169C853.913 196.517 855.722 199.864 855.722 200.679C855.722 201.493 854.908 203.755 853.822 205.836C852.194 209.002 852.013 210.631 852.465 215.426C852.736 218.683 853.189 221.488 853.551 221.85C854.184 222.483 855.903 222.574 868.208 222.664L876.984 222.845L871.646 226.374C868.66 228.364 865.946 230.536 865.584 231.169C865.222 231.802 864.77 236.959 864.679 242.659L864.498 252.883L867.484 255.416C870.289 257.678 870.47 258.131 869.927 261.84C867.484 278.216 867.755 277.131 863.775 281.293C860.336 284.821 859.794 285.816 859.251 290.883C858.889 294.05 858.255 297.397 857.984 298.483C857.26 300.926 861.965 306.535 866.308 308.345C870.017 309.883 870.198 312.235 867.032 318.207C865.765 320.559 864.77 322.821 864.77 323.183C864.77 323.635 866.67 325.083 868.932 326.44C871.827 328.159 872.913 329.245 872.641 330.33C872.37 331.145 871.646 333.226 871.013 335.035C870.47 336.754 869.836 338.654 869.655 339.288C869.294 340.645 867.032 340.645 863.955 339.468C862.779 338.926 859.432 337.116 856.536 335.397C852.194 332.773 850.746 332.321 848.213 332.773C845.679 333.226 842.694 333.859 842.06 334.673C841.427 335.488 841.427 336.302 842.06 337.568C845.137 343.178 845.137 343.268 837.989 354.035C832.018 363.173 831.294 364.802 831.294 368.692C831.294 374.573 829.756 374.302 824.508 367.606C822.246 364.621 819.984 362.178 819.532 362.178C819.17 362.178 817.632 363.625 816.184 365.435C813.651 368.511 813.108 368.783 807.227 369.325L800.984 369.868L797.637 376.202C795.737 379.64 794.289 383.168 794.199 383.892C794.199 384.616 795.465 388.506 796.913 392.397C799.989 400.359 800.351 399.363 793.023 407.778L788.589 412.754L789.946 416.825C791.213 420.535 791.213 421.801 789.946 429.492L788.499 437.997L783.704 441.344C780.989 443.244 778.818 445.325 778.818 446.049C778.818 446.773 781.17 449.939 784.065 453.106C786.87 456.363 789.223 459.258 789.223 459.53C789.223 459.892 784.789 461.43 779.27 463.058L769.318 465.953L768.504 469.753C767.961 472.196 766.875 474.096 765.518 475.001C764.342 475.725 761.808 479.073 759.908 482.42C753.937 492.553 750.68 494.906 739.008 497.349C738.285 497.53 734.485 497.168 730.685 496.625C724.894 495.811 723.175 495.177 721.185 493.096L718.651 490.563L723.809 485.858C727.428 482.601 729.237 480.068 729.87 477.715C730.323 475.906 732.223 472.649 733.942 470.568C735.751 468.487 737.199 466.225 737.199 465.501C737.199 464.868 734.394 458.715 730.956 451.93C727.609 445.054 724.442 437.816 724.17 435.735C722.994 429.22 722.361 428.858 714.761 430.397C705.08 432.478 703.632 432.297 701.28 428.858C698.113 424.154 698.023 423.339 701.009 420.535C703.271 418.363 703.723 417.187 703.723 413.93C703.723 410.673 702.999 408.863 699.742 404.249L695.761 398.549L697.39 396.016C698.475 394.387 698.928 392.578 698.566 390.768C698.204 388.416 698.837 387.059 701.823 383.259C704.809 379.549 705.532 377.921 705.532 374.935C705.532 371.497 705.352 371.225 702.185 370.411C690.061 367.245 691.056 367.787 691.056 364.168C691.056 360.006 691.418 359.554 696.756 355.935C701.461 352.678 701.642 352.045 699.561 346.797C698.204 343.359 697.933 343.178 694.223 343.178C690.513 343.178 690.061 342.816 685.628 337.297C680.38 330.873 680.38 330.873 667.714 329.969C657.49 329.245 655.68 328.069 658.395 323.907C660.114 321.192 660.114 321.102 658.123 315.764C656.766 311.873 656.495 310.245 657.309 309.973C658.937 309.34 672.418 299.569 673.142 298.483C674.318 296.764 673.956 296.312 668.076 292.873C663.733 290.34 661.833 288.621 660.657 285.997C658.847 282.016 659.028 281.745 667.08 273.059C672.509 267.178 672.78 266.002 670.609 259.578C669.161 255.326 669.161 255.326 671.695 251.707C676.128 245.555 676.58 244.288 676.58 237.14C676.58 228.907 675.495 227.188 669.161 225.559C664.366 224.293 664.818 225.379 664.366 213.798C664.276 210.993 664.095 208.279 664.004 207.645C664.004 207.012 662.557 205.836 660.837 205.202L657.852 203.936L657.218 194.707C656.585 186.926 656.133 184.845 653.961 181.226C652.333 178.422 651.066 174.441 650.342 170.007C649.438 163.855 649.528 162.95 651.157 159.784C652.785 156.617 656.585 150.827 657.49 148.203C658.395 145.579 658.123 144.222 655.228 135.989L651.88 126.76L648.623 127.393C642.199 128.57 642.019 128.479 638.038 122.87C635.866 119.884 634.147 117.17 634.057 116.808C634.057 116.446 636.499 114.455 639.485 112.284C645.185 108.122 647.266 104.684 648.171 97.6269C648.714 94.1888 648.352 93.465 645.004 89.3936C643.014 86.8602 641.295 84.4174 641.295 83.965C641.295 83.4222 643.376 80.8888 645.909 78.265L650.523 73.4698L651.971 75.4603C655.047 79.8031 656.676 80.8888 660.114 80.6174L663.461 80.346L663.733 74.7365C664.004 69.3984 663.914 69.0365 659.571 63.427C657.218 60.2604 654.957 57.0032 654.595 56.0985C653.961 54.3794 655.59 40.989 656.585 39.9033C656.857 39.5414 664.095 38.6367 672.509 37.8224C694.585 35.7415 695.58 35.5605 696.213 34.0224C696.485 33.2081 695.671 30.4939 694.404 27.7796L692.052 22.9844L695.852 17.3749C697.932 14.2082 701.732 9.32254 704.356 6.51779C708.428 2.17495 710.599 0.817822 720.099 -3.43454C727.97 -6.96309 731.409 -8.95354 732.042 -10.4916C732.947 -12.3011 740.366 -16.9154 742.537 -16.9154C742.989 -16.9154 743.804 -15.7392 744.437 -14.2916C746.427 -9.40593 747.061 -9.40593 757.013 -14.2011L766.242 -18.7249L765.97 -22.0725C765.699 -25.1487 765.88 -25.4201 768.865 -26.2344C774.113 -27.5916 774.565 -28.4963 773.299 -34.7391L772.213 -40.1677L776.646 -47.2248C779.089 -51.1152 781.894 -54.8247 782.889 -55.4581C785.061 -57.0866 788.861 -57.0867 790.851 -55.639C792.208 -54.5533 792.027 -54.101 788.68 -50.2105C783.523 -44.1486 784.246 -42.7915 792.299 -43.6058C798.27 -44.2391 798.542 -44.1486 799.084 -42.1581C799.356 -40.982 799.627 -39.1724 799.627 -38.0867C799.627 -36.4582 801.165 -35.0106 802.884 -35.0106C803.065 -35.0106 805.237 -36.9105 807.77 -39.082L812.384 -43.1534H820.527H828.67L834.551 -38.4487C837.898 -35.8249 840.703 -32.7487 840.975 -31.482C841.337 -30.2154 841.608 -25.0582 841.698 -20.0821V-11.0345L835.727 -1.98692C832.47 2.98925 827.675 10.8606 825.051 15.4749C822.427 20.1796 818.537 26.8748 816.275 30.4034C812.384 36.7367 811.48 39.451 813.108 40.4462C813.651 40.7176 816.275 40.7176 819.17 40.3557C824.056 39.8129 824.779 39.3605 832.108 32.6653C836.36 28.7748 840.16 25.6082 840.522 25.6082C841.246 25.6082 841.518 26.332 843.598 35.8319C845.046 42.0747 845.589 43.2509 848.665 45.6938C850.656 47.1414 854.908 52.5699 858.346 57.6366C867.846 71.8413 867.574 69.9413 861.151 77.1793C854.998 84.146 854.365 85.6841 853.46 95.4554C852.646 104.051 852.194 104.774 847.76 104.413C844.503 104.232 843.96 104.593 837.808 111.017" fill="#C9E5FF"/>
<path d="M559.237 375.297C559.146 375.297 559.056 375.297 559.056 375.297C558.603 375.568 558.151 377.197 558.151 378.735C558.151 380.544 557.337 382.354 555.889 383.892L553.537 386.425L555.437 389.592C557.699 393.482 557.246 393.844 549.013 396.016L543.042 397.554L541.051 404.521L539.061 411.397L542.137 415.92C545.575 420.716 545.575 421.168 542.318 428.587L540.87 432.116L542.861 431.663C544.037 431.392 546.932 430.578 549.375 429.944C552.813 428.949 553.718 429.039 554.622 429.944C555.527 430.849 555.527 431.663 553.899 434.558C552.722 436.458 551.818 438.72 551.818 439.354C551.818 439.987 554.441 443.425 557.518 447.225C558.965 449.035 560.141 450.301 561.137 451.749C565.208 450.12 569.46 449.306 573.894 448.582C581.132 447.406 586.47 445.958 593.346 443.063L602.846 438.992L607.822 444.601C610.536 447.677 614.246 451.93 616.146 453.92L619.493 457.63L624.108 453.015L628.722 448.22L636.865 447.587C646.274 446.863 650.346 444.601 650.346 440.077C650.346 435.735 647.36 412.392 646.727 411.578C646.365 411.216 643.47 412.12 640.393 413.749C637.317 415.287 634.422 416.282 633.97 415.92C633.517 415.468 632.612 411.849 631.798 407.868C631.074 403.978 630.079 400.449 629.717 400.087C629.355 399.725 625.646 399.997 621.484 400.54C614.698 401.354 613.794 401.173 612.708 399.816C611.984 398.73 609.27 398.006 605.289 397.373L598.955 396.468L595.789 391.221C594.16 388.416 591.536 385.34 589.908 384.254C586.832 382.083 561.951 374.935 559.237 375.297Z" fill="#C9E5FF"/>
<path d="M510.922 437.092C510.651 436.64 510.651 434.83 511.013 433.021C511.736 429.13 510.922 427.954 503.684 423.34C499.432 420.535 497.532 419.902 494.818 420.083C492.465 420.264 491.108 419.902 490.656 418.997C490.203 418.273 489.389 412.121 488.756 405.245L487.67 392.85L492.103 383.983L496.446 375.116L501.875 373.759L507.303 372.402L507.122 366.974C506.67 358.107 505.946 356.388 501.875 355.302C498.437 354.307 498.256 354.126 497.984 350.236C497.803 346.978 498.346 345.169 500.789 341.188C502.417 338.474 504.137 336.302 504.589 336.483C505.132 336.574 506.036 338.293 506.76 340.283C508.027 344.174 507.484 343.902 519.97 346.978C522.955 347.702 529.017 348.516 533.36 348.878C540.87 349.421 541.593 349.331 545.303 347.159C547.474 345.893 549.465 344.807 549.736 344.807C550.008 344.807 549.736 346.255 549.284 348.064C548.47 350.869 548.832 352.678 552.089 361.726C556.612 374.573 556.793 378.012 552.812 382.445C550.008 385.702 549.917 385.792 551.455 388.416C552.36 389.954 552.812 391.402 552.631 391.764C552.36 392.126 549.917 392.94 547.203 393.573C544.398 394.207 541.684 395.202 541.051 395.835C540.417 396.469 538.879 400.269 537.793 404.34L535.622 411.759L538.879 416.283L542.136 420.807L540.327 425.421C539.332 427.954 538.608 430.668 538.789 431.392C539.332 434.74 512.822 440.168 510.922 437.092Z" fill="#C9E5FF"/>
<path d="M633.971 405.335L632.614 397.916H624.018C618.771 397.916 614.88 397.464 614.066 396.83C613.342 396.288 610.176 395.473 607.099 395.111C600.857 394.388 600.857 394.388 596.966 388.235C593.257 382.264 589.366 380.183 574.347 376.202C567.109 374.302 560.776 372.492 560.052 372.131C559.328 371.769 557.157 366.973 555.257 361.545C551.819 352.226 551.728 351.502 552.724 346.888C553.628 343.088 554.985 340.735 559.781 335.035C565.39 328.25 565.933 327.888 569.462 327.797C571.542 327.797 573.714 327.255 574.257 326.531C574.8 325.897 577.061 320.559 579.323 314.678C581.495 308.798 583.576 303.821 583.757 303.55C583.938 303.369 587.828 303.459 592.442 303.821C600.314 304.455 600.766 304.636 602.033 307.079L603.39 309.702L610.809 309.069C618.047 308.526 618.409 308.617 624.742 311.783C628.361 313.593 631.89 315.131 632.523 315.131C633.247 315.131 636.595 313.321 640.033 311.059C644.828 307.983 646.547 307.259 647.813 307.983C648.718 308.436 649.442 309.25 649.442 309.702C649.442 310.245 650.437 310.969 651.613 311.421C652.971 311.964 654.599 313.864 655.685 316.488L657.585 320.74L655.775 323.274C654.056 325.716 653.966 326.078 655.233 328.521C656.771 331.417 657.585 331.597 671.518 332.864C678.666 333.407 678.756 333.497 682.375 337.569C689.523 345.531 689.975 345.893 693.323 345.893C695.947 345.893 696.67 346.254 697.394 348.154C698.751 351.683 698.661 351.774 693.866 354.85C689.251 357.835 688.347 359.735 688.347 366.34C688.347 369.054 688.618 369.416 692.237 370.321C701.104 372.764 703.275 373.669 703.547 374.935C703.727 375.75 701.918 378.916 699.656 381.992C696.128 386.788 695.494 388.145 695.947 390.497C696.851 395.745 695.223 396.649 682.737 397.645C672.694 398.459 671.156 398.821 666.542 401.535C663.556 403.254 658.49 405.064 654.509 405.878C650.799 406.692 645.28 408.592 642.295 410.04C639.309 411.578 636.504 412.845 636.052 412.845C635.599 412.845 634.695 409.497 633.971 405.335Z" fill="#C9E5FF"/>
<path d="M437.818 390.497C428.137 389.411 423.795 389.321 421.08 390.045C418.366 390.769 415.018 390.588 407.328 389.411C401.809 388.597 396.923 387.602 396.561 387.24C396.29 386.878 397.104 385.159 398.461 383.35C399.818 381.631 400.723 379.64 400.452 379.007C400.18 378.373 397.285 377.107 394.028 376.202C390.771 375.388 388.057 374.302 388.057 374.031C388.057 372.583 393.485 365.164 396.561 362.178C399.728 359.102 399.818 358.921 399.818 352.226V345.259L402.985 343.812C404.795 342.907 407.147 342.274 408.323 342.274C412.033 342.274 418.909 345.169 420.356 347.34C422.076 350.055 423.071 350.055 426.509 347.34C430.309 344.264 432.661 345.531 431.847 350.235C431.033 355.212 436.642 366.431 440.352 367.154C445.056 368.15 450.394 371.135 451.933 373.669C452.837 375.026 455.28 377.831 457.361 379.821C462.609 384.707 463.061 386.788 459.623 389.23C455.823 391.945 453.109 392.035 437.818 390.497Z" fill="#C9E5FF"/>
<path d="M421.442 344.897C420.175 342.997 411.309 339.559 407.509 339.559C406.514 339.559 404.071 340.373 401.99 341.459L398.371 343.45L394.842 341.007C392.852 339.74 390.771 338.654 390.228 338.654C389.323 338.654 386.609 337.478 375.661 332.593C373.761 331.778 372.676 330.692 372.676 329.607C372.676 326.983 371.047 326.531 367.338 328.159L363.899 329.697L357.928 326.44C351.414 322.821 351.414 322.821 353.133 315.583L354.128 311.059L359.104 310.607C363.99 310.155 364.08 310.064 366.252 305.812C368.423 301.288 369.057 301.016 374.485 302.283C378.918 303.369 379.823 302.826 380.457 298.664C381.09 294.864 380.637 295.226 390.59 291.064C393.123 289.978 393.485 289.345 393.304 286.812C393.214 285.093 393.847 282.831 394.661 281.564C396.652 278.759 396.561 276.95 394.39 272.788C391.856 268.083 392.037 265.55 395.114 264.283C397.466 263.198 404.071 256.774 410.133 249.536C411.852 247.455 413.48 244.288 413.842 242.298C414.566 238.045 416.737 233.522 418.456 232.526C419.18 232.074 419.723 231.079 419.723 230.174C419.723 229.269 420.266 227.822 420.99 226.826C422.256 225.107 422.347 225.198 423.252 227.822C424.88 232.345 425.604 233.16 429.947 235.512C433.385 237.322 435.013 239.222 439.266 246.279L444.423 254.693L442.432 263.198L440.532 271.612L442.523 275.593C444.332 279.483 444.332 279.845 443.066 285.183L441.618 290.702L444.332 292.964C445.78 294.14 447.318 295.226 447.59 295.226C447.951 295.226 449.399 296.221 450.756 297.488C452.837 299.478 453.199 300.474 453.199 304.997C453.289 307.802 453.832 311.15 454.556 312.416C455.28 313.593 455.913 316.759 455.913 319.293V323.907L452.566 324.45C447.318 325.354 443.699 325.174 442.613 323.997C440.985 322.459 435.104 335.85 435.104 341.007C435.104 343.178 434.923 344.988 434.651 344.988C434.38 344.988 432.932 344.354 431.394 343.54C428.861 342.273 428.59 342.273 425.694 344.535L422.709 346.797L421.442 344.897Z" fill="#C9E5FF"/>
<path d="M473.377 389.954C465.687 387.331 464.873 386.878 463.968 384.164C463.515 382.535 461.434 379.912 459.534 378.373C457.544 376.835 455.463 374.483 454.83 373.216C453.292 370.05 447.32 366.069 443.068 365.435C439.992 364.893 439.449 364.35 436.916 359.374C433.749 352.859 433.568 351.412 436.011 348.336C437.277 346.707 437.82 344.626 437.82 341.369C437.82 338.293 438.544 335.307 440.082 332.321C442.525 327.526 443.249 327.255 454.106 326.621L458.177 326.44L458.449 321.645C458.72 317.212 458.901 316.94 461.073 316.94C462.43 316.94 465.144 316.126 467.134 315.221C469.215 314.226 474.463 312.598 478.896 311.512C487.944 309.34 495.815 304.636 497.625 300.383C498.168 299.026 499.072 297.941 499.615 297.941C500.158 297.941 504.501 300.112 509.296 302.826C517.982 307.802 518.072 307.893 523.139 316.217C525.944 320.831 529.02 326.44 530.015 328.793C531.825 332.864 532.096 333.045 540.239 335.85C544.853 337.478 549.015 339.107 549.467 339.559C549.829 339.921 548.02 341.731 545.396 343.45C540.51 346.526 540.51 346.617 534.177 345.712C525.672 344.626 518.615 343.359 514.544 342.183C511.558 341.369 511.015 340.736 509.206 335.85C507.848 332.231 506.763 330.512 505.677 330.512C504.772 330.512 502.42 333.226 499.706 337.478C495.544 344.083 495.272 344.897 495.272 350.688C495.272 357.112 496.087 358.469 499.887 358.559C502.601 358.559 503.687 360.188 504.32 365.435L504.953 369.959L499.887 371.135L494.73 372.221L489.572 382.626C486.315 389.231 483.963 392.85 483.058 392.85C482.334 392.759 477.901 391.492 473.377 389.954Z" fill="#C9E5FF"/>
<path d="M542.681 334.764C534.628 331.778 531.914 330.15 531.914 328.25C531.914 327.707 529.109 322.55 525.671 316.85L519.519 306.536L509.295 300.655C499.886 295.317 498.981 294.955 498.076 296.493C493.733 303.821 487.943 307.531 476.814 310.155C472.019 311.331 466.862 312.959 465.414 313.683C460.71 316.126 458.9 315.583 456.819 311.059C455.733 308.616 455.01 305.178 455.01 302.193V297.307L450.033 293.959C444.605 290.34 444.424 289.798 446.053 282.831C446.957 278.94 446.867 278.036 445.148 274.96L443.157 271.431L445.057 262.926L447.048 254.422L441.348 244.831C436.372 236.326 435.195 235.06 431.667 233.431C428.681 232.165 427.324 230.898 426.329 228.365C424.157 223.207 424.61 219.588 429.043 208.369C433.295 197.693 434.2 196.427 442.705 190.003C445.51 187.831 445.962 186.927 445.962 183.85C445.962 180.774 446.595 179.508 449.943 175.979C453.743 171.998 454.105 171.817 456.186 172.993C458.357 174.079 458.9 173.898 465.052 169.555C468.671 167.022 472.562 164.941 473.738 164.941C475.729 164.941 475.819 165.303 475.819 170.641C475.819 175.346 475.276 177.336 473.014 181.498L470.21 186.655L473.467 190.998L476.633 195.341L486.405 196.517C492.467 197.241 497.895 198.417 500.79 199.684C505.314 201.765 505.405 201.855 505.314 205.655C505.224 209.455 505.405 209.727 509.657 212.169L514.09 214.793L520.695 212.803L527.39 210.812L531.733 214.431C535.624 217.688 536.076 218.412 536.528 222.936C536.8 226.012 538.247 230.355 540.509 234.788L544.038 241.845H549.828C555.438 241.845 555.8 241.936 561.771 246.731C567.381 251.164 568.557 251.707 575.885 252.974L583.847 254.422L590.18 261.298L596.514 268.083H605.199H613.975L619.133 263.831L624.29 259.579L629.447 265.188C634.333 270.436 634.875 270.798 638.675 270.798C641.571 270.798 644.013 271.612 648.085 273.964C651.071 275.774 654.147 277.583 654.871 277.945C655.685 278.398 656.137 279.574 655.956 281.021C655.413 285.455 658.942 291.336 663.828 294.412C666.361 295.95 668.17 297.669 667.899 298.121C666.813 299.75 654.961 306.988 653.242 306.988C652.337 306.988 650.799 306.174 649.894 305.178C648.99 304.183 647.723 303.369 647.09 303.369C646.456 303.369 642.747 305.269 638.947 307.621L632.071 311.874L625.375 308.436C618.771 304.997 618.499 304.997 611.895 305.54C605.199 306.174 605.109 306.174 604.114 303.821C603.48 302.555 602.123 301.288 601.128 301.107C597.328 300.383 582.761 299.84 581.857 300.474C581.314 300.836 579.233 305.45 577.242 310.697C572.176 324.178 572.176 324.178 568.104 324.178C564.847 324.178 564.214 324.631 558.966 330.874C555.8 334.674 552.543 337.659 551.819 337.659C551.095 337.659 546.933 336.302 542.681 334.764Z" fill="#C9E5FF"/>
<path d="M650.166 273.059C645.009 269.983 642.204 268.988 639.49 268.988C636.233 268.988 635.328 268.445 631.166 263.921C624.381 256.593 624.381 256.593 618.319 261.75L613.071 266.274H605.29H597.419L591.357 259.579L585.295 252.883L577.062 251.345C569.462 249.807 568.286 249.264 562.676 244.831C556.705 240.217 556.253 240.036 550.733 239.945H545.034L541.595 232.526C539.424 227.641 538.248 223.75 538.248 221.307C538.248 217.869 537.795 217.145 533.543 213.345C530.919 211.084 528.115 209.274 527.3 209.274C526.396 209.274 523.229 209.998 520.062 210.993L514.453 212.803L510.653 210.541C507.215 208.55 506.853 208.007 506.853 204.569C506.853 198.779 502.238 196.517 486.858 194.707C477.629 193.622 477.539 193.622 475.367 190.365C472.562 186.293 472.562 185.931 475.367 181.046C477.177 177.789 477.629 175.889 477.629 170.189V163.222L480.343 162.679C481.791 162.317 485.048 160.236 487.491 158.065C491.653 154.265 492.648 153.903 499.977 152.636C510.834 150.736 510.019 151.098 517.167 144.312C521.872 139.789 523.953 137.074 524.767 134.27C525.762 130.922 525.762 130.198 524.586 129.565C520.605 127.122 520.605 127.303 524.043 122.236C525.943 119.613 527.391 116.898 527.391 116.355C527.391 115.813 526.305 113.189 525.038 110.656C522.686 105.951 522.686 103.417 524.948 103.417C525.581 103.417 530.105 109.479 534.991 116.989C541.324 126.579 544.4 130.56 545.576 130.56C546.662 130.56 548.381 128.932 550.1 126.217C553.629 120.608 554.081 118.527 552.272 115.722C551.095 113.913 550.914 112.375 551.457 108.303C552.091 103.146 552.091 103.146 548.743 100.341L545.305 97.5366L547.476 94.8223C548.562 93.3747 551.095 88.9414 552.905 84.9604C556.072 77.9938 556.162 77.6319 554.805 75.2795C552.362 71.1176 553.719 68.8558 562.133 63.6082C568.919 59.3558 570.457 57.8177 576.61 49.4939C581.043 43.4321 584.119 40.0845 585.205 40.0845C586.924 40.0845 596.967 43.5226 598.143 44.6083C598.595 44.9702 598.595 47.3225 598.233 49.9463C597.69 53.9273 596.695 55.7368 591.448 62.3415C588.009 66.6843 585.205 70.9367 585.205 72.0224C585.205 73.0176 585.838 76.2747 586.652 79.17C588.1 84.3271 588.1 84.508 585.748 91.5652C584.481 95.5461 583.395 99.527 583.395 100.432C583.395 101.337 581.948 106.403 580.229 111.56C578.51 116.717 577.062 121.784 577.062 122.779C577.062 123.775 578.148 127.122 579.414 130.108L581.676 135.627L577.967 142.593C575.886 146.393 573.895 149.56 573.443 149.56C572.991 149.56 570.186 152.546 567.11 156.346C561.772 162.95 561.591 163.131 557.519 163.131C555.348 163.131 550.643 162.227 547.295 161.231C534.629 157.341 532.367 160.236 541.143 169.193C547.386 175.617 554.081 179.327 559.238 179.417C564.667 179.417 575.162 174.079 579.143 169.103C581.043 166.75 585.024 163.222 588.009 161.231L593.348 157.612V147.298C593.348 135.717 593.8 134.632 599.409 133.636C604.567 132.641 607.009 134.541 608.547 140.513C611.533 152.636 611.352 152.274 613.976 152.274C615.333 152.274 617.776 151.37 619.495 150.374L622.481 148.565L621.847 142.051C621.485 138.432 620.852 134.632 620.49 133.636C620.038 132.551 616.962 129.746 613.614 127.303C608.457 123.594 606.467 122.779 601.128 121.965C595.519 121.151 594.705 120.789 594.162 118.798C592.624 113.098 593.257 110.203 597.871 102.965C600.405 98.9842 602.395 95.3651 602.395 94.8223C602.395 94.2794 601.4 89.8461 600.224 84.87C597.69 74.7367 597.962 73.5605 603.481 68.4938C608.095 64.151 614.609 59.8082 614.881 60.7129C615.062 61.2558 613.705 65.4177 611.986 70.2129C610.176 74.9176 608.728 79.2605 608.728 79.8033C608.728 81.7938 626.009 91.6556 629.628 91.6556C631.709 91.6556 633.971 89.3033 634.062 87.2223C634.062 86.589 631.438 83.0604 628.181 79.4414C624.924 75.8224 622.3 72.2033 622.3 71.4795C622.3 69.0367 624.109 68.6748 626.281 70.7557C628.543 72.8367 630.533 73.1081 633.247 71.6605C635.6 70.4843 635.419 68.7653 632.614 63.9701C630.714 60.7129 630.443 59.7177 631.347 58.5415C634.062 55.3749 637.862 58.2701 635.6 61.8891C634.695 63.3367 634.785 63.8796 635.871 64.7843C636.685 65.3272 639.128 67.77 641.3 70.2129L645.19 74.5557L641.028 78.8081C638.676 81.1604 636.776 83.5128 636.776 84.0557C636.776 84.689 638.585 87.1318 640.847 89.6652C645.19 94.3699 645.552 96.089 643.923 101.698C643.109 104.322 641.39 106.313 636.685 109.932C633.338 112.556 630.352 115.179 630.081 115.813C629.628 116.808 633.7 123.322 638.766 129.655C641.209 132.732 641.3 132.732 645.1 131.736C647.271 131.103 649.262 130.922 649.623 131.284C649.985 131.646 651.342 134.903 652.609 138.522L654.871 145.036L650.347 153.993L645.823 162.86L646.819 170.008C647.543 174.893 648.719 178.693 650.619 182.131C653.061 186.474 653.423 188.193 653.785 195.703C654.238 205.022 654.961 207.465 657.404 207.465C660.481 207.465 661.204 209.365 661.204 217.507C661.204 226.284 661.838 227.279 667.99 228.726C672.514 229.812 672.966 230.717 672.966 237.683C672.966 243.926 672.785 244.469 669.257 249.445L665.457 254.693L666.995 259.398C667.809 262.021 668.442 264.736 668.442 265.46C668.442 267.088 659.576 277.131 658.219 277.131C657.585 277.131 653.966 275.231 650.166 273.059Z" fill="#C9E5FF"/>
<path d="M344.991 412.392C344.719 411.668 344.9 409.768 345.443 408.14C346.71 404.521 345.714 403.164 340.738 402.349C333.862 401.264 333.5 400.721 335.853 395.835C337.029 393.483 338.929 389.049 340.105 385.883C342.729 378.645 348.881 372.492 352.591 373.397C358.743 374.935 359.376 374.664 362.452 368.964C367.248 360.097 366.162 356.84 359.014 358.469C355.938 359.102 353.314 358.921 347.433 357.654C343.272 356.75 339.653 355.664 339.291 355.212C338.929 354.759 337.843 352.678 336.938 350.507L335.219 346.616L337.481 344.897C341.372 341.821 343.362 341.821 347.072 344.716C349.967 347.069 351.595 347.521 357.838 348.064C366.343 348.878 366.162 348.969 369.057 340.192C370.143 336.845 371.319 334.131 371.59 334.131C373.49 334.131 392.49 342.454 394.752 344.264C396.924 345.983 397.467 347.159 397.828 351.412C398.19 356.478 398.19 356.478 393.667 361.545C389.052 366.611 385.343 372.673 385.343 375.116C385.343 375.93 387.514 377.016 391.224 378.011C394.481 378.916 397.105 379.821 397.105 380.002C397.105 380.273 396.2 381.992 395.205 383.892C392.852 388.054 391.948 388.054 380.095 383.711C371.681 380.635 369.6 380.907 366.795 385.068C365.438 387.24 365.438 387.783 367.61 394.387C369.962 401.897 369.51 403.254 365.529 401.083C362.905 399.635 355.848 399.906 354.219 401.535C353.495 402.259 352.591 404.702 352.229 406.964C351.957 409.225 351.052 411.668 350.329 412.392C348.61 414.111 345.624 414.111 344.991 412.392Z" fill="#C9E5FF"/>
<path d="M338.024 438.359C333.681 435.645 332.505 435.283 331.238 436.187C326.533 439.535 325.81 439.535 322.1 435.916C319.205 433.202 318.391 431.573 317.938 427.954C316.852 420.626 311.967 417.459 305.362 419.992C302.829 420.987 303.01 421.078 296.405 413.297L294.143 410.583L286.634 412.121C282.472 413.026 278.581 413.749 277.948 413.749C277.315 413.749 276.41 412.121 275.867 410.221C275.415 408.23 274.238 405.788 273.334 404.611C271.886 402.892 271.434 402.802 269.715 403.707C268.629 404.249 267.362 404.521 266.91 404.249C266.458 403.978 265.462 399.997 264.558 395.383C263.653 390.769 262.567 386.335 262.205 385.521C261.753 384.616 259.581 383.169 257.319 382.173C253.339 380.364 253.248 380.273 253.248 375.931C253.248 370.05 252.343 369.326 245.558 370.05L239.948 370.502L239.405 367.607C238.501 363.354 238.41 363.445 242.391 362.269C244.562 361.635 246.824 360.097 248.091 358.378C249.358 356.659 252.796 354.397 257.319 352.226C263.562 349.24 265.553 347.793 272.067 340.645C276.138 336.121 279.486 331.688 279.486 330.783C279.486 329.788 280.753 330.964 282.653 333.859C285.548 338.112 285.819 339.107 285.91 345.169C285.91 350.869 286.453 353.131 290.253 362.54C294.234 372.312 294.505 373.578 293.781 377.378C292.695 383.259 293.238 384.164 297.581 383.621C299.572 383.35 301.381 383.44 301.653 383.892C302.376 384.978 300.476 389.411 298.757 390.678C297.4 391.673 297.491 392.035 299.21 394.84C300.929 397.735 301.019 398.188 299.843 400.54C297.581 404.792 298.124 406.149 301.924 406.783C307.081 407.688 310.067 407.507 312.057 406.24C313.595 405.335 314.319 405.607 317.395 408.683C321.648 412.754 323.005 412.573 325.629 407.416C326.624 405.426 328.162 403.797 328.976 403.797C332.595 403.797 341.914 405.968 341.914 406.873C341.914 407.416 341.281 409.768 340.376 412.121L338.838 416.373L343.905 423.883C351.595 435.554 351.414 434.83 348.157 438.54C346.619 440.349 344.9 441.797 344.357 441.706C343.724 441.706 340.919 440.259 338.024 438.359Z" fill="#C9E5FF"/>
<path d="M317.216 405.426C314.23 402.983 313.506 402.711 311.516 403.616C309.164 404.702 302.83 405.064 301.926 404.159C301.654 403.887 301.835 402.259 302.378 400.54C303.011 398.549 303.011 396.83 302.468 395.473C301.835 394.026 302.016 392.126 303.192 388.597C305.545 381.359 305.545 381.178 300.387 381.178H295.954L296.407 376.383C296.859 372.13 296.407 370.502 292.697 361.816C289.349 353.854 288.535 351.05 288.535 346.707C288.535 341.821 288.897 340.735 292.788 334.945C295.773 330.421 297.221 327.254 297.583 324.359L298.035 320.107L304.821 318.026C312.964 315.493 313.687 314.95 312.149 312.055C310.34 308.797 311.154 307.893 317.216 305.54L322.825 303.459L325.087 306.445C326.897 308.888 328.164 309.521 331.873 310.064C336.668 310.697 338.659 312.507 341.916 319.021C342.64 320.469 344.268 322.007 345.535 322.459C346.802 323.002 348.611 324.088 349.606 324.993C353.044 328.069 363.63 333.407 365.44 332.954C367.701 332.321 367.701 333.769 365.53 340.012L363.901 344.535L358.744 344.807C353.316 345.078 349.606 343.54 345.987 339.559C345.082 338.564 343.816 337.75 343.092 337.75C340.83 337.75 331.964 344.264 331.964 345.892C331.964 348.697 336.668 358.469 338.206 358.921C344.359 360.73 353.044 362.178 356.573 361.997C358.925 361.907 361.187 362.088 361.459 362.359C361.82 362.721 361.006 364.802 359.649 367.064C357.387 370.954 357.206 371.045 354.582 370.14C353.044 369.597 350.963 369.416 349.787 369.688C347.435 370.321 338.297 378.735 338.297 380.273C338.297 380.907 336.487 385.792 334.135 391.13C330.878 398.911 329.611 400.992 328.073 401.264C326.897 401.354 325.359 402.802 324.273 404.883C323.278 406.783 322.102 408.321 321.559 408.23C321.106 408.23 319.116 406.964 317.216 405.426Z" fill="#C9E5FF"/>
<path d="M188.288 376.021C187.835 375.116 187.111 372.944 186.749 371.225C186.388 369.416 184.669 364.259 182.859 359.645C180.054 352.316 179.33 351.14 177.159 350.687C175.621 350.416 174.083 349.059 172.816 346.707C171.369 344.083 170.102 343.087 167.931 342.635L164.945 342.092L165.035 334.221C165.035 329.154 164.673 325.716 163.95 324.902C163.316 324.178 159.697 322.821 155.897 321.826C149.654 320.288 148.84 319.835 147.573 317.211C146.488 314.859 146.397 313.773 147.212 312.145C147.754 311.059 148.388 308.526 148.478 306.535C148.75 303.007 148.931 302.826 155.535 299.478C159.245 297.669 162.773 296.131 163.316 296.131C163.769 296.131 165.85 297.759 167.84 299.84C169.74 301.831 174.173 305.992 177.521 308.978C183.13 313.954 184.397 314.678 191.635 316.578C197.788 318.207 200.411 319.473 203.126 321.826C205.026 323.635 208.373 325.716 210.635 326.44C212.987 327.254 215.34 328.249 216.064 328.521C219.592 330.33 233.706 361.273 231.535 362.63C230.359 363.354 211.992 366.43 204.211 367.245C197.516 367.878 195.616 369.235 193.988 374.211C192.902 377.559 189.645 378.554 188.288 376.021Z" fill="#C9E5FF"/>
<path d="M232.527 354.759C230.717 348.878 223.841 334.764 221.308 331.597C220.584 330.692 220.946 330.24 222.484 329.878C224.384 329.335 224.474 329.064 223.841 323.002C223.117 315.312 223.298 315.131 232.074 315.131C238.136 315.131 238.679 315.312 243.293 318.75C246.008 320.74 248.36 322.369 248.541 322.369C248.722 322.369 250.984 320.559 253.608 318.297L258.403 314.226L260.393 316.94C262.655 320.107 264.103 320.288 266.365 317.845C268.446 315.492 269.712 315.493 272.427 318.116C273.874 319.473 275.05 322.007 275.865 325.716L277.041 331.326L270.346 338.835C262.384 347.702 263.289 346.978 255.96 350.145C252.341 351.683 248.631 354.126 246.37 356.478C244.017 358.83 241.755 360.368 240.489 360.368C239.312 360.368 237.503 360.549 236.508 360.821C234.879 361.273 234.336 360.549 232.527 354.759Z" fill="#C9E5FF"/>
<path d="M284.011 331.326C281.93 328.34 279.94 326.168 279.487 326.44C278.763 326.892 276.773 321.554 276.773 319.021C276.773 317.845 271.073 313.321 269.535 313.321C268.902 313.321 267.363 314.135 266.097 315.13L263.654 317.03L261.664 314.497C260.487 313.049 259.583 311.511 259.583 310.968C259.583 310.426 258.587 309.069 257.502 307.983C256.325 306.897 254.878 304.364 254.244 302.373C253.34 299.207 252.887 298.845 250.264 298.845C246.916 298.754 246.011 298.302 243.93 295.045C242.664 292.964 241.668 292.511 237.687 292.331C234.34 292.15 232.802 291.607 232.621 290.702C232.44 289.707 233.164 289.254 234.883 289.254C236.33 289.254 239.406 289.164 241.759 289.073L246.192 288.892L245.83 285.092L245.559 281.292L250.535 279.664C253.249 278.759 259.221 276.859 263.835 275.412L272.068 272.788L275.325 274.959C277.497 276.497 279.216 276.95 280.754 276.588C283.106 276.045 283.287 276.407 285.459 288.35C286.182 292.33 289.078 299.388 290.254 300.111C290.706 300.383 294.597 299.388 298.939 297.94C303.282 296.402 307.263 295.497 307.625 295.678C309.254 296.673 308.349 299.75 305.725 302.735C302.378 306.535 302.378 307.53 305.273 308.254C308.168 308.978 310.52 313.321 308.439 314.045C307.716 314.316 304.639 315.402 301.654 316.397L296.225 318.297L295.773 322.459C295.411 325.173 294.144 328.43 291.882 331.778C290.073 334.492 288.354 336.845 288.082 336.845C287.901 336.845 286.001 334.402 284.011 331.326Z" fill="#C9E5FF"/>
<path d="M214.977 325.535C212.534 324.811 208.915 323.183 206.924 321.826L203.215 319.473L208.462 314.769L213.8 310.064L212.624 304.635C211.991 301.65 211.629 297.669 211.81 295.678L212.081 292.059L216.967 291.788C221.4 291.516 221.853 291.245 222.758 288.802C223.3 287.354 224.205 286.178 224.748 286.178C226.829 286.178 229.634 288.983 229.905 291.335C230.086 292.692 230.81 293.869 231.534 293.959C241.577 295.316 241.486 295.316 242.843 297.94C244.019 300.111 244.834 300.654 247.457 300.654C250.262 300.654 250.805 301.016 252.072 304.002C252.796 305.902 254.334 308.345 255.329 309.521L257.319 311.602L253.067 315.673L248.724 319.745L243.929 316.035C239.405 312.688 238.681 312.416 233.253 312.416C230.086 312.416 225.924 312.869 223.934 313.411L220.496 314.316L221.039 320.559C221.762 327.616 222.034 327.435 214.977 325.535Z" fill="#C9E5FF"/>
<path d="M345.986 319.835C345.444 319.474 343.634 316.94 342.006 314.226C340.377 311.421 338.929 309.159 338.839 308.978C338.658 308.888 336.396 308.345 333.682 307.893C329.882 307.169 328.253 306.264 326.263 304.002C324.001 301.378 320.744 295.226 321.287 294.683C321.468 294.593 323.096 293.869 324.996 293.055C326.806 292.331 328.344 291.155 328.344 290.431C328.344 289.797 329.972 285.817 331.963 281.745C334.225 277.04 335.582 272.969 335.582 270.798C335.582 265.369 336.577 261.931 338.748 259.669C339.834 258.583 341.372 256.412 342.096 254.964C343.363 252.612 343.363 251.888 342.187 248.631C341.01 245.102 341.01 244.922 343.001 243.293C346.439 240.579 352.501 234.788 353.225 233.703C353.496 233.16 351.505 230.355 348.701 227.46C343.725 222.122 343.634 222.031 343.906 217.236C344.177 212.622 344.358 212.441 346.801 212.079C348.248 211.988 350.782 212.079 352.501 212.35C355.034 212.893 355.939 213.707 357.567 217.236C359.558 221.307 359.739 221.488 367.067 223.66L374.486 225.831L383.534 224.203C393.577 222.303 394.843 222.484 407.329 227.007C411.129 228.364 414.296 230.083 414.296 230.717C414.296 231.35 413.481 233.431 412.486 235.241C411.491 237.141 410.677 239.674 410.677 241.031C410.677 245.193 397.558 259.94 392.129 261.75L388.782 262.836L389.234 267.088C389.505 269.44 390.41 272.788 391.315 274.598C392.762 277.674 392.762 278.036 391.405 280.207C390.591 281.474 389.867 283.645 389.867 285.183C389.867 287.626 389.415 287.988 384.71 289.707C378.92 291.878 377.201 293.507 377.201 296.855C377.201 299.026 377.11 299.026 371.772 298.483L366.434 297.85L364.172 302.374L361.82 306.897L356.663 307.169L351.415 307.44L350.058 313.683C348.701 319.835 347.796 321.193 345.986 319.835Z" fill="#C9E5FF"/>
<path d="M192.81 314.407C184.577 312.054 184.034 311.692 175.891 304.273C171.277 300.021 167.205 295.95 166.934 295.316C166.572 294.593 167.024 293.597 167.748 293.054C168.924 292.15 169.105 290.159 168.924 281.202L168.653 270.436L171.096 269.531C174.624 268.264 184.577 274.869 188.648 281.293C192.358 286.993 192.81 287.354 194.981 285.726C196.429 284.731 197.334 284.821 201.677 286.721C209.186 290.069 209.548 290.702 210.091 300.926L210.453 309.702L206.291 313.321C204.029 315.311 201.948 316.85 201.677 316.85C201.405 316.85 197.424 315.673 192.81 314.407Z" fill="#C9E5FF"/>
<path d="M308.256 304.002C309.795 302.374 310.247 300.745 310.247 297.217C310.247 291.517 310.156 291.517 299.571 294.955C292.152 297.398 291.971 297.397 290.704 295.678C288.985 293.326 289.076 291.607 291.338 285.726C292.604 282.198 293.69 280.75 294.866 280.75C297.128 280.75 298.214 279.121 298.937 274.417C299.842 268.898 300.204 268.536 304.276 268.536C307.714 268.536 307.985 268.264 312.056 261.75C317.033 253.969 316.58 254.06 326.533 258.855L333.318 262.202L333.047 268.536C332.866 272.517 332.233 275.864 331.237 277.583C330.333 279.031 328.704 282.469 327.618 285.274C325.899 289.436 324.994 290.431 321.918 291.788C318.661 293.145 318.299 293.598 318.842 295.407C320.561 300.745 320.109 301.74 314.318 303.912C307.261 306.717 305.723 306.717 308.256 304.002Z" fill="#C9E5FF"/>
<path d="M203.67 285.002C198.06 282.288 195.889 281.655 195.165 282.378C193.446 284.007 192.994 283.735 190.37 279.302C188.741 276.497 186.027 273.874 181.775 271.069L175.441 266.907L178.879 263.198C180.779 261.117 183.675 257.859 185.394 255.959C190.008 250.893 191.094 250.531 196.341 252.25L200.775 253.698V260.031C200.775 265.369 201.227 266.997 203.579 271.25C205.117 273.964 206.656 276.407 207.108 276.588C207.47 276.859 210.727 275.593 214.255 273.874C217.875 272.155 220.951 270.797 221.132 270.797C221.313 270.797 222.308 272.426 223.303 274.416L225.203 278.035L222.489 283.464L219.775 288.893L215.432 288.802C212.356 288.712 209.098 287.716 203.67 285.002Z" fill="#C9E5FF"/>
<path d="M228.73 285.274C226.106 283.102 225.925 282.65 226.739 280.117C227.373 278.488 227.373 276.86 226.92 276.136C225.563 273.964 226.016 273.06 229.092 271.702C231.716 270.436 231.987 269.893 232.259 265.641C232.53 261.026 232.62 260.845 235.697 260.303C237.416 259.941 241.035 260.302 243.93 261.026L249.177 262.293L250.806 267.179C251.62 269.893 252.616 272.788 252.887 273.693C253.249 274.869 252.163 275.864 248.092 277.764C243.116 280.117 242.844 280.479 243.116 283.193C243.387 286.54 243.025 286.721 236.33 287.264C232.259 287.626 231.263 287.355 228.73 285.274Z" fill="#C9E5FF"/>
<path d="M287.268 285.093C286.997 284.459 285.73 277.583 284.373 269.983C282.926 262.293 281.297 255.507 280.754 254.964C279.578 253.788 265.373 250.35 263.292 250.802C262.569 250.893 260.85 251.888 259.492 252.883C258.045 253.969 256.778 254.602 256.597 254.421C256.416 254.24 255.964 252.16 255.692 249.898C255.24 246.188 255.421 245.555 258.407 242.479C260.307 240.398 262.116 239.221 263.111 239.493C263.926 239.674 265.554 240.126 266.64 240.488C268.178 240.941 269.807 240.398 272.34 238.588C274.24 237.231 275.869 235.783 275.869 235.422C275.869 234.969 273.697 232.888 270.983 230.807C268.269 228.636 266.007 226.464 266.007 225.831C265.916 225.288 267.907 223.569 270.259 222.031C274.15 219.498 275.416 219.226 281.116 219.226H287.63V213.436C287.63 208.55 287.992 207.464 289.892 205.655C291.159 204.479 292.154 202.941 292.154 202.307C292.154 201.584 293.059 199.322 294.054 197.241C295.592 194.346 295.773 193.169 294.959 191.903C294.054 190.455 294.687 189.912 300.297 187.107C303.735 185.388 306.992 183.941 307.445 183.941C307.897 183.941 308.983 185.027 309.797 186.384C311.335 188.646 311.335 189.098 309.887 194.707C308.711 199.05 307.445 201.584 305.002 204.026L301.745 207.464L302.74 212.169C304.549 220.945 306.721 227.369 307.897 227.369C308.53 227.369 311.154 225.469 313.778 223.298C316.402 221.036 318.573 219.226 318.664 219.226C318.754 219.226 321.921 220.041 325.63 221.036C329.34 222.031 334.497 222.845 336.94 222.845C341.282 222.936 341.644 223.117 345.987 228.002L350.511 233.069L344.178 238.86L337.935 244.65L339.383 248.631C340.83 252.521 340.83 252.521 338.116 256.231C336.668 258.221 335.221 259.94 335.04 259.94C334.768 259.94 332.687 258.945 330.244 257.679C322.373 253.698 316.402 251.707 315.135 252.793C314.502 253.245 312.33 256.502 310.34 259.94C306.63 266.093 306.54 266.183 302.378 266.455L298.035 266.726L296.859 272.336C295.864 276.769 295.23 278.036 293.964 278.036C291.973 278.036 290.707 279.483 289.892 282.74C289.168 285.636 287.811 286.812 287.268 285.093Z" fill="#C9E5FF"/>
<path d="M255.692 274.688C255.511 274.236 254.334 270.798 253.249 266.907C251.982 262.564 250.625 259.76 249.72 259.579C248.906 259.307 245.92 258.674 243.025 258.131L237.777 257.046L238.049 251.979L238.32 247.003L242.392 245.826C245.83 244.741 246.734 244.831 248.453 245.917C249.539 246.641 251.077 247.274 251.711 247.274C252.615 247.274 253.249 248.903 253.611 252.703C254.334 259.036 255.149 259.307 260.487 255.507L264.106 252.884L271.525 254.603C275.596 255.598 279.125 256.503 279.215 256.684C279.396 256.774 280.12 260.303 280.844 264.464C282.02 271.16 282.02 272.245 280.844 273.422C279.668 274.598 279.215 274.507 276.953 272.788C275.506 271.793 273.787 270.798 273.063 270.617C271.977 270.436 262.025 273.15 257.411 274.96C256.777 275.231 255.963 275.05 255.692 274.688Z" fill="#C9E5FF"/>
<path d="M205.297 269.169C203.85 266.274 202.945 262.745 202.583 258.131L202.131 251.436L196.612 249.807C191.093 248.179 187.383 244.922 188.378 242.388C188.65 241.846 194.621 238.769 201.678 235.512C211.721 230.898 214.797 229.088 215.792 227.098C217.331 224.293 217.15 224.293 221.673 225.65C224.84 226.555 225.292 226.465 227.735 224.474C229.997 222.574 231.716 222.122 238.049 221.669C242.302 221.398 246.554 220.674 247.64 219.95C249.449 218.865 250.083 219.046 253.792 221.036C256.054 222.303 261.121 225.922 265.102 229.088C272.159 234.607 272.249 234.879 270.711 236.598C269.173 238.226 266.006 238.317 261.935 236.779C261.211 236.507 258.768 238.317 256.416 240.85L252.164 245.374L249.721 243.565C247.459 241.845 247.188 241.845 241.488 243.384L235.607 245.012L235.335 251.165C235.064 257.045 234.973 257.317 232.44 258.222C229.907 259.126 229.726 259.488 229.726 263.922C229.726 268.083 229.454 268.807 227.373 269.893C225.292 271.069 224.93 270.979 223.845 269.622C222.397 267.541 221.764 267.631 215.069 270.798C211.992 272.245 208.916 273.512 208.464 273.512C207.921 273.512 206.473 271.522 205.297 269.169Z" fill="#C9E5FF"/>
<path d="M155 173.25C151.719 173.254 148.574 174.559 146.254 176.879C143.934 179.199 142.629 182.344 142.625 185.625C142.625 196.214 153.875 204.211 154.355 204.546C154.544 204.679 154.769 204.75 155 204.75C155.231 204.75 155.456 204.679 155.645 204.546C156.125 204.211 167.375 196.214 167.375 185.625C167.371 182.344 166.066 179.199 163.746 176.879C161.426 174.559 158.281 173.254 155 173.25ZM155 181.125C155.89 181.125 156.76 181.389 157.5 181.883C158.24 182.378 158.817 183.081 159.157 183.903C159.498 184.725 159.587 185.63 159.414 186.503C159.24 187.376 158.811 188.178 158.182 188.807C157.553 189.436 156.751 189.865 155.878 190.039C155.005 190.212 154.1 190.123 153.278 189.782C152.456 189.442 151.753 188.865 151.258 188.125C150.764 187.385 150.5 186.515 150.5 185.625C150.5 184.432 150.974 183.287 151.818 182.443C152.662 181.599 153.807 181.125 155 181.125Z" fill="#349FEC"/>
<path d="M194 197.25C190.719 197.254 187.574 198.559 185.254 200.879C182.934 203.199 181.629 206.344 181.625 209.625C181.625 220.214 192.875 228.211 193.355 228.546C193.544 228.679 193.769 228.75 194 228.75C194.231 228.75 194.456 228.679 194.645 228.546C195.125 228.211 206.375 220.214 206.375 209.625C206.371 206.344 205.066 203.199 202.746 200.879C200.426 198.559 197.281 197.254 194 197.25ZM194 205.125C194.89 205.125 195.76 205.389 196.5 205.883C197.24 206.378 197.817 207.081 198.157 207.903C198.498 208.725 198.587 209.63 198.414 210.503C198.24 211.376 197.811 212.178 197.182 212.807C196.553 213.436 195.751 213.865 194.878 214.039C194.005 214.212 193.1 214.123 192.278 213.782C191.456 213.442 190.753 212.865 190.258 212.125C189.764 211.385 189.5 210.515 189.5 209.625C189.5 208.432 189.974 207.287 190.818 206.443C191.662 205.599 192.807 205.125 194 205.125Z" fill="#349FEC"/>
<path d="M182 165.25C178.719 165.254 175.574 166.559 173.254 168.879C170.934 171.199 169.629 174.344 169.625 177.625C169.625 188.214 180.875 196.211 181.355 196.546C181.544 196.679 181.769 196.75 182 196.75C182.231 196.75 182.456 196.679 182.645 196.546C183.125 196.211 194.375 188.214 194.375 177.625C194.371 174.344 193.066 171.199 190.746 168.879C188.426 166.559 185.281 165.254 182 165.25ZM182 173.125C182.89 173.125 183.76 173.389 184.5 173.883C185.24 174.378 185.817 175.081 186.157 175.903C186.498 176.725 186.587 177.63 186.414 178.503C186.24 179.376 185.811 180.178 185.182 180.807C184.553 181.436 183.751 181.865 182.878 182.039C182.005 182.212 181.1 182.123 180.278 181.782C179.456 181.442 178.753 180.865 178.258 180.125C177.764 179.385 177.5 178.515 177.5 177.625C177.5 176.432 177.974 175.287 178.818 174.443C179.662 173.599 180.807 173.125 182 173.125Z" fill="#349FEC"/>
<path d="M220 237.25C216.719 237.254 213.574 238.559 211.254 240.879C208.934 243.199 207.629 246.344 207.625 249.625C207.625 260.214 218.875 268.211 219.355 268.546C219.544 268.679 219.769 268.75 220 268.75C220.231 268.75 220.456 268.679 220.645 268.546C221.125 268.211 232.375 260.214 232.375 249.625C232.371 246.344 231.066 243.199 228.746 240.879C226.426 238.559 223.281 237.254 220 237.25ZM220 245.125C220.89 245.125 221.76 245.389 222.5 245.883C223.24 246.378 223.817 247.081 224.157 247.903C224.498 248.725 224.587 249.63 224.414 250.503C224.24 251.376 223.811 252.178 223.182 252.807C222.553 253.436 221.751 253.865 220.878 254.039C220.005 254.212 219.1 254.123 218.278 253.782C217.456 253.442 216.753 252.865 216.258 252.125C215.764 251.385 215.5 250.515 215.5 249.625C215.5 248.432 215.974 247.287 216.818 246.443C217.662 245.599 218.807 245.125 220 245.125Z" fill="#349FEC"/>
<path d="M224 206.25C220.719 206.254 217.574 207.559 215.254 209.879C212.934 212.199 211.629 215.344 211.625 218.625C211.625 229.214 222.875 237.211 223.355 237.546C223.544 237.679 223.769 237.75 224 237.75C224.231 237.75 224.456 237.679 224.645 237.546C225.125 237.211 236.375 229.214 236.375 218.625C236.371 215.344 235.066 212.199 232.746 209.879C230.426 207.559 227.281 206.254 224 206.25ZM224 214.125C224.89 214.125 225.76 214.389 226.5 214.883C227.24 215.378 227.817 216.081 228.157 216.903C228.498 217.725 228.587 218.63 228.414 219.503C228.24 220.376 227.811 221.178 227.182 221.807C226.553 222.436 225.751 222.865 224.878 223.039C224.005 223.212 223.1 223.123 222.278 222.782C221.456 222.442 220.753 221.865 220.258 221.125C219.764 220.385 219.5 219.515 219.5 218.625C219.5 217.432 219.974 216.287 220.818 215.443C221.662 214.599 222.807 214.125 224 214.125Z" fill="#349FEC"/>
<path d="M188 232.25C184.719 232.254 181.574 233.559 179.254 235.879C176.934 238.199 175.629 241.344 175.625 244.625C175.625 255.214 186.875 263.211 187.355 263.546C187.544 263.679 187.769 263.75 188 263.75C188.231 263.75 188.456 263.679 188.645 263.546C189.125 263.211 200.375 255.214 200.375 244.625C200.371 241.344 199.066 238.199 196.746 235.879C194.426 233.559 191.281 232.254 188 232.25ZM188 240.125C188.89 240.125 189.76 240.389 190.5 240.883C191.24 241.378 191.817 242.081 192.157 242.903C192.498 243.725 192.587 244.63 192.414 245.503C192.24 246.376 191.811 247.178 191.182 247.807C190.553 248.436 189.751 248.865 188.878 249.039C188.005 249.212 187.1 249.123 186.278 248.782C185.456 248.442 184.753 247.865 184.258 247.125C183.764 246.385 183.5 245.515 183.5 244.625C183.5 243.432 183.974 242.287 184.818 241.443C185.662 240.599 186.807 240.125 188 240.125Z" fill="#349FEC"/>
<path d="M244 185.25C240.719 185.254 237.574 186.559 235.254 188.879C232.934 191.199 231.629 194.344 231.625 197.625C231.625 208.214 242.875 216.211 243.355 216.546C243.544 216.679 243.769 216.75 244 216.75C244.231 216.75 244.456 216.679 244.645 216.546C245.125 216.211 256.375 208.214 256.375 197.625C256.371 194.344 255.066 191.199 252.746 188.879C250.426 186.559 247.281 185.254 244 185.25ZM244 193.125C244.89 193.125 245.76 193.389 246.5 193.883C247.24 194.378 247.817 195.081 248.157 195.903C248.498 196.725 248.587 197.63 248.414 198.503C248.24 199.376 247.811 200.178 247.182 200.807C246.553 201.436 245.751 201.865 244.878 202.039C244.005 202.212 243.1 202.123 242.278 201.782C241.456 201.442 240.753 200.865 240.258 200.125C239.764 199.385 239.5 198.515 239.5 197.625C239.5 196.432 239.974 195.287 240.818 194.443C241.662 193.599 242.807 193.125 244 193.125Z" fill="#349FEC"/>
<path d="M294 200.25C290.719 200.254 287.574 201.559 285.254 203.879C282.934 206.199 281.629 209.344 281.625 212.625C281.625 223.214 292.875 231.211 293.355 231.546C293.544 231.679 293.769 231.75 294 231.75C294.231 231.75 294.456 231.679 294.645 231.546C295.125 231.211 306.375 223.214 306.375 212.625C306.371 209.344 305.066 206.199 302.746 203.879C300.426 201.559 297.281 200.254 294 200.25ZM294 208.125C294.89 208.125 295.76 208.389 296.5 208.883C297.24 209.378 297.817 210.081 298.157 210.903C298.498 211.725 298.587 212.63 298.414 213.503C298.24 214.376 297.811 215.178 297.182 215.807C296.553 216.436 295.751 216.865 294.878 217.039C294.005 217.212 293.1 217.123 292.278 216.782C291.456 216.442 290.753 215.865 290.258 215.125C289.764 214.385 289.5 213.515 289.5 212.625C289.5 211.432 289.974 210.287 290.818 209.443C291.662 208.599 292.807 208.125 294 208.125Z" fill="#349FEC"/>
<path d="M251 319.25C247.719 319.254 244.574 320.559 242.254 322.879C239.934 325.199 238.629 328.344 238.625 331.625C238.625 342.214 249.875 350.211 250.355 350.546C250.544 350.679 250.769 350.75 251 350.75C251.231 350.75 251.456 350.679 251.645 350.546C252.125 350.211 263.375 342.214 263.375 331.625C263.371 328.344 262.066 325.199 259.746 322.879C257.426 320.559 254.281 319.254 251 319.25ZM251 327.125C251.89 327.125 252.76 327.389 253.5 327.883C254.24 328.378 254.817 329.081 255.157 329.903C255.498 330.725 255.587 331.63 255.414 332.503C255.24 333.376 254.811 334.178 254.182 334.807C253.553 335.436 252.751 335.865 251.878 336.039C251.005 336.212 250.1 336.123 249.278 335.782C248.456 335.442 247.753 334.865 247.258 334.125C246.764 333.385 246.5 332.515 246.5 331.625C246.5 330.432 246.974 329.287 247.818 328.443C248.662 327.599 249.807 327.125 251 327.125Z" fill="#349FEC"/>
<path d="M228 301.25C224.719 301.254 221.574 302.559 219.254 304.879C216.934 307.199 215.629 310.344 215.625 313.625C215.625 324.214 226.875 332.211 227.355 332.546C227.544 332.679 227.769 332.75 228 332.75C228.231 332.75 228.456 332.679 228.645 332.546C229.125 332.211 240.375 324.214 240.375 313.625C240.371 310.344 239.066 307.199 236.746 304.879C234.426 302.559 231.281 301.254 228 301.25ZM228 309.125C228.89 309.125 229.76 309.389 230.5 309.883C231.24 310.378 231.817 311.081 232.157 311.903C232.498 312.725 232.587 313.63 232.414 314.503C232.24 315.376 231.811 316.178 231.182 316.807C230.553 317.436 229.751 317.865 228.878 318.039C228.005 318.212 227.1 318.123 226.278 317.782C225.456 317.442 224.753 316.865 224.258 316.125C223.764 315.385 223.5 314.515 223.5 313.625C223.5 312.432 223.974 311.287 224.818 310.443C225.662 309.599 226.807 309.125 228 309.125Z" fill="#349FEC"/>
</svg>
